<svg width="457" height="399" viewBox="0 0 457 399" fill="none" xmlns="http://www.w3.org/2000/svg">
<g filter="url(#filter0_d_475_1182)">
<path d="M0 236C0 131.618 84.6182 47 189 47C293.382 47 378 131.618 378 236V247C378 330.947 309.947 399 226 399H0V236Z" fill="#565656"/>
</g>
<path d="M327.345 147.691C347.788 170.58 409.203 272.454 413.988 275.497C413.988 275.497 413.988 342.125 379.783 328.82C345.577 315.515 314.224 195.98 307.53 157.874C304.002 137.754 310.647 129.015 327.345 147.691Z" fill="#A2746E"/>
<path d="M322.138 226.453L384.821 218.779C384.821 218.779 345.94 163.258 325.847 143.438C304.896 122.785 294.626 125.685 304.34 164.806C314.103 204.161 322.138 226.453 322.138 226.453Z" fill="#084F72"/>
<path d="M319.189 189.699C318.5 191.56 318.061 193.518 317.885 195.512C320.071 192.259 321.433 188.449 321.835 184.458C320.717 186.054 319.825 187.82 319.189 189.699ZM354.397 191.22C352.673 190.478 350.858 190.005 349.009 189.816C352.025 192.172 355.561 193.639 359.267 194.069C357.785 192.862 356.144 191.902 354.397 191.22ZM345.058 217.466C344.32 215.631 343.344 213.919 342.158 212.381C342.435 214.356 342.972 216.278 343.753 218.09C344.467 219.936 345.436 221.655 346.628 223.188C346.358 221.211 345.829 219.284 345.058 217.466ZM308.279 132.929C307.965 132.214 307.651 131.512 307.288 130.809C306.858 130.764 306.425 130.764 305.995 130.809C306.285 131.759 306.612 132.669 306.974 133.58C307.7 135.422 308.673 137.14 309.862 138.678C309.59 136.691 309.057 134.755 308.279 132.929ZM380.519 212.706L379.311 213.226C377.601 214.018 376.003 215.064 374.563 216.334C376.405 216.04 378.199 215.467 379.891 214.631C380.374 214.396 380.846 214.149 381.317 213.876L380.519 212.706ZM332.19 159.11C330.484 159.897 328.89 160.939 327.454 162.205C329.296 161.92 331.091 161.351 332.782 160.514C334.49 159.725 336.084 158.678 337.518 157.406C335.667 157.692 333.864 158.266 332.166 159.11H332.19ZM327.985 159.227C327.914 159.279 327.845 159.335 327.78 159.396H327.997C327.997 159.396 327.961 159.266 327.961 159.227H327.985Z" fill="white"/>
<path d="M325.146 214.318C326.608 213.954 328.143 213.811 329.629 213.59L334.244 212.901C337.349 212.433 340.467 212.016 343.584 211.6C349.818 210.82 356.053 210.001 362.299 209.337C364.015 209.155 365.743 208.973 367.458 208.83C369.174 208.687 371.083 208.687 372.896 208.544C373.004 208.544 373.004 208.713 372.896 208.726C371.361 208.973 369.839 209.35 368.304 209.61C366.77 209.87 365.139 210.105 363.556 210.313C360.451 210.742 357.321 211.132 354.204 211.509C348.066 212.224 341.916 212.979 335.754 213.564L330.607 214.032C328.807 214.201 326.983 214.487 325.17 214.474C325.156 214.469 325.144 214.459 325.134 214.447C325.125 214.435 325.118 214.42 325.116 214.404C325.114 214.388 325.115 214.372 325.12 214.357C325.126 214.342 325.134 214.329 325.146 214.318Z" fill="#263238"/>
<path opacity="0.1" d="M352.549 222.733L322.15 226.453C322.15 226.453 314.115 204.161 304.34 164.806C300.22 148.211 299.701 138.131 302.069 133.592L352.549 222.733Z" fill="black"/>
<path d="M339.524 365.223H244.182C243.397 361.919 242.636 358.72 241.875 355.468C241.005 351.788 240.147 348.198 239.325 344.7C239.144 343.919 238.951 343.139 238.769 342.372C238.141 339.693 237.525 337.092 236.921 334.568C236.558 333.021 236.196 331.499 235.845 329.99C235.495 328.482 235.121 326.947 234.77 325.478C234.673 325.087 234.589 324.697 234.492 324.32L234.202 323.019L233.84 321.498C233.707 320.965 233.586 320.444 233.465 319.924C233.224 318.936 232.994 317.96 232.777 317.011C232.438 315.606 232.112 314.228 231.798 312.888C231.665 312.303 231.52 311.718 231.387 311.145C231.157 310.209 230.94 309.299 230.735 308.401C230.59 307.803 230.457 307.218 230.324 306.645C229.76 304.287 229.236 302.076 228.753 300.013C228.62 299.466 228.499 298.933 228.366 298.413C228.161 297.515 227.956 296.657 227.762 295.812C227.625 295.291 227.505 294.784 227.4 294.29C226.977 292.521 226.59 290.909 226.264 289.491C226.167 289.114 226.083 288.75 225.998 288.398C225.781 287.462 225.575 286.63 225.406 285.888C225.334 285.589 225.273 285.303 225.201 285.043L225.008 284.224C225.008 284.042 224.923 283.86 224.887 283.703L224.718 283.001C224.718 282.888 224.693 282.784 224.645 282.689L224.428 281.766H317.232C317.232 281.766 320.289 293.107 325.182 311.392C326.173 315.112 327.248 319.196 328.396 323.397C331.646 335.596 335.44 349.824 339.524 365.223Z" fill="#37474F"/>
<path d="M259.793 365.223H257.376C253.848 349.503 250.429 333.753 247.118 317.973C246.313 314.132 245.507 310.291 244.702 306.45L244.484 305.371C244.48 305.333 244.489 305.296 244.509 305.265C244.528 305.234 244.558 305.211 244.592 305.202C244.626 305.192 244.661 305.196 244.693 305.213C244.724 305.23 244.749 305.258 244.762 305.293C244.762 305.41 244.823 305.527 244.859 305.644C245.93 309.771 246.997 313.903 248.061 318.038C252.145 333.723 256.055 349.451 259.793 365.223Z" fill="#263238"/>
<path d="M314.224 281.779L310.128 303.888L306.769 321.992L301.054 352.841L300.462 356.002L299.483 361.269L298.722 365.223H244.17C243.397 361.906 242.624 358.72 241.875 355.468C241.005 351.788 240.147 348.198 239.325 344.7C239.144 343.919 238.951 343.139 238.769 342.372C238.141 339.693 237.525 337.092 236.921 334.568C236.558 333.021 236.196 331.499 235.845 329.99C235.495 328.482 235.121 326.947 234.77 325.478C234.673 325.087 234.589 324.697 234.492 324.32L234.202 323.019L233.84 321.498C233.707 320.965 233.586 320.444 233.465 319.924C233.224 318.936 232.994 317.96 232.777 317.011C232.438 315.606 232.112 314.228 231.798 312.888C231.653 312.29 231.52 311.718 231.387 311.145C231.157 310.209 230.94 309.299 230.735 308.401C230.59 307.803 230.457 307.218 230.324 306.645C229.76 304.287 229.236 302.076 228.753 300.013C228.62 299.466 228.499 298.933 228.366 298.413C228.161 297.515 227.956 296.657 227.762 295.812C227.625 295.291 227.505 294.784 227.4 294.29C226.977 292.521 226.59 290.909 226.264 289.491C226.167 289.114 226.083 288.75 225.998 288.398C225.781 287.462 225.575 286.63 225.406 285.888C225.334 285.589 225.273 285.303 225.201 285.043L225.008 284.224C225.008 284.042 224.923 283.86 224.887 283.703L224.718 283.001C224.718 282.888 224.693 282.784 224.645 282.689L224.428 281.766L314.224 281.779Z" fill="#263238"/>
<path d="M314.236 281.74C314.236 282.286 313.849 288.242 312.955 297.346C312.701 299.948 312.399 302.913 312.049 306.034C311.505 310.963 310.841 316.439 309.995 322.148C308.569 332.175 306.708 343.113 304.292 353.804C303.434 357.706 302.492 361.464 301.489 365.197H181.692C183.106 345.545 184.399 327.767 185.426 313.76C186.864 294.043 187.842 281.701 187.842 281.701H296.511L314.236 281.74Z" fill="#37474F"/>
<path d="M313.982 293.588C313.849 298.205 313.668 302.809 313.39 307.4C313.1 312.381 312.677 317.349 312.073 322.317C312.073 322.499 312.073 322.681 312.013 322.863C311.449 327.519 310.8 332.162 310.067 336.792C309.379 341.11 308.859 345.766 307.095 349.798C306.425 351.344 305.471 352.729 304.292 353.869C303.213 354.932 301.891 355.667 300.462 356.002C300.228 356.065 299.989 356.108 299.749 356.132H299.544C299.588 356.159 299.624 356.199 299.647 356.247C299.671 356.296 299.681 356.35 299.676 356.405C299.676 357.952 299.676 359.526 299.507 361.061C299.507 361.126 299.507 361.191 299.507 361.256C299.362 362.556 299.133 363.922 298.903 365.249H296.849V365.171C297.212 363.714 297.514 362.244 297.852 360.775C298.19 359.305 298.674 357.809 299 356.288C299.018 356.231 299.052 356.181 299.097 356.145C297.793 356.212 296.501 355.848 295.395 355.102C294.289 354.355 293.422 353.262 292.91 351.97C292.395 349.992 292.362 347.905 292.814 345.909C293.188 343.308 293.551 340.629 293.925 337.989C294.626 333.138 295.532 328.339 296.342 323.514L296.704 321.316C298.311 311.496 299.991 301.677 302.008 291.949C302.081 291.546 302.165 291.143 302.25 290.739C302.335 290.336 302.709 290.544 302.685 290.804C302.625 291.455 302.564 292.105 302.492 292.768C302.137 296.505 301.735 300.225 301.283 303.927C300.703 308.284 300.305 312.667 299.737 317.024C299.544 318.506 299.35 319.989 299.145 321.472C298.215 328.638 297.248 335.778 296.112 342.944C295.581 346.26 293.696 352.204 298.094 353.231C299.11 353.474 300.172 353.332 301.102 352.828C303.06 351.558 304.524 349.566 305.222 347.223C306.31 343.319 307.098 339.326 307.578 335.284C308.303 330.948 308.948 326.574 309.512 322.161C310.236 316.69 310.994 311.223 311.783 305.761C312.178 302.978 312.58 300.195 312.991 297.411L313.571 293.51C313.583 293.236 313.982 293.315 313.982 293.588Z" fill="#263238"/>
<path d="M207.971 327.871C212.96 327.815 217.924 327.094 222.748 325.725C224.971 325.113 227.17 324.346 229.357 323.579C231.524 322.935 233.552 321.839 235.326 320.353C238.685 317.232 240.243 312.329 241.705 307.959C243.292 303.039 244.58 298.012 245.56 292.911C245.56 292.664 245.946 292.755 245.958 292.989C246.074 298.758 245.394 304.513 243.941 310.066C242.732 314.787 241.113 320.041 237.573 323.345C234.033 326.648 228.801 328.053 224.029 328.677C218.677 329.347 213.268 329.268 207.935 328.443C207.865 328.438 207.799 328.403 207.753 328.345C207.706 328.288 207.683 328.213 207.688 328.137C207.692 328.061 207.725 327.991 207.778 327.941C207.831 327.891 207.901 327.865 207.971 327.871Z" fill="#263238"/>
<path d="M199.647 293.067C199.381 300.281 199.099 307.504 198.801 314.735C198.116 331.564 197.363 348.393 196.541 365.223H194.294C195.325 348.359 196.409 331.503 197.544 314.657C198.036 307.452 198.543 300.251 199.067 293.054C199.068 292.972 199.1 292.893 199.156 292.836C199.211 292.778 199.286 292.747 199.363 292.749C199.44 292.75 199.513 292.785 199.566 292.845C199.619 292.905 199.648 292.985 199.647 293.067Z" fill="#263238"/>
<path d="M334.86 335.154L172.341 321.888C172.341 321.888 205.035 182.403 269.591 131.121C286.096 118.025 304.159 126.426 312.29 136.22C332.951 161.164 335.344 334.594 334.86 335.154Z" fill="#084F72"/>
<path d="M277.107 137.468C276.425 139.327 275.986 141.28 275.802 143.269C276.914 141.68 277.809 139.928 278.46 138.066C279.142 136.207 279.581 134.255 279.765 132.266C278.657 133.857 277.762 135.609 277.107 137.468ZM259.466 212.719C258.772 214.577 258.336 216.536 258.174 218.532C260.35 215.274 261.707 211.466 262.112 207.477C261.003 209.08 260.112 210.845 259.466 212.719ZM201.399 244.986C200.711 246.848 200.272 248.805 200.094 250.799C202.281 247.546 203.642 243.736 204.045 239.744C202.945 241.353 202.054 243.117 201.399 244.986ZM248.266 292.521C247.565 294.374 247.125 296.329 246.961 298.322C249.138 295.064 250.495 291.256 250.9 287.267C249.792 288.873 248.905 290.643 248.266 292.521ZM319.19 189.673C318.501 191.534 318.061 193.492 317.885 195.486C320.071 192.233 321.433 188.423 321.836 184.431C320.715 186.036 319.823 187.811 319.19 189.699V189.673ZM290.264 284.289C289.562 286.142 289.118 288.096 288.947 290.089C290.058 288.502 290.949 286.749 291.593 284.887C292.281 283.029 292.72 281.077 292.898 279.086C291.791 280.674 290.904 282.427 290.264 284.289ZM231.701 186.135C231.012 187.992 230.573 189.945 230.396 191.936C232.586 188.686 233.945 184.874 234.335 180.881C233.222 182.484 232.335 184.254 231.701 186.135ZM296.632 161.164C294.909 160.415 293.093 159.942 291.243 159.76C292.72 160.948 294.348 161.903 296.076 162.595C297.802 163.347 299.622 163.82 301.477 164C299.997 162.808 298.365 161.853 296.632 161.164ZM315.045 223.864C313.322 223.118 311.506 222.645 309.657 222.46C311.13 223.654 312.759 224.609 314.489 225.295C316.213 226.045 318.028 226.523 319.878 226.713C318.402 225.533 316.774 224.591 315.045 223.917V223.864ZM319.987 298.803C318.262 298.061 316.447 297.588 314.598 297.398C316.072 298.596 317.7 299.556 319.431 300.247C321.157 300.985 322.971 301.458 324.82 301.651C323.338 300.481 321.711 299.54 319.987 298.855V298.803ZM204.298 292.638C202.574 291.895 200.759 291.422 198.91 291.234C201.926 293.59 205.462 295.056 209.168 295.486C207.677 294.309 206.037 293.367 204.298 292.69V292.638ZM246.115 244.517C244.391 243.772 242.576 243.294 240.727 243.1C242.203 244.296 243.83 245.26 245.56 245.961C247.287 246.695 249.1 247.168 250.948 247.366C249.47 246.186 247.842 245.24 246.115 244.556V244.517ZM308.279 132.89C308.11 132.5 307.941 132.123 307.76 131.746C307.168 131.264 306.551 130.796 305.887 130.341C306.186 131.431 306.549 132.5 306.974 133.54C307.7 135.383 308.673 137.1 309.862 138.639C309.587 136.665 309.054 134.743 308.279 132.929V132.89ZM260.783 173.338C260.055 171.497 259.082 169.78 257.896 168.239C258.477 172.207 260.019 175.939 262.366 179.06C262.1 177.08 261.567 175.152 260.783 173.338ZM302.721 327.233C301.992 325.395 301.024 323.679 299.846 322.135C300.113 324.113 300.642 326.04 301.416 327.857C302.105 329.568 302.994 331.176 304.062 332.644H304.256C303.977 330.773 303.461 328.952 302.721 327.233ZM287.292 236.597C286.557 234.76 285.585 233.044 284.404 231.499C285.005 235.457 286.54 239.183 288.863 242.319C288.595 240.341 288.066 238.414 287.292 236.597ZM176.594 305.709C176.521 305.982 176.449 306.255 176.364 306.515C176.521 306.697 176.666 306.892 176.811 307.074C176.763 306.628 176.69 306.185 176.594 305.748V305.709ZM224.923 271.01C224.19 269.176 223.217 267.464 222.035 265.925C222.619 269.887 224.161 273.614 226.506 276.732C226.218 274.765 225.673 272.852 224.887 271.049L224.923 271.01ZM235.29 321.082C234.557 319.243 233.584 317.527 232.402 315.983C233 319.949 234.54 323.681 236.872 326.817C236.588 324.849 236.043 322.935 235.253 321.134L235.29 321.082ZM316.568 260.839C314.861 261.632 313.267 262.678 311.831 263.948C313.67 263.656 315.46 263.082 317.148 262.244C318.861 261.46 320.461 260.413 321.896 259.136C320.039 259.433 318.231 260.02 316.531 260.879L316.568 260.839ZM188.374 268.435L187.758 270.23C189.061 269.553 190.279 268.7 191.382 267.693C190.345 267.839 189.325 268.101 188.338 268.474L188.374 268.435ZM271.235 311.769C269.526 312.552 267.931 313.594 266.498 314.865C268.34 314.575 270.134 314.006 271.827 313.174C273.533 312.377 275.128 311.327 276.563 310.053C274.704 310.348 272.896 310.939 271.198 311.808L271.235 311.769ZM197.134 323.371L196.3 323.8L199.139 324.034C200.326 323.389 201.437 322.594 202.45 321.667C200.598 321.972 198.796 322.558 197.097 323.41L197.134 323.371ZM225.6 216.425C223.898 217.226 222.304 218.272 220.863 219.534C224.546 218.893 228.013 217.24 230.928 214.735C229.071 215.028 227.264 215.61 225.563 216.464L225.6 216.425ZM267.26 266.237C265.551 267.031 263.957 268.082 262.523 269.358C266.209 268.721 269.678 267.063 272.588 264.546C270.732 264.844 268.926 265.427 267.223 266.276L267.26 266.237ZM289.008 197.762C287.304 198.559 285.71 199.605 284.272 200.871C287.954 200.242 291.419 198.588 294.324 196.071C292.46 196.366 290.645 196.949 288.935 197.801L289.008 197.762Z" fill="white"/>
<path d="M303.084 165.365C293.708 163.87 284.187 143.503 282.544 129.613C282.435 128.65 297.043 98.6464 299.326 92.3907C299.797 91.0901 332.371 117.57 332.371 117.57C332.371 117.57 323.914 129.171 319.963 140.134C319.685 141.045 312.145 166.796 303.084 165.365Z" fill="#A2746E"/>
<path d="M332.42 117.57C332.42 117.57 323.962 129.171 319.999 140.121C319.926 140.342 319.443 141.955 318.646 144.257C301.9 135.153 295.073 118.896 292.318 108.167C295.484 101.339 298.432 94.9268 299.374 92.3907C299.846 91.1032 332.42 117.57 332.42 117.57Z" fill="#263238"/>
<path d="M306.853 43.6586C297.32 55.5327 287.787 98.3603 293.237 111.522C301.151 130.588 322.234 142.046 339.295 129.86C355.884 118.038 367.386 61.9835 360.535 49.134C350.459 30.1978 320.917 26.127 306.853 43.6586Z" fill="#A2746E"/>
<path d="M332.323 78.4487C331.115 78.5527 329.907 78.4487 328.698 78.4487C327.416 78.6367 326.111 78.3623 324.989 77.6684C324.676 77.3757 324.461 76.98 324.378 76.5427C324.295 76.1053 324.349 75.6507 324.53 75.2493C325.002 74.5159 325.647 73.9315 326.399 73.5565C327.151 73.1815 327.982 73.0296 328.807 73.1164C330.501 73.0091 332.172 73.5839 333.495 74.7291C333.775 75.0128 333.973 75.3772 334.066 75.7788C334.159 76.1804 334.143 76.6023 334.019 76.9943C333.896 77.3862 333.67 77.7317 333.37 77.9896C333.069 78.2474 332.706 78.4068 332.323 78.4487Z" fill="#263238"/>
<path d="M331.26 84.7303C331.26 84.6132 331.018 84.8213 330.994 84.9514C330.547 87.8776 329.568 91.1551 326.946 91.5973C326.862 91.5973 326.838 91.7533 326.946 91.7663C330.003 91.9484 331.26 87.5915 331.26 84.7303Z" fill="#263238"/>
<path d="M329.399 81.1668C325.11 79.8663 323.032 89.2173 326.983 90.4008C330.933 91.5843 332.987 82.2463 329.399 81.1668Z" fill="#263238"/>
<path d="M346.846 88.3329C346.846 88.2289 347.027 88.528 347.003 88.6451C346.278 91.5063 345.892 94.9268 348.103 96.4484C348.175 96.4484 348.103 96.6435 348.042 96.6045C345.179 95.46 345.734 90.934 346.846 88.3329Z" fill="#263238"/>
<path d="M349.915 85.94C354.313 86.6943 352.585 96.0973 348.513 95.395C344.442 94.6927 346.23 85.3027 349.915 85.94Z" fill="#263238"/>
<path d="M354.373 81.3099C353.263 80.7546 352.182 80.1337 351.135 79.4501C349.907 78.9617 348.866 78.0464 348.175 76.849C348.024 76.4305 348.006 75.9698 348.124 75.5391C348.242 75.1084 348.489 74.732 348.828 74.4689C350.314 73.4285 352.029 73.9097 353.552 74.7161C355.104 75.477 356.339 76.8299 357.019 78.5137C357.162 78.9096 357.194 79.342 357.111 79.7573C357.028 80.1726 356.834 80.5525 356.552 80.8501C356.271 81.1477 355.914 81.3499 355.527 81.4316C355.14 81.5133 354.739 81.471 354.373 81.3099Z" fill="#263238"/>
<path d="M322.27 109.766C322.754 110.612 323.189 111.704 324.143 112.042C325.151 112.276 326.193 112.276 327.2 112.042C327.22 112.04 327.241 112.045 327.258 112.056C327.276 112.068 327.29 112.085 327.298 112.105C327.306 112.125 327.308 112.148 327.303 112.169C327.299 112.191 327.288 112.21 327.273 112.224C326.764 112.692 326.147 113.003 325.488 113.124C324.829 113.246 324.151 113.173 323.527 112.914C323.012 112.622 322.59 112.171 322.315 111.62C322.04 111.069 321.923 110.441 321.98 109.818C321.98 109.649 322.198 109.636 322.27 109.766Z" fill="#263238"/>
<path d="M327.007 101.846C327.438 103.163 328.116 104.37 329 105.393C329.883 106.415 330.953 107.231 332.142 107.789C333.175 108.291 334.269 108.633 335.392 108.804C335.602 108.855 335.817 108.881 336.032 108.882C336.237 108.896 336.443 108.896 336.648 108.882C336.798 108.892 336.946 108.847 337.069 108.755C337.191 108.663 337.282 108.529 337.325 108.375C337.331 108.271 337.331 108.166 337.325 108.062V107.802C337.869 105.591 338.425 102.158 338.425 102.158C339.089 102.756 342.52 105.617 342.726 104.434C344.333 94.6797 346.109 83.833 345.795 73.7536C345.795 73.6812 345.768 73.6117 345.721 73.5605C345.673 73.5093 345.608 73.4805 345.541 73.4805C345.474 73.4805 345.409 73.5093 345.362 73.5605C345.314 73.6117 345.287 73.6812 345.287 73.7536C343.403 83.0657 343.052 92.6768 341.288 102.067C340.106 101.022 338.792 100.164 337.385 99.5178C337.071 99.5178 336.431 106.177 336.105 107.139C336.108 107.174 336.108 107.209 336.105 107.243C332.48 106.827 330.16 105.019 327.345 101.651C327.164 101.43 326.898 101.573 327.007 101.846Z" fill="#263238"/>
<path d="M334.425 107.36C332.936 108.653 331.164 109.513 329.278 109.857C328.246 110.012 327.194 109.816 326.27 109.298C324.264 108.14 324.675 106.008 325.472 104.291C325.906 103.386 326.438 102.539 327.055 101.768C328.894 104.432 331.477 106.392 334.425 107.36Z" fill="#263238"/>
<path d="M329.278 109.857C328.246 110.012 327.194 109.816 326.27 109.298C324.264 108.14 324.675 106.007 325.472 104.291C327.72 105.136 329.617 107.412 329.278 109.857Z" fill="#FF97B8"/>
<path d="M364.184 65.8072C347.269 73.4285 330.16 52.3464 330.16 52.3464C328.222 55.546 325.375 57.9861 322.044 59.3031C318.713 60.6202 315.076 60.7438 311.674 59.6556C311.674 59.6556 303.555 86.018 296.934 84.4313C286.869 82.1163 290.893 44.582 295.448 38.0532C300.003 31.5244 308.944 31.5504 308.944 31.5504C308.944 31.5504 310.647 26.075 317.872 22.3424C325.847 18.2066 348.078 31.1732 348.078 31.1732C350.096 28.0582 352.766 25.4967 355.871 23.695C356.621 23.2414 357.449 22.9564 358.304 22.8572C359.159 22.758 360.024 22.8467 360.846 23.1178C361.669 23.389 362.431 23.837 363.088 24.4347C363.745 25.0324 364.282 25.7675 364.667 26.5953C363.017 28.3043 361.749 30.3944 360.958 32.7079C358.24 40.3552 364.245 41.6948 365.586 34.5027C366.168 31.8335 365.843 29.0279 364.667 26.5953C368.534 22.5635 373.669 22.1213 376.122 25.2947C380.628 31.1082 378.26 59.4865 364.184 65.8072Z" fill="#263238"/>
<path d="M322.693 99.2056C320.612 98.4873 318.76 97.1544 317.348 95.3586C315.936 93.5627 315.02 91.3762 314.706 89.0479C314.392 86.7196 314.692 84.3432 315.571 82.1891C316.45 80.0351 317.873 78.19 319.679 76.864C321.484 75.538 323.599 74.7844 325.783 74.6889C327.967 74.5934 330.132 75.16 332.031 76.324C333.931 77.4881 335.488 79.2028 336.527 81.273C337.565 83.3432 338.043 85.6857 337.905 88.0338C337.791 89.9406 337.274 91.7943 336.395 93.4541C335.516 95.114 334.297 96.5364 332.83 97.6133C331.364 98.6902 329.689 99.3933 327.933 99.6692C326.176 99.9451 324.384 99.7865 322.693 99.2056ZM329.363 76.901C328.579 76.6278 327.768 76.4575 326.946 76.3938C324.371 76.197 321.823 77.0654 319.822 78.8218C317.821 80.5781 316.519 83.09 316.179 85.845C315.84 88.6 316.491 91.3904 317.998 93.647C319.504 95.9036 321.754 97.4562 324.289 97.9881C326.823 98.52 329.45 97.9911 331.634 96.5093C333.818 95.0275 335.395 92.7044 336.042 90.0142C336.689 87.3239 336.359 84.4691 335.117 82.0322C333.876 79.5954 331.818 77.7602 329.363 76.901Z" fill="#084F72"/>
<path d="M348.441 104.46C344.26 102.769 342.086 96.6565 343.608 90.2707C344.257 87.2156 345.783 84.458 347.97 82.3893C348.853 81.4306 349.953 80.7352 351.161 80.3709C352.368 80.0067 353.644 79.986 354.861 80.3111C356.079 80.6361 357.197 81.2957 358.107 82.2253C359.017 83.1549 359.687 84.3228 360.052 85.6147C361.076 88.5492 361.224 91.7544 360.475 94.7836C358.928 101.495 353.89 105.955 349.238 104.707C348.966 104.651 348.699 104.568 348.441 104.46ZM354.977 82.1552L354.41 81.9731C353.433 81.7608 352.424 81.8048 351.467 82.1014C350.51 82.398 349.634 82.9384 348.912 83.6768C346.982 85.5205 345.635 87.9666 345.058 90.6739C343.717 96.5004 345.71 102.067 349.54 103.081C353.37 104.096 357.551 100.194 358.892 94.3805C359.565 91.6969 359.438 88.8538 358.53 86.2519C358.238 85.339 357.771 84.5024 357.159 83.7966C356.547 83.0908 355.803 82.5315 354.977 82.1552Z" fill="#084F72"/>
<path d="M337.265 89.3864L336.516 87.9167C338.533 86.7072 342.931 85.4587 345.142 89.2173L343.813 90.1017C341.844 86.7332 337.446 89.2693 337.265 89.3864Z" fill="#084F72"/>
<path d="M285.697 81.713L284.489 80.6726C284.948 80.0613 289.02 74.69 292.536 74.82C295.834 74.9501 315.964 81.3229 316.821 81.648L316.374 83.2607C310.599 81.4139 295.037 76.5888 292.488 76.4978C290.144 76.4067 286.797 80.2304 285.697 81.713Z" fill="#084F72"/>
<path d="M301.247 81.9862C301.247 81.9862 297.997 65.2349 291.279 65.9503C284.561 66.6656 283.426 88.2159 288.802 93.7173C289.444 94.4736 290.222 95.0822 291.088 95.5065C291.955 95.9309 292.892 96.1621 293.843 96.1864C294.795 96.2107 295.741 96.0275 296.625 95.6479C297.509 95.2683 298.313 94.7 298.988 93.9774L301.247 81.9862Z" fill="#A2746E"/>
<path d="M291.098 72.1409C291.001 72.0759 290.917 72.219 290.989 72.31C294.699 76.3157 295.266 81.8691 295.085 87.2535C294.457 84.8604 293.031 83.0397 290.131 83.729C289.986 83.729 290.023 84.0021 290.131 84.0411C291.026 84.1301 291.872 84.5176 292.553 85.1494C293.233 85.7813 293.713 86.626 293.925 87.5656C294.28 89.1339 294.478 90.7383 294.517 92.3517C294.517 92.8849 295.363 92.989 295.411 92.3517C295.405 92.3086 295.405 92.2647 295.411 92.2216C297.997 86.213 296.982 75.5744 291.098 72.1409Z" fill="#263238"/>
<path d="M384.084 199.557C387.141 190.895 458.016 206.58 455.188 219.859C444.81 268.5 415.885 311.965 408.575 321.901C398.981 334.907 379.891 332.019 372.932 324.138C362.843 312.706 381.063 208.141 384.084 199.557Z" fill="#A2746E"/>
<path d="M379.094 223.435C377.518 228.097 376.271 232.879 375.36 237.742C374.333 242.554 373.439 247.392 372.714 252.256C371.281 262.095 370.474 272.029 370.298 281.987C370.165 287.553 370.298 293.107 370.298 298.673C370.298 298.803 370.491 298.79 370.491 298.673C370.491 293.744 370.769 288.776 371.144 283.86C371.518 278.943 371.977 273.936 372.569 269.007C373.717 259.318 374.986 249.642 376.617 240.031C377.068 237.334 377.539 234.646 378.031 231.967C378.55 229.184 379.142 226.414 379.48 223.591C379.48 223.383 379.178 223.201 379.094 223.435Z" fill="#263238"/>
<path d="M366.987 62.4648C366.521 69.088 365.6 75.6652 364.232 82.1423C364.003 83.2477 363.749 84.3792 363.495 85.4977C362.481 89.9456 361.272 94.4196 359.871 98.7244C359.549 99.7649 359.21 100.792 358.856 101.807C354.567 114.279 348.9 125.009 342.52 129.561C340.9 130.73 339.181 131.732 337.385 132.552C328.24 126.811 320.603 118.659 315.192 108.864C309.781 99.0694 306.774 87.9535 306.455 76.5628L304.521 75.9906C304.824 75.4834 305.138 74.9632 305.44 74.4169C305.742 73.8707 306.116 73.1814 306.443 72.5311C306.927 55.7868 313.21 39.8425 324.059 27.8308C339.246 23.4349 357.43 29.7166 365.078 44.0618C366.939 47.6123 367.507 54.2972 366.987 62.4648Z" fill="#A2746E"/>
<path d="M335.15 75.1062C333.866 75.1778 332.58 75.1778 331.296 75.1062C329.81 75.1062 328.626 75.2233 327.357 74.2738C327.016 73.9627 326.782 73.5363 326.694 73.064C326.606 72.5917 326.67 72.1013 326.874 71.6727C327.804 69.904 329.617 69.4487 331.405 69.4097C333.199 69.2954 334.969 69.9025 336.371 71.1135C336.681 71.41 336.905 71.7979 337.013 72.2294C337.121 72.6609 337.11 73.1171 336.98 73.5417C336.85 73.9663 336.608 74.3407 336.283 74.6187C335.958 74.8967 335.564 75.0662 335.15 75.1062Z" fill="#263238"/>
<path d="M334.027 81.8301C334.027 81.7131 333.773 81.9342 333.749 82.0512C333.278 85.1596 332.238 88.6321 329.459 89.1003C329.375 89.1003 329.351 89.2693 329.459 89.2823C332.698 89.4124 334.027 84.7954 334.027 81.8301Z" fill="#263238"/>
<path d="M332.057 77.9935C327.514 76.6279 325.315 86.5122 329.52 87.7738C333.725 89.0353 335.863 79.138 332.057 77.9935Z" fill="#263238"/>
<path d="M350.543 85.5757C350.543 85.4717 350.737 85.7838 350.7 85.9138C349.927 88.9441 349.492 92.5597 351.909 94.2374C351.981 94.2374 351.909 94.4455 351.848 94.4065C348.779 93.1189 349.359 88.3329 350.543 85.5757Z" fill="#263238"/>
<path d="M353.793 83.0396C358.445 83.846 356.609 93.8083 352.295 93.067C347.982 92.3257 349.891 82.3633 353.793 83.0396Z" fill="#263238"/>
<path d="M358.505 78.1366C357.297 77.5773 356.246 76.836 355.086 76.1727C353.791 75.6609 352.687 74.7061 351.945 73.4545C351.786 73.013 351.768 72.5274 351.892 72.0734C352.017 71.6194 352.278 71.2225 352.633 70.9445C354.216 69.839 356.029 70.3462 357.636 71.2046C359.264 72.0151 360.556 73.447 361.26 75.2233C361.397 75.635 361.422 76.0803 361.331 76.5066C361.241 76.9329 361.039 77.3223 360.749 77.6287C360.459 77.9352 360.094 78.1459 359.696 78.2359C359.299 78.3259 358.885 78.2914 358.505 78.1366Z" fill="#263238"/>
<path d="M324.506 108.284C325.025 109.168 325.484 110.325 326.499 110.69C327.562 110.943 328.663 110.943 329.725 110.69C329.747 110.689 329.768 110.695 329.786 110.707C329.804 110.719 329.818 110.736 329.827 110.757C329.836 110.778 329.84 110.801 329.836 110.824C329.833 110.846 329.824 110.868 329.81 110.885C329.27 111.382 328.616 111.712 327.916 111.84C327.216 111.968 326.497 111.89 325.835 111.613C325.292 111.302 324.847 110.824 324.557 110.241C324.266 109.657 324.143 108.994 324.204 108.336C324.192 108.153 324.421 108.153 324.506 108.284Z" fill="#263238"/>
<path d="M329.532 99.8819C329.983 101.279 330.698 102.561 331.631 103.647C332.565 104.732 333.697 105.598 334.957 106.19C336.051 106.721 337.211 107.08 338.4 107.256C338.627 107.311 338.857 107.342 339.089 107.347C339.302 107.361 339.516 107.361 339.729 107.347C339.888 107.358 340.046 107.312 340.177 107.215C340.309 107.118 340.406 106.977 340.454 106.814C340.467 106.71 340.467 106.605 340.454 106.502V106.229C341.034 103.888 341.663 100.246 341.663 100.246C342.363 100.883 346 103.914 346.206 102.665C347.909 92.2606 349.83 80.8286 349.468 70.151C349.468 70.0751 349.44 70.0024 349.39 69.9487C349.34 69.895 349.273 69.8649 349.202 69.8649C349.132 69.8649 349.064 69.895 349.014 69.9487C348.964 70.0024 348.936 70.0751 348.936 70.151C346.931 80.0093 346.52 90.1927 344.695 100.064C343.402 98.9874 341.974 98.1118 340.454 97.4628C340.128 97.4628 339.44 104.512 339.101 105.539C339.106 105.574 339.106 105.609 339.101 105.643C335.319 105.201 332.806 103.302 329.834 99.7128C329.689 99.4527 329.411 99.5958 329.532 99.8819Z" fill="#263238"/>
<path d="M337.386 105.734C335.808 107.092 333.931 107.988 331.936 108.336C330.845 108.504 329.732 108.295 328.759 107.737C326.62 106.515 327.067 104.252 327.913 102.444C328.369 101.483 328.928 100.584 329.58 99.7648C331.523 102.601 334.258 104.693 337.386 105.734Z" fill="#263238"/>
<path d="M331.924 108.375C330.833 108.543 329.72 108.334 328.747 107.776C326.608 106.554 327.055 104.291 327.901 102.483C330.269 103.38 332.287 105.773 331.924 108.375Z" fill="#FF97B8"/>
<path d="M368.896 61.7234C368.256 62.0095 367.615 62.2566 366.987 62.4647C349.685 68.2392 332.855 47.4563 332.855 47.4563C330.811 50.8559 327.8 53.4528 324.273 54.8592C320.745 56.2656 316.889 56.4061 313.281 55.2596C311.405 61.2109 309.106 66.9981 306.406 72.5701C306.731 61.5109 309.588 50.7091 314.722 41.1235C319.857 31.538 327.11 23.465 335.839 17.6213C341.35 19.703 346.713 22.2155 351.884 25.1386C354.026 21.8395 356.857 19.1268 360.149 17.2182C360.942 16.7371 361.817 16.4344 362.722 16.3281C363.627 16.2219 364.543 16.3145 365.414 16.6002C366.285 16.8859 367.093 17.3589 367.789 17.9904C368.485 18.622 369.055 19.399 369.464 20.2745C367.72 22.0991 366.378 24.3211 365.537 26.7773C362.662 34.8668 369.017 36.2844 370.431 28.6761C371.055 25.8457 370.712 22.8679 369.464 20.2875C373.56 16.0346 378.997 15.5664 381.546 18.9869C386.307 24.9955 383.818 55.0255 368.896 61.7234Z" fill="#263238"/>
<path d="M336.624 74.2088C334.613 72.4051 332.12 71.339 329.508 71.1655C328.722 71.1106 327.932 71.1411 327.152 71.2565C325.193 71.529 323.324 72.3031 321.701 73.5138C320.078 74.7244 318.749 76.3365 317.824 78.2145C317.557 78.7397 317.331 79.2878 317.147 79.8532C316.728 81.0546 316.479 82.3175 316.41 83.5989C316.242 86.5502 316.989 89.4781 318.536 91.922C320.082 94.3658 322.34 96.1869 324.953 97.0987C325.934 97.4305 326.947 97.6357 327.973 97.71H328.747C331.709 97.716 334.574 96.5791 336.824 94.5056C339.074 92.4321 340.559 89.5592 341.01 86.4081C341.01 86.0309 341.095 85.6537 341.119 85.2636C341.143 84.8734 341.119 84.6913 341.119 84.4182C341.115 82.4651 340.71 80.5371 339.933 78.7721C339.156 77.0072 338.026 75.4489 336.624 74.2088ZM328.07 95.9282C325.472 95.7492 323.024 94.5575 321.184 92.5761C319.343 90.5946 318.237 87.9593 318.071 85.163C317.905 82.3668 318.691 79.6013 320.282 77.384C321.874 75.1667 324.161 73.6495 326.717 73.1163C327.604 72.9312 328.509 72.87 329.411 72.9343C330.298 72.9965 331.174 73.1756 332.021 73.4675C333.1 73.8408 334.115 74.3984 335.029 75.1192C336.907 76.5828 338.293 78.6638 338.976 81.0485C339.66 83.4333 339.605 85.9926 338.819 88.3408C338.034 90.6889 336.561 92.6987 334.622 94.0672C332.683 95.4358 330.384 96.0889 328.07 95.9282Z" fill="#084F72"/>
<path d="M364.45 82.7015L364.233 82.1423C363.493 80.3137 362.22 78.7937 360.608 77.8114C360.087 77.4997 359.531 77.2636 358.953 77.1091C358.111 76.8886 357.239 76.8357 356.379 76.953C354.627 77.2168 352.985 78.0259 351.655 79.281C350.656 80.197 349.792 81.2715 349.093 82.4674C348.561 83.3535 348.111 84.2946 347.752 85.2766C347.506 85.9097 347.304 86.5618 347.148 87.2275C347.105 87.3595 347.068 87.4941 347.039 87.6306C346.323 90.5796 346.398 93.6868 347.257 96.5915C347.615 97.9367 348.246 99.1795 349.105 100.23C349.964 101.28 351.029 102.112 352.223 102.665C352.476 102.769 352.73 102.847 352.996 102.925C353.997 103.17 355.032 103.197 356.043 103.005C357.053 102.813 358.018 102.405 358.88 101.807C361.957 99.6418 364.126 96.267 364.921 92.4037C365.71 89.1961 365.545 85.8032 364.45 82.7015ZM363.242 91.9745C362.692 94.5112 361.52 96.8424 359.847 98.7244C359.059 99.7127 358.044 100.461 356.903 100.895C355.762 101.328 354.536 101.432 353.346 101.196C349.287 100.116 347.172 94.2245 348.598 88.0598C349.207 85.1937 350.631 82.6028 352.67 80.6466C353.437 79.8651 354.368 79.2931 355.383 78.9785C356.399 78.664 357.469 78.6161 358.506 78.8388C358.707 78.8902 358.904 78.9553 359.098 79.0339C359.972 79.4354 360.76 80.0292 361.409 80.7772C362.058 81.5253 362.555 82.4111 362.867 83.3778C363.125 84.062 363.32 84.7721 363.447 85.4977C363.833 87.6433 363.78 89.8536 363.29 91.9745H363.242Z" fill="#084F72"/>
<path d="M340.382 86.6942L339.597 85.1335C341.735 83.8329 346.399 82.5323 348.731 86.5641L347.329 87.5005C345.239 83.8849 340.587 86.5771 340.382 86.6942Z" fill="#084F72"/>
<path d="M318.718 78.5007L318.247 80.2044L317.148 79.8533C314.429 78.9949 310.418 77.7464 306.418 76.5499L304.485 75.9776C304.787 75.4704 305.101 74.9502 305.403 74.4039L306.382 74.7031C311.215 76.1337 315.891 77.6033 317.824 78.2146L318.718 78.5007Z" fill="#084F72"/>
<g opacity="0.3">
<path d="M382.09 140.082C370.053 142.936 357.499 141.883 346.017 137.057C334.535 132.231 324.641 123.848 317.585 112.969C310.529 102.089 306.629 89.202 306.378 75.9366C306.127 62.6712 309.536 49.6235 316.174 38.4436C322.812 27.2637 332.381 18.4538 343.67 13.1279C354.96 7.80209 367.463 6.19955 379.599 8.52298C391.735 10.8464 402.958 16.9914 411.849 26.181C420.74 35.3705 426.9 47.1918 429.55 60.1498C431.31 68.7526 431.479 77.6446 430.047 86.3178C428.615 94.991 425.609 103.275 421.202 110.698C416.795 118.121 411.072 124.536 404.362 129.578C397.651 134.62 390.083 138.189 382.09 140.082Z" fill="white"/>
<path d="M314.03 106.775C321.925 122.286 335.188 133.817 350.937 138.861C366.686 143.904 383.648 142.053 398.136 133.709L314.03 106.775Z" fill="#EBEBEB"/>
<path d="M315.819 39.1065L431.012 76.0035C431.112 70.6758 430.625 65.3541 429.562 60.1497C428.357 54.179 426.385 48.4184 423.702 43.0342L338.666 15.7875C329.323 21.3293 321.456 29.3581 315.819 39.1065Z" fill="#EBEBEB"/>
<path d="M306.829 82.4023L416.549 117.517C419.164 114.138 421.466 110.492 423.424 106.632L306.588 69.2015C306.251 73.5992 306.332 78.0223 306.829 82.4023Z" fill="#EBEBEB"/>
<path d="M311.831 47.2222L430.238 85.1596C430.359 84.3532 430.468 83.5469 430.553 82.7405L312.774 45.0242C312.448 45.7395 312.121 46.4678 311.831 47.2222Z" fill="#EBEBEB"/>
<path d="M358.385 8.42631L410.943 25.2556C409.578 23.89 408.14 22.6545 406.654 21.3539L363.967 7.698C362.096 7.83757 360.232 8.08066 358.385 8.42631Z" fill="#EBEBEB"/>
</g>
<path d="M390.668 223.009L406.669 219.216L391.173 143.478L375.173 147.271L390.668 223.009Z" fill="#EBEBEB"/>
<path d="M436.364 58.537C433.417 44.1329 426.569 30.9927 416.684 20.7782C406.8 10.5637 394.324 3.73364 380.833 1.15164C367.342 -1.43037 353.444 0.351686 340.894 6.27245C328.344 12.1932 317.707 21.9868 310.328 34.4147C302.95 46.8426 299.16 61.3467 299.439 76.0929C299.718 90.8391 304.053 105.165 311.896 117.259C319.739 129.353 330.737 138.673 343.501 144.038C356.264 149.404 370.219 150.576 383.601 147.404C401.542 143.146 417.179 131.392 427.073 114.728C436.967 98.0639 440.309 77.8526 436.364 58.537ZM382.09 140.082C370.053 142.939 357.498 141.888 346.015 137.064C334.532 132.24 324.636 123.858 317.579 112.98C310.521 102.101 306.619 89.2141 306.367 75.9483C306.114 62.6825 309.521 49.6339 316.158 38.4528C322.795 27.2718 332.364 18.4604 343.653 13.1332C354.943 7.80605 367.446 6.20228 379.583 8.52475C391.719 10.8472 402.943 16.9916 411.835 26.1809C420.727 35.3701 426.887 47.1914 429.538 60.1497C431.298 68.7517 431.468 77.6428 430.036 86.3153C428.605 94.9878 425.6 103.272 421.194 110.694C416.788 118.117 411.067 124.533 404.358 129.575C397.648 134.617 390.082 138.188 382.09 140.082Z" fill="#455A64"/>
<path d="M397.278 276.303L421.479 270.568L407.753 203.42L383.54 209.155L397.278 276.303Z" fill="#263238"/>
<path d="M407.838 65.7812C407.812 65.705 407.792 65.6267 407.777 65.5471C407.487 64.4286 408.091 66.6266 407.874 65.8983C407.657 65.1699 407.342 64.1425 407.04 63.2971C405.983 60.2799 404.69 57.3649 403.174 54.5834C402.969 54.1932 402.739 53.803 402.534 53.4128C402.461 53.2828 403.065 54.3232 402.534 53.5039L402.111 52.8016C401.555 51.9042 400.987 51.0198 400.395 50.2005C399.086 48.2972 397.662 46.4898 396.13 44.7901L395.018 43.5936C394.511 43.0604 395.61 44.1789 394.91 43.4896L394.209 42.8003C393.303 41.9549 392.372 41.1355 391.406 40.3552C390.439 39.5749 389.291 38.7165 388.192 37.9752C387.684 37.637 387.177 37.3119 386.657 36.9997C385.763 36.4405 387.044 37.1948 386.379 36.8307L385.425 36.3104C382.539 34.7817 379.52 33.562 376.412 32.6689H376.255L375.916 32.5908L374.527 32.2657C373.621 32.0706 372.726 31.9015 371.808 31.7585C369.889 31.4629 367.958 31.2719 366.021 31.1862C365.483 31.1205 364.962 30.9413 364.489 30.659C364.015 30.3767 363.598 29.9967 363.261 29.5408C362.58 28.6201 362.267 27.4459 362.39 26.2766C362.513 25.1073 363.063 24.0386 363.919 23.3057C364.774 22.5728 365.865 22.2356 366.951 22.3684C379.296 22.7795 391.102 27.9114 400.25 36.8437C406.328 42.9703 411.08 50.4607 414.169 58.7842C414.876 60.6423 415.465 62.5498 415.933 64.4936C416.1 65.6556 415.833 66.8415 415.19 67.792C414.547 68.7425 413.58 69.3803 412.502 69.5658C411.425 69.7217 410.335 69.4246 409.457 68.7366C408.579 68.0485 407.982 67.0225 407.789 65.8722L407.838 65.7812Z" fill="white"/>
<path d="M409.529 78.8519C409.652 79.7071 410.007 80.5039 410.551 81.1412C411.095 81.7786 411.802 82.2279 412.583 82.4322C413.364 82.6364 414.184 82.5864 414.939 82.2885C415.694 81.9905 416.349 81.4581 416.823 80.7587C417.296 80.0593 417.566 79.2243 417.598 78.3597C417.63 77.4951 417.423 76.6397 417.003 75.9019C416.582 75.1642 415.968 74.5773 415.238 74.2157C414.508 73.8541 413.694 73.734 412.9 73.8707C411.841 74.0531 410.892 74.6794 410.26 75.6127C409.628 76.5461 409.366 77.7106 409.529 78.8519Z" fill="white"/>
<path d="M450.428 235.062C450.428 235.062 467.73 204.447 446.187 175.237C437.319 163.219 416.392 141.669 373.935 144.673C363.858 145.389 349.975 154.089 366.818 159.357C378.78 163.102 387.419 161.581 394.016 165.118C394.016 165.118 377.572 178.449 378.635 189.283C379.106 194.121 379.456 204.694 382.054 214.761C382.054 214.761 385.461 217.362 388.228 216.92C388.228 216.92 395.683 240.07 422.494 247.184L450.428 235.062Z" fill="#A2746E"/>
<path d="M437.089 171.309C430.154 168.331 415.341 162.296 401.627 161.88C386.391 161.425 356.923 164.975 356.741 177.083C356.596 185.966 367.954 185.667 367.954 185.667C367.954 185.667 356.065 189.894 357.575 197.944C358.94 205.279 367.712 204.447 367.712 204.447C367.712 204.447 360.91 208.349 363.495 215.138C366.601 223.305 380.338 213.837 390.077 219.143C392.324 220.392 437.089 171.309 437.089 171.309Z" fill="#A2746E"/>
<path d="M403.839 179.281C396.891 177.643 380.205 178.267 368.099 185.381C367.821 185.537 367.785 185.849 368.099 185.758C379.731 182.106 391.732 179.984 403.839 179.437C403.947 179.437 403.947 179.372 403.839 179.281Z" fill="#263238"/>
<path d="M402.993 195.824C396.855 195.07 379.686 196.54 367.652 204.2C367.374 204.369 367.362 204.681 367.652 204.577C379.101 200.282 390.965 197.398 403.017 195.98C403.036 195.977 403.053 195.965 403.065 195.948C403.076 195.931 403.081 195.91 403.077 195.889C403.074 195.869 403.064 195.85 403.048 195.838C403.032 195.826 403.012 195.821 402.993 195.824Z" fill="#263238"/>
<path d="M427.725 249.174C421.575 247.602 415.638 245.185 410.061 241.981C404.445 238.71 399.475 234.293 395.429 228.976C394.221 227.35 393.013 225.659 391.961 223.93C390.91 222.2 389.75 220.236 388.506 218.519C388.409 218.389 388.18 218.519 388.252 218.636C389.652 222.246 391.376 225.7 393.399 228.95C395.213 231.988 397.381 234.764 399.851 237.208C404.727 241.878 410.504 245.325 416.767 247.301C420.323 248.367 423.963 249.076 427.641 249.421C427.822 249.473 427.894 249.213 427.725 249.174Z" fill="#263238"/>
<path d="M251.359 151.202C220.235 196.189 168.293 313.434 160.657 330.68C155.474 342.385 212.297 373.208 214.701 364.702C217.794 353.804 268.601 209.936 275.717 157.484C279.608 128.728 262.125 135.634 251.359 151.202Z" fill="#A2746E"/>
<path d="M216.236 358.85C214.919 369.45 208.225 390.805 203.247 394.069C198.269 397.334 172.111 396.67 158.929 396.67C145.747 396.67 143.222 392.704 143.379 387.827C143.536 382.949 171.253 382.013 171.253 382.013C171.253 382.013 134.305 393.354 125.014 395.266C115.723 397.178 94.3248 402.939 91.1834 394.654C89.7939 390.909 95.6539 387.124 95.6539 387.124C95.6539 387.124 86.6767 389.946 85.2389 385.147C83.6199 379.672 90.7605 376.668 90.7605 376.668C90.7605 376.668 85.1422 377.877 85.0093 373.416C84.7677 363.402 119.903 358.512 119.903 358.512C119.903 358.512 93.0078 372.61 92.1137 364.468C90.9055 353.219 146.049 340.876 151.789 335.973C155.964 332.226 159.87 328.144 163.472 323.761L216.236 358.85Z" fill="#A2746E"/>
<path d="M143.573 390.245C143.479 389.555 143.54 388.85 143.75 388.19C143.961 387.529 144.314 386.932 144.781 386.448C145.728 385.514 146.815 384.758 147.995 384.211C150.432 383.096 152.96 382.225 155.546 381.61C160.742 380.192 166.07 379.191 171.374 377.708C165.906 377.62 160.45 378.275 155.135 379.659C152.42 380.329 149.804 381.406 147.366 382.858C146.104 383.605 144.998 384.623 144.116 385.85C143.683 386.471 143.405 387.201 143.31 387.971C143.215 388.741 143.305 389.524 143.573 390.245Z" fill="#263238"/>
<path d="M95.7385 387.072C99.5444 386.071 103.29 384.926 107.023 383.756C110.757 382.585 114.478 381.363 118.2 380.153L129.327 376.407C133.037 375.107 136.746 373.91 140.491 372.701C136.603 373.161 132.748 373.904 128.953 374.925C125.135 375.861 121.389 377.032 117.656 378.254C113.922 379.477 110.225 380.855 106.576 382.312C102.927 383.769 99.2423 385.303 95.7385 387.072Z" fill="#263238"/>
<path d="M131.526 362.752C127.942 362.994 124.38 363.524 120.87 364.338C117.347 365.092 113.866 366.056 110.443 367.225C107.011 368.371 103.643 369.726 100.354 371.283C97.0534 372.802 93.8594 374.575 90.7968 376.59C94.1919 375.289 97.5025 373.923 100.873 372.688C104.244 371.452 107.603 370.23 110.998 369.111C114.394 367.993 117.789 366.887 121.208 365.808C124.627 364.728 128.059 363.792 131.526 362.752Z" fill="#263238"/>
<path d="M126.089 353.284C120.317 353.784 114.63 355.096 109.174 357.185C103.665 359.149 98.4202 361.887 93.5757 365.327C99.037 363.233 104.353 361.022 109.778 359.071C115.203 357.12 120.58 355.195 126.089 353.284Z" fill="#263238"/>
<path d="M264.589 228.313L201.519 226.44C201.519 226.44 235.894 167.55 254.307 145.948C273.53 123.448 283.994 125.386 277.433 165.248C270.824 205.384 264.589 228.313 264.589 228.313Z" fill="#084F72"/>
<path d="M225.563 216.464C223.861 217.265 222.268 218.311 220.827 219.573C224.51 218.933 227.977 217.279 230.892 214.774C229.049 215.058 227.255 215.628 225.563 216.464ZM260.783 173.338C260.055 171.497 259.082 169.78 257.896 168.24C258.477 172.207 260.019 175.939 262.366 179.06C262.1 177.08 261.567 175.152 260.783 173.338ZM231.701 186.135C231.012 187.992 230.573 189.945 230.396 191.936C232.586 188.686 233.944 184.874 234.335 180.881C233.222 182.484 232.335 184.254 231.701 186.135ZM259.491 212.719C258.796 214.577 258.36 216.536 258.198 218.532C260.374 215.275 261.731 211.466 262.137 207.477C261.019 209.079 260.12 210.844 259.466 212.719H259.491ZM277.977 135.4C277.675 136.077 277.397 136.766 277.131 137.468C276.449 139.328 276.01 141.28 275.826 143.269C276.938 141.68 277.834 139.928 278.484 138.066C278.544 137.897 278.593 137.741 278.641 137.572C278.469 136.829 278.238 136.102 277.952 135.4H277.977Z" fill="white"/>
<path d="M260.638 216.503C259.14 216.269 257.606 216.269 256.107 216.191L251.456 215.918C248.33 215.753 245.193 215.619 242.044 215.515C235.761 215.307 229.49 215.073 223.219 214.982C221.492 214.982 219.764 214.982 218.036 214.982C216.308 214.982 214.411 215.177 212.599 215.19C212.49 215.19 212.502 215.372 212.599 215.372C214.145 215.476 215.692 215.723 217.251 215.827C218.809 215.931 220.428 216.035 222.023 216.1C225.165 216.23 228.306 216.347 231.447 216.425C237.622 216.581 243.808 216.764 249.982 216.777H255.225C257.026 216.777 258.85 216.881 260.663 216.711C260.711 216.672 260.735 216.516 260.638 216.503Z" fill="#263238"/>
<path d="M276.817 184.158C276.817 184.028 276.672 183.95 276.611 184.08C275.441 186.4 274.44 188.813 273.615 191.299C273.832 190.115 274.086 188.931 274.292 187.735C274.98 183.911 275.608 180.062 276.309 176.238C276.302 176.215 276.288 176.195 276.27 176.181C276.251 176.167 276.229 176.159 276.207 176.159C276.184 176.159 276.162 176.167 276.144 176.181C276.125 176.195 276.111 176.215 276.104 176.238C274.473 182.819 272.576 189.335 271.126 195.968C269.676 202.6 268.214 209.233 266.861 215.892C266.124 219.573 265.459 224.164 264.71 227.831C262.886 228.065 260.542 227.831 258.572 228.104C258.403 228.104 258.452 228.43 258.572 228.43C260.651 228.495 263.127 229.002 265.314 228.859C265.592 228.859 270.884 205.202 273.083 193.874C274.437 190.648 275.693 187.423 276.817 184.158Z" fill="#263238"/>
<path d="M321.678 147.378C320.796 150.487 319.794 153.556 318.646 156.56C317.688 159.267 316.511 161.878 315.13 164.364C312.52 168.799 308.509 172.466 303.422 172.453C298.589 172.453 294.167 169.436 291.074 165.586C287.691 161.385 285.443 156.118 283.426 151.046C282.217 147.912 281.009 144.712 280.043 141.474C279.547 139.835 279.028 138.196 278.593 136.532C278.158 134.867 277.783 133.189 277.252 131.564C277.252 131.434 276.986 131.447 277.022 131.564C277.916 135.309 280.514 147.17 281.553 150.188C283.462 155.715 285.613 161.424 289.056 166.08C292.318 170.476 296.753 173.806 302.057 174.352C307.361 174.898 311.904 171.894 314.828 167.368C316.547 164.517 317.889 161.422 318.815 158.173C319.939 154.61 320.881 150.955 321.739 147.3C321.787 147.352 321.678 147.339 321.678 147.378Z" fill="#263238"/>
<path d="M230.49 323.012C248.216 287.552 291.333 273.176 326.793 290.903V290.903C362.254 308.63 376.629 351.746 358.903 387.206L354.871 395.271C339.706 425.606 302.822 437.904 272.487 422.74L199 386.003L230.49 323.012Z" fill="#565656"/>
<defs>
<filter id="filter0_d_475_1182" x="-15" y="36" width="408" height="382" filterUnits="userSpaceOnUse" color-interpolation-filters="sRGB">
<feFlood flood-opacity="0" result="BackgroundImageFix"/>
<feColorMatrix in="SourceAlpha" type="matrix" values="0 0 0 0 0 0 0 0 0 0 0 0 0 0 0 0 0 0 127 0" result="hardAlpha"/>
<feOffset dy="4"/>
<feGaussianBlur stdDeviation="7.5"/>
<feComposite in2="hardAlpha" operator="out"/>
<feColorMatrix type="matrix" values="0 0 0 0 0.611765 0 0 0 0 0.839216 0 0 0 0 0.952941 0 0 0 1 0"/>
<feBlend mode="normal" in2="BackgroundImageFix" result="effect1_dropShadow_475_1182"/>
<feBlend mode="normal" in="SourceGraphic" in2="effect1_dropShadow_475_1182" result="shape"/>
</filter>
</defs>
</svg>
