<svg width="22" height="22" viewBox="0 0 22 22" fill="none" xmlns="http://www.w3.org/2000/svg">
<path d="M11.0001 1V9.88907M11.0001 9.88907L7.66675 6.55573M11.0001 9.88907L14.3334 6.55573" stroke="white" stroke-linecap="round" stroke-linejoin="round"/>
<path d="M21 12.1109L17.9227 2.86668C17.8484 2.64573 17.7064 2.45381 17.5168 2.31815C17.3272 2.18249 17.0998 2.10999 16.8667 2.11094H15.4443M21 12.1109V19.8891C21 20.1837 20.883 20.4663 20.6746 20.6746C20.4663 20.883 20.1837 21 19.8891 21H2.11093C1.8163 21 1.53373 20.883 1.32538 20.6746C1.11704 20.4663 1 20.1837 1 19.8891V12.1109M21 12.1109H15.4443C15.4443 13.2896 14.976 14.4201 14.1426 15.2535C13.3091 16.087 12.1787 16.5552 11 16.5552C9.82131 16.5552 8.69089 16.087 7.85743 15.2535C7.02397 14.4201 6.55573 13.2896 6.55573 12.1109H1M6.55573 2.11094H5.13333C4.89099 2.09805 4.6511 2.16498 4.45044 2.30149C4.24978 2.43799 4.09941 2.63653 4.0224 2.86668L1 12.1109" stroke="white" stroke-linecap="round" stroke-linejoin="round"/>
</svg>
