<svg width="1440" height="70" viewBox="0 0 1440 70" fill="none" xmlns="http://www.w3.org/2000/svg">
<path d="M19.1912 47.4444H0V70H1434.04V39.6667H1440L1434.04 34.3621H1394.66V13.5132L1397.99 14.2854L1399.99 11.9688L1367.33 0L1335.99 11.9688L1337.99 14.2854L1341.33 13.5132V34.3621H1299.33V22.0072L1303.33 23.1655L1306 20.8489L1263.33 10.8106L1247.33 15.4436V10.8106H1249.99V8.10791H1230.66V10.8106H1233.33V18.5324L1222.28 20.8489L1223.6 23.1655L1228 22.0072V33.2038H1210.66V37.4508L1196 30.1151L1164.66 45.1727V30.1151H1172L1166.66 25.482H1121.33V22.0072H1122.66V18.5324H1102V21.6211H1104.66V25.482H1102L1096.66 30.1151H1102.66V46.3309H1063.33V26.2542L1066 26.6403L1067.99 23.9377L1036.66 12.3549L1004.66 23.9377L1007.33 26.6403L1009.33 26.2542V46.3309H967.995V42.8561H974.662L969.995 37.8369H965.328V34.7482H967.995V32.0456H947.995V34.7482H949.995V38.223L904.662 37.8369V34.7482L909.265 35.9065L911.995 33.976L898.662 30.8873V23.1655H900.662V20.4628H881.328V23.1655H883.995V27.4125L868.662 23.1655L825.995 33.5899L828.529 35.9065L832.662 34.7482V53.6667V58.7222L802.059 43.5556L789.995 49.0336V33.2038H796.103L791.328 28.5707H745.995V24.3237H748.662V21.6211H727.995V24.3237H731.25V28.5707H726.618L723.309 33.2038H727.995V49.0336H687.995V28.5707L692.206 29.729L695.515 27.4125L660.441 14.7778L628.662 27.4125L631.995 29.729L633.995 28.5707V49.0336H592.662V45.1727H597.573L592.662 40.5396H589.328V37.4508H592.662V34.3621H570.662V37.4508H573.328V40.5396H529.995V37.4508L534.662 38.6091L536.662 36.2926L523.328 33.2038V25.8681H526.662V22.7794H505.995V25.8681H508.662V29.729L494.662 25.8681L451.985 36.2926L454.662 38.6091L458.662 37.4508V49.0336H445.995V28.9568L449.338 30.3333L451.985 28L419.328 14.6715L386.662 27.4125L389.118 30.3333L392.662 28.9568V48.2614H352.662V33.2038H358.676L354.044 27.4125H350.662V24.3237H352.662V21.6211H332.206V24.3237H334.662V27.4125H290.662L286.662 33.2038H290.662V48.2614L279.328 42.8561L247.5 59.1111V34.7482L252.132 35.9065L254.118 33.2038L212.662 24.3237L197.328 27.4125V22.7794H199.995V19.6906H179.328V22.7794H181.995V30.1151L169.328 33.2038L171.397 35.9065L176.662 34.7482V38.223H131.328V34.7482H133.328V31.6595H113.995V34.7482H115.995V38.223H111.328L107.328 42.8561H113.995V46.717H70.6618V26.2542L74.7794 27.4125L76.7647 24.8889L44.6618 12.3549L13.2353 24.8889L15.8824 27.4125L19.1912 26.2542V47.4444Z" fill="url(#paint0_radial_241_61)" fill-opacity="0.6"/>
<defs>
<radialGradient id="paint0_radial_241_61" cx="0" cy="0" r="1" gradientUnits="userSpaceOnUse" gradientTransform="translate(720 35) scale(720 630)">
<stop offset="0.5" stop-color="#9CD6F3"/>
<stop offset="0.92" stop-color="#7E878A"/>
</radialGradient>
</defs>
</svg>
