<svg width="389" height="375" viewBox="0 0 389 375" fill="none" xmlns="http://www.w3.org/2000/svg">
<path d="M219.339 -53.4357C189.587 4.61907 101.189 -18.4357 56.192 -18.4357C23.1104 17.5692 12.5128 45.2855 4.23728 93.3142C-4.03819 141.343 1.85681 190.39 21.1768 234.254C40.4968 278.118 72.3741 314.829 112.778 339.743C153.181 364.658 200.296 376.657 248.164 374.224C296.033 371.791 357.295 355.035 396.493 326.075C423.982 296.564 391.105 253.79 408.422 208.064C425.738 162.338 404.034 205.998 393.632 158.919L396.493 170.064C403.138 200.138 397.919 152.534 386.857 181.743C375.795 210.952 356.526 236.416 331.487 254.915C306.447 273.414 276.762 284.118 246.185 285.672C215.607 287.226 185.511 279.561 159.702 263.646C133.893 247.731 113.531 224.281 101.189 196.262C88.8482 168.242 85.0826 136.912 90.3688 106.232C95.655 75.5522 109.756 46.9011 130.887 23.9019C152.019 0.902726 143.501 -10.8692 173.356 -18.4357L219.339 -53.4357Z" fill="#632C94"/>
</svg>
