<svg width="372" height="354" viewBox="0 0 372 354" fill="none" xmlns="http://www.w3.org/2000/svg">
<path d="M145.794 428.64C177.615 371.694 265.126 397.915 310.094 399.535C344.45 364.744 356.039 337.427 366.037 289.727C376.036 242.027 371.91 192.799 354.181 148.269C336.452 103.738 305.917 65.9039 266.436 39.5515C226.956 13.1992 180.303 -0.488168 132.378 0.220339C84.4531 0.928849 22.6281 15.4691 -17.5877 42.9997C-46.12 71.5021 -14.8038 115.432 -33.7552 160.505C-52.7066 205.578 -29.4447 162.727 -20.744 210.151L-23.2025 198.909C-28.7604 168.616 -25.2578 216.377 -13.152 187.585C-1.04626 158.793 19.1266 134.039 44.8157 116.453C70.5047 98.8673 100.556 89.2393 131.17 88.7867C161.783 88.3341 191.584 97.0773 216.803 113.911C242.023 130.744 261.528 154.912 272.853 183.357C284.178 211.802 286.813 243.248 280.427 273.718C274.04 304.188 258.917 332.313 236.971 354.536C215.025 376.76 223.114 388.831 193.006 395.318L145.794 428.64Z" fill="#F8C304"/>
</svg>
