<svg width="1440" height="70" viewBox="0 0 1440 70" fill="none" xmlns="http://www.w3.org/2000/svg">
<path d="M11.5547 47.4444H0V70H863.414V39.6667H867L863.414 34.3621H839.703V13.5132L841.71 14.2854L842.914 11.9688L823.246 0L804.38 11.9688L805.585 14.2854L807.591 13.5132V34.3621H782.304V22.0072L784.712 23.1655L786.318 20.8489L760.629 10.8106L750.996 15.4436V10.8106H752.601V8.10791H740.961V10.8106H742.566V18.5324L735.914 20.8489L736.711 23.1655L739.355 22.0072V33.2038H728.919V37.4508L720.089 30.1151L701.223 45.1727V30.1151H705.639L702.428 25.482H675.133V22.0072H675.936V18.5324H663.493V21.6211H665.098V25.482H663.493L660.282 30.1151H663.894V46.3309H640.212V26.2542L641.818 26.6403L643.022 23.9377L624.157 12.3549L604.89 23.9377L606.496 26.6403L607.7 26.2542V46.3309H582.814V42.8561H586.828L584.018 37.8369H581.208V34.7482H582.814V32.0456H570.772V34.7482H571.976V38.223L544.682 37.8369V34.7482L547.453 35.9065L549.097 33.976L541.069 30.8873V23.1655H542.273V20.4628H530.633V23.1655H532.239V27.4125L523.007 23.1655L497.318 33.5899L498.844 35.9065L501.332 34.7482V53.6667V58.7222L482.906 43.5556L475.643 49.0336V33.2038H479.32L476.446 28.5707H449.151V24.3237H450.757V21.6211H438.314V24.3237H440.273V28.5707H437.484L435.492 33.2038H438.314V49.0336H414.23V28.5707L416.766 29.729L418.758 27.4125L397.641 14.7778L378.507 27.4125L380.514 29.729L381.718 28.5707V49.0336H356.832V45.1727H359.789L356.832 40.5396H354.825V37.4508H356.832V34.3621H343.586V37.4508H345.191V40.5396H319.101V37.4508L321.911 38.6091L323.115 36.2926L315.087 33.2038V25.8681H317.094V22.7794H304.651V25.8681H306.257V29.729L297.828 25.8681L272.133 36.2926L273.744 38.6091L276.153 37.4508V49.0336H268.526V28.9568L270.539 30.3333L272.133 28L252.471 14.6715L232.803 27.4125L234.281 30.3333L236.415 28.9568V48.2614H212.332V33.2038H215.953L213.164 27.4125H211.128V24.3237H212.332V21.6211H200.016V24.3237H201.494V27.4125H175.003L172.594 33.2038H175.003V48.2614L168.179 42.8561L149.016 59.1111V34.7482L151.805 35.9065L153 33.2038L128.04 24.3237L118.808 27.4125V22.7794H120.414V19.6906H107.971V22.7794H109.576V30.1151L101.95 33.2038L103.195 35.9065L106.365 34.7482V38.223H79.0707V34.7482H80.2748V31.6595H68.6346V34.7482H69.8387V38.223H67.029L64.6207 42.8561H68.6346V46.717H42.5443V26.2542L45.0234 27.4125L46.2188 24.8889L26.8901 12.3549L7.96875 24.8889L9.5625 27.4125L11.5547 26.2542V47.4444Z" fill="url(#paint0_radial_480_1816)"/>
<path d="M862 70V58.7222V45.1727L872.8 39.6667L879.6 46.3309L881.2 29.729V25.8681H879.6V22.7794H892V25.8681H890V33.2038L898 36.2926L896.8 38.6091L894 37.4508V40.5396H920V37.4508H918.4V34.3621H931.6V37.4508H929.6V40.5396H931.6L934.547 45.1727H931.6V49.0336H956.399V28.5707L955.2 29.729L953.2 27.4125L972.267 14.7778L993.311 27.4125L991.326 29.729L988.799 28.5707V49.0336H1012.8V33.2038H1009.99L1011.97 28.5707H1014.75V24.3237H1012.8V21.6211H1025.2V24.3237H1023.6V28.5707H1050.8L1053.66 33.2038H1050V49.0336L1057.24 43.5556L1075.6 58.7222V53.6667V34.7482L1073.12 35.9065L1071.6 33.5899L1097.2 23.1655L1106.4 27.4125V23.1655H1104.8V20.4628H1116.4V23.1655H1115.2V30.8873L1123.2 33.976L1121.56 35.9065L1118.8 34.7482V37.8369L1146 38.223V34.7482H1144.8V32.0456H1156.8V34.7482H1155.2V37.8369H1158L1160.8 42.8561H1156.8V46.3309H1181.6V26.2542L1180.4 26.6403L1178.8 23.9377L1198 12.3549L1216.8 23.9377L1215.6 26.6403L1214 26.2542V46.3309H1237.6V30.1151H1234L1237.2 25.482H1238.8V21.6211H1237.2V18.5324H1249.6V22.0072H1248.8V25.482H1276L1279.2 30.1151H1274.8V45.1727L1293.6 30.1151L1302.4 37.4508V33.2038H1312.8V22.0072L1310.16 23.1655L1309.37 20.8489L1316 18.5324V10.8106H1314.4V8.10791H1326V10.8106H1324.4V15.4436L1334 10.8106L1359.6 20.8489L1358 23.1655L1355.6 22.0072V34.3621H1380.8V13.5132L1378.8 14.2854L1377.6 11.9688L1396.4 0L1416 11.9688L1414.8 14.2854L1412.8 13.5132V34.3621H1436.43L1440 39.6667H1436.43V70H862Z" fill="url(#paint1_radial_480_1816)"/>
<defs>
<radialGradient id="paint0_radial_480_1816" cx="0" cy="0" r="1" gradientUnits="userSpaceOnUse" gradientTransform="translate(433.5 35) scale(433.5 630)">
<stop offset="0.92" stop-color="#B2B7B9"/>
</radialGradient>
<radialGradient id="paint1_radial_480_1816" cx="0" cy="0" r="1" gradientUnits="userSpaceOnUse" gradientTransform="translate(1008 35) scale(431.998 630)">
<stop offset="0.92" stop-color="#B2B7B9"/>
</radialGradient>
</defs>
</svg>
