<svg width="66" height="69" viewBox="0 0 66 69" fill="none" xmlns="http://www.w3.org/2000/svg">
<path fill-rule="evenodd" clip-rule="evenodd" d="M36.1844 18.3392V29.8212L34.4475 23.6018L23.8817 15.9471L23.0133 12.1198L28.9475 16.7445L21.8554 9.40881L20.5528 0L36.1844 18.3392ZM50.0791 23.2828L46.1712 22.1665L44.8686 18.8176L50.0791 23.2828ZM51.237 49.9146L51.6712 41.1436L55.5791 45.7683L60.5001 41.1436C63.5107 40.6333 65.4212 42.7383 66.0001 43.8546V48.3198L64.408 51.1903H62.5264L63.2501 49.8348L62.5264 50.393L60.5001 49.2767H61.5133L63.2501 47.0441V44.9709L61.5133 43.8546V46.2467L62.5264 47.0441L61.5133 48.3198L60.0659 47.0441L59.6317 45.7683L56.737 49.9146L53.2633 51.8282L53.8422 49.9146L51.6712 51.1903L51.237 49.9146ZM13.0263 8.13307L33.5789 24.5586L37.3421 36.6785L40.3816 38.911V29.8212L44.2895 25.5155L41.25 21.2097L55.4342 25.5155L58.3289 29.8212L55.4342 34.6053V31.4159L52.25 30.4591L47.3289 32.0538L49.2105 32.5322L51.2368 35.5621L50.0789 49.5956L51.2368 52.7851V54.5392L55.4342 62.8318L61.3684 65.7022V68.7322L60.5 66.6591H59.7763V67.9348L58.3289 68.7322V66.6591L53.5526 65.7022L52.25 66.6591V68.7322L50.8026 65.7022L52.25 62.8318L47.9079 56.4529L47.6184 54.8582L44.2895 59.1639H38.5L42.1184 56.4529L37.6316 56.2934L40.3816 54.8582L41.5395 52.1472L40.3816 53.2635L31.2632 50.074L31.8421 48.3199C30.1535 50.5525 25.8211 55.3047 22 56.4529H17.9474L22 62.8318C23.5921 62.8849 26.8053 63.7248 26.9211 66.6591H21.4211V65.7022L14.1842 55.4961V53.2635L17.9474 52.1472V48.3199L14.9079 50.7119L11 46.4062V38.911H11.8684C11.4342 38.3263 10.5658 36.8379 10.5658 35.5621C9.98685 37.21 8.39475 40.442 6.65791 40.1868L6.07896 44.0141L4.92107 40.5058L2.02633 42.8978L3.18423 39.7084C2.31581 40.1337 0.463181 40.729 2.28882e-05 39.7084L8.10528 32.0538H9.98685L13.0263 34.6053V45.9278L15.1974 48.3199L18.3816 45.9278V44.0141L22.7237 40.5058L29.0921 41.3031L25.3289 36.2L29.0921 37.9542L24.4605 34.6053L19.829 26.4723L26.9211 29.8212L17.9474 22.9639L13.0263 8.13307ZM51.092 26.6318L49.0657 25.356V26.6318H51.092ZM30.9739 51.0308C30.0572 52.3598 27.7318 55.1133 25.7634 55.496L33.4344 64.1075L34.3028 66.659H39.8028C39.7063 65.5427 38.7028 63.2783 35.4607 63.1507L31.2633 57.4097L30.1055 57.8881L30.9739 56.7718C31.6011 56.1871 32.9423 54.4116 33.2897 51.9877L30.9739 51.0308Z" fill="white"/>
</svg>
