<svg width="482" height="317" viewBox="0 0 482 317" fill="none" xmlns="http://www.w3.org/2000/svg">
<g opacity="0.8">
<path d="M312.759 25.8335L321.076 47.5097L315.91 47.4875L311.763 34.1631L312.759 25.8335Z" fill="#E0E0E0"/>
<path d="M284.36 5.81006L281.5 47.3395L311.02 47.962L314.338 5.81006H284.36Z" fill="#EBEBEB"/>
<path d="M287.314 9.15965L284.927 43.7156L306.873 44.768L309.943 8.95215L287.314 9.15965Z" fill="#FAFAFA"/>
<path d="M292.124 14.0435L290.348 38.3357H302.449L304.588 14.0435H292.124Z" fill="#E0E0E0"/>
<path d="M255.247 47.599V26.8047H270.193V47.5842L255.247 47.599Z" fill="#EBEBEB"/>
<path d="M263.746 26.8045C263.746 26.8045 267.348 -0.0370151 266.336 3.83276e-05C265.325 0.0370917 262.793 24.4553 262.793 24.4553C262.793 24.4553 262.676 4.23895 261.738 4.3427C260.799 4.44645 261.738 25.767 261.738 25.767C261.738 25.767 260.108 8.47045 259.235 8.88544C258.361 9.30044 259.606 26.8045 259.606 26.8045H263.746Z" fill="#E0E0E0"/>
<path d="M261.025 26.8047C261.025 26.8047 262.276 13.4284 262.676 14.3399C263.077 15.2514 262.676 22.3064 262.676 22.3064C262.676 22.3064 266.133 5.01727 267.042 5.61012C267.952 6.20297 263.499 24.374 263.499 24.374C263.499 24.374 266.875 13.999 267.617 15.0884C268.359 16.1777 264.859 25.9154 264.859 25.9154C264.859 25.9154 268.497 19.0309 268.73 19.9868C268.963 20.9428 266.999 26.8343 266.999 26.8343L261.025 26.8047Z" fill="#EBEBEB"/>
<path d="M258.893 26.8858C258.893 26.8858 250.889 10.9084 251.893 11.4049C252.897 11.9014 257.99 22.2171 257.99 22.2171C257.99 22.2171 254.607 12.2423 255.349 11.9533C256.091 11.6643 259.802 23.1434 259.802 23.1434L260.632 26.8858H258.893Z" fill="#F5F5F5"/>
<path d="M262.167 26.8416L262.538 47.6286H255.436L255.298 26.7749L262.167 26.8416Z" fill="#E0E0E0"/>
<path d="M255.262 28.6423L262.145 28.7609L270.193 28.6423L270.447 26.6562H255.065L255.262 28.6423Z" fill="#E0E0E0"/>
<path d="M344.768 47.021H240.112V52.5123H344.768V47.021Z" fill="#E0E0E0"/>
<path d="M76.0815 139.158L77.5877 312.553H10.1505V141.522L76.0815 139.158Z" fill="#F5F5F5"/>
<path d="M39.7507 140.462L40.3474 312.553H10.1505V141.522L39.7507 140.462Z" fill="#E0E0E0"/>
<path d="M73.9642 141.299V165.599H42.021V142.448L73.9642 141.299Z" fill="#E0E0E0"/>
<path d="M62.9478 147.984V151.571H53.1757V147.658L62.9478 147.984Z" fill="#F5F5F5"/>
<path d="M62.9478 154.594H52.8555V156.062H62.9478V154.594Z" fill="#F5F5F5"/>
<path d="M73.9642 226.463V250.77H42.021V227.612L73.9642 226.463Z" fill="#E0E0E0"/>
<path d="M62.9478 233.155V236.741H53.1757V232.829L62.9478 233.155Z" fill="#F5F5F5"/>
<path d="M62.9478 239.758H52.8555V241.225H62.9478V239.758Z" fill="#F5F5F5"/>
<path d="M73.9642 168.697V193.004H42.021V169.845L73.9642 168.697Z" fill="#E0E0E0"/>
<path d="M62.9478 175.381V178.975H53.1757V175.055L62.9478 175.381Z" fill="#F5F5F5"/>
<path d="M62.9478 181.991H52.8555V183.459H62.9478V181.991Z" fill="#F5F5F5"/>
<path d="M73.9642 253.86V278.16H42.021V255.009L73.9642 253.86Z" fill="#E0E0E0"/>
<path d="M62.9478 260.545V264.132H53.1757V260.219L62.9478 260.545Z" fill="#F5F5F5"/>
<path d="M62.9478 267.155H52.8555V268.623H62.9478V267.155Z" fill="#F5F5F5"/>
<path d="M74.3062 281.25V305.557H42.363V282.399L74.3062 281.25Z" fill="#E0E0E0"/>
<path d="M63.2898 287.934V291.529H53.5177V287.608L63.2898 287.934Z" fill="#F5F5F5"/>
<path d="M63.2898 294.545H53.1975V296.012H63.2898V294.545Z" fill="#F5F5F5"/>
<path d="M74.379 197.799H42.4358V222.106H74.379V197.799Z" fill="#E0E0E0"/>
<path d="M63.1515 208.752V212.123H53.9614V208.448L63.1515 208.752Z" fill="#F5F5F5"/>
<path d="M63.1514 214.961H53.6631V216.34H63.1514V214.961Z" fill="#F5F5F5"/>
<path d="M272.965 291.395V312.582H303.388H336.939V291.395H272.965Z" fill="#F5F5F5"/>
<path d="M270.28 285.474V291.395H339.173V285.474H303.388H270.28Z" fill="#E0E0E0"/>
<path d="M304.726 312.582H336.939V291.395H339.173V285.474H303.387V290.847L304.726 312.582Z" fill="#E0E0E0"/>
<path d="M294.889 294.812H281.915V297.998H294.889V294.812Z" fill="#E0E0E0"/>
<path d="M296.897 301.985H280.241V308.722H296.897V301.985Z" fill="white"/>
<path d="M355.617 264.287V285.474H386.032H419.584V264.287H355.617Z" fill="#F5F5F5"/>
<path d="M352.932 258.366V264.287H421.817V258.366H386.032H352.932Z" fill="#E0E0E0"/>
<path d="M387.378 285.474H419.583V264.287H421.817V258.366H386.032V263.738L387.378 285.474Z" fill="#E0E0E0"/>
<path d="M377.534 267.704H364.56V270.89H377.534V267.704Z" fill="#E0E0E0"/>
<path d="M379.549 274.877H362.893V281.613H379.549V274.877Z" fill="white"/>
<path d="M352.547 291.395V312.582H382.969H416.52V291.395H352.547Z" fill="#F5F5F5"/>
<path d="M349.869 285.474V291.395H418.754V285.474H382.969H349.869Z" fill="#E0E0E0"/>
<path d="M384.315 312.582H416.52V291.395H418.754V285.474H382.969V290.847L384.315 312.582Z" fill="#E0E0E0"/>
<path d="M374.47 294.812H361.496V297.998H374.47V294.812Z" fill="#E0E0E0"/>
<path d="M376.486 301.985H359.83V308.722H376.486V301.985Z" fill="white"/>
<path d="M415.618 139.069L414.112 312.456H481.542V141.433L415.618 139.069Z" fill="#F5F5F5"/>
<path d="M451.949 140.373L451.352 312.456H481.542V141.433L451.949 140.373Z" fill="#E0E0E0"/>
<path d="M417.735 141.21V165.51H449.679V142.359L417.735 141.21Z" fill="#E0E0E0"/>
<path d="M428.752 147.895V151.482H438.524V147.569L428.752 147.895Z" fill="#F5F5F5"/>
<path d="M438.844 154.505H428.752V155.973H438.844V154.505Z" fill="#F5F5F5"/>
<path d="M417.735 226.374V250.681H449.679V227.523L417.735 226.374Z" fill="#E0E0E0"/>
<path d="M428.752 233.066V236.653H438.524V232.74L428.752 233.066Z" fill="#F5F5F5"/>
<path d="M438.844 239.669H428.752V241.136H438.844V239.669Z" fill="#F5F5F5"/>
<path d="M417.735 168.608V192.915H449.679V169.757L417.735 168.608Z" fill="#E0E0E0"/>
<path d="M428.752 175.292V178.887H438.524V174.966L428.752 175.292Z" fill="#F5F5F5"/>
<path d="M438.844 181.903H428.752V183.37H438.844V181.903Z" fill="#F5F5F5"/>
<path d="M417.735 253.771V278.071H449.679V254.92L417.735 253.771Z" fill="#E0E0E0"/>
<path d="M428.752 260.455V264.042H438.524V260.129L428.752 260.455Z" fill="#F5F5F5"/>
<path d="M438.844 267.066H428.752V268.534H438.844V267.066Z" fill="#F5F5F5"/>
<path d="M417.393 281.161V305.468H449.337V282.31L417.393 281.161Z" fill="#E0E0E0"/>
<path d="M428.402 287.846V291.44H438.182V287.52L428.402 287.846Z" fill="#F5F5F5"/>
<path d="M438.495 294.456H428.402V295.923H438.495V294.456Z" fill="#F5F5F5"/>
<path d="M449.264 197.709H417.321V222.017H449.264V197.709Z" fill="#E0E0E0"/>
<path d="M428.548 208.663V212.035H437.738V208.352L428.548 208.663Z" fill="#F5F5F5"/>
<path d="M438.036 214.873H428.548V216.251H438.036V214.873Z" fill="#F5F5F5"/>
<path d="M482 312.56C482 312.664 374.092 312.753 241.015 312.753C107.937 312.753 0 312.664 0 312.56C0 312.457 107.886 312.375 241.015 312.375C374.143 312.375 482 312.449 482 312.56Z" fill="#263238"/>
<path d="M143.548 113.324L148.685 202.541C148.772 204.072 149.43 205.511 150.524 206.565C151.618 207.619 153.066 208.207 154.572 208.21L312.25 208.699C313.027 208.702 313.796 208.549 314.514 208.249C315.233 207.949 315.886 207.508 316.437 206.95C316.988 206.393 317.425 205.73 317.724 205C318.023 204.27 318.178 203.488 318.18 202.697L318.391 133.229C318.393 132.435 318.241 131.648 317.943 130.914C317.645 130.18 317.208 129.513 316.656 128.951C316.104 128.39 315.449 127.945 314.728 127.643C314.006 127.341 313.234 127.186 312.454 127.189L215.482 127.523C214.706 127.526 213.937 127.373 213.219 127.073C212.501 126.773 211.848 126.331 211.298 125.774L194.497 108.818C193.392 107.705 191.903 107.077 190.349 107.069L149.471 106.943C148.663 106.942 147.864 107.109 147.122 107.433C146.38 107.758 145.712 108.234 145.157 108.831C144.602 109.429 144.173 110.136 143.897 110.908C143.62 111.681 143.501 112.503 143.548 113.324Z" fill="#90AFBE"/>
<path opacity="0.3" d="M143.548 113.324L148.685 202.541C148.772 204.072 149.43 205.511 150.524 206.565C151.618 207.619 153.066 208.207 154.572 208.21L312.25 208.699C313.027 208.702 313.796 208.549 314.514 208.249C315.233 207.949 315.886 207.508 316.437 206.95C316.988 206.393 317.425 205.73 317.724 205C318.023 204.27 318.178 203.488 318.18 202.697L318.391 133.229C318.393 132.435 318.241 131.648 317.943 130.914C317.645 130.18 317.208 129.513 316.656 128.951C316.104 128.39 315.449 127.945 314.728 127.643C314.006 127.341 313.234 127.186 312.454 127.189L215.482 127.523C214.706 127.526 213.937 127.373 213.219 127.073C212.501 126.773 211.848 126.331 211.298 125.774L194.497 108.818C193.392 107.705 191.903 107.077 190.349 107.069L149.471 106.943C148.663 106.942 147.864 107.109 147.122 107.433C146.38 107.758 145.712 108.234 145.157 108.831C144.602 109.429 144.173 110.136 143.897 110.908C143.62 111.681 143.501 112.503 143.548 113.324Z" fill="black"/>
<path d="M197.193 73.4117L145.343 142.731L199.757 184.949L251.607 115.63L197.193 73.4117Z" fill="white"/>
<path d="M197.189 73.4028L196.949 73.7437L196.221 74.7145C195.581 75.5816 194.642 76.8414 193.427 78.494L182.855 92.7077L145.476 142.826L145.44 142.589L199.867 184.785L199.597 184.822L251.471 115.525L251.507 115.747L212.076 85.0524L201.075 76.4634L198.164 74.1958L197.189 73.4028L198.179 74.1439L201.089 76.3671L212.091 84.8672L251.703 115.488L251.827 115.584L251.733 115.718L199.91 185.06L199.794 185.215L199.641 185.097L145.243 142.856L145.112 142.752L145.214 142.611L182.796 92.5076L193.42 78.3754L196.229 74.6701L196.956 73.7215L197.189 73.4028Z" fill="#263238"/>
<path d="M198.76 78.5466L150.552 142.997L198.119 179.902L246.327 115.452L198.76 78.5466Z" fill="#263238"/>
<path d="M198.12 180.657L185.387 135.208L214.318 135.615L211.502 118.482L246.326 116.207L198.12 180.657Z" fill="#455A64"/>
<path d="M193.681 123.158C197.109 122.681 199.509 119.465 199.041 115.973C198.573 112.482 195.415 110.037 191.987 110.514C188.558 110.99 186.159 114.207 186.626 117.698C187.094 121.19 190.252 123.634 193.681 123.158Z" fill="#455A64"/>
<path d="M208.712 72.6521L204.792 169.539L323.783 174.533L327.704 77.6466L208.712 72.6521Z" fill="white"/>
<path d="M327.676 77.6265H327.108L325.449 77.5672L318.995 77.3152L294.649 76.3444L208.678 72.8244L208.853 72.6613C207.696 101.496 206.365 134.555 204.96 169.541L204.778 169.341L323.798 174.351L323.638 174.506C324.853 145.308 325.857 121.105 326.548 104.201C326.912 95.7382 327.196 89.0982 327.385 84.5777C327.487 82.3175 327.559 80.5834 327.61 79.3902C327.661 78.1971 327.698 77.6117 327.698 77.6117C327.698 77.6117 327.698 78.1971 327.647 79.3606C327.596 80.5241 327.538 82.2508 327.458 84.4962C327.283 89.0167 327.028 95.6122 326.73 104.09C326.068 121.023 325.115 145.264 323.965 174.491V174.647H323.798L204.764 169.719H204.575V169.526C205.993 134.541 207.34 101.481 208.511 72.6465V72.4761H208.678L294.75 76.1814L319.053 77.2486L325.471 77.5376L327.116 77.6117L327.676 77.6265Z" fill="#263238"/>
<path d="M212.563 78.9208L209.136 163.612L319.766 168.256L323.193 83.5644L212.563 78.9208Z" fill="#455A64"/>
<path d="M209.122 163.598L249.884 112.576L272.492 146.517L289.439 129.591L319.752 168.237L209.122 163.598Z" fill="#263238"/>
<path d="M284.034 109.136C285.088 104.351 282.134 99.6031 277.436 98.5302C272.738 97.4572 268.076 100.466 267.023 105.25C265.969 110.035 268.923 114.783 273.621 115.856C278.319 116.929 282.981 113.92 284.034 109.136Z" fill="#263238"/>
<path d="M333.439 119.275L172.253 141.877L189.323 262.108L349.185 239.172L333.439 119.275Z" fill="#EBEBEB"/>
<path d="M334.057 104.275L174.734 137.905L199.736 256.691L357.713 222.817L334.057 104.275Z" fill="#E0E0E0"/>
<path d="M319.985 90.9438L166.505 145.946L206.852 260.27L358.979 205.209L319.985 90.9438Z" fill="white"/>
<path d="M319.985 90.9438C320.407 92.174 335.418 135.964 359.124 205.157L359.175 205.305L359.03 205.357L206.954 260.448L206.772 260.515L206.714 260.33L206.416 259.5C192.059 218.793 178.445 180.205 166.396 146.005L166.337 145.835L166.497 145.783L320.028 90.9438L166.563 146.109L166.665 145.887L206.736 259.366L207.034 260.204L206.787 260.085L358.928 205.061L358.833 205.261C335.302 136.001 320.407 92.174 319.985 90.9438Z" fill="#263238"/>
<path d="M324.314 200.599C324.016 200.711 316.645 181.213 307.848 157.054C299.051 132.895 292.145 113.22 292.444 113.109C292.742 112.998 300.106 132.488 308.91 156.654C317.715 180.82 324.605 200.473 324.314 200.599Z" fill="#263238"/>
<path d="M311.202 206.698C310.911 206.81 303.533 187.312 294.736 163.161C285.939 139.009 279.041 119.319 279.332 119.208C279.623 119.097 287.001 138.594 295.806 162.753C304.61 186.912 311.501 206.587 311.202 206.698Z" fill="#263238"/>
<path d="M270.506 224.062C270.215 224.173 262.836 204.675 254.039 180.517C245.242 156.358 238.344 136.682 238.635 136.571C238.926 136.46 246.305 155.95 255.102 180.116C263.899 204.283 270.797 223.951 270.506 224.062Z" fill="#263238"/>
<path d="M283.479 218.741C283.181 218.852 275.81 199.355 267.013 175.196C258.216 151.037 251.311 131.362 251.609 131.25C251.907 131.139 259.271 150.629 268.075 174.796C276.88 198.962 283.778 218.63 283.479 218.741Z" fill="#263238"/>
<path d="M296.446 213.42C296.155 213.531 288.784 194.034 279.979 169.882C271.175 145.731 264.284 126.041 264.575 125.93C264.866 125.819 272.245 145.316 281.049 169.475C289.853 193.634 296.744 213.309 296.446 213.42Z" fill="#263238"/>
<path d="M255.48 228.464C255.189 228.575 247.811 209.077 239.014 184.918C230.216 160.76 223.318 141.084 223.609 140.973C223.901 140.862 231.279 160.352 240.083 184.518C248.888 208.684 255.778 228.352 255.48 228.464Z" fill="#263238"/>
<path d="M241.109 233.822C240.818 233.933 233.447 214.435 224.643 190.284C215.838 166.133 208.948 146.45 209.239 146.376C209.53 146.302 216.908 165.762 225.712 189.921C234.517 214.08 241.407 233.718 241.109 233.822Z" fill="#263238"/>
<path d="M226.746 239.195C226.447 239.306 219.076 219.808 210.272 195.657C201.468 171.505 194.577 151.815 194.875 151.704C195.174 151.593 202.537 171.09 211.342 195.249C220.146 219.408 227.022 239.083 226.746 239.195Z" fill="#263238"/>
<path d="M140.324 162.16L153.153 271.535C153.263 272.473 153.706 273.339 154.399 273.968C155.091 274.597 155.986 274.947 156.915 274.951L324.809 275.47C325.767 275.475 326.691 275.111 327.397 274.451C328.103 273.792 328.538 272.885 328.615 271.913L337.397 162.605C337.439 162.072 337.373 161.536 337.202 161.03C337.031 160.525 336.76 160.06 336.404 159.667C336.049 159.273 335.618 158.958 335.138 158.742C334.657 158.526 334.138 158.413 333.613 158.411L144.115 157.825C143.577 157.823 143.043 157.938 142.551 158.162C142.059 158.386 141.62 158.713 141.261 159.123C140.903 159.533 140.634 160.016 140.473 160.539C140.311 161.063 140.261 161.616 140.324 162.16Z" fill="#90AFBE"/>
<path d="M345.743 131.658L340.082 135.785L343.386 152.311L350.822 145.553L345.743 131.658Z" fill="#BF7A62"/>
<path d="M347.031 255.95L370.57 244.3L400.767 248.006C402.789 249.557 404.147 251.842 404.558 254.386C404.758 255.209 404.635 256.078 404.216 256.809C403.539 257.773 402.149 257.891 401.022 257.61C399.894 257.328 398.839 256.728 397.682 256.587C395.433 256.32 393.36 257.78 391.671 259.314C389.983 260.848 388.302 262.597 386.098 263.116C384.115 263.447 382.08 263.059 380.349 262.019C378.589 261.085 377.017 259.796 375.256 258.796C372.065 256.833 368.332 255.987 364.625 256.387C361.715 256.78 358.95 258.084 356.025 258.558C353.099 259.033 348.581 258.507 346.995 255.965" fill="#455A64"/>
<path d="M403.153 303.519C403.153 303.519 383.871 236.563 383.507 234.422C383.173 232.488 386.178 185.578 387.524 173.41L366.284 173.588V173.795L356.192 174.047L360.703 307.187L373.764 308.21L373.677 264.279C381.914 285.496 391.468 309.121 391.468 309.121L403.153 303.519Z" fill="#D89377"/>
<path d="M365.069 231.354C365.069 231.354 365.025 231.872 364.982 232.836C364.906 234.157 364.926 235.482 365.04 236.8C365.2 238.758 365.519 240.699 365.993 242.603C366.619 244.925 367.387 247.204 368.292 249.428C370.082 254.23 371.683 258.595 372.818 261.752C373.357 263.294 373.808 264.561 374.143 265.509C374.32 265.965 374.466 266.433 374.579 266.91C374.351 266.478 374.154 266.03 373.99 265.569C373.626 264.627 373.131 263.345 372.535 261.863C371.327 258.729 369.682 254.386 367.892 249.576C367.448 248.376 367.012 247.198 366.597 246.064C366.206 244.962 365.876 243.839 365.608 242.699C365.149 240.77 364.857 238.804 364.734 236.823C364.651 235.489 364.676 234.15 364.807 232.821C364.858 232.347 364.916 231.991 364.967 231.746C364.978 231.61 365.013 231.477 365.069 231.354Z" fill="#BF7A62"/>
<path d="M373.706 280.257C373.706 279.849 374.004 265.354 374.004 265.354C374.004 265.354 369.275 251.904 369.151 252.311C369.027 252.719 373.706 280.257 373.706 280.257Z" fill="#BF7A62"/>
<path d="M359.968 307.143V305.661L373.793 305.942L373.721 310.878L372.869 310.922C369.064 311.063 353.5 311.389 350.967 310.559C348.21 309.611 359.968 307.143 359.968 307.143Z" fill="#FF725E"/>
<g opacity="0.3">
<path d="M368.787 310.663C369.011 309.481 369.657 308.425 370.599 307.698C371.522 306.977 372.678 306.635 373.837 306.743L373.772 310.663H368.787Z" fill="white"/>
</g>
<path opacity="0.3" d="M354.22 308.559C354.22 308.559 350.087 309.685 350.582 310.389C351.077 311.093 366.823 311.36 373.772 310.863V310.552L355.413 310.389C355.413 310.389 355.02 308.603 354.22 308.559Z" fill="white"/>
<path d="M374.004 310.544C373.925 310.554 373.844 310.554 373.764 310.544H373.088L370.577 310.611C368.46 310.648 365.535 310.67 362.304 310.611C359.073 310.552 356.148 310.441 354.031 310.329L351.528 310.181L350.851 310.129H351.528L354.038 310.226C356.156 310.307 359.073 310.404 362.304 310.455C365.535 310.507 368.46 310.515 370.577 310.507H373.088H373.764L374.004 310.544Z" fill="#263238"/>
<path d="M355.406 310.603C355.303 310.179 355.152 309.769 354.955 309.381C354.714 309.018 354.433 308.685 354.118 308.388C354.545 308.553 354.896 308.875 355.1 309.292C355.354 309.677 355.463 310.143 355.406 310.603Z" fill="#263238"/>
<path d="M359.51 308.573C359.466 308.573 359.277 308.351 359.081 308.024C358.94 307.839 358.843 307.624 358.797 307.395C358.84 307.395 359.03 307.609 359.226 307.936C359.368 308.123 359.465 308.341 359.51 308.573Z" fill="#263238"/>
<path d="M360.63 307.995C360.63 307.995 360.39 307.876 360.15 307.654C359.91 307.432 359.757 307.224 359.786 307.187C359.815 307.15 360.034 307.306 360.267 307.528C360.499 307.75 360.667 307.928 360.63 307.995Z" fill="#263238"/>
<path d="M361.365 306.683C361.131 306.762 360.883 306.787 360.638 306.757C360.245 306.757 359.91 306.72 359.91 306.668C360.144 306.587 360.392 306.56 360.638 306.587C360.884 306.561 361.134 306.594 361.365 306.683Z" fill="#263238"/>
<path d="M361.635 305.75C361.384 305.88 361.11 305.956 360.83 305.972C360.549 305.989 360.268 305.946 360.005 305.846C360.274 305.804 360.547 305.789 360.82 305.802C361.089 305.761 361.362 305.744 361.635 305.75Z" fill="#263238"/>
<path d="M359.059 307.343C358.767 307.391 358.47 307.391 358.178 307.343C357.857 307.297 357.54 307.22 357.232 307.113C357.048 307.053 356.87 306.974 356.701 306.876C356.597 306.812 356.52 306.712 356.483 306.594C356.472 306.526 356.48 306.456 356.506 306.392C356.531 306.328 356.574 306.272 356.628 306.231C356.97 306.07 357.356 306.034 357.721 306.13C358.086 306.226 358.407 306.447 358.629 306.757C358.76 306.937 358.854 307.141 358.906 307.357C358.906 307.513 358.906 307.602 358.906 307.602C358.821 307.334 358.69 307.083 358.52 306.861C358.329 306.624 358.077 306.444 357.793 306.342C357.622 306.28 357.44 306.253 357.259 306.263C357.078 306.273 356.901 306.32 356.738 306.401C356.592 306.505 356.643 306.668 356.803 306.772C356.958 306.862 357.121 306.937 357.291 306.994C357.586 307.106 357.891 307.192 358.2 307.254C358.724 307.306 359.059 307.313 359.059 307.343Z" fill="#263238"/>
<path d="M358.833 307.38C358.722 307.19 358.688 306.964 358.739 306.75C358.771 306.515 358.858 306.291 358.993 306.097C359.068 305.967 359.174 305.858 359.301 305.78C359.428 305.702 359.573 305.659 359.721 305.653C359.811 305.674 359.889 305.73 359.939 305.809C359.989 305.888 360.008 305.983 359.99 306.075C359.964 306.218 359.909 306.354 359.83 306.475C359.714 306.674 359.569 306.854 359.401 307.009C359.124 307.283 358.899 307.387 358.891 307.365C358.884 307.342 359.073 307.209 359.321 306.927C359.464 306.763 359.591 306.584 359.699 306.394C359.823 306.201 359.91 305.86 359.699 305.816C359.488 305.771 359.248 306.016 359.11 306.194C358.981 306.364 358.892 306.562 358.848 306.772C358.824 306.973 358.819 307.177 358.833 307.38Z" fill="#263238"/>
<path d="M373.764 306.698C373.764 306.698 373.371 306.654 372.746 306.698C371.934 306.776 371.16 307.084 370.512 307.587C369.858 308.096 369.355 308.778 369.057 309.559C368.838 310.159 368.809 310.566 368.78 310.559C368.764 310.466 368.764 310.371 368.78 310.277C368.805 310.025 368.858 309.776 368.94 309.536C369.208 308.713 369.715 307.991 370.395 307.469C371.068 306.946 371.879 306.639 372.724 306.587C372.967 306.575 373.211 306.587 373.451 306.624C373.559 306.629 373.665 306.654 373.764 306.698Z" fill="#263238"/>
<path d="M367.077 309.262C366.415 309.406 365.738 309.464 365.062 309.433C364.384 309.455 363.707 309.388 363.046 309.233C363.046 309.181 363.949 309.233 365.062 309.233C366.175 309.233 367.07 309.21 367.077 309.262Z" fill="#263238"/>
<path d="M369.777 309.306C369.777 309.344 369.697 309.499 369.602 309.707C369.508 309.914 369.457 310.099 369.406 310.099C369.355 310.099 369.34 309.877 369.449 309.633C369.559 309.388 369.748 309.269 369.777 309.306Z" fill="#263238"/>
<path d="M370.817 308.032C370.817 308.069 370.759 308.21 370.614 308.358C370.468 308.507 370.323 308.588 370.293 308.559C370.264 308.529 370.352 308.381 370.497 308.232C370.643 308.084 370.781 308.003 370.817 308.032Z" fill="#263238"/>
<path d="M372.28 307.469C372.28 307.521 372.091 307.513 371.887 307.58C371.683 307.647 371.538 307.758 371.501 307.728C371.465 307.699 371.581 307.498 371.836 307.417C372.091 307.335 372.302 307.424 372.28 307.469Z" fill="#263238"/>
<path d="M373.328 307.187C373.328 307.232 373.262 307.306 373.146 307.343C373.029 307.38 372.928 307.387 372.906 307.343C372.884 307.298 372.971 307.232 373.088 307.187C373.204 307.143 373.277 307.187 373.328 307.187Z" fill="#263238"/>
<path d="M391.468 309.41L390.842 308.054L403.357 302.014L405.467 306.461L404.74 306.89C401.393 308.75 387.604 316.109 384.977 316.524C382.008 316.984 391.468 309.41 391.468 309.41Z" fill="#FF725E"/>
<g opacity="0.3">
<path d="M400.927 308.573C400.608 307.414 400.722 306.176 401.247 305.097C401.761 304.034 402.646 303.204 403.728 302.771L405.387 306.313L400.927 308.573Z" fill="white"/>
</g>
<path opacity="0.3" d="M386.935 313.308C386.935 313.308 383.74 316.199 384.49 316.591C385.239 316.984 399.45 310.085 405.46 306.483L405.307 306.209L388.797 314.405C388.797 314.405 387.677 312.99 386.935 313.308Z" fill="white"/>
<path d="M405.497 306.105C405.434 306.157 405.365 306.202 405.293 306.239L404.696 306.572L402.513 307.773C400.636 308.766 398.024 310.115 395.106 311.53C392.188 312.946 389.525 314.176 387.582 315.035L385.246 316.08L384.613 316.34L384.388 316.421C384.455 316.377 384.525 316.34 384.599 316.31L385.217 316.021L387.502 314.969C389.43 314.079 392.086 312.834 395.004 311.419C397.922 310.003 400.534 308.67 402.426 307.714L404.667 306.565L405.278 306.261C405.347 306.204 405.42 306.152 405.497 306.105Z" fill="#263238"/>
<path d="M388.892 314.598C388.621 314.259 388.308 313.958 387.96 313.701C387.585 313.487 387.187 313.315 386.774 313.19C387.229 313.153 387.681 313.285 388.048 313.561C388.45 313.783 388.752 314.154 388.892 314.598Z" fill="#263238"/>
<path d="M391.679 310.892C391.453 310.842 391.242 310.741 391.06 310.596C390.74 310.396 390.5 310.196 390.529 310.159C390.558 310.122 390.827 310.248 391.147 310.448C391.468 310.648 391.7 310.892 391.679 310.892Z" fill="#263238"/>
<path d="M392.428 309.892C392.428 309.937 392.159 309.892 391.853 309.803C391.548 309.714 391.308 309.603 391.322 309.559C391.337 309.514 391.591 309.559 391.904 309.64C392.217 309.722 392.443 309.84 392.428 309.892Z" fill="#263238"/>
<path d="M392.508 308.38C392.508 308.425 392.254 308.603 391.897 308.781C391.689 308.912 391.456 308.997 391.213 309.033C391.213 308.988 391.468 308.81 391.824 308.632C392.033 308.501 392.266 308.415 392.508 308.38Z" fill="#263238"/>
<path d="M392.334 307.432C392.334 307.432 392.115 307.765 391.708 308.002C391.476 308.169 391.199 308.26 390.915 308.262C391.144 308.102 391.387 307.966 391.642 307.854C392.013 307.632 392.297 307.395 392.334 307.432Z" fill="#263238"/>
<path d="M390.74 310.018C390.499 310.195 390.227 310.326 389.94 310.403C389.632 310.506 389.315 310.581 388.994 310.626C388.801 310.652 388.605 310.652 388.412 310.626C388.291 310.618 388.179 310.562 388.099 310.47C388.061 310.413 388.042 310.346 388.042 310.277C388.042 310.209 388.061 310.142 388.099 310.085C388.335 309.786 388.665 309.579 389.033 309.498C389.401 309.417 389.785 309.467 390.122 309.64C390.319 309.743 390.492 309.887 390.631 310.062C390.733 310.181 390.769 310.263 390.755 310.27C390.559 310.057 390.327 309.881 390.071 309.751C389.79 309.625 389.479 309.584 389.176 309.633C388.995 309.653 388.82 309.711 388.662 309.801C388.503 309.891 388.363 310.013 388.252 310.159C388.171 310.322 388.288 310.448 388.47 310.463C388.651 310.481 388.834 310.481 389.016 310.463C389.327 310.426 389.636 310.367 389.94 310.285C390.42 310.151 390.74 309.996 390.74 310.018Z" fill="#263238"/>
<path d="M390.551 310.151C390.551 310.151 390.325 310.018 390.194 309.633C390.117 309.407 390.097 309.164 390.136 308.929C390.143 308.774 390.19 308.625 390.272 308.495C390.353 308.365 390.467 308.259 390.602 308.187C390.691 308.165 390.784 308.178 390.863 308.226C390.942 308.273 391 308.349 391.024 308.439C391.071 308.577 391.083 308.725 391.06 308.869C391.041 309.102 390.992 309.331 390.915 309.551C390.862 309.758 390.757 309.947 390.609 310.099C390.609 310.099 390.704 309.877 390.798 309.514C390.857 309.301 390.894 309.083 390.907 308.862C390.907 308.632 390.864 308.291 390.645 308.35C390.427 308.41 390.333 308.728 390.282 308.951C390.236 309.161 390.236 309.378 390.282 309.588C390.35 309.786 390.441 309.974 390.551 310.151Z" fill="#263238"/>
<path d="M403.619 302.741C403.619 302.741 403.248 302.882 402.717 303.222C402.025 303.665 401.466 304.293 401.102 305.038C400.753 305.791 400.612 306.626 400.694 307.454C400.76 308.084 400.912 308.462 400.883 308.469C400.827 308.394 400.785 308.308 400.76 308.217C400.679 307.976 400.618 307.728 400.578 307.476C400.43 306.492 400.626 305.485 401.131 304.632C401.636 303.78 402.419 303.134 403.343 302.807C403.431 302.771 403.524 302.748 403.619 302.741Z" fill="#263238"/>
<path d="M398.744 308.099C398.216 308.531 397.633 308.89 397.012 309.166C396.419 309.498 395.786 309.747 395.128 309.907C395.128 309.862 395.943 309.522 396.939 309.018C397.936 308.514 398.744 308.054 398.744 308.099Z" fill="#263238"/>
<path d="M401.189 306.913C401.232 306.913 401.189 307.12 401.189 307.35C401.189 307.58 401.232 307.773 401.189 307.787C401.145 307.802 401.036 307.617 401.029 307.35C401.021 307.083 401.145 306.891 401.189 306.913Z" fill="#263238"/>
<path d="M401.56 305.298C401.604 305.298 401.56 305.483 401.56 305.683C401.56 305.883 401.4 306.024 401.356 306.009C401.313 305.995 401.356 305.824 401.4 305.624C401.444 305.424 401.516 305.283 401.56 305.298Z" fill="#263238"/>
<path d="M402.63 304.126C402.63 304.178 402.477 304.252 402.324 304.408C402.171 304.564 402.084 304.727 402.04 304.712C401.997 304.697 402.04 304.475 402.208 304.29C402.375 304.104 402.622 304.082 402.63 304.126Z" fill="#263238"/>
<path d="M403.445 303.423C403.445 303.423 403.445 303.556 403.357 303.645C403.27 303.734 403.175 303.786 403.146 303.749C403.117 303.712 403.146 303.623 403.233 303.526C403.321 303.43 403.415 303.393 403.445 303.423Z" fill="#263238"/>
<path d="M386.956 169.638C381.135 159.411 379.68 160.604 381.644 154.646L387.32 135.259L384.919 123.106C383.597 121.795 382.017 120.783 380.284 120.136C378.551 119.49 376.704 119.224 374.863 119.356L363.017 120.186C363.017 120.186 357.196 118.889 348.595 127.382L342.672 133.036L350.16 147.509L350.538 154.075L355.937 172.031L354.482 179.953C353.856 185.978 345.903 255.075 346.98 256.172C348.057 257.269 364.691 248.858 368.707 252.311C372.724 255.764 380.808 257.884 385.37 256.394C389.932 254.905 396.772 245.664 403.677 251.896C403.692 251.896 401.436 190.588 386.956 169.638Z" fill="#263238"/>
<path d="M380.437 120.193C380.437 120.193 392.806 123.536 390.951 132.51C390.056 136.956 384.14 146.131 384.14 146.131L370.155 139.394L380.437 120.193Z" fill="#263238"/>
<path d="M355.268 175.714C357.708 173.567 360.849 172.43 364.072 172.528C365.706 172.588 367.299 173.07 368.7 173.928C370.325 174.921 371.599 176.413 372.338 178.19C372.728 179.154 372.902 180.194 372.847 181.235C372.77 182.318 372.459 183.371 371.938 184.318C370.941 186.267 369.369 187.89 368.3 189.876C367.23 191.862 367.165 194.137 367.317 196.257C367.47 198.376 367.776 200.503 367.317 202.489C367.122 203.454 366.762 204.377 366.255 205.216C365.789 206.032 365.112 206.701 364.298 207.15C363.524 207.561 362.644 207.714 361.78 207.588C361.003 207.457 360.261 207.167 359.597 206.735C358.496 205.972 357.487 205.079 356.592 204.075C355.881 203.368 355.132 202.7 354.351 202.074C353.859 201.675 353.338 201.313 352.794 200.992C352.423 200.77 352.212 200.674 352.219 200.659C352.226 200.644 352.277 200.659 352.379 200.711C352.481 200.762 352.641 200.822 352.83 200.918C353.392 201.217 353.93 201.562 354.438 201.948C355.239 202.563 356.007 203.221 356.738 203.919C357.637 204.895 358.643 205.762 359.736 206.506C360.375 206.908 361.088 207.175 361.831 207.291C362.632 207.401 363.445 207.253 364.16 206.869C364.919 206.44 365.548 205.807 365.979 205.038C366.46 204.23 366.8 203.342 366.983 202.415C367.427 200.511 367.106 198.428 366.983 196.286C366.885 195.182 366.885 194.071 366.983 192.966C367.104 191.818 367.445 190.705 367.987 189.691C369.071 187.638 370.635 186.03 371.625 184.148C372.129 183.238 372.43 182.225 372.506 181.183C372.56 180.196 372.399 179.209 372.033 178.293C371.337 176.582 370.127 175.139 368.576 174.173C367.226 173.325 365.686 172.843 364.101 172.772C361.792 172.625 359.49 173.16 357.473 174.314C356.919 174.618 356.383 174.952 355.865 175.314L355.457 175.603C355.326 175.692 355.275 175.722 355.268 175.714Z" fill="#FAFAFA"/>
<path d="M402.237 233.177L402.047 233.229L401.48 233.325C400.978 233.407 400.243 233.525 399.297 233.651C396.61 234.066 393.894 234.254 391.177 234.214C389.295 234.184 387.422 233.935 385.596 233.473C383.487 232.942 381.487 232.036 379.687 230.798C377.673 229.435 376.072 227.525 375.067 225.285C374.002 222.853 373.783 220.123 374.448 217.548C374.814 216.25 375.457 215.05 376.333 214.035C377.205 213.102 378.152 212.245 379.163 211.471C380.122 210.74 380.998 209.902 381.776 208.974C382.477 208.059 382.96 206.991 383.187 205.854C383.653 203.631 383.435 201.407 383.536 199.347C383.53 197.41 384.005 195.503 384.919 193.804C385.696 192.42 386.752 191.22 388.019 190.284C388.966 189.573 390.02 189.022 391.14 188.654C391.848 188.419 392.581 188.27 393.323 188.209H393.898H394.094C393.104 188.286 392.126 188.487 391.184 188.809C390.09 189.195 389.063 189.755 388.142 190.469C386.779 191.494 385.675 192.836 384.924 194.382C384.172 195.929 383.794 197.636 383.82 199.362C383.733 201.4 383.973 203.623 383.5 205.935C383.274 207.126 382.775 208.246 382.045 209.203C381.255 210.16 380.362 211.023 379.382 211.775C378.385 212.537 377.453 213.382 376.595 214.302C375.762 215.274 375.149 216.42 374.798 217.659C374.156 220.148 374.366 222.786 375.394 225.136C376.364 227.322 377.917 229.186 379.876 230.517C381.638 231.738 383.596 232.635 385.661 233.17C387.462 233.647 389.309 233.918 391.169 233.977C393.873 234.035 396.578 233.889 399.261 233.54L401.444 233.288L402.011 233.221L402.237 233.177Z" fill="#FAFAFA"/>
<path d="M367.55 251.703C367.628 251.632 367.713 251.57 367.805 251.518C368.068 251.384 368.313 251.214 368.533 251.014C368.787 250.755 368.685 250.273 368.533 249.747C368.315 249.168 368.047 248.61 367.732 248.079C367.07 246.857 366.277 245.404 365.331 243.848C364.312 242.156 363.09 240.6 361.693 239.216C360.3 237.835 358.629 236.778 356.796 236.119C355.303 235.582 353.704 235.427 352.139 235.667C351.085 235.851 350.088 236.285 349.228 236.934C348.625 237.401 348.341 237.727 348.312 237.675C348.363 237.583 348.427 237.498 348.501 237.423C348.699 237.197 348.913 236.987 349.141 236.793C349.991 236.076 351.004 235.589 352.088 235.378C353.699 235.087 355.356 235.217 356.905 235.755C358.797 236.415 360.521 237.493 361.955 238.912C363.377 240.319 364.612 241.908 365.629 243.64C366.583 245.212 367.332 246.694 367.972 247.924C368.268 248.477 368.511 249.058 368.7 249.658C368.778 249.913 368.827 250.177 368.845 250.443C368.855 250.562 368.839 250.682 368.801 250.794C368.762 250.906 368.7 251.009 368.62 251.096C368.39 251.293 368.129 251.451 367.849 251.562C367.659 251.674 367.558 251.718 367.55 251.703Z" fill="#FAFAFA"/>
<path d="M383.464 164.576C383.464 164.576 383.376 164.754 383.114 164.962C382.733 165.249 382.293 165.447 381.826 165.54C381.13 165.678 380.41 165.616 379.745 165.362C378.935 165.035 378.237 164.474 377.737 163.746C376.864 162.426 376.487 160.829 376.675 159.248C376.698 158.603 376.836 157.968 377.082 157.373C377.148 157.373 376.988 158.114 376.944 159.263C376.84 160.765 377.227 162.26 378.043 163.517C378.505 164.173 379.137 164.686 379.869 164.999C380.476 165.246 381.135 165.331 381.783 165.243C382.381 165.138 382.953 164.912 383.464 164.576Z" fill="#FAFAFA"/>
<path d="M384.519 143.263C384.519 143.263 384.424 143.263 384.235 143.33C383.959 143.355 383.681 143.355 383.405 143.33C382.377 143.25 381.392 142.872 380.568 142.24C379.993 141.806 379.514 141.253 379.163 140.617C378.762 139.881 378.537 139.058 378.509 138.216C378.462 137.285 378.65 136.356 379.054 135.519C379.531 134.667 380.124 133.889 380.815 133.207C381.128 132.86 381.392 132.471 381.601 132.051C381.794 131.657 381.867 131.213 381.812 130.776C381.588 129.929 381.229 129.126 380.75 128.397C380.367 127.705 380.195 126.913 380.256 126.121C380.317 125.329 380.608 124.574 381.092 123.951C381.421 123.543 381.83 123.209 382.292 122.97C382.754 122.73 383.259 122.59 383.777 122.558C384.054 122.539 384.333 122.556 384.606 122.61C384.702 122.619 384.796 122.646 384.883 122.691C384.883 122.736 384.49 122.624 383.791 122.691C383.299 122.751 382.823 122.91 382.392 123.16C381.961 123.409 381.583 123.744 381.281 124.144C380.843 124.728 380.586 125.432 380.542 126.165C380.497 126.899 380.669 127.63 381.033 128.264C381.547 129.022 381.928 129.864 382.161 130.754C382.223 131.261 382.139 131.776 381.921 132.236C381.699 132.689 381.414 133.108 381.077 133.481C380.412 134.143 379.835 134.89 379.36 135.704C378.987 136.486 378.807 137.348 378.836 138.216C378.851 138.955 379.027 139.681 379.35 140.342C379.673 141.003 380.136 141.583 380.706 142.04C381.488 142.661 382.416 143.059 383.398 143.196C384.119 143.285 384.519 143.226 384.519 143.263Z" fill="#FAFAFA"/>
<path d="M351.128 150.392C351.516 150.441 351.908 150.46 352.299 150.451C353.361 150.397 354.371 149.97 355.159 149.243C355.722 148.701 356.131 148.014 356.342 147.255C356.553 146.496 356.559 145.693 356.359 144.93C356.126 144.022 355.616 143.213 354.904 142.618C354.079 141.983 353.357 141.221 352.765 140.358C352.282 139.397 352.111 138.304 352.277 137.238C352.386 136.223 352.619 135.282 352.772 134.385C352.946 133.55 352.998 132.693 352.925 131.843C352.855 131.11 352.58 130.413 352.132 129.835C351.47 128.991 350.523 128.428 349.476 128.256C349.087 128.212 348.695 128.197 348.304 128.212C348.304 128.212 348.399 128.175 348.603 128.13C348.897 128.093 349.196 128.093 349.49 128.13C350.603 128.252 351.626 128.811 352.343 129.686C352.839 130.294 353.15 131.036 353.238 131.821C353.329 132.704 353.288 133.596 353.114 134.466C352.968 135.385 352.743 136.319 352.648 137.297C352.495 138.284 352.65 139.295 353.092 140.187C353.672 141.011 354.368 141.743 355.159 142.359C355.908 143.013 356.439 143.889 356.679 144.864C356.886 145.684 356.869 146.547 356.629 147.358C356.389 148.169 355.936 148.898 355.319 149.466C354.477 150.211 353.4 150.621 352.285 150.622C351.986 150.627 351.688 150.594 351.397 150.525C351.222 150.444 351.12 150.407 351.128 150.392Z" fill="#FAFAFA"/>
<path d="M369.064 83.0141C370.305 82.7622 371.585 82.7836 372.818 83.0769C374.051 83.3702 375.208 83.9287 376.211 84.7147C377.214 85.5008 378.041 86.4964 378.636 87.6346C379.23 88.7728 379.579 90.0274 379.658 91.3141C379.745 92.7295 379.571 94.3673 380.553 95.3751C381.281 96.1162 382.314 96.2348 383.18 96.7165C383.989 97.193 384.61 97.9426 384.934 98.8358C385.258 99.7289 385.266 100.709 384.955 101.608C384.621 102.489 383.98 103.238 383.653 104.127C383.173 105.439 382.772 106.943 383.165 108.285C385.188 115.325 380.255 116.184 377.679 116.659C373.997 117.318 370.264 116.125 369.886 112.212C369.762 110.945 367.543 111.086 366.306 111.249C364.851 111.449 363.708 112.731 362.617 113.761C360.964 115.475 358.871 116.682 356.578 117.244C355.432 117.512 354.239 117.488 353.105 117.176C351.97 116.863 350.929 116.27 350.072 115.451C348.443 113.739 348.042 110.797 349.476 108.914C348.601 108.508 347.827 107.906 347.213 107.152C346.599 106.398 346.16 105.512 345.93 104.561C345.7 103.611 345.684 102.619 345.883 101.661C346.083 100.702 346.492 99.8026 347.082 99.0286C347.977 97.8503 349.265 96.9759 349.912 95.6345C350.451 94.5081 351.033 91.9292 351.455 90.7361C352.052 89.0538 354.089 86.1711 355.668 85.3856" fill="#455A64"/>
<path d="M375.605 121.461L361.94 121.661C361.707 120.053 361.249 113.805 361.249 113.805C361.249 113.805 355.522 113.45 354.919 107.714C354.315 101.978 354.074 88.6831 354.074 88.6831C357.151 86.9734 360.62 86.1304 364.123 86.2411C367.627 86.3518 371.038 87.4123 374.004 89.313L374.899 89.8837L375.605 121.461Z" fill="#D89377"/>
<path d="M360.791 103.972C360.376 103.843 359.942 103.79 359.51 103.816C359.306 103.816 359.139 103.816 359.117 103.675C359.089 103.468 359.119 103.258 359.204 103.068L359.67 101.4C360.31 99.0288 360.732 97.0798 360.609 97.0501C360.485 97.0205 359.881 98.9102 359.241 101.282C359.095 101.86 358.95 102.415 358.811 102.956C358.715 103.24 358.715 103.548 358.811 103.831C358.848 103.907 358.901 103.973 358.966 104.024C359.032 104.076 359.108 104.111 359.19 104.127C359.306 104.142 359.423 104.142 359.539 104.127C359.962 104.143 360.384 104.09 360.791 103.972Z" fill="#263238"/>
<path d="M361.227 113.724C363.837 113.521 366.329 112.533 368.387 110.886C368.387 110.886 367.034 115.191 361.351 115.214L361.227 113.724Z" fill="#BF7A62"/>
<path d="M365.04 97.9688C365.04 98.1653 364.963 98.3538 364.827 98.4928C364.69 98.6318 364.505 98.7098 364.312 98.7098C364.221 98.7159 364.129 98.703 364.042 98.6721C363.955 98.6412 363.876 98.5928 363.808 98.5299C363.74 98.467 363.685 98.3908 363.647 98.3058C363.609 98.2209 363.587 98.1289 363.585 98.0355C363.585 97.8389 363.661 97.6504 363.798 97.5115C363.934 97.3725 364.119 97.2944 364.312 97.2944C364.404 97.2884 364.496 97.3012 364.582 97.3321C364.669 97.3631 364.749 97.4114 364.817 97.4744C364.884 97.5373 364.939 97.6135 364.978 97.6984C365.016 97.7834 365.037 97.8753 365.04 97.9688Z" fill="#263238"/>
<path d="M366.211 97.1832C366.124 97.2722 365.593 96.8572 364.822 96.8424C364.05 96.8275 363.483 97.2055 363.366 97.1091C363.25 97.0128 363.425 96.8942 363.672 96.7164C364.011 96.4895 364.409 96.3732 364.814 96.3829C365.215 96.3893 365.603 96.527 365.92 96.7757C366.182 96.9683 366.255 97.1388 366.211 97.1832Z" fill="#263238"/>
<path d="M357.16 97.9468C357.16 98.1433 357.083 98.3318 356.947 98.4708C356.81 98.6097 356.625 98.6878 356.432 98.6878C356.341 98.6949 356.249 98.683 356.162 98.6529C356.076 98.6229 355.996 98.5752 355.928 98.5129C355.86 98.4505 355.805 98.3748 355.767 98.2902C355.728 98.2057 355.707 98.114 355.704 98.0209C355.704 97.8243 355.781 97.6358 355.917 97.4968C356.054 97.3579 356.239 97.2798 356.432 97.2798C356.613 97.2789 356.788 97.3467 356.922 97.47C357.057 97.5934 357.142 97.7633 357.16 97.9468Z" fill="#263238"/>
<path d="M358.178 97.3021C358.091 97.391 357.56 96.976 356.789 96.9612C356.017 96.9464 355.45 97.3243 355.333 97.228C355.217 97.1316 355.391 97.0131 355.639 96.8352C355.978 96.611 356.377 96.4973 356.781 96.5091C357.181 96.5134 357.569 96.6485 357.887 96.8945C358.149 97.0872 358.229 97.2576 358.178 97.3021Z" fill="#263238"/>
<path d="M362.086 105.987C362.009 105.804 361.967 105.608 361.962 105.409C361.963 105.309 361.993 105.211 362.047 105.126C362.101 105.042 362.178 104.976 362.268 104.935C362.399 104.89 362.559 104.935 362.675 104.839C362.792 104.742 362.835 104.498 362.93 104.32C362.999 104.207 363.102 104.118 363.224 104.068C363.345 104.017 363.479 104.007 363.606 104.038C363.858 104.112 364.085 104.256 364.261 104.453C364.491 104.659 364.636 104.944 364.669 105.254C364.66 105.402 364.617 105.546 364.544 105.675C364.471 105.804 364.369 105.913 364.247 105.995C363.995 106.159 363.708 106.261 363.41 106.291C363.092 106.34 362.77 106.353 362.45 106.328C362.357 106.326 362.266 106.306 362.18 106.269C362.138 106.248 362.104 106.215 362.08 106.174C362.057 106.133 362.046 106.086 362.049 106.039" fill="#BF7A62"/>
<path d="M361.525 106.106C362.159 106.028 362.762 105.782 363.273 105.392C363.784 105.001 364.185 104.481 364.436 103.883" fill="#BF7A62"/>
<path d="M364.458 103.883C364.315 104.547 363.942 105.137 363.408 105.545C362.874 105.953 362.214 106.152 361.547 106.106C362.115 105.857 362.665 105.567 363.192 105.239C363.992 104.631 364.356 103.831 364.458 103.883Z" fill="#263238"/>
<path d="M355.391 95.1825C356.049 94.8661 356.791 94.7801 357.502 94.9379L355.391 95.1825Z" fill="#BF7A62"/>
<path d="M357.502 94.9382C357.443 95.1531 356.985 95.2049 356.468 95.2642C355.952 95.3235 355.493 95.368 355.391 95.1827C355.29 94.9974 355.704 94.575 356.388 94.5009C357.072 94.4268 357.56 94.7381 357.502 94.9382Z" fill="#263238"/>
<path d="M363.315 95.2419C364.295 94.9074 365.362 94.9685 366.299 95.4124L363.315 95.2419Z" fill="#BF7A62"/>
<path d="M366.299 95.4047C366.197 95.5974 365.571 95.4492 364.8 95.4047C364.029 95.3603 363.395 95.4047 363.345 95.2269C363.294 95.049 363.927 94.5747 364.873 94.634C365.819 94.6933 366.401 95.2417 366.299 95.4047Z" fill="#263238"/>
<path d="M366.444 82.9029C366.04 82.4294 365.545 82.0451 364.989 81.7736C364.434 81.5022 363.829 81.3493 363.214 81.3245C361.358 81.137 359.487 81.449 357.788 82.2293C356.088 83.0097 354.619 84.2309 353.529 85.7709C352.284 87.5939 351.659 90.1358 352.801 92.0107C353.193 92.6405 353.755 93.1419 354.42 93.4551C355.084 93.7684 355.823 93.8801 356.548 93.7769C357.274 93.6737 357.954 93.36 358.509 92.8734C359.064 92.3867 359.47 91.7476 359.677 91.0325C359.689 91.4633 359.784 91.8875 359.959 92.2802C360.133 92.673 360.382 93.0265 360.692 93.3201C361.002 93.6138 361.366 93.8416 361.763 93.9904C362.16 94.1392 362.582 94.2059 363.005 94.1868C363.428 94.1676 363.843 94.0628 364.225 93.8786C364.608 93.6944 364.95 93.4345 365.233 93.114C365.516 92.7935 365.734 92.4188 365.873 92.0118C366.012 91.6048 366.07 91.1736 366.044 90.7434C366.393 91.925 367.101 92.9631 368.067 93.7077C369.078 94.3524 370.672 94.1968 371.196 93.1C371.836 93.8411 372.731 94.6637 373.691 94.4191C374.091 94.2778 374.435 94.0073 374.67 93.6488C374.905 93.2903 375.019 92.8634 374.994 92.4331C374.924 91.5713 374.638 90.7422 374.164 90.0246C372.302 86.7194 369.551 83.6811 365.935 82.6806" fill="#455A64"/>
<path d="M370.781 90.7437C371.623 92.2701 372.071 93.9885 372.085 95.7391C372.099 97.4896 371.678 99.2153 370.861 100.755C370.253 101.673 369.734 102.648 369.311 103.668C369.109 104.181 369.065 104.744 369.183 105.284C369.301 105.824 369.576 106.314 369.973 106.691C370.504 107.099 371.319 107.307 371.429 107.966C371.453 108.304 371.385 108.643 371.232 108.944C370.731 110.279 370.67 111.743 371.057 113.117C371.319 114.021 371.363 115.14 373.48 116.081C374.528 116.562 375.103 117.378 377.381 116.785C381.368 115.74 379.956 106.662 379.563 102.49C379.171 98.3174 377.279 90.8697 374.979 87.394" fill="#455A64"/>
<path d="M361.686 119.208C361.686 119.208 357.553 134.926 360.187 133.37C362.821 131.813 375.605 121.461 375.605 121.461L369.144 116.496L361.686 119.208Z" fill="#D89377"/>
<path d="M322.764 146.279C322.306 144.738 316.587 141.566 317.453 140.714C318.58 139.595 323.274 144.3 323.703 144.664C324.132 145.027 324.649 144.404 324.249 144.093C323.667 143.648 317.7 138.809 318.821 137.705C319.432 137.09 320.392 138.335 320.392 138.335C320.392 138.335 325.631 143.293 326.133 142.781C326.635 142.27 323.659 139.217 322.582 138.276C321.506 137.334 321.513 136.438 322.291 136.29C322.83 136.186 326.184 138.994 327.225 139.995C328.265 140.995 331.081 143.634 330.725 141.136C330.725 141.099 330.725 141.062 330.725 141.018C330.303 138.572 330.776 136.571 331.3 136.052C331.424 135.954 331.574 135.893 331.731 135.877C331.888 135.861 332.047 135.89 332.189 135.961C332.331 136.032 332.45 136.142 332.533 136.279C332.617 136.415 332.661 136.573 332.66 136.734C332.685 136.854 332.685 136.978 332.66 137.097C332.66 137.149 332.66 137.223 332.66 137.283C332.626 138.133 332.679 138.985 332.82 139.824C332.926 140.58 333.157 141.312 333.504 141.988C333.912 142.729 334.29 143.426 334.618 143.967C338.445 146.131 349.447 151.837 360.478 152.734C362.464 152.897 371.269 138.75 371.269 138.75L384.366 145.049C381.314 150.894 377.829 156.493 373.939 161.797C362.821 177.004 328.309 151.563 328.309 151.563L327.989 151.4C325.37 150.082 322.824 148.617 320.363 147.013C317.394 144.879 317.569 144.597 317.867 144.278C318.661 143.411 323.223 147.813 322.764 146.279Z" fill="#D89377"/>
<path d="M124.142 309.166L124.076 303.089L112.885 303.149V312.041L113.613 312.086C116.698 312.242 129.323 312.664 131.382 312.019C133.659 311.293 124.142 309.166 124.142 309.166Z" fill="#455A64"/>
<path d="M112.74 311.782H112.929H113.482L115.519 311.864C117.237 311.916 119.609 311.96 122.228 311.953C124.848 311.945 127.227 311.879 128.944 311.812L130.974 311.716L131.527 311.679H131.716C131.654 311.67 131.59 311.67 131.527 311.679H130.974L128.937 311.723C127.22 311.768 124.848 311.819 122.228 311.827C119.609 311.834 117.237 311.827 115.519 311.782L113.482 311.745H112.754L112.74 311.782Z" fill="#263238"/>
<path d="M127.809 312.027C127.894 311.682 128.019 311.349 128.18 311.034C128.392 310.742 128.637 310.476 128.908 310.241C128.555 310.372 128.265 310.638 128.1 310.982C127.877 311.28 127.773 311.653 127.809 312.027Z" fill="#263238"/>
<path d="M124.498 310.337C124.535 310.337 124.688 310.159 124.848 309.9C124.965 309.75 125.047 309.576 125.088 309.389C125.088 309.389 124.899 309.559 124.738 309.826C124.578 310.093 124.469 310.315 124.498 310.337Z" fill="#263238"/>
<path d="M123.589 309.855C123.589 309.855 123.793 309.759 123.982 309.581C124.171 309.403 124.309 309.24 124.287 309.211C124.266 309.181 124.084 309.3 123.894 309.477C123.705 309.655 123.567 309.826 123.589 309.855Z" fill="#263238"/>
<path d="M123.014 308.781C123.201 308.846 123.399 308.871 123.596 308.855C123.795 308.877 123.996 308.854 124.185 308.788C123.997 308.718 123.795 308.693 123.596 308.714C123.4 308.693 123.201 308.716 123.014 308.781Z" fill="#263238"/>
<path d="M122.818 308.025C123.01 308.152 123.236 308.217 123.465 308.21C123.694 308.246 123.929 308.215 124.142 308.121C123.924 308.08 123.701 308.065 123.48 308.077C123.261 308.037 123.039 308.019 122.818 308.025Z" fill="#263238"/>
<path d="M124.877 309.337C125.117 309.388 125.364 309.388 125.604 309.337C125.866 309.306 126.125 309.249 126.376 309.166C126.527 309.121 126.674 309.059 126.812 308.981C126.894 308.927 126.956 308.846 126.987 308.751C126.998 308.697 126.994 308.64 126.974 308.587C126.955 308.535 126.922 308.489 126.878 308.455C126.602 308.321 126.29 308.288 125.993 308.361C125.696 308.434 125.433 308.608 125.248 308.855C125.137 309.003 125.058 309.172 125.015 309.352C124.998 309.415 124.998 309.481 125.015 309.544C125.082 309.318 125.19 309.107 125.335 308.922C125.496 308.729 125.708 308.587 125.946 308.514C126.086 308.464 126.233 308.442 126.381 308.451C126.528 308.46 126.673 308.499 126.805 308.566C126.921 308.655 126.878 308.788 126.747 308.863C126.622 308.94 126.487 309 126.347 309.04C126.111 309.131 125.867 309.198 125.619 309.241C125.153 309.315 124.877 309.315 124.877 309.337Z" fill="#263238"/>
<path d="M125.059 309.41C125.149 309.26 125.178 309.079 125.139 308.907C125.12 308.714 125.052 308.53 124.942 308.373C124.881 308.265 124.795 308.175 124.69 308.11C124.586 308.045 124.468 308.008 124.346 308.002C124.273 308.019 124.21 308.062 124.168 308.124C124.126 308.186 124.109 308.262 124.12 308.336C124.138 308.452 124.18 308.564 124.244 308.662C124.34 308.824 124.454 308.973 124.586 309.107C124.698 309.239 124.84 309.34 125 309.403C125 309.403 124.855 309.27 124.658 309.04C124.541 308.906 124.438 308.76 124.353 308.603C124.258 308.447 124.186 308.173 124.353 308.136C124.52 308.099 124.717 308.299 124.826 308.447C124.928 308.587 124.998 308.75 125.03 308.921C125.057 309.083 125.066 309.247 125.059 309.41Z" fill="#263238"/>
<path d="M112.951 308.67C112.951 308.67 113.271 308.67 113.78 308.67C114.434 308.746 115.054 309.008 115.569 309.426C116.084 309.844 116.472 310.401 116.691 311.034C116.865 311.523 116.88 311.849 116.909 311.842C116.921 311.765 116.921 311.688 116.909 311.612C116.893 311.405 116.851 311.201 116.785 311.004C116.582 310.336 116.187 309.744 115.65 309.307C115.107 308.877 114.452 308.619 113.766 308.566C113.563 308.542 113.358 308.542 113.155 308.566C113.082 308.59 113.013 308.625 112.951 308.67Z" fill="#263238"/>
<path d="M114.093 303.919C114.017 304.697 113.988 305.48 114.006 306.261C113.971 307.042 113.988 307.824 114.057 308.603C114.127 307.825 114.154 307.043 114.137 306.261C114.167 305.48 114.153 304.698 114.093 303.919Z" fill="#263238"/>
<path d="M118.357 310.819C118.892 310.936 119.44 310.989 119.987 310.974C120.536 311.001 121.087 310.954 121.624 310.834C121.624 310.789 120.896 310.834 119.987 310.834C119.077 310.834 118.357 310.774 118.357 310.819Z" fill="#263238"/>
<path d="M116.16 310.818C116.16 310.818 116.225 310.981 116.298 311.152C116.371 311.322 116.414 311.471 116.451 311.471C116.487 311.471 116.509 311.285 116.451 311.093C116.393 310.9 116.189 310.796 116.16 310.818Z" fill="#263238"/>
<path d="M115.33 309.781C115.33 309.781 115.381 309.922 115.498 310.041C115.614 310.159 115.723 310.233 115.752 310.211C115.781 310.189 115.709 310.063 115.592 309.944C115.476 309.826 115.359 309.752 115.33 309.781Z" fill="#263238"/>
<path d="M114.151 309.307C114.151 309.344 114.304 309.344 114.472 309.403C114.639 309.462 114.755 309.544 114.784 309.522C114.814 309.499 114.719 309.336 114.515 309.27C114.311 309.203 114.137 309.27 114.151 309.307Z" fill="#263238"/>
<path d="M113.307 309.084C113.307 309.121 113.358 309.181 113.453 309.218C113.547 309.255 113.628 309.218 113.642 309.218C113.657 309.218 113.591 309.121 113.497 309.084C113.402 309.047 113.322 309.047 113.307 309.084Z" fill="#263238"/>
<path d="M59.0185 300.399L62.1837 295.212L52.7244 289.127L48.0239 296.649L48.5842 297.064C51.1018 298.887 61.507 306.172 63.5808 306.757C65.9092 307.41 59.0185 300.399 59.0185 300.399Z" fill="#455A64"/>
<path d="M48.0239 296.338L48.1767 296.464L48.6279 296.79L50.2941 297.976C51.7494 298.962 53.6922 300.303 55.9042 301.733C58.1162 303.164 60.1463 304.416 61.6307 305.298L63.3916 306.335L63.8791 306.61C63.9882 306.669 64.0464 306.699 64.0537 306.691L63.8936 306.58L63.4207 306.291L61.6816 305.216C60.2264 304.312 58.189 303.045 55.977 301.615C53.765 300.185 51.7785 298.865 50.3524 297.909L48.657 296.761L48.1913 296.457L48.0239 296.338Z" fill="#263238"/>
<path d="M60.5974 304.816C60.8537 304.577 61.1342 304.365 61.4342 304.186C61.7564 304.049 62.0935 303.952 62.4383 303.897C62.0766 303.817 61.6984 303.875 61.376 304.06C61.0312 304.202 60.7526 304.472 60.5974 304.816Z" fill="#263238"/>
<path d="M58.7056 301.578C58.7056 301.615 58.9602 301.533 59.2295 301.4C59.4987 301.267 59.717 301.133 59.7024 301.096C59.5146 301.114 59.3331 301.175 59.1713 301.274C58.9384 301.407 58.691 301.541 58.7056 301.578Z" fill="#263238"/>
<path d="M58.2108 300.674C58.2108 300.711 58.4291 300.674 58.6838 300.674C58.9385 300.674 59.1422 300.563 59.1349 300.526C59.1276 300.489 58.9166 300.526 58.662 300.526C58.4073 300.526 58.2108 300.637 58.2108 300.674Z" fill="#263238"/>
<path d="M58.2762 299.451C58.2762 299.451 58.4582 299.651 58.7274 299.836C58.9966 300.021 59.2367 300.132 59.2586 300.095C59.2804 300.058 59.0766 299.895 58.8074 299.717C58.6509 299.591 58.4698 299.5 58.2762 299.451Z" fill="#263238"/>
<path d="M58.5092 298.702C58.5092 298.702 58.6547 298.991 58.9603 299.221C59.1309 299.378 59.3439 299.478 59.5715 299.51C59.5715 299.473 59.3314 299.332 59.0403 299.11C58.8737 298.96 58.6961 298.824 58.5092 298.702Z" fill="#263238"/>
<path d="M59.5497 300.94C59.7252 301.108 59.93 301.242 60.1536 301.333C60.3875 301.445 60.6311 301.534 60.8812 301.6C61.0327 301.647 61.1889 301.677 61.3469 301.689C61.4453 301.692 61.5414 301.658 61.6161 301.593C61.6531 301.553 61.6783 301.503 61.6886 301.449C61.6989 301.395 61.6939 301.34 61.6744 301.289C61.516 301.023 61.2719 300.822 60.984 300.719C60.696 300.616 60.3819 300.619 60.0954 300.725C59.925 300.789 59.7691 300.888 59.637 301.015C59.5497 301.103 59.5133 301.163 59.5206 301.17C59.7003 301.019 59.9047 300.901 60.1245 300.822C60.3617 300.748 60.6149 300.748 60.8521 300.822C61.0019 300.853 61.1438 300.915 61.2689 301.004C61.3941 301.093 61.4999 301.208 61.5798 301.341C61.6307 301.474 61.5216 301.563 61.3687 301.563C61.2236 301.553 61.0798 301.528 60.9394 301.489C60.6914 301.428 60.4482 301.349 60.2118 301.252C59.7898 301.074 59.5569 300.926 59.5497 300.94Z" fill="#263238"/>
<path d="M59.6661 301.074C59.6661 301.074 59.8553 300.985 60.0008 300.688C60.0856 300.516 60.1257 300.325 60.1172 300.133C60.1218 300.008 60.0956 299.884 60.0409 299.773C59.9862 299.662 59.9049 299.566 59.8043 299.495C59.7348 299.468 59.6577 299.471 59.5897 299.501C59.5217 299.532 59.4681 299.588 59.4405 299.658C59.3925 299.765 59.37 299.882 59.375 299.999C59.3675 300.188 59.3846 300.378 59.426 300.562C59.453 300.734 59.5204 300.897 59.6224 301.037C59.6224 301.037 59.5642 300.844 59.5206 300.54C59.5013 300.363 59.5013 300.184 59.5206 300.007C59.5206 299.821 59.6079 299.547 59.7752 299.621C59.9426 299.695 59.9935 299.955 60.0153 300.14C60.0213 300.314 59.9942 300.488 59.9353 300.651C59.8577 300.8 59.7677 300.941 59.6661 301.074Z" fill="#263238"/>
<path d="M49.8647 293.848C49.8647 293.848 50.1485 293.996 50.5414 294.322C51.0572 294.747 51.4475 295.309 51.6693 295.945C51.8831 296.582 51.9183 297.268 51.7712 297.924C51.6547 298.435 51.5019 298.717 51.5238 298.732C51.5706 298.673 51.6097 298.608 51.6402 298.539C51.7355 298.353 51.8111 298.156 51.8657 297.954C52.0421 297.278 52.0194 296.564 51.8003 295.901C51.5694 295.241 51.1547 294.664 50.6069 294.241C50.4409 294.117 50.263 294.01 50.0758 293.922C50.01 293.886 49.9387 293.861 49.8647 293.848Z" fill="#263238"/>
<path d="M53.3357 290.462C52.8584 291.074 52.4185 291.715 52.0186 292.381C51.5792 293.021 51.1806 293.69 50.8253 294.382C51.2997 293.767 51.7371 293.124 52.1351 292.455C52.5691 291.813 52.9698 291.147 53.3357 290.462Z" fill="#263238"/>
<path d="M53.2773 298.606C53.6584 299.008 54.0918 299.354 54.5653 299.636C55.0139 299.961 55.5034 300.222 56.0205 300.414C56.0205 300.377 55.3948 300.021 54.638 299.517C53.8813 299.013 53.2992 298.576 53.2773 298.606Z" fill="#263238"/>
<path d="M51.4219 297.413C51.4219 297.413 51.4219 297.576 51.3637 297.761C51.3055 297.947 51.291 298.095 51.3637 298.117C51.4365 298.139 51.5093 297.991 51.5384 297.784C51.5675 297.576 51.4583 297.398 51.4219 297.413Z" fill="#263238"/>
<path d="M51.2764 296.072C51.2764 296.072 51.2764 296.213 51.2764 296.383C51.2764 296.553 51.3637 296.672 51.4001 296.665C51.4364 296.657 51.4437 296.516 51.4001 296.353C51.3564 296.19 51.3127 296.072 51.2764 296.072Z" fill="#263238"/>
<path d="M50.527 295.027C50.527 295.064 50.6434 295.145 50.7525 295.286C50.8617 295.427 50.9126 295.56 50.949 295.56C50.9854 295.56 50.9927 295.368 50.8544 295.197C50.7162 295.027 50.5415 294.99 50.527 295.027Z" fill="#263238"/>
<path d="M49.9376 294.382C49.9376 294.382 49.9376 294.486 49.9886 294.567C50.0395 294.649 50.1195 294.693 50.1486 294.671C50.1777 294.649 50.1486 294.567 50.0977 294.486C50.0468 294.404 49.9667 294.352 49.9376 294.382Z" fill="#263238"/>
<path d="M102.342 182.458C102.342 182.458 111.801 246.672 110.448 249.769C109.094 252.867 64.7596 302.496 64.7596 302.496L48.4387 291.477C48.4387 291.477 87.1344 241.825 86.8433 240.662C86.5522 239.498 72.1815 177.293 72.1815 177.293L102.342 182.458Z" fill="#0A425F"/>
<path d="M66.7896 176.419L66.2148 178.798C64.5333 185.821 65.5758 193.235 69.1254 199.496L94.84 244.938C96.6675 248.155 97.9977 251.639 98.7838 255.269L110.426 307.736H128.348C128.348 308.826 123.713 264.51 121.384 249.792C119.638 238.676 105.049 204.239 97.9834 187.965L102.349 182.481L94.7381 181.206L66.7896 176.419Z" fill="#0A425F"/>
<path d="M98.5217 187.824C98.6818 188.054 98.8138 188.302 98.9147 188.565C99.1475 189.039 99.4677 189.736 99.8533 190.603C100.625 192.329 101.636 194.745 102.669 197.443C103.702 200.14 104.554 202.63 105.136 204.424C105.42 205.328 105.645 206.061 105.791 206.573C105.884 206.834 105.947 207.105 105.98 207.381C105.839 207.149 105.729 206.9 105.653 206.639C105.442 206.061 105.18 205.357 104.881 204.527C104.241 202.749 103.346 200.296 102.313 197.598C101.279 194.901 100.312 192.478 99.6059 190.721C99.2857 189.906 99.0092 189.239 98.7764 188.639C98.6533 188.381 98.5675 188.107 98.5217 187.824Z" fill="#263238"/>
<path d="M100.632 263.983C100.578 263.817 100.539 263.646 100.516 263.472C100.45 263.094 100.363 262.605 100.261 261.99C100.203 261.664 100.144 261.308 100.079 260.923C100.013 260.537 99.9043 260.115 99.8024 259.663C99.606 258.766 99.4022 257.736 99.0748 256.617C98.922 256.054 98.7692 255.468 98.6018 254.861L98.0124 252.971C97.6341 251.667 97.1029 250.311 96.5572 248.865C95.4512 246.005 94.105 242.937 92.5406 239.75C89.7992 234.372 86.7801 229.145 83.4961 224.092C82.2519 222.18 81.2404 220.616 80.5055 219.497C80.1708 218.978 79.9089 218.563 79.6979 218.245C79.5981 218.102 79.5105 217.95 79.4359 217.792C79.5592 217.916 79.669 218.053 79.7633 218.2L80.6292 219.408C81.3569 220.468 82.441 222.009 83.7217 223.943C87.0745 228.964 90.1311 234.183 92.8753 239.572C94.447 242.752 95.7859 245.857 96.8846 248.732C97.3867 250.214 97.9106 251.556 98.2817 252.875L98.8492 254.772C99.002 255.394 99.1548 255.98 99.3004 256.55C99.606 257.677 99.7879 258.714 99.9698 259.618C100.057 260.073 100.137 260.495 100.21 260.886C100.268 261.278 100.312 261.627 100.363 261.96C100.435 262.575 100.501 263.072 100.552 263.442C100.598 263.619 100.624 263.801 100.632 263.983Z" fill="#263238"/>
<path d="M67.1607 299.844C66.9095 299.788 66.6654 299.704 66.433 299.592C65.7687 299.326 65.12 299.022 64.4902 298.68C62.4203 297.53 60.4401 296.219 58.5673 294.76C56.3844 293.085 54.3761 291.559 52.8772 290.551C51.3783 289.543 50.4105 288.98 50.4396 288.92C50.6942 288.999 50.9385 289.108 51.1672 289.246C51.6256 289.469 52.2587 289.839 53.03 290.321C54.5798 291.277 56.6027 292.774 58.8001 294.449C60.659 295.897 62.603 297.229 64.6212 298.436C66.1565 299.34 67.1825 299.777 67.1607 299.844Z" fill="#263238"/>
<path d="M128.282 304.964C128.04 304.993 127.796 304.993 127.554 304.964H125.524L118.852 304.912L112.172 304.949H110.142C109.899 304.962 109.655 304.947 109.414 304.905C109.651 304.833 109.896 304.796 110.142 304.794C110.622 304.757 111.314 304.705 112.172 304.668C113.875 304.579 116.247 304.505 118.859 304.512C121.471 304.52 123.836 304.586 125.546 304.683C126.397 304.727 127.089 304.772 127.569 304.816C127.812 304.831 128.052 304.881 128.282 304.964Z" fill="#263238"/>
<path d="M78.5845 110.871C77.0087 111.089 75.4049 110.831 73.9713 110.13C73.2615 109.777 72.6604 109.232 72.2332 108.555C71.806 107.879 71.5691 107.096 71.5483 106.291C71.5483 105.35 71.9776 104.424 71.8248 103.497C71.672 102.571 70.9953 101.83 70.5587 101C70.0399 99.9404 69.8928 98.7318 70.1416 97.5752C70.3904 96.4185 71.0203 95.3834 71.9266 94.6417C72.8798 93.9007 74.1095 93.5153 74.8954 92.6038C75.8413 91.5292 75.9941 89.973 76.5689 88.6539C76.9959 87.7037 77.6449 86.8746 78.4593 86.239C79.2736 85.6034 80.2285 85.1807 81.2404 85.0078C82.3609 84.83 83.5251 84.956 84.5948 84.5928C85.4782 84.204 86.3116 83.7063 87.076 83.1107C89.6075 81.4441 92.6801 80.856 95.633 81.4729C96.9268 81.7057 98.1284 82.3099 99.0965 83.2145C100.137 84.2668 101.476 85.4377 101.854 86.8457C102.298 88.5501 101.752 90.6844 101.309 92.3815C100.865 94.0785 99.5186 95.6348 97.8013 95.8423" fill="#263238"/>
<path d="M78.228 123.981L91.893 124.174C92.1259 122.573 92.6206 116.318 92.6206 116.318C92.6206 116.318 98.3471 115.97 98.9438 110.227C99.5405 104.483 99.7879 91.2035 99.7879 91.2035C96.7109 89.49 93.2403 88.645 89.7351 88.7557C86.2299 88.8665 82.8174 89.929 79.8507 91.8334L78.9557 92.4114L78.228 123.981Z" fill="#FFBE9D"/>
<path d="M93.0426 106.484C93.4613 106.364 93.8962 106.314 94.3305 106.336C94.5343 106.336 94.6943 106.299 94.7234 106.188C94.7443 105.983 94.7117 105.776 94.6289 105.587L94.1632 103.92C93.7111 102.502 93.3967 101.043 93.2245 99.5625C93.8171 100.926 94.2753 102.346 94.5925 103.801C94.7453 104.379 94.8835 104.928 95.0218 105.476C95.1219 105.756 95.1219 106.063 95.0218 106.343C94.9851 106.42 94.931 106.487 94.864 106.539C94.7969 106.59 94.7188 106.625 94.6361 106.64C94.5204 106.657 94.4026 106.657 94.2869 106.64C93.8664 106.662 93.4454 106.609 93.0426 106.484Z" fill="#263238"/>
<path d="M92.6061 116.237C89.9963 116.038 87.5036 115.053 85.4462 113.406C85.4462 113.406 86.8069 117.704 92.4824 117.726L92.6061 116.237Z" fill="#EB996E"/>
<path d="M78.9994 98.4507C78.883 98.3988 75.1357 97.7764 75.3612 102.319C75.5868 106.862 80.0035 105.143 80.0108 105.009C80.0181 104.876 78.9994 98.4507 78.9994 98.4507Z" fill="#FFBE9D"/>
<path d="M78.5846 103.483C78.5846 103.483 78.5046 103.542 78.3809 103.609C78.1993 103.698 77.9914 103.714 77.7988 103.653C77.503 103.48 77.2572 103.231 77.086 102.93C76.9149 102.63 76.8244 102.289 76.8238 101.941C76.7946 101.551 76.8518 101.158 76.9911 100.793C77.0271 100.65 77.0961 100.519 77.1923 100.409C77.2885 100.3 77.4092 100.215 77.5441 100.163C77.6327 100.135 77.7278 100.14 77.8138 100.175C77.8998 100.21 77.9715 100.273 78.0171 100.356C78.0826 100.482 78.0171 100.57 78.0826 100.578C78.148 100.585 78.1699 100.496 78.1262 100.311C78.0963 100.2 78.0294 100.103 77.937 100.037C77.8762 99.991 77.8065 99.9586 77.7325 99.942C77.6585 99.9254 77.5819 99.9249 77.5077 99.9405C77.3257 99.984 77.158 100.075 77.0214 100.205C76.8848 100.335 76.784 100.5 76.7292 100.682C76.5564 101.085 76.4839 101.525 76.5181 101.964C76.5129 102.369 76.6263 102.767 76.8441 103.106C77.0618 103.445 77.374 103.711 77.7406 103.868C77.8653 103.902 77.9962 103.906 78.1227 103.879C78.2491 103.852 78.3674 103.795 78.4682 103.713C78.5846 103.594 78.5846 103.49 78.5846 103.483Z" fill="#EB996E"/>
<path d="M87.9783 98.3398C87.9128 98.2583 88.022 98.0434 88.313 97.8136C88.7002 97.534 89.1563 97.3697 89.6301 97.3394C90.1037 97.3015 90.5782 97.4018 90.998 97.6284C91.3182 97.8136 91.4491 98.0137 91.3982 98.0952C91.2891 98.2879 90.5687 98.036 89.681 98.0952C88.7933 98.1545 88.1093 98.5102 87.9783 98.3398Z" fill="#263238"/>
<path d="M95.8877 98.3843C95.844 98.1842 96.4553 97.8877 97.2557 97.8952C98.0561 97.9026 98.6673 98.1916 98.6309 98.3991C98.5945 98.6066 97.9833 98.6659 97.2557 98.6659C96.528 98.6659 95.9241 98.5992 95.8877 98.3843Z" fill="#263238"/>
<path d="M77.5804 93.8046C77.7987 95.1978 78.0122 96.5935 78.2208 97.9917C78.2572 98.6575 78.4821 99.2984 78.8684 99.8369C79.596 100.659 80.9203 100.578 81.8517 100.037C83.2123 99.2292 83.9618 97.6804 84.5366 96.1834C85.1115 94.6865 85.6208 93.108 86.7195 91.9668C87.5095 92.8093 88.5406 93.3762 89.6657 93.5865C90.7907 93.7967 91.9523 93.6397 92.9845 93.1377C93.894 92.6782 94.6508 91.9519 95.5239 91.4184C95.9411 91.1178 96.4205 90.9188 96.9251 90.8365C97.4296 90.7543 97.946 90.7911 98.4345 90.9441C98.9511 91.1664 99.4168 91.5962 99.9698 91.5666C100.182 91.5483 100.386 91.4745 100.562 91.3525C100.738 91.2305 100.88 91.0643 100.974 90.87C101.155 90.4749 101.219 90.0342 101.156 89.6028C100.974 88.0021 99.7006 86.7274 98.2453 86.016C96.2152 85.0007 93.8795 84.8599 91.6092 84.8525C89.4566 84.7877 87.3046 85.0044 85.2061 85.4972C83.0988 86.0024 81.182 87.1227 79.6906 88.7209C78.9558 89.5266 78.4093 90.4909 78.0918 91.5418C77.7743 92.5928 77.694 93.7032 77.8569 94.7902" fill="#263238"/>
<path d="M95.371 89.2097C95.6688 90.6847 96.4361 92.0184 97.554 93.004C98.0579 93.5155 98.7283 93.8213 99.4385 93.8636C100.009 93.7944 100.534 93.5135 100.914 93.0747C101.294 92.6359 101.502 92.0698 101.498 91.4848C101.447 90.3055 100.949 89.1924 100.108 88.3798C99.3901 87.5141 98.3699 86.9666 97.2629 86.8531C96.714 86.8263 96.1754 87.0114 95.7545 87.3713C95.3337 87.7312 95.0617 88.2395 94.9927 88.7947" fill="#263238"/>
<path d="M88.7715 100.489C88.7715 100.685 88.8481 100.874 88.9846 101.013C89.1211 101.152 89.3061 101.23 89.4991 101.23C89.5907 101.236 89.6826 101.223 89.7692 101.192C89.8559 101.161 89.9355 101.113 90.0034 101.05C90.0713 100.987 90.1261 100.911 90.1645 100.826C90.2028 100.741 90.224 100.649 90.2268 100.556C90.2268 100.359 90.1501 100.17 90.0136 100.032C89.8772 99.8925 89.6921 99.8145 89.4991 99.8145C89.4073 99.8074 89.315 99.8195 89.2279 99.85C89.1408 99.8805 89.0607 99.9288 88.9926 99.992C88.9245 100.055 88.8698 100.132 88.8317 100.217C88.7937 100.303 88.7732 100.395 88.7715 100.489Z" fill="#263238"/>
<path d="M87.6218 99.6887C87.7163 99.785 88.2475 99.3626 89.0188 99.3478C89.7901 99.3329 90.3577 99.7183 90.4377 99.6146C90.5177 99.5108 90.3868 99.4071 90.1321 99.2292C89.7983 99.0031 89.4043 98.8867 89.0035 98.896C88.6027 98.9053 88.2144 99.0397 87.891 99.2811C87.6581 99.4812 87.5781 99.6887 87.6218 99.6887Z" fill="#263238"/>
<path d="M96.6736 100.466C96.6736 100.663 96.7502 100.851 96.8867 100.99C97.0232 101.129 97.2082 101.207 97.4012 101.207C97.4931 101.215 97.5854 101.202 97.6725 101.172C97.7595 101.141 97.8396 101.093 97.9077 101.03C97.9758 100.967 98.0306 100.89 98.0686 100.805C98.1066 100.719 98.1271 100.627 98.1289 100.533C98.1289 100.337 98.0522 100.148 97.9157 100.009C97.7793 99.8701 97.5942 99.792 97.4012 99.792C97.2191 99.7912 97.0433 99.8601 96.9085 99.985C96.7738 100.11 96.69 100.282 96.6736 100.466Z" fill="#263238"/>
<path d="M95.6549 99.8144C95.7422 99.9107 96.2807 99.4883 97.052 99.4735C97.8233 99.4587 98.3908 99.844 98.5073 99.7477C98.6237 99.6513 98.4563 99.5328 98.2017 99.3549C97.8667 99.1271 97.4708 99.0106 97.0682 99.0212C96.6656 99.0318 96.2761 99.1691 95.9533 99.4142C95.6913 99.5995 95.6113 99.7773 95.6549 99.8144Z" fill="#263238"/>
<path d="M92.8608 108.811C92.8608 108.863 92.6716 108.952 92.3224 108.93C91.8677 108.895 91.442 108.689 91.1291 108.352C90.8126 108.015 90.6287 107.572 90.6124 107.107C90.6124 106.758 90.707 106.558 90.7507 106.566C90.7943 106.573 90.7507 107.418 91.3983 108.085C92.0459 108.752 92.8681 108.707 92.8608 108.811Z" fill="#263238"/>
<path d="M95.4366 138.498L106.795 134.63C106.795 134.63 114.697 153.683 116.734 153.898C128.006 154.943 140.07 151.141 144.297 149.637C144.727 149.14 145.221 148.555 145.753 147.828C146.218 147.207 146.577 146.511 146.815 145.768C147.14 144.854 147.343 143.899 147.419 142.93C147.395 142.741 147.43 142.55 147.52 142.383C147.609 142.216 147.748 142.082 147.916 142C148.085 141.917 148.274 141.892 148.458 141.926C148.642 141.959 148.81 142.052 148.94 142.189C149.427 142.834 149.551 145.294 148.438 147.939C147.324 150.585 151.261 148.48 152.709 147.739C154.157 146.998 158.748 144.923 159.323 145.198C160.167 145.598 159.905 146.591 158.442 147.295C156.98 147.999 152.731 150.437 153.153 151.193C153.575 151.949 160.895 148.073 160.895 148.073C160.895 148.073 162.35 146.983 162.845 147.843C163.776 149.399 155.685 152.934 154.913 153.253C154.368 153.475 154.797 154.32 155.365 154.046C155.932 153.772 162.583 150.007 163.543 151.586C164.271 152.793 156.922 154.55 155.976 156.113C155.03 157.677 161.419 154.201 162.081 155.372C162.321 155.817 162.444 156.18 158.486 157.596C155.589 158.522 152.645 159.289 149.667 159.893C149.667 159.893 108.92 178.464 101.643 160.545C94.1705 142.374 95.4366 138.498 95.4366 138.498Z" fill="#EB996E"/>
<path d="M110.601 140.907C106.053 130.065 100.101 125.819 96.9574 124.248C95.8561 123.703 94.6583 123.391 93.4357 123.329L93.0573 121.461L77.9953 120.083L77.6242 122.454L75.4413 122.328C75.4413 122.328 62.4603 123.655 62.4312 138.973C62.4312 146.139 66.2221 153.112 67.561 156.529C68.3978 163.673 65.3781 176.634 65.4727 179.791L102.386 182.459L103.899 158.974L103.557 156.751L115.709 152.957L110.601 140.907Z" fill="#EBEBEB"/>
<path d="M192.329 89.0614C187 82.3407 179.836 77.3796 171.74 74.805C163.644 72.2304 154.981 72.1579 146.844 74.5967C138.708 77.0356 131.464 81.8762 126.029 88.5069C120.593 95.1375 117.209 103.261 116.305 111.849C115.576 118.832 116.511 125.89 119.032 132.426C121.553 138.962 125.585 144.782 130.785 149.392L93.2465 194.263L98.631 198.94L136.468 153.69C141.901 157.107 148.018 159.237 154.368 159.922C155.91 160.091 157.459 160.175 159.01 160.174C167.096 160.147 175.01 157.794 181.841 153.387C188.671 148.981 194.141 142.699 197.62 135.265C201.1 127.831 202.447 119.548 201.507 111.368C200.567 103.189 197.378 95.4463 192.307 89.0318L192.329 89.0614ZM194.555 120.364C193.674 128.751 189.964 136.568 184.059 142.482C178.153 148.396 170.417 152.042 162.168 152.798C153.919 153.554 145.668 151.374 138.82 146.629C131.973 141.884 126.952 134.867 124.615 126.775C122.277 118.683 122.767 110.016 126 102.25C129.233 94.4842 135.011 88.1005 142.347 84.1864C149.684 80.2724 158.126 79.0703 166.235 80.7848C174.345 82.4994 181.62 87.0246 186.82 93.5893C189.784 97.3098 191.993 101.592 193.321 106.188C194.648 110.784 195.068 115.602 194.555 120.364Z" fill="#263238"/>
<path d="M189.309 85.9861C183.982 79.262 176.818 74.2976 168.721 71.7209C160.624 69.1441 151.959 69.0707 143.821 71.51C135.683 73.9493 128.439 78.7916 123.003 85.4246C117.568 92.0576 114.186 100.183 113.285 108.774C112.555 115.757 113.49 122.816 116.01 129.352C118.531 135.887 122.564 141.707 127.765 146.316L89.7683 191.522L95.5239 196.213L133.47 150.585C138.904 153.999 145.021 156.128 151.37 156.817C152.912 156.982 154.462 157.067 156.012 157.069C164.098 157.042 172.012 154.689 178.843 150.283C185.673 145.876 191.143 139.594 194.622 132.16C198.102 124.726 199.449 116.443 198.509 108.263C197.569 100.084 194.38 92.3414 189.309 85.9269V85.9861ZM191.535 117.289C190.655 125.68 186.945 133.501 181.037 139.419C175.13 145.336 167.39 148.985 159.137 149.742C150.885 150.499 142.629 148.318 135.778 143.571C128.927 138.824 123.905 131.805 121.566 123.709C119.227 115.613 119.717 106.941 122.952 99.172C126.188 91.4027 131.968 85.0164 139.308 81.1011C146.649 77.1859 155.095 75.9841 163.208 77.7005C171.321 79.4169 178.599 83.9453 183.801 90.5141C186.763 94.2352 188.972 98.5173 190.299 103.113C191.627 107.709 192.047 112.527 191.535 117.289Z" fill="#455A64"/>
<path d="M136.468 137.076C136.36 136.982 136.265 136.875 136.184 136.757C136.009 136.535 135.74 136.216 135.456 135.779C134.572 134.557 133.772 133.275 133.063 131.94C130.692 127.53 129.252 122.663 128.834 117.653C128.417 112.643 129.032 107.6 130.64 102.846C131.115 101.411 131.689 100.012 132.357 98.6586C132.582 98.1694 132.793 97.8137 132.932 97.5692C132.988 97.4369 133.064 97.3143 133.157 97.2061C133.115 97.3439 133.062 97.4778 132.997 97.6062C132.888 97.8656 132.699 98.2287 132.488 98.7178C131.877 100.092 131.342 101.499 130.887 102.935C129.364 107.671 128.794 112.67 129.209 117.636C129.624 122.601 131.016 127.43 133.303 131.836C133.985 133.172 134.743 134.466 135.573 135.712C135.857 136.164 136.104 136.453 136.257 136.727C136.339 136.836 136.409 136.952 136.468 137.076Z" fill="#263238"/>
<path d="M138.251 92.2259C138.316 92.3148 137.88 92.7298 137.443 93.3152C137.006 93.9007 136.715 94.4269 136.613 94.3898C136.512 94.3527 136.657 93.708 137.137 93.0781C137.618 92.4482 138.2 92.1369 138.251 92.2259Z" fill="#263238"/>
<path d="M100.53 132.718C100.647 133.051 100.735 133.393 100.792 133.741C100.938 134.4 101.127 135.364 101.352 136.564C101.789 138.951 102.32 142.271 102.808 145.954C103.295 149.637 103.535 152.986 103.673 155.41C103.746 156.625 103.79 157.633 103.804 158.285C103.839 158.637 103.839 158.992 103.804 159.345C103.73 159.001 103.686 158.652 103.673 158.3C103.608 157.559 103.521 156.588 103.419 155.432C103.208 153.016 102.888 149.674 102.444 145.998C102 142.323 101.505 139.01 101.134 136.609C100.959 135.468 100.814 134.512 100.697 133.763C100.605 133.422 100.549 133.072 100.53 132.718Z" fill="#263238"/>
<path d="M120.605 169.119C120.605 169.119 79.8579 187.728 72.5816 169.809C65.116 151.556 66.3821 147.68 66.3821 147.68L77.7405 143.812C77.7405 143.812 85.6499 162.865 87.68 163.08C98.9583 164.132 111.023 160.323 115.25 158.819C115.679 158.33 116.167 157.737 116.705 157.018C117.244 156.299 117.666 155.536 118.161 154.891C119.238 153.52 120.089 153.29 120.562 152.749C121.682 151.452 122.745 152.401 122.221 153.098C121.697 153.794 120.525 154.506 119.412 157.159C118.299 159.812 122.264 158.5 123.836 158.085C125.568 157.618 128.82 156.329 128.82 156.329C128.901 157.107 128.035 158.67 126.572 159.374C125.78 159.767 124.966 160.114 124.135 160.412C124.135 160.412 127.14 160.034 127.22 160.738C127.3 161.442 126.332 166.6 123.13 168.149L120.605 169.119Z" fill="#FFBE9D"/>
<path d="M75.0701 127.212L82.3901 149.718L66.3821 156.165C66.3821 156.165 58.0289 134.059 68.6087 128.65L75.0701 127.212Z" fill="#EBEBEB"/>
<path d="M83.4525 148.844C83.4525 148.844 83.3652 148.785 83.2342 148.636C83.0528 148.405 82.8921 148.157 82.754 147.895C82.3085 146.933 81.9221 145.943 81.597 144.931C80.702 142.412 79.4869 138.914 78.1699 135.053L76.3289 129.598C75.7614 127.924 75.3175 126.367 74.4808 125.367C74.169 124.961 73.772 124.631 73.3187 124.401C72.8654 124.172 72.3674 124.048 71.8613 124.04C71.4875 124.065 71.1208 124.156 70.7771 124.307C70.7771 124.307 70.8499 124.226 71.0245 124.129C71.2816 123.992 71.5642 123.911 71.854 123.892C72.3926 123.868 72.9293 123.972 73.4209 124.197C73.9126 124.423 74.3454 124.762 74.6845 125.189C75.6013 126.234 76.0743 127.827 76.6564 129.48C77.2385 131.132 77.8643 132.993 78.5264 134.927C79.8507 138.788 81.0222 142.337 81.8517 144.842C82.2737 146.117 82.5793 147.162 82.8849 147.806C83.1906 148.451 83.4816 148.822 83.4525 148.844Z" fill="#263238"/>
<path d="M83.1105 149.266C82.9265 149.421 82.7235 149.55 82.5066 149.651C82.1064 149.881 81.517 150.192 80.7821 150.563C79.3268 151.304 77.253 152.267 74.961 153.223C72.6689 154.179 70.4933 154.943 68.9289 155.447C68.1503 155.699 67.4736 155.891 67.0661 156.01C66.8318 156.096 66.5869 156.148 66.3385 156.165C67.1404 155.785 67.967 155.46 68.8125 155.195C70.3551 154.624 72.4506 153.824 74.7863 152.875C77.1221 151.927 79.1522 151 80.6656 150.318C81.4585 149.917 82.275 149.565 83.1105 149.266Z" fill="#263238"/>
<path d="M69.0016 155.335C68.3402 154.326 67.8986 153.184 67.7064 151.986C68.0889 152.457 68.3691 153.005 68.5286 153.594C68.8097 154.132 68.9712 154.727 69.0016 155.335Z" fill="#263238"/>
<path d="M72.3851 154.009C72.2905 154.061 71.8539 153.409 71.5338 152.527C71.2809 151.993 71.18 151.397 71.2427 150.808C71.5402 151.3 71.7588 151.838 71.8903 152.401C72.1327 152.909 72.2994 153.451 72.3851 154.009Z" fill="#263238"/>
<path d="M75.9287 152.445C75.4869 152.028 75.1713 151.49 75.0191 150.896C74.7535 150.342 74.6476 149.723 74.7135 149.11C75.008 149.625 75.2309 150.179 75.3757 150.756C75.6345 151.291 75.8205 151.859 75.9287 152.445Z" fill="#263238"/>
<path d="M79.7197 150.889C79.3689 150.37 79.1217 149.786 78.9921 149.17C78.7504 148.591 78.6242 147.969 78.621 147.339C78.9796 147.851 79.2276 148.435 79.3486 149.051C79.5972 149.631 79.7236 150.257 79.7197 150.889Z" fill="#263238"/>
<path d="M116 152.719C113.99 153.584 111.932 154.327 109.836 154.942C107.779 155.676 105.683 156.29 103.557 156.78C105.567 155.919 107.625 155.176 109.72 154.557C111.776 153.821 113.873 153.207 116 152.719Z" fill="#263238"/>
<path d="M106.235 155.335C106.133 155.38 105.813 154.831 105.507 154.12C105.201 153.409 105.049 152.794 105.143 152.749C105.238 152.705 105.558 153.253 105.871 153.972C106.184 154.691 106.344 155.269 106.235 155.335Z" fill="#263238"/>
<path d="M109.378 154.617C109.283 154.617 108.941 154.009 108.709 153.135C108.509 152.622 108.453 152.062 108.549 151.519C108.658 151.519 108.847 152.193 109.072 153.001C109.276 153.514 109.38 154.063 109.378 154.617Z" fill="#263238"/>
<path d="M112.783 153.52C112.329 152.529 112.112 151.442 112.15 150.348C112.431 150.819 112.603 151.349 112.653 151.897C112.818 152.42 112.863 152.976 112.783 153.52Z" fill="#263238"/>
<path d="M79.4723 122.247C79.3632 122.247 79.3122 121.832 79.3413 121.328C79.3704 120.824 79.4941 120.431 79.596 120.439C79.6979 120.446 79.7561 120.861 79.7197 121.358C79.6833 121.854 79.5742 122.254 79.4723 122.247Z" fill="#263238"/>
<path d="M82.7902 122.447C82.6811 122.447 82.5865 122.047 82.5647 121.55C82.5428 121.054 82.6156 120.639 82.7175 120.639C82.8193 120.639 82.9212 121.031 82.943 121.535C82.9649 122.039 82.8921 122.439 82.7902 122.447Z" fill="#263238"/>
<path d="M85.3516 122.899C85.2497 122.899 85.1697 122.476 85.1697 121.958C85.1697 121.439 85.2643 121.024 85.3661 121.024C85.468 121.024 85.5553 121.446 85.5481 121.958C85.5408 122.469 85.4607 122.899 85.3516 122.899Z" fill="#263238"/>
<path d="M88.8152 123.284C88.7206 123.284 88.5095 122.832 88.495 122.195C88.4804 121.557 88.6551 121.068 88.7497 121.091C88.8443 121.113 88.8515 121.594 88.8734 122.18C88.8952 122.765 88.9243 123.254 88.8152 123.284Z" fill="#263238"/>
<path d="M91.682 123.284C91.5728 123.284 91.4346 122.818 91.3618 122.21C91.2891 121.602 91.3182 121.098 91.42 121.091C91.5219 121.083 91.6674 121.558 91.7402 122.165C91.813 122.773 91.7766 123.27 91.682 123.284Z" fill="#263238"/>
</g>
</svg>
