<svg width="35" height="35" viewBox="0 0 35 35" fill="none" xmlns="http://www.w3.org/2000/svg">
<path d="M30.625 16.0417V14.5834C30.625 9.08404 30.625 6.33362 28.8167 4.62591C27.0069 2.91675 24.0946 2.91675 18.2729 2.91675H16.7271C10.9069 2.91675 7.99458 2.91675 6.18333 4.62591C4.375 6.33362 4.375 9.08404 4.375 14.5834V20.4167C4.375 25.9161 4.375 28.6665 6.18333 30.3742C7.99312 32.0834 10.9054 32.0834 16.7271 32.0834H17.5M11.6667 10.2084H23.3333M11.6667 17.5001H18.9583" stroke="white" stroke-width="1.5" stroke-linecap="round" stroke-linejoin="round"/>
<path d="M30.625 30.1103V24.7917C30.625 22.7063 28.6665 20.4167 26.25 20.4167C23.8335 20.4167 21.875 22.7063 21.875 24.7917V29.8959C21.875 31.0334 22.944 32.0834 24.2608 32.0834C25.5792 32.0834 26.6481 31.0334 26.6481 29.8959V25.9074" stroke="white" stroke-width="1.5" stroke-linecap="round" stroke-linejoin="round"/>
</svg>
