<svg width="30" height="30" viewBox="0 0 30 30" fill="none" xmlns="http://www.w3.org/2000/svg">
<path d="M24.375 28.125H10.3125C9.81522 28.125 9.33831 27.9275 8.98668 27.5758C8.63504 27.2242 8.4375 26.7473 8.4375 26.25V20.625H10.3125V26.25H24.375V5.625H15.9375V3.75H24.375C24.8723 3.75 25.3492 3.94754 25.7008 4.29917C26.0525 4.65081 26.25 5.12772 26.25 5.625V26.25C26.25 26.7473 26.0525 27.2242 25.7008 27.5758C25.3492 27.9275 24.8723 28.125 24.375 28.125Z" fill="white"/>
<path d="M15.9375 9.375H22.5V11.25H15.9375V9.375ZM15 14.0625H22.5V15.9375H15V14.0625ZM14.0625 18.75H22.5V20.625H14.0625V18.75ZM8.4375 17.8125C7.19475 17.811 6.00334 17.3167 5.12458 16.4379C4.24583 15.5592 3.75149 14.3677 3.75 13.125V2.8125H5.625V13.125C5.625 13.8709 5.92132 14.5863 6.44876 15.1137C6.97621 15.6412 7.69158 15.9375 8.4375 15.9375C9.18342 15.9375 9.89879 15.6412 10.4262 15.1137C10.9537 14.5863 11.25 13.8709 11.25 13.125V4.6875C11.25 4.43886 11.1512 4.2004 10.9754 4.02459C10.7996 3.84877 10.5611 3.75 10.3125 3.75C10.0639 3.75 9.8254 3.84877 9.64959 4.02459C9.47377 4.2004 9.375 4.43886 9.375 4.6875V14.0625H7.5V4.6875C7.5 3.94158 7.79632 3.22621 8.32376 2.69876C8.85121 2.17132 9.56658 1.875 10.3125 1.875C11.0584 1.875 11.7738 2.17132 12.3012 2.69876C12.8287 3.22621 13.125 3.94158 13.125 4.6875V13.125C13.1235 14.3677 12.6292 15.5592 11.7504 16.4379C10.8717 17.3167 9.68025 17.811 8.4375 17.8125Z" fill="white"/>
</svg>
