<svg width="227" height="226" viewBox="0 0 227 226" fill="none" xmlns="http://www.w3.org/2000/svg">
<path d="M33.2448 210.933C77.5712 231.022 149.431 231.022 193.757 210.933C238.084 190.845 238.078 158.235 193.757 138.136C149.436 118.037 77.5712 118.048 33.2448 138.136C-11.0816 158.225 -11.0816 190.845 33.2448 210.933Z" fill="#F5F5F5"/>
<path d="M190.203 183.578C204.806 183.578 216.645 177.96 216.645 171.03C216.645 164.1 204.806 158.482 190.203 158.482C175.6 158.482 163.761 164.1 163.761 171.03C163.761 177.96 175.6 183.578 190.203 183.578Z" fill="#E0E0E0"/>
<path d="M35.2415 190.124C49.8448 190.124 61.6831 184.507 61.6831 177.577C61.6831 170.647 49.8448 165.029 35.2415 165.029C20.6381 165.029 8.7998 170.647 8.7998 177.577C8.7998 184.507 20.6381 190.124 35.2415 190.124Z" fill="#E0E0E0"/>
<path d="M19.5296 174.919H24.3772V166.657H19.5296V174.919Z" fill="#B16668"/>
<path d="M39.3496 168.665L44.1972 168.83L44.4403 160.089L39.3496 159.924V168.665Z" fill="#B16668"/>
<path d="M20.9783 108.071C20.9783 112.676 21.2214 139.378 21.2214 139.378C21.1076 140.701 19.8298 143.061 19.7263 147.835C19.5814 154.758 19.3228 170.793 19.3228 170.793C20.16 171.201 21.077 171.422 22.0093 171.44C22.9415 171.458 23.8663 171.272 24.7187 170.896C24.7187 170.896 29.856 148.093 30.7251 141.253C31.4804 135.267 32.7945 119.016 32.7945 119.016L36.4987 139.239C35.9297 141.753 35.719 144.335 35.8727 146.908C36.1003 150.076 39.0492 165.967 39.0492 165.967C39.894 166.441 40.8331 166.726 41.8004 166.8C42.7676 166.874 43.7393 166.735 44.6469 166.394C44.6469 166.394 44.9367 141.464 44.9884 138.579C45.0556 135.262 43.6019 106.731 43.6019 106.731L20.9783 108.071Z" fill="#37474F"/>
<path d="M24.3773 172.539V171.849C24.636 171.849 24.7963 172.101 24.8946 172.719C24.9634 173.179 25.0567 173.634 25.174 174.084C25.3911 174.929 25.6748 175.756 26.0225 176.557C26.7054 178.236 27.2796 178.864 28.8523 180.827C29.3886 181.371 29.8914 181.947 30.3578 182.552C30.6475 183.067 30.751 184.515 30.2544 184.844C28.4229 186.06 25.6448 186.096 23.6789 185.519C22.9463 185.316 22.2879 184.908 21.7824 184.342C21.2769 183.777 20.9456 183.079 20.8283 182.331C20.7559 181.883 20.7817 181.429 20.73 180.981C20.5599 179.963 20.1445 179.002 19.5194 178.179C19.1526 177.7 18.8402 177.182 18.5882 176.634C18.1795 175.64 18.5054 174.527 18.7641 173.543C18.9917 172.688 19.2348 171.751 19.5246 171.833V172.348C20.2162 172.888 21.0725 173.175 21.9509 173.162C22.6649 173.219 24.3825 173.075 24.3773 172.539Z" fill="#263238"/>
<path d="M44.249 167.342C44.4973 167.342 44.7042 167.707 45.2837 168.305C46.1131 169.144 47.0763 169.84 48.1343 170.365C49.9502 171.272 53.4785 172.663 55.0719 173.379C56.0704 173.827 56.0238 175.027 54.9943 175.707C53.9648 176.387 51.4712 176.881 48.4861 176.222C46.8564 175.861 44.7353 174.362 43.3954 174.445C42.0554 174.527 39.5411 174.507 38.553 173.827C37.5648 173.147 37.958 171.694 38.2374 170.448C38.5426 169.083 38.9255 166.961 39.3756 167.053V167.522C39.9602 168.403 42.966 168.758 44.249 168.114V167.342Z" fill="#263238"/>
<path d="M32.7688 119.016C35.2657 118.235 37.5611 116.92 39.4943 115.164C39.4943 115.164 38.1906 117.59 34.3208 119.851L36.1936 137.838L32.7688 119.016Z" fill="#263238"/>
<path d="M40.4723 97.0475C37.3061 86.55 37.9321 77.6596 37.3372 74.9399L45.4543 86.2255C45.7979 89.9452 46.3524 93.6425 47.115 97.2999C48.0514 101.312 49.3293 106.314 50.8606 109.425C51.1385 109.973 51.6075 110.402 52.1799 110.63C53.7319 111.254 54.4252 112.042 55.6513 112.943C56.6135 113.654 57.343 113.747 57.2861 114.035C57.1798 114.36 56.9548 114.633 56.6558 114.8C56.3567 114.967 56.0055 115.015 55.672 114.937C54.9317 114.782 54.2127 114.54 53.5302 114.215C54.2185 115.378 55.0921 116.422 56.1169 117.306C58.4657 119.341 58.8019 120.778 54.9011 121.483C52.4541 121.931 50.245 120.762 47.4565 115.704C46.4002 113.863 45.4787 111.949 44.699 109.976C42.8366 104.825 41.4294 100.226 40.4723 97.0475Z" fill="#B16668"/>
<path d="M36.6797 72.3291C39.1992 72.7721 41.6928 73.3593 43.2397 75.7699C44.7865 78.1805 47.0215 89.5588 47.0215 89.5588C47.0215 89.5588 43.7725 91.8303 40.0476 91.7325L36.6797 72.3291Z" fill="#9CD6F3"/>
<path opacity="0.1" d="M36.6797 72.3291C39.1992 72.7721 41.6928 73.3593 43.2397 75.7699C44.7865 78.1805 47.0215 89.5588 47.0215 89.5588C47.0215 89.5588 43.7725 91.8303 40.0476 91.7325L36.6797 72.3291Z" fill="black"/>
<path d="M19.3178 76.5571C17.6261 77.7573 8.70181 97.8251 8.36036 99.221C7.89992 101.122 8.11203 103.249 9.04843 103.939C9.98483 104.629 12.0491 103.64 13.1303 102.59C15.1997 100.529 22.4426 85.5197 22.4426 85.5197L19.3178 76.5571Z" fill="#9A4A4D"/>
<path d="M28.1901 72.3745C24.0513 73.3635 18.8778 75.0169 17.0309 78.7874C15.184 82.5578 12.3748 88.6822 12.3748 88.6822C14.289 90.5417 16.624 91.916 19.1831 92.6896L21.2524 89.084L20.9472 108.142C24.2841 110.563 36.5401 111.882 43.5657 106.772C43.5657 106.772 42.7069 83.9228 42.7069 80.3635C42.7069 76.8043 40.7203 72.5342 35.2415 72.2148L28.1901 72.3745Z" fill="#9CD6F3"/>
<path opacity="0.1" d="M21.2839 89.0381C21.2839 89.0381 23.3533 85.4788 23.793 84.6187L21.2063 93.3751L21.2839 89.0381Z" fill="black"/>
<path d="M36.0333 63.1241C39.7105 63.1241 42.6915 60.1561 42.6915 56.4949C42.6915 52.8337 39.7105 49.8657 36.0333 49.8657C32.356 49.8657 29.375 52.8337 29.375 56.4949C29.375 60.1561 32.356 63.1241 36.0333 63.1241Z" fill="#263238"/>
<path d="M24.5171 61.208C24.5171 61.208 25.5983 66.2559 26.0329 67.0852C26.32 67.5971 26.7944 67.979 27.3573 68.1514L27.2849 64.6024L24.5171 61.208Z" fill="#263238"/>
<path d="M25.8724 53.9761C25.4948 53.9332 25.1123 53.9762 24.7538 54.1021C24.3953 54.2279 24.0702 54.4331 23.803 54.7023C22.9184 55.6038 23.415 58.4367 24.517 61.2079L26.5502 61.4397L25.8724 53.9761Z" fill="#263238"/>
<path d="M27.1608 61.4449C26.7521 61.687 26.1727 60.9041 25.6708 60.3839C25.169 59.8636 23.5238 59.1425 22.7064 60.8577C21.889 62.573 23.4307 64.9218 24.7241 65.3287C26.9487 66.0241 27.3108 64.6024 27.3108 64.6024L27.4712 72.8438C30.239 76.3773 37.9216 76.0786 34.7141 72.3906V69.9542C35.7057 70.1143 36.7118 70.1661 37.7147 70.1087C39.3547 69.8563 40.3842 68.5635 40.8809 66.807C41.6776 63.974 41.9828 61.6561 41.3051 56.1086C40.5653 49.9997 33.4259 49.9276 29.5716 52.3536C25.7174 54.7797 27.1608 61.4449 27.1608 61.4449Z" fill="#B16668"/>
<path d="M27.1606 62.1243C26.9536 62.1243 26.1776 60.8418 25.6706 60.3833C24.967 59.7446 25.8724 53.9756 25.8724 53.9756C25.6342 53.471 25.5533 52.907 25.6399 52.3562C25.7266 51.8054 25.9769 51.293 26.3587 50.8851C27.321 49.8292 28.6661 48.5363 33.0325 49.0514C36.1366 49.4223 39.5407 50.3855 42.2827 49.0514C42.5375 49.9414 42.519 50.887 42.2295 51.7664C41.94 52.6458 41.3927 53.4188 40.6582 53.9859C40.6582 53.9859 39.6649 54.6195 37.0368 54.9389C34.6234 55.1191 32.1984 55.0726 29.7939 54.7998C29.0386 54.6968 28.8782 55.4282 28.4695 57.4216C28.1487 59.1471 27.8487 62.114 27.1606 62.1243Z" fill="#263238"/>
<path d="M25.8779 54.4242L23.4153 53.1056C23.4944 52.9411 23.606 52.7942 23.7435 52.6737C23.881 52.5532 24.0415 52.4616 24.2155 52.4044C24.3894 52.3471 24.5731 52.3255 24.7556 52.3406C24.9382 52.3558 25.1158 52.4075 25.2777 52.4926C25.6083 52.6758 25.8551 52.9788 25.9669 53.3386C26.0787 53.6984 26.0468 54.0873 25.8779 54.4242Z" fill="#263238"/>
<path d="M34.6882 69.9489C34.6882 69.9489 31.0357 69.2175 29.7579 68.5428C29.006 68.1523 28.3895 67.5457 27.9885 66.8018C28.1816 67.5484 28.5228 68.2489 28.9922 68.8621C29.9286 70.052 34.683 70.9225 34.683 70.9225L34.6882 69.9489Z" fill="#9A4A4D"/>
<path d="M33.8035 60.5282C33.8063 60.7254 33.7306 60.9157 33.5929 61.0575C33.4553 61.1994 33.2669 61.2813 33.0688 61.2854C32.873 61.2773 32.688 61.1939 32.5529 61.0526C32.4178 60.9113 32.343 60.7233 32.3446 60.5282C32.3418 60.331 32.4175 60.1407 32.5551 59.9988C32.6927 59.857 32.8811 59.7751 33.0792 59.771C33.275 59.779 33.46 59.8625 33.5951 60.0038C33.7303 60.145 33.805 60.3331 33.8035 60.5282Z" fill="#263238"/>
<path d="M33.0325 57.7774L31.4804 58.6428C31.3677 58.4286 31.3424 58.1793 31.4099 57.947C31.4774 57.7148 31.6324 57.5174 31.8426 57.3963C31.9454 57.3415 32.0583 57.3079 32.1745 57.2974C32.2906 57.287 32.4077 57.3 32.5187 57.3355C32.6298 57.3711 32.7325 57.4285 32.8207 57.5045C32.909 57.5804 32.981 57.6732 33.0325 57.7774Z" fill="#263238"/>
<path d="M34.3572 65.5708L36.0334 66.1941C35.9974 66.3063 35.9389 66.4101 35.8615 66.4992C35.784 66.5883 35.6892 66.6608 35.5828 66.7123C35.4764 66.7638 35.3606 66.7933 35.2424 66.799C35.1242 66.8046 35.0061 66.7863 34.8952 66.7452C34.6698 66.6574 34.4876 66.4857 34.3872 66.2665C34.2868 66.0473 34.276 65.7978 34.3572 65.5708Z" fill="#9A4A4D"/>
<path d="M40.3427 58.385L38.9148 57.293C38.9811 57.196 39.0667 57.1136 39.1664 57.051C39.266 56.9884 39.3775 56.9468 39.494 56.9289C39.6105 56.9111 39.7294 56.9172 39.8433 56.9471C39.9573 56.9769 40.0639 57.0298 40.1564 57.1024C40.3463 57.252 40.4714 57.4683 40.506 57.7068C40.5407 57.9454 40.4822 58.188 40.3427 58.385Z" fill="#263238"/>
<path d="M39.9032 60.3268C39.8971 60.47 39.8489 60.6082 39.7646 60.7244C39.6802 60.8405 39.5635 60.9294 39.4288 60.9801C39.2942 61.0307 39.1475 61.0409 39.0071 61.0093C38.8667 60.9777 38.7388 60.9057 38.6391 60.8023C38.5394 60.6988 38.4725 60.5686 38.4466 60.4276C38.4207 60.2866 38.4369 60.1412 38.4933 60.0093C38.5497 59.8774 38.6438 59.765 38.7638 59.6859C38.8839 59.6068 39.0246 59.5646 39.1685 59.5645C39.2671 59.5665 39.3642 59.5878 39.4545 59.6272C39.5447 59.6666 39.6263 59.7233 39.6945 59.7941C39.7627 59.8649 39.8163 59.9484 39.8521 60.0398C39.8879 60.1312 39.9052 60.2287 39.9032 60.3268Z" fill="#263238"/>
<path d="M36.1731 59.6318L36.4111 64.0204L38.7133 63.2375L36.1731 59.6318Z" fill="#9A4A4D"/>
<path d="M16.6742 111.454C16.6056 111.454 16.5398 111.427 16.4913 111.379C16.4428 111.331 16.4155 111.265 16.4155 111.197V30.1838C16.4155 30.1155 16.4428 30.05 16.4913 30.0017C16.5398 29.9534 16.6056 29.9263 16.6742 29.9263C16.7428 29.9263 16.8086 29.9534 16.8571 30.0017C16.9056 30.05 16.9329 30.1155 16.9329 30.1838V111.197C16.9329 111.265 16.9056 111.331 16.8571 111.379C16.8086 111.427 16.7428 111.454 16.6742 111.454Z" fill="#37474F"/>
<path d="M18.64 37.2355C18.64 36.4063 16.9173 34.145 16.5706 34.145C16.224 34.145 14.6875 36.365 14.6875 37.2355C14.7032 37.4081 14.7646 37.5734 14.8655 37.7146C14.9664 37.8558 15.1032 37.9677 15.2618 38.0391C15.6919 38.2575 16.168 38.3714 16.6508 38.3714C17.1337 38.3714 17.6097 38.2575 18.0399 38.0391C18.1995 37.9685 18.3373 37.8568 18.4391 37.7156C18.5409 37.5743 18.6032 37.4087 18.6193 37.2355H18.64Z" fill="#9CD6F3"/>
<path opacity="0.1" d="M18.64 37.2355C18.64 36.4063 16.9173 34.145 16.5706 34.145C16.224 34.145 14.6875 36.365 14.6875 37.2355C14.7032 37.4081 14.7646 37.5734 14.8655 37.7146C14.9664 37.8558 15.1032 37.9677 15.2618 38.0391C15.6919 38.2575 16.168 38.3714 16.6508 38.3714C17.1337 38.3714 17.6097 38.2575 18.0399 38.0391C18.1995 37.9685 18.3373 37.8568 18.4391 37.7156C18.5409 37.5743 18.6032 37.4087 18.6193 37.2355H18.64Z" fill="black"/>
<path d="M28.1128 19.2591C28.1128 25.5947 23.1152 33.5991 16.5863 35.1135C10.0056 33.2849 5.06494 25.5947 5.06494 19.2591C5.06494 12.9235 9.16234 7 16.5915 7C24.0206 7 28.1128 12.9184 28.1128 19.2591Z" fill="#23A2E1"/>
<path opacity="0.05" d="M5.48923 15.7822C5.20411 16.9193 5.06161 18.0871 5.065 19.2591C5.065 25.5947 10.0212 33.2849 16.5915 35.1135C22.0185 33.8515 26.3849 28.1083 27.7041 22.5659C27.7041 22.5659 25.9866 28.6491 18.4281 29.1385C10.8696 29.6278 4.77011 21.0258 5.48923 15.7822Z" fill="black"/>
<path d="M9.3071 104.063C7.93095 103.672 6.51859 99.5716 6.62206 96.9446C6.72553 94.3177 10.2745 82.9549 10.7608 80.7709C11.3144 78.3603 11.2782 76.5266 11.7697 75.2749C12.494 73.4257 14.8738 72.411 14.8738 72.411C14.8738 72.411 17.9778 70.9327 19.0953 70.7112C20.2128 70.4897 20.6474 71.2263 20.5232 71.8084C20.399 72.3904 20.0058 73.8687 19.9024 74.6722C19.8287 75.7007 19.5265 76.6999 19.0177 77.5979C18.4331 78.5303 16.0481 80.7606 15.955 82.0019C15.8619 83.2433 15.1738 89.9807 14.7806 94.8791C14.4547 98.8865 14.0512 100.545 13.1769 101.606C12.3025 102.667 10.378 104.362 9.3071 104.063Z" fill="#B16668"/>
<path d="M203.53 162.021H198.615V170.396H203.53V162.021Z" fill="#FFA8A7"/>
<path d="M186.494 161.578L181.584 161.743L181.341 152.883L186.494 152.713V161.578Z" fill="#FFA8A7"/>
<path d="M201.942 99.7004C201.942 104.372 202.676 132.429 202.676 132.429C202.79 133.773 204.089 136.163 204.192 141.005C204.337 148.026 203.726 166.209 203.726 166.209C202.878 166.623 201.949 166.847 201.004 166.866C200.06 166.885 199.122 166.697 198.258 166.317C198.258 166.317 193.923 141.278 193.043 134.33C192.277 128.267 190.974 111.79 190.974 111.79L188.32 131.61C188.888 134.16 189.094 136.776 188.93 139.383C188.697 142.597 186.809 158.853 186.809 158.853C185.95 159.335 184.995 159.624 184.011 159.698C183.028 159.772 182.04 159.629 181.118 159.281C181.118 159.281 178.635 134.556 178.578 131.61C178.516 128.247 180.213 93.9263 180.213 93.9263L201.942 99.7004Z" fill="#0A425F"/>
<path d="M182.686 90.0532C185.852 79.5505 185.226 70.6601 185.821 67.9404L177.704 79.226C177.36 82.9474 176.806 86.6464 176.043 90.3055C175.107 94.3181 173.829 99.3196 172.298 102.431C172.02 102.978 171.55 103.404 170.978 103.631C169.426 104.254 168.733 105.042 167.507 105.949C166.545 106.654 165.815 106.747 165.872 107.036C165.982 107.356 166.209 107.624 166.508 107.787C166.806 107.95 167.155 107.996 167.486 107.916C168.226 107.761 168.945 107.519 169.628 107.195C168.939 108.358 168.065 109.401 167.041 110.286C164.693 112.315 164.356 113.752 168.257 114.458C170.704 114.906 172.913 113.737 175.702 108.679C176.763 106.835 177.69 104.917 178.475 102.941C180.322 97.8001 181.729 93.2261 182.686 90.0532Z" fill="#FFA8A7"/>
<path d="M186.473 65.3286C183.954 65.7716 181.465 66.3588 179.918 68.7694C178.371 71.18 176.136 82.5583 176.136 82.5583C176.136 82.5583 179.385 84.8298 183.11 84.732L186.473 65.3286Z" fill="#E0E0E0"/>
<path d="M203.835 69.563C205.527 70.758 214.451 90.8258 214.792 92.2269C215.248 94.1275 215.041 96.26 214.104 96.9451C213.168 97.6301 211.104 96.6463 210.022 95.5955C207.953 93.5352 200.684 78.5307 200.684 78.5307L203.835 69.563Z" fill="#F28F8F"/>
<path d="M195.05 65.3239C199.163 66.3128 204.363 67.9663 206.204 71.7367C208.046 75.5072 210.861 81.6264 210.861 81.6264C208.945 83.4867 206.608 84.8612 204.047 85.6338L201.978 82.0282L202.283 101.061C198.946 103.482 186.69 104.795 179.665 99.6906C179.665 99.6906 180.529 76.8361 180.529 73.282C180.529 69.7279 182.51 65.4527 187.994 65.1333L195.05 65.3239Z" fill="#F0F0F0"/>
<path d="M201.942 82.0127C201.942 82.0127 199.872 78.4483 199.433 77.5933L202.019 86.3498L201.942 82.0127Z" fill="#E0E0E0"/>
<path d="M198.615 167.98V167.28C198.144 167.486 197.063 171.632 195.102 173.404C193.55 174.81 191.439 176.438 190.901 178.004C190.363 179.57 193.845 180.538 195.294 180.281C196.975 179.987 199.893 178.807 200.622 177.705C201.352 176.603 201.698 175.001 202.293 174.202C202.888 173.404 204.259 172.503 204.58 171.576C204.756 171.06 204.549 169.953 204.301 169C204.052 168.047 203.825 167.182 203.53 167.264V167.779C202.829 168.325 201.962 168.616 201.073 168.603C200.353 168.696 198.61 168.526 198.615 167.98Z" fill="#263238"/>
<path d="M181.532 160.234C181.279 160.234 181.072 160.605 180.498 161.207C179.659 162.051 178.683 162.747 177.611 163.268C175.769 164.184 172.194 165.596 170.575 166.322C169.54 166.775 169.613 167.991 170.658 168.681C171.703 169.371 174.222 169.876 177.254 169.196C178.904 168.825 181.057 167.311 182.427 167.388C183.798 167.466 186.333 167.455 187.337 166.765C188.341 166.075 187.942 164.602 187.658 163.34C187.347 161.959 186.959 159.806 186.499 159.904V160.378C185.909 161.269 182.878 161.63 181.564 160.975L181.532 160.234Z" fill="#263238"/>
<path opacity="0.1" d="M190.984 111.79C188.444 111.001 186.108 109.668 184.14 107.885C184.14 107.885 185.464 110.347 189.386 112.634L188.548 129.895L190.984 111.79Z" fill="black"/>
<path d="M196.592 47.1356C196.961 47.0919 197.335 47.1328 197.686 47.2551C198.036 47.3774 198.354 47.5779 198.615 47.8413C199.484 48.7273 199.303 50.3652 198.615 54.1254L195.93 54.4344L196.592 47.1356Z" fill="#263238"/>
<path d="M180.943 46.0337C180.365 46.0363 179.792 45.9206 179.261 45.6938C178.439 45.2199 178.226 46.1522 178.671 46.9609C178.969 47.5394 179.411 48.0324 179.954 48.393C180.498 48.7536 181.125 48.9699 181.775 49.0212C181.775 48.9079 182.546 46.9609 182.546 46.9609L180.943 46.0337Z" fill="#263238"/>
<path d="M195.335 54.4191C195.734 54.6561 196.303 53.9041 196.794 53.389C197.286 52.8739 198.89 52.1734 199.686 53.8525C200.483 55.5317 198.652 57.8393 197.565 58.5914C196.272 59.4876 195.335 58.7871 195.335 58.7871L195.051 65.3287C195.051 65.3287 193.623 68.8004 189.763 69.3206C185.904 69.8409 186.701 66.6782 187.968 65.1227V62.743C187.968 62.743 185.976 63.1344 185.035 62.8923C184.352 62.6781 183.734 62.2987 183.235 61.7881C182.735 61.2775 182.371 60.6517 182.174 59.9666C181.113 56.4766 180.892 52.7871 181.527 49.1962C182.51 43.2572 189.236 43.1593 193.002 45.5184C196.768 47.8775 195.335 54.4191 195.335 54.4191Z" fill="#FFA8A7"/>
<path d="M195.335 55.0886C195.532 55.0886 196.297 53.8317 196.794 53.3836C197.482 52.7604 196.592 47.1201 196.592 47.1201C196.592 47.1201 197.291 44.9825 195.93 43.5609C194.57 42.1392 191.936 42.3813 190.012 42.3144C187.648 42.3297 185.306 41.8616 183.131 40.9391C180.399 39.7544 180.192 39.6153 179.851 40.8103C179.51 42.0053 179.385 44.7456 181.02 46.5793L182.376 47.0944C182.376 47.0944 183.11 47.7382 185.661 48.0473C188.014 48.2247 190.378 48.1799 192.723 47.9134C193.462 47.8155 193.623 48.5263 194.021 50.4888C194.368 52.1732 194.658 55.0731 195.335 55.0886Z" fill="#263238"/>
<path d="M196.587 47.5579L198.998 46.2702C198.921 46.109 198.812 45.9649 198.678 45.8467C198.544 45.7285 198.387 45.6385 198.217 45.5822C198.047 45.5259 197.867 45.5045 197.688 45.5191C197.509 45.5338 197.336 45.5842 197.177 45.6675C196.853 45.8464 196.611 46.1427 196.501 46.4949C196.391 46.847 196.422 47.2278 196.587 47.5579Z" fill="#263238"/>
<path d="M187.973 62.7375C187.973 62.7375 191.548 62.0215 192.795 61.3622C193.531 60.9811 194.133 60.3866 194.523 59.6572C194.334 60.3859 194 61.0692 193.54 61.6661C192.629 62.8302 187.973 63.6852 187.973 63.6852V62.7375Z" fill="#F28F8F"/>
<path d="M188.827 53.4092C188.832 53.5496 188.879 53.6854 188.961 53.7997C189.043 53.914 189.157 54.0018 189.288 54.052C189.42 54.1023 189.564 54.1129 189.702 54.0824C189.839 54.0519 189.965 53.9818 190.063 53.8807C190.161 53.7796 190.227 53.6521 190.253 53.5139C190.279 53.3758 190.263 53.2332 190.208 53.1038C190.153 52.9745 190.061 52.8642 189.943 52.7866C189.825 52.709 189.687 52.6676 189.546 52.6675C189.45 52.6688 189.355 52.6891 189.267 52.7272C189.178 52.7652 189.098 52.8203 189.032 52.8893C188.965 52.9582 188.912 53.0397 188.877 53.1289C188.842 53.2181 188.825 53.3134 188.827 53.4092Z" fill="#263238"/>
<path d="M189.717 50.4577L191.269 51.3024C191.379 51.0933 191.404 50.8496 191.337 50.6229C191.27 50.3961 191.118 50.2039 190.912 50.0868C190.81 50.0286 190.697 49.992 190.58 49.9792C190.463 49.9664 190.345 49.9778 190.233 50.0126C190.121 50.0474 190.017 50.1049 189.928 50.1815C189.839 50.2581 189.767 50.3521 189.717 50.4577Z" fill="#263238"/>
<path d="M188.884 58.3647L187.249 58.9829C187.284 59.0924 187.342 59.1937 187.417 59.2806C187.493 59.3676 187.585 59.4384 187.689 59.4889C187.793 59.5394 187.906 59.5686 188.022 59.5745C188.137 59.5805 188.253 59.5632 188.361 59.5237C188.583 59.4372 188.763 59.2673 188.86 59.0506C188.958 58.8338 188.966 58.5876 188.884 58.3647Z" fill="#F28F8F"/>
<path d="M182.112 51.4779L183.508 50.4065C183.443 50.3107 183.358 50.2295 183.259 50.168C183.161 50.1065 183.05 50.066 182.935 50.049C182.82 50.0321 182.702 50.0391 182.59 50.0696C182.478 50.1001 182.373 50.1534 182.282 50.2262C182.099 50.374 181.98 50.5858 181.948 50.8183C181.916 51.0509 181.975 51.2868 182.112 51.4779Z" fill="#263238"/>
<path d="M182.914 53.2085C182.919 53.3491 182.965 53.4852 183.048 53.5996C183.13 53.714 183.244 53.8017 183.376 53.8518C183.508 53.9019 183.652 53.9122 183.79 53.8813C183.928 53.8504 184.054 53.7797 184.151 53.6782C184.249 53.5766 184.315 53.4485 184.34 53.3101C184.365 53.1716 184.349 53.0288 184.293 52.8996C184.237 52.7704 184.144 52.6604 184.026 52.5834C183.907 52.5064 183.769 52.4659 183.628 52.4668C183.435 52.4722 183.251 52.5531 183.118 52.6919C182.984 52.8307 182.911 53.0163 182.914 53.2085Z" fill="#263238"/>
<path d="M186.83 52.6523L186.592 56.9379L184.346 56.1755L186.83 52.6523Z" fill="#F28F8F"/>
<path d="M206.484 104.454C206.415 104.454 206.35 104.427 206.301 104.379C206.253 104.331 206.225 104.265 206.225 104.197V23.1838C206.225 23.1155 206.253 23.05 206.301 23.0017C206.35 22.9534 206.415 22.9263 206.484 22.9263C206.553 22.9263 206.618 22.9534 206.667 23.0017C206.715 23.05 206.743 23.1155 206.743 23.1838V104.197C206.743 104.265 206.715 104.331 206.667 104.379C206.618 104.427 206.553 104.454 206.484 104.454Z" fill="#37474F"/>
<path d="M204.529 30.2355C204.529 29.4114 206.251 27.145 206.598 27.145C206.945 27.145 208.481 29.365 208.481 30.2355C208.466 30.4083 208.405 30.5738 208.304 30.7151C208.203 30.8563 208.066 30.9682 207.907 31.0391C207.477 31.2575 207.001 31.3714 206.518 31.3714C206.035 31.3714 205.559 31.2575 205.129 31.0391C204.965 30.9723 204.822 30.8622 204.716 30.7205C204.61 30.5789 204.546 30.4112 204.529 30.2355Z" fill="#F9DD0D"/>
<path opacity="0.1" d="M204.529 30.2355C204.529 29.4114 206.251 27.145 206.598 27.145C206.945 27.145 208.481 29.365 208.481 30.2355C208.466 30.4083 208.405 30.5738 208.304 30.7151C208.203 30.8563 208.066 30.9682 207.907 31.0391C207.477 31.2575 207.001 31.3714 206.518 31.3714C206.035 31.3714 205.559 31.2575 205.129 31.0391C204.965 30.9723 204.822 30.8622 204.716 30.7205C204.61 30.5789 204.546 30.4112 204.529 30.2355Z" fill="black"/>
<path d="M195.04 12.2591C195.04 18.5947 200.033 26.5991 206.567 28.1135C213.137 26.2849 218.093 18.5947 218.093 12.2591C218.093 5.92351 213.996 0 206.567 0C199.138 0 195.04 5.92866 195.04 12.2591Z" fill="#F9DD0D"/>
<path opacity="0.05" d="M217.597 15.5713C217.597 15.5713 215.91 21.6493 208.321 22.1387C201.036 22.6074 195.113 14.6441 195.335 9.36963C195.138 10.3202 195.039 11.2885 195.04 12.2593C195.04 18.5949 200.033 26.5993 206.567 28.1137C212.014 26.5993 216.345 21.057 217.674 15.597L217.597 15.5713Z" fill="black"/>
<path d="M213.841 97.0632C215.217 96.6717 216.629 92.5768 216.526 89.9447C216.422 87.3126 212.873 75.96 212.387 73.7709C211.833 71.3603 211.87 69.5266 211.378 68.2749C210.654 66.4309 208.274 65.4162 208.274 65.4162C208.274 65.4162 205.17 63.9327 204.052 63.7112C202.935 63.4897 202.5 64.2263 202.625 64.8084C202.749 65.3904 203.142 66.8687 203.245 67.6722C203.318 68.7008 203.621 69.7002 204.13 70.598C204.715 71.5303 207.1 73.7606 207.193 75.002C207.286 76.2433 207.974 82.9858 208.367 87.8792C208.693 91.8865 209.097 93.5451 209.971 94.6062C210.845 95.6673 212.806 97.3671 213.841 97.0632Z" fill="#FFA8A7"/>
<path d="M80.2456 172.286C94.8489 172.286 106.687 166.669 106.687 159.739C106.687 152.809 94.8489 147.191 80.2456 147.191C65.6423 147.191 53.804 152.809 53.804 159.739C53.804 166.669 65.6423 172.286 80.2456 172.286Z" fill="#E0E0E0"/>
<path d="M136.43 176.103C151.033 176.103 162.871 170.486 162.871 163.556C162.871 156.626 151.033 151.008 136.43 151.008C121.826 151.008 109.988 156.626 109.988 163.556C109.988 170.486 121.826 176.103 136.43 176.103Z" fill="#E0E0E0"/>
<path d="M86.8992 56.253C88.2701 56.0573 89.429 56.253 91.8243 59.5084C93.9661 62.4238 98.2343 67.3171 98.2343 67.3171C98.2343 67.3171 102.094 57.2471 101.98 55.8924C101.866 54.5378 101.012 53.7033 100.454 51.2103C99.8949 48.7173 99.7346 48.2434 99.3155 47.5171C98.8965 46.7908 100.35 46.6157 100.935 47.5171C101.519 48.4185 101.592 49.6908 102.001 49.4641C102.409 49.2375 102.689 46.4972 102.342 44.5296C101.995 42.562 102.896 42.119 103.304 42.7474C103.541 43.0987 103.708 43.4922 103.796 43.9063C104.219 43.8203 104.657 43.8475 105.066 43.985C105.475 44.1225 105.84 44.3656 106.124 44.6893C107.159 45.8122 108.017 47.5377 108.012 50.4583C108.007 53.3788 106.652 54.9395 106.46 56.2582C106.269 57.5768 103.873 69.7998 102.176 73.9308C101.111 76.5063 99.6363 77.2892 97.8359 75.78C95.4095 73.7454 88.7513 65.5967 88.7513 65.5967L86.8992 56.253Z" fill="#DDB2AC"/>
<path d="M86.8992 56.2529C88.1356 55.8872 89.4859 56.1756 90.7379 57.6694C91.9899 59.1631 96.5736 64.9424 96.5736 64.9424C96.5736 64.9424 96.4391 67.899 92.6055 70.6393L88.2339 65.952L86.8992 56.2529Z" fill="#F5953F"/>
<path d="M93.3759 151.626L93.3345 150.941C93.6604 151.729 95.1297 155.129 97.1525 156.752C98.7563 158.044 100.934 159.523 101.555 161.032C102.176 162.541 98.7925 163.35 97.3543 163.18C95.6833 162.989 93.4845 162.181 92.2326 160.826C91.3531 159.873 90.7633 158.719 90.1321 157.967C89.501 157.215 88.0989 156.422 87.7265 155.521C87.5247 155.031 87.6644 153.919 87.8506 152.981C88.0369 152.044 88.3162 151.086 88.6111 151.147C88.5987 151.35 88.5745 151.551 88.5387 151.75C89.2577 152.249 90.1275 152.485 91.0013 152.42C91.71 152.404 93.4173 152.162 93.3759 151.626Z" fill="#263238"/>
<path d="M98.6064 157.879C98.089 157.488 97.6079 157.107 97.1526 156.741C95.7403 155.603 94.5969 153.599 93.9244 152.229V152.203C93.4097 151.094 93.1854 149.873 93.2725 148.654L93.3346 147.032L88.1611 147.135L88.5388 151.74V151.858H88.5647C88.8596 152.842 91.2342 155.371 92.6 157.009C93.5105 158.116 95.1867 159.502 97.1371 159.641C98.9892 159.816 99.8687 159.188 98.6064 157.879Z" fill="#DDB2AC"/>
<path d="M64.4925 152.214C64.2442 152.069 63.8355 152.909 63.4061 153.548C62.9451 154.342 62.7259 155.253 62.7749 156.169C62.8894 157.202 62.8352 158.245 62.6145 159.26C62.3248 160.97 61.823 162.933 63.5509 164.509C65.0357 165.858 68.3467 166.487 69.4021 165.539C69.6166 165.365 69.7869 165.144 69.8992 164.892C70.0116 164.641 70.0628 164.366 70.0488 164.092C69.8371 163.345 69.5457 162.623 69.1797 161.938C68.7715 161.162 68.4053 160.364 68.0829 159.548L64.4925 152.214Z" fill="#263238"/>
<path d="M69.1592 149.319C68.9316 149.128 68.4401 155.454 68.3004 156.958C68.1607 158.462 68.4246 159.25 68.6729 160.852C68.7966 161.23 68.7688 161.642 68.5953 162C68.4642 162.167 68.2957 162.3 68.1034 162.389C67.9111 162.479 67.7003 162.522 67.4882 162.516C66.3914 162.516 65.5223 162.114 64.6014 161.078C64.1461 160.563 64.1151 159.198 64.1409 158.704C64.2159 157.875 64.2315 157.042 64.1875 156.211C64.1047 155.33 63.8461 154.295 63.9599 153.635C64.0572 153.125 64.2316 152.631 64.4772 152.173C64.8963 151.22 65.1756 148.613 65.1756 148.613L69.1592 149.319Z" fill="#DDB2AC"/>
<path d="M71.3268 82.2593C68.6418 85.6949 68.1555 89.2387 68.7401 99.2572C69.3247 109.276 68.4762 117.46 68.3262 118.022C68.1761 118.583 66.4741 124.115 65.6722 127.839C64.7358 132.202 64.6064 150.163 64.6064 150.163C64.6064 150.163 66.5155 151.194 69.4643 150.493C69.4643 150.493 76.5831 122.426 77.3384 120.165C78.0937 117.903 83.8104 94.5802 83.8104 94.5802L83.0809 81.1519L71.3268 82.2593Z" fill="#37474F"/>
<path d="M91.8604 93.8077C91.4517 89.1719 90.4532 81.1417 90.4532 81.1417L78.5542 80.4463C76.6245 83.439 77.4626 88.4147 77.9903 92.9114L84.7986 119.449C84.6589 120.721 83.4845 123.415 84.7986 130.266C86.2627 137.899 88.0579 147.99 88.0579 147.99C88.0579 147.99 90.8515 149.123 93.4176 148.046C93.4176 148.046 94.4006 123.879 93.7746 117.28C93.0865 110.115 92.1397 96.9806 91.8604 93.8077Z" fill="#37474F"/>
<path d="M81.7307 105.067L83.6708 95.332C85.3904 94.7223 87.0234 93.8929 88.5287 92.8647C87.567 94.0747 86.42 95.1264 85.1297 95.981L81.7307 105.067Z" fill="#263238"/>
<path d="M72.0461 58.6841C70.7114 59.4516 68.5023 60.1521 67.5814 62.7378C66.3243 66.3434 62.9874 75.7077 61.7043 79.0713H67.8711L72.1393 70.3663C75.4399 67.5436 74.995 59.6988 72.0461 58.6841Z" fill="#DDB2AC"/>
<path d="M89.6772 73.6161C89.9721 76.3203 91.0689 86.3233 91.0689 86.3233C82.0929 91.0878 70.9648 87.9304 69.2627 85.9679C70.8147 80.9097 72.4651 78.0304 73.7326 76.6963L72.1392 70.3659C72.1392 70.3659 75.9003 65.9103 72.046 58.6837L77.0488 57.0457L83.8985 56.4533L86.8991 56.2524C87.97 57.2517 89.6566 60.8316 90.7533 63.6182C91.4569 65.4159 92.2174 68.2901 89.6772 73.6161Z" fill="#F5953F"/>
<path d="M72.0456 58.6841C69.0968 59.261 67.7724 60.7032 66.5928 63.9071C65.3201 67.3736 63.7939 71.1183 63.7939 71.1183C64.6201 72.307 65.7731 73.2332 67.1146 73.7859C68.4562 74.3386 69.9293 74.4944 71.3576 74.2346L73.2666 68.9343C73.2666 68.9343 75.8275 64.2573 72.0456 58.6841Z" fill="#F5953F"/>
<path d="M72.9512 73.5493C73.0288 73.8584 75.1293 76.6398 76.1588 77.2786C77.1883 77.9173 74.3377 78.8238 73.9342 80.4463C73.122 83.7069 78.1972 87.8945 84.5036 88.492C77.3694 89.6561 70.5766 87.4618 69.2781 85.9681C70.8301 80.9099 72.4805 78.0306 73.748 76.6965L72.9512 73.5493Z" fill="#FFB573"/>
<path d="M91.8241 55.6192H82.2376C80.6965 55.6199 79.1705 55.3181 77.7466 54.7313C76.3227 54.1445 75.029 53.284 73.9393 52.199C72.8496 51.1141 71.9853 49.826 71.3959 48.4084C70.8065 46.9907 70.5035 45.4713 70.5042 43.937C70.5042 41.1228 71.627 38.4239 73.6256 36.434C75.6243 34.4441 78.335 33.3262 81.1615 33.3262C82.5615 33.3255 83.9479 33.5995 85.2415 34.1324C86.5351 34.6653 87.7106 35.4468 88.7008 36.4322C89.6909 37.4176 90.4764 38.5875 91.0123 39.8752C91.5482 41.1629 91.8241 42.5431 91.8241 43.937V55.6192Z" fill="#263238"/>
<path d="M88.0165 37.9463C89.1443 38.6108 90.536 41.4283 90.3963 47.3415C90.2773 52.3482 88.6476 53.5896 87.8095 53.945C86.9714 54.3004 85.409 54.0841 83.8777 53.8265V56.8346C83.7825 57.4703 83.4384 58.0425 82.9206 58.4262C81.6686 59.204 80.189 58.9104 79.3561 58.6117C77.5195 57.9524 77.1573 57.0664 77.1573 57.0664L77.1884 50.1488C77.1884 50.1488 76.2882 51.0244 74.7517 49.6903C73.4893 48.5881 73.0651 46.7337 74.0481 45.7345C74.304 45.4976 74.6129 45.3247 74.9492 45.23C75.2854 45.1354 75.6395 45.1217 75.9821 45.1901C76.3248 45.2586 76.6461 45.4071 76.9197 45.6236C77.1933 45.84 77.4113 46.1181 77.5557 46.435C77.5557 46.435 78.4559 46.5071 79.3561 44.8382C79.3561 44.8382 79.325 40.3157 80.339 39.7285C83.5725 37.8639 85.8591 37.9463 88.0165 37.9463Z" fill="#DDB2AC"/>
<path d="M83.8933 45.7652C83.8996 45.8488 83.8892 45.9329 83.8626 46.0125C83.836 46.0921 83.7939 46.1657 83.7385 46.2289C83.6832 46.2922 83.6158 46.3439 83.5402 46.381C83.4646 46.4181 83.3824 46.4399 83.2983 46.4451C83.1676 46.4573 83.0361 46.4303 82.9209 46.3674C82.8058 46.3045 82.7122 46.2087 82.6522 46.0923C82.5923 45.976 82.5688 45.8444 82.5847 45.7146C82.6006 45.5848 82.6552 45.4627 82.7415 45.3641C82.8277 45.2655 82.9417 45.1949 83.0687 45.1614C83.1957 45.128 83.3298 45.1332 83.4538 45.1763C83.5778 45.2195 83.6859 45.2987 83.7642 45.4036C83.8426 45.5086 83.8875 45.6345 83.8933 45.7652Z" fill="#263238"/>
<g style="mix-blend-mode:multiply" opacity="0.5">
<path d="M84.9486 50.3296L86.4179 50.7932C86.3907 50.8906 86.344 50.9816 86.2807 51.0606C86.2174 51.1397 86.1387 51.2052 86.0493 51.2533C85.96 51.3014 85.8618 51.331 85.7607 51.3405C85.6596 51.3499 85.5576 51.339 85.4608 51.3083C85.2661 51.2411 85.1045 51.1023 85.0093 50.9203C84.9141 50.7383 84.8924 50.527 84.9486 50.3296Z" fill="#F28F8F"/>
</g>
<path d="M89.6153 43.8025L88.3374 42.9217C88.3903 42.8354 88.4605 42.7609 88.5436 42.7027C88.6267 42.6446 88.7209 42.6041 88.8204 42.5838C88.9199 42.5635 89.0225 42.5639 89.1219 42.5848C89.2213 42.6057 89.3152 42.6467 89.398 42.7054C89.5692 42.8252 89.6873 43.0061 89.7278 43.2105C89.7682 43.4149 89.7279 43.627 89.6153 43.8025Z" fill="#263238"/>
<path d="M83.0135 43.53L81.5598 44.0863C81.518 43.9941 81.4958 43.8943 81.4944 43.7932C81.4931 43.692 81.5127 43.5917 81.552 43.4984C81.5913 43.4052 81.6495 43.321 81.723 43.2511C81.7964 43.1812 81.8835 43.1271 81.9788 43.0922C82.1748 43.0195 82.3913 43.0244 82.5838 43.1059C82.7763 43.1873 82.9301 43.3391 83.0135 43.53Z" fill="#263238"/>
<path d="M89.2685 45.6269C89.2703 45.7512 89.2354 45.8734 89.168 45.9782C89.1006 46.0829 89.0037 46.1656 88.8895 46.2159C88.7752 46.2662 88.6486 46.2819 88.5254 46.261C88.4022 46.2401 88.288 46.1836 88.1968 46.0985C88.1057 46.0134 88.0418 45.9035 88.013 45.7824C87.9842 45.6614 87.9918 45.5346 88.0349 45.4178C88.078 45.3011 88.1547 45.1995 88.2554 45.1259C88.3561 45.0522 88.4763 45.0097 88.6011 45.0036C88.7722 44.9994 88.9382 45.0624 89.0631 45.1791C89.1879 45.2957 89.2617 45.4565 89.2685 45.6269Z" fill="#263238"/>
<g style="mix-blend-mode:multiply" opacity="0.5">
<path d="M86.2317 45.2661L86.33 49.0572L88.3373 48.4391L86.2317 45.2661Z" fill="#F28F8F"/>
</g>
<g style="mix-blend-mode:multiply" opacity="0.5">
<path d="M83.8985 53.8318C82.2792 53.6206 78.9475 52.6728 78.4302 51.3594C78.6372 52.0241 79.0456 52.6088 79.5994 53.0334C80.5927 53.8833 83.8985 54.8362 83.8985 54.8362V53.8318Z" fill="#F28F8F"/>
</g>
<path d="M79.6201 33.8927L79.377 31.1112C79.5599 31.0838 79.7465 31.094 79.9254 31.141C80.1042 31.1881 80.2715 31.2712 80.4169 31.3851C80.5623 31.4989 80.6827 31.6412 80.7708 31.8032C80.8589 31.9652 80.9127 32.1434 80.929 32.3268C80.9567 32.7058 80.8359 33.0806 80.5918 33.3726C80.3477 33.6646 79.9994 33.8511 79.6201 33.8927Z" fill="#263238"/>
<path d="M79.4698 34.1705L77.209 32.5223C77.3102 32.3688 77.4417 32.2374 77.5955 32.1361C77.7493 32.0348 77.9221 31.9656 78.1036 31.9329C78.285 31.9001 78.4712 31.9044 78.651 31.9455C78.8307 31.9866 79.0001 32.0637 79.149 32.172C79.4499 32.4005 79.6509 32.7354 79.7106 33.1074C79.7703 33.4794 79.6841 33.8601 79.4698 34.1705Z" fill="#263238"/>
<path d="M77.5762 46.4249V49.057C78.0537 49.057 78.5116 48.8681 78.8492 48.532C79.1869 48.1958 79.3765 47.7399 79.3765 47.2645V44.8281L77.5762 46.4249Z" fill="#263238"/>
<path d="M84.7778 33.9492C87.1515 33.9492 89.428 34.8881 91.1065 36.5592C92.785 38.2303 93.7279 40.4969 93.7279 42.8602V44.014H89.3511C88.3656 44.0144 87.4132 43.6593 86.6704 43.0144C85.9275 42.3695 85.4445 41.4785 85.3107 40.5063L85.1503 44.014C84.3402 44.0146 83.5594 43.7129 82.9618 43.1684C82.3642 42.6239 81.9932 41.8763 81.922 41.0729L81.8703 40.496C81.7936 41.4534 81.3576 42.347 80.6492 42.9989C79.9408 43.6508 79.0118 44.0132 78.0471 44.014H77.6539L77.209 37.7197L84.7778 33.9492Z" fill="#263238"/>
<path d="M145.613 158.559V157.879C145.338 158.688 144.061 162.17 142.152 163.911C140.625 165.297 138.53 166.899 138.013 168.444C137.495 169.989 140.91 170.592 142.338 170.339C143.993 170.051 146.14 169.113 147.304 167.687C148.127 166.682 148.65 165.492 149.234 164.704C149.819 163.916 151.169 163.03 151.485 162.129C151.66 161.614 151.454 160.527 151.21 159.6C150.967 158.673 150.745 157.812 150.45 157.89V158.405C149.761 158.946 148.906 159.233 148.029 159.219C147.325 159.239 145.608 159.1 145.613 158.559Z" fill="#263238"/>
<path d="M140.77 165.122C141.246 164.699 141.722 164.293 142.152 163.896C143.497 162.68 144.516 160.615 145.106 159.203C145.442 158.4 145.618 157.539 145.623 156.669V153.924H150.46V158.395V158.513H150.434C150.202 159.513 147.982 162.181 146.72 163.917C145.877 165.081 144.268 166.559 142.348 166.816C140.517 167.069 139.591 166.497 140.77 165.122Z" fill="#B16668"/>
<path d="M126.735 153.81V153.12C126.466 153.929 125.183 157.411 123.279 159.152C121.753 160.537 119.657 162.139 119.14 163.685C118.623 165.23 122.037 165.832 123.465 165.58C125.121 165.286 127.262 164.354 128.432 162.927C129.249 161.923 129.772 160.733 130.361 159.945C130.951 159.157 132.296 158.271 132.612 157.37C132.788 156.855 132.581 155.768 132.338 154.841C132.11 153.991 131.867 153.053 131.577 153.13V153.646C130.888 154.186 130.033 154.474 129.156 154.459C128.447 154.49 126.73 154.351 126.735 153.81Z" fill="#263238"/>
<path d="M121.897 160.373C122.368 159.95 122.844 159.544 123.279 159.147C124.619 157.931 125.643 155.866 126.228 154.454C126.567 153.652 126.743 152.791 126.745 151.92V149.175H131.582V153.641V153.759H131.556C131.324 154.758 129.104 157.421 127.842 159.162C126.993 160.326 125.39 161.805 123.47 162.062C121.644 162.32 120.718 161.748 121.897 160.373Z" fill="#B16668"/>
<path d="M149.487 83.7069C153.238 91.8659 149.353 120.603 149.353 120.603C149.467 121.926 150.983 124.533 151.552 130.358C152.219 137.24 150.517 154.526 150.517 154.526C149.78 154.952 148.949 155.193 148.097 155.227C147.245 155.261 146.397 155.088 145.628 154.722C145.628 154.722 140.998 128.664 140.134 121.823C139.373 115.854 137.925 102.719 137.925 102.719L133.786 121.777C134.387 123.703 134.823 125.676 135.09 127.675C135.483 131.703 131.567 150.447 131.567 150.447C131.567 150.447 129.895 151.055 126.724 150.591C126.724 150.591 125.343 125.712 124.976 120.865C124.36 112.717 126.528 87.3022 128.033 82.481L149.487 83.7069Z" fill="#37474F"/>
<path d="M137.925 102.713L136.704 95.1364C136.704 95.1364 131.531 94.0702 129.218 91.8862C129.218 91.8862 131.665 94.9201 135.307 95.9142L136.678 101.735L134.288 119.397L137.925 102.713Z" fill="#263238"/>
<path d="M135.4 55.1247C134.234 54.9332 133.037 55.0699 131.945 55.5195C130.852 55.9691 129.908 56.7137 129.218 57.6693C127.588 59.8275 121.318 77.9843 121.318 77.9843H126.962L134.686 62.7687L135.4 55.1247Z" fill="#B16668"/>
<path d="M142.871 55.3458C147.682 55.6755 148.019 57.9882 149.219 60.4967C150.107 62.4474 150.189 64.6676 149.447 66.6778L146.099 76.3305C146.099 76.3305 147.651 80.1061 149.488 83.6757C141.076 88.3475 130.574 85.8906 128.044 82.4807C127.94 81.7596 128.561 76.1039 128.991 72.4107C127.506 68.7072 127.118 66.3636 127.744 63.9169C128.903 59.379 133.404 54.9544 135.401 55.1141L142.871 55.3458Z" fill="#F5F5F5"/>
<path d="M140.719 84.5929C141.379 84.4421 142.003 84.1613 142.552 83.767C143.102 83.3727 143.567 82.8728 143.92 82.2968C144.273 81.7209 144.507 81.0804 144.607 80.4133C144.708 79.7461 144.673 79.0656 144.506 78.4119C144.484 78.3219 144.455 78.234 144.418 78.1492C144.303 77.7981 144.072 77.4958 143.763 77.2911C143.454 77.0864 143.085 76.9913 142.716 77.0211C143.256 76.6664 143.72 76.2081 144.08 75.6731C144.441 75.1381 144.691 74.537 144.816 73.9049L145.851 68.8003C145.851 68.8003 143.952 62.8047 144.143 60.7495L148.97 61.0277L149.596 61.4603C150.109 63.1683 150.06 64.9947 149.457 66.673L146.109 76.3258C146.109 76.3258 147.661 80.1014 149.498 83.6709C146.762 85.1364 143.741 86.0004 140.641 86.2048C137.54 86.4091 134.432 85.9491 131.525 84.8556C134.579 85.346 137.698 85.2569 140.719 84.5929Z" fill="#E6E6E6"/>
<path d="M160.58 79.2823C160.58 79.2823 155.805 69.9283 152.649 62.7685C150.372 57.6177 149.86 56.433 146.234 55.8715L144.956 55.6758C143.238 61.2954 144.438 63.8451 146.684 67.6928L154.542 82.5273C156.322 82.1616 160.616 79.818 160.58 79.2823Z" fill="#B16668"/>
<path d="M140.874 51.375H137.464C135.059 51.375 132.752 50.4237 131.052 48.7303C129.351 47.037 128.395 44.7403 128.395 42.3455V40.8311C128.395 38.4227 129.356 36.1129 131.067 34.4099C132.777 32.7069 135.097 31.7501 137.516 31.7501H140.796C143.215 31.7501 145.535 32.7069 147.246 34.4099C148.956 36.1129 149.917 38.4227 149.917 40.8311V42.3455C149.917 44.7403 148.961 47.037 147.261 48.7303C145.56 50.4237 143.253 51.375 140.848 51.375H140.874Z" fill="#263238"/>
<path d="M131.955 36.0815C130.817 36.7512 129.41 39.5996 129.549 45.5695C129.668 50.6276 131.313 51.8741 132.136 52.2347C132.959 52.5953 134.557 52.3738 136.109 52.1214V55.1553C136.109 55.1553 133.962 57.6328 134.102 59.0236C134.242 60.4143 137.206 60.744 139.198 59.3841C140.498 58.4533 141.614 57.2901 142.488 55.9536V48.6188C142.488 48.6188 143.523 50.0095 145.246 48.8763C146.968 47.7431 147.025 44.9462 146.032 43.9366C145.039 42.9271 142.886 43.2516 142.488 44.6423C142.488 44.6423 140.015 44.7299 136.725 42.9271C135.444 42.2408 134.345 41.2631 133.516 40.0735C132.687 38.8838 132.152 37.516 131.955 36.0815Z" fill="#B16668"/>
<path d="M135.788 44.2977C135.786 44.4231 135.822 44.5463 135.889 44.6519C135.957 44.7574 136.055 44.8408 136.17 44.8915C136.286 44.9421 136.413 44.9579 136.537 44.9369C136.662 44.9158 136.777 44.8588 136.869 44.773C136.96 44.6872 137.025 44.5763 137.054 44.4543C137.083 44.3322 137.075 44.2044 137.032 44.0867C136.988 43.969 136.911 43.8666 136.809 43.7924C136.708 43.7182 136.587 43.6754 136.461 43.6693C136.375 43.6665 136.29 43.6806 136.21 43.7107C136.129 43.7408 136.056 43.7863 135.994 43.8447C135.931 43.9031 135.881 43.9731 135.846 44.0508C135.81 44.1286 135.791 44.2124 135.788 44.2977Z" fill="#263238"/>
<path d="M135.049 48.583L133.569 49.0569C133.597 49.1545 133.644 49.2456 133.708 49.3247C133.772 49.4038 133.851 49.4693 133.941 49.5173C134.03 49.5654 134.129 49.595 134.23 49.6044C134.332 49.6138 134.434 49.6027 134.531 49.572C134.727 49.5026 134.889 49.3621 134.985 49.1787C135.081 48.9952 135.104 48.7824 135.049 48.583Z" fill="#9A4A4D"/>
<path d="M130.548 42.3455L131.841 41.4493C131.786 41.3631 131.714 41.2888 131.63 41.2309C131.545 41.1731 131.45 41.1328 131.349 41.1126C131.249 41.0924 131.145 41.0927 131.045 41.1133C130.944 41.134 130.849 41.1747 130.765 41.233C130.591 41.3547 130.472 41.5385 130.432 41.7458C130.391 41.9531 130.433 42.168 130.548 42.3455Z" fill="#263238"/>
<path d="M130.848 43.8392C130.847 43.9644 130.883 44.0871 130.952 44.192C131.02 44.2969 131.118 44.3795 131.234 44.4294C131.349 44.4793 131.477 44.4944 131.6 44.4727C131.724 44.451 131.839 44.3936 131.93 44.3076C132.022 44.2215 132.086 44.1106 132.114 43.9887C132.143 43.8668 132.135 43.7392 132.091 43.6218C132.047 43.5044 131.97 43.4024 131.869 43.3284C131.767 43.2544 131.646 43.2117 131.52 43.2057C131.347 43.2028 131.18 43.2676 131.055 43.386C130.929 43.5044 130.855 43.6671 130.848 43.8392Z" fill="#263238"/>
<path d="M133.972 43.4736L133.869 47.3007L131.846 46.6775L133.972 43.4736Z" fill="#9A4A4D"/>
<path d="M136.114 52.1212C137.744 51.9049 141.107 50.9417 141.629 49.623C141.422 50.2917 141.012 50.8801 140.455 51.3074C139.451 52.1676 136.114 53.1308 136.114 53.1308V52.1212Z" fill="#9A4A4D"/>
<path d="M148.603 32.8984C146.503 33.7689 146.973 35.5614 147.853 37.6526C148.732 39.7439 149.689 41.3355 151.759 40.4393C152.314 40.2734 152.829 39.993 153.268 39.6165C153.708 39.2399 154.064 38.7756 154.311 38.2535C154.559 37.7314 154.694 37.1633 154.707 36.586C154.721 36.0087 154.612 35.435 154.388 34.9023C154.164 34.3695 153.83 33.8895 153.408 33.4935C152.986 33.0974 152.485 32.7941 151.938 32.6032C151.39 32.4123 150.809 32.3381 150.231 32.3854C149.653 32.4327 149.091 32.6005 148.582 32.8778L148.603 32.8984Z" fill="#263238"/>
<path d="M146.756 34.7728L146.021 31.2856C146.247 31.2292 146.481 31.2184 146.71 31.2537C146.939 31.2891 147.159 31.3699 147.356 31.4915C147.554 31.613 147.725 31.7728 147.859 31.9613C147.993 32.1498 148.088 32.3632 148.137 32.5888C148.235 33.0599 148.145 33.5502 147.888 33.9572C147.63 34.3642 147.225 34.6564 146.756 34.7728Z" fill="#263238"/>
<path d="M163.994 77.9839H54.3423V102.981H163.994V77.9839Z" fill="#6A6D6D"/>
<path d="M54.342 82.4961C54.0213 83.3872 53.3073 83.8096 52.79 84.6955C52.2726 85.5815 52.0553 88.229 52.6399 89.3313C53.0857 90.1046 53.7118 90.7597 54.4656 91.2412C55.2193 91.7226 56.0784 92.0163 56.9701 92.0973C57.7183 92.1279 58.457 91.9224 59.0809 91.5101C59.3716 91.3159 59.6284 91.0759 59.8414 90.7993C60.0359 90.5028 60.1826 90.1778 60.276 89.8361C60.2834 89.8089 60.2976 89.7841 60.3174 89.764C60.3454 89.7462 60.3774 89.7356 60.4105 89.7331C60.6372 89.7006 60.8503 89.6061 61.0262 89.4601C61.1138 89.3869 61.1843 89.2955 61.2325 89.1923C61.2808 89.089 61.3057 88.9765 61.3055 88.8626C61.2883 88.7177 61.2365 88.5791 61.1547 88.4582C61.0728 88.3372 60.9631 88.2375 60.8347 88.1672C60.5733 88.0332 60.2973 87.9295 60.0122 87.8582C59.3241 87.6367 58.6877 87.2916 58.0152 87.0392C56.6522 86.5565 55.4012 85.8049 54.3368 84.8294L54.342 82.4961Z" fill="#DDB2AC"/>
<path d="M163.999 83.2998C164.32 84.2012 165.034 84.6287 165.551 85.5301C166.069 86.4315 166.296 89.1357 165.707 90.2329C165.254 91.0184 164.618 91.6837 163.853 92.1724C163.087 92.6611 162.215 92.9587 161.309 93.0401C160.59 93.0899 159.873 92.9059 159.268 92.5158C158.663 92.1257 158.201 91.5506 157.951 90.8767C157.481 89.2542 158.293 88.6413 160.249 87.9047C161.633 87.4168 162.904 86.6546 163.984 85.6641L163.999 83.2998Z" fill="#B16668"/>
<path d="M116.062 75.8103C118.959 76.279 119.792 77.984 119.792 77.984H117.422C117.422 77.984 117.122 78.7772 117.94 81.7493C118.219 82.7794 116.672 82.8206 116.626 82.4292C116.346 83.0679 114.308 83.9744 112.787 82.9443C111.39 82.0223 110.769 80.6109 111.08 77.9685C111.592 75.0274 115.544 75.7279 116.062 75.8103Z" fill="#B16668"/>
<path d="M73.7659 94.2678C73.7659 94.7965 73.6229 95.2385 73.3369 95.5938C73.0596 95.9405 72.6826 96.2005 72.2059 96.3738C71.7293 96.5471 71.2049 96.6338 70.6329 96.6338H66.1349V87.4038H71.2699C71.7033 87.4038 72.0759 87.5208 72.3879 87.7548C72.7086 87.9801 72.9513 88.2748 73.1159 88.6388C73.2893 89.0028 73.3759 89.3798 73.3759 89.7698C73.3759 90.2031 73.2633 90.6191 73.0379 91.0178C72.8126 91.4078 72.4833 91.7025 72.0499 91.9018C72.5786 92.0578 72.9946 92.3351 73.2979 92.7338C73.6099 93.1325 73.7659 93.6438 73.7659 94.2678ZM71.5949 93.8388C71.5949 93.6395 71.5559 93.4661 71.4779 93.3188C71.3999 93.1628 71.2959 93.0415 71.1659 92.9548C71.0446 92.8595 70.8973 92.8118 70.7239 92.8118H68.2669V94.8268H70.6329C70.8149 94.8268 70.9753 94.7835 71.1139 94.6968C71.2613 94.6101 71.3783 94.4931 71.4649 94.3458C71.5516 94.1985 71.5949 94.0295 71.5949 93.8388ZM68.2669 89.2238V91.1348H70.3599C70.5159 91.1348 70.6589 91.1001 70.7889 91.0308C70.9276 90.9615 71.0403 90.8575 71.1269 90.7188C71.2136 90.5715 71.2569 90.3895 71.2569 90.1728C71.2569 89.9648 71.2179 89.7915 71.1399 89.6528C71.0706 89.5141 70.9753 89.4101 70.8539 89.3408C70.7326 89.2628 70.5939 89.2238 70.4379 89.2238H68.2669ZM79.0646 96.7118C78.3713 96.7118 77.743 96.5818 77.1796 96.3218C76.625 96.0531 76.144 95.6978 75.7366 95.2558C75.338 94.8051 75.0303 94.3025 74.8136 93.7478C74.597 93.1845 74.4886 92.6038 74.4886 92.0058C74.4886 91.3905 74.6013 90.8055 74.8266 90.2508C75.0606 89.6961 75.3813 89.2021 75.7886 88.7688C76.2046 88.3268 76.6943 87.9801 77.2576 87.7288C77.821 87.4775 78.4363 87.3518 79.1036 87.3518C79.7883 87.3518 80.408 87.4861 80.9626 87.7548C81.526 88.0148 82.007 88.3701 82.4056 88.8208C82.813 89.2715 83.125 89.7785 83.3416 90.3418C83.5583 90.8965 83.6666 91.4641 83.6666 92.0448C83.6666 92.6601 83.554 93.2451 83.3286 93.7998C83.1033 94.3545 82.7826 94.8528 82.3666 95.2948C81.9506 95.7281 81.461 96.0748 80.8976 96.3348C80.343 96.5861 79.732 96.7118 79.0646 96.7118ZM76.6596 92.0318C76.6596 92.3871 76.7116 92.7338 76.8156 93.0718C76.9196 93.4011 77.0713 93.6958 77.2706 93.9558C77.4786 94.2158 77.7343 94.4238 78.0376 94.5798C78.341 94.7358 78.6876 94.8138 79.0776 94.8138C79.485 94.8138 79.8403 94.7358 80.1436 94.5798C80.447 94.4151 80.6983 94.1985 80.8976 93.9298C81.097 93.6611 81.2443 93.3621 81.3396 93.0328C81.4436 92.6948 81.4956 92.3525 81.4956 92.0058C81.4956 91.6505 81.4436 91.3081 81.3396 90.9788C81.2356 90.6495 81.0796 90.3548 80.8716 90.0948C80.6636 89.8261 80.408 89.6181 80.1046 89.4708C79.8013 89.3235 79.459 89.2498 79.0776 89.2498C78.6703 89.2498 78.315 89.3278 78.0116 89.4838C77.717 89.6398 77.4656 89.8521 77.2576 90.1208C77.0583 90.3808 76.9066 90.6798 76.8026 91.0178C76.7073 91.3471 76.6596 91.6851 76.6596 92.0318ZM86.8574 87.4038H89.1584L92.3304 96.6338H90.1464L89.4314 94.5668H86.5584L85.8564 96.6338H83.6724L86.8574 87.4038ZM89.0804 93.0978L88.0014 89.5488L86.8964 93.0978H89.0804ZM98.6632 90.1078C98.6372 90.0645 98.5462 89.9995 98.3902 89.9128C98.2342 89.8175 98.0392 89.7178 97.8052 89.6138C97.5712 89.5098 97.3155 89.4188 97.0382 89.3408C96.7608 89.2628 96.4835 89.2238 96.2062 89.2238C95.8422 89.2238 95.5605 89.2888 95.3612 89.4188C95.1618 89.5401 95.0622 89.7308 95.0622 89.9908C95.0622 90.1988 95.1358 90.3635 95.2832 90.4848C95.4392 90.6061 95.6602 90.7145 95.9462 90.8098C96.2322 90.8965 96.5832 91.0005 96.9992 91.1218C97.5885 91.2778 98.0998 91.4685 98.5332 91.6938C98.9665 91.9105 99.2958 92.1921 99.5212 92.5388C99.7552 92.8855 99.8722 93.3448 99.8722 93.9168C99.8722 94.4368 99.7768 94.8788 99.5862 95.2428C99.3955 95.5981 99.1355 95.8885 98.8062 96.1138C98.4855 96.3305 98.1172 96.4908 97.7012 96.5948C97.2852 96.6901 96.8562 96.7378 96.4142 96.7378C95.9635 96.7378 95.4998 96.6945 95.0232 96.6078C94.5552 96.5125 94.1045 96.3825 93.6712 96.2178C93.2378 96.0445 92.8392 95.8365 92.4752 95.5938L93.4112 93.7348C93.4458 93.7781 93.5585 93.8605 93.7492 93.9818C93.9398 94.0945 94.1738 94.2158 94.4512 94.3458C94.7372 94.4671 95.0535 94.5755 95.4002 94.6708C95.7468 94.7661 96.0978 94.8138 96.4532 94.8138C96.8345 94.8138 97.1162 94.7531 97.2982 94.6318C97.4888 94.5105 97.5842 94.3415 97.5842 94.1248C97.5842 93.8908 97.4845 93.7088 97.2852 93.5788C97.0945 93.4488 96.8302 93.3318 96.4922 93.2278C96.1628 93.1238 95.7815 93.0068 95.3482 92.8768C94.7848 92.7035 94.3168 92.5085 93.9442 92.2918C93.5802 92.0751 93.3072 91.8108 93.1252 91.4988C92.9518 91.1868 92.8652 90.7968 92.8652 90.3288C92.8652 89.6788 93.0168 89.1328 93.3202 88.6908C93.6322 88.2401 94.0482 87.9021 94.5682 87.6768C95.0882 87.4428 95.6558 87.3258 96.2712 87.3258C96.7045 87.3258 97.1205 87.3778 97.5192 87.4818C97.9265 87.5858 98.3035 87.7158 98.6502 87.8718C99.0055 88.0278 99.3218 88.1838 99.5992 88.3398L98.6632 90.1078ZM105.052 87.4038L107.223 94.1378L109.368 87.4038H111.617L108.263 96.6338H106.17L102.79 87.4038H105.052ZM112.473 96.6338V87.4038H114.605V96.6338H112.473ZM118.502 91.3558V96.6338H116.37V87.4038H118.06L122.337 92.8378V87.4038H124.469V96.6338H122.727L118.502 91.3558ZM126.235 96.6338V87.4038H129.68C130.694 87.4038 131.539 87.6118 132.215 88.0278C132.899 88.4351 133.415 88.9898 133.762 89.6918C134.108 90.3851 134.282 91.1565 134.282 92.0058C134.282 92.9418 134.091 93.7565 133.71 94.4498C133.328 95.1431 132.791 95.6805 132.098 96.0618C131.413 96.4431 130.607 96.6338 129.68 96.6338H126.235ZM132.111 92.0058C132.111 91.4685 132.015 90.9961 131.825 90.5888C131.634 90.1728 131.357 89.8521 130.993 89.6268C130.629 89.3928 130.191 89.2758 129.68 89.2758H128.367V94.7618H129.68C130.2 94.7618 130.637 94.6448 130.993 94.4108C131.357 94.1681 131.634 93.8388 131.825 93.4228C132.015 92.9981 132.111 92.5258 132.111 92.0058ZM137.499 87.4038H139.8L142.972 96.6338H140.788L140.073 94.5668H137.2L136.498 96.6338H134.314L137.499 87.4038ZM139.722 93.0978L138.643 89.5488L137.538 93.0978H139.722ZM149.305 90.1078C149.279 90.0645 149.188 89.9995 149.032 89.9128C148.876 89.8175 148.681 89.7178 148.447 89.6138C148.213 89.5098 147.957 89.4188 147.68 89.3408C147.402 89.2628 147.125 89.2238 146.848 89.2238C146.484 89.2238 146.202 89.2888 146.003 89.4188C145.803 89.5401 145.704 89.7308 145.704 89.9908C145.704 90.1988 145.777 90.3635 145.925 90.4848C146.081 90.6061 146.302 90.7145 146.588 90.8098C146.874 90.8965 147.225 91.0005 147.641 91.1218C148.23 91.2778 148.741 91.4685 149.175 91.6938C149.608 91.9105 149.937 92.1921 150.163 92.5388C150.397 92.8855 150.514 93.3448 150.514 93.9168C150.514 94.4368 150.418 94.8788 150.228 95.2428C150.037 95.5981 149.777 95.8885 149.448 96.1138C149.127 96.3305 148.759 96.4908 148.343 96.5948C147.927 96.6901 147.498 96.7378 147.056 96.7378C146.605 96.7378 146.141 96.6945 145.665 96.6078C145.197 96.5125 144.746 96.3825 144.313 96.2178C143.879 96.0445 143.481 95.8365 143.117 95.5938L144.053 93.7348C144.087 93.7781 144.2 93.8605 144.391 93.9818C144.581 94.0945 144.815 94.2158 145.093 94.3458C145.379 94.4671 145.695 94.5755 146.042 94.6708C146.388 94.7661 146.739 94.8138 147.095 94.8138C147.476 94.8138 147.758 94.7531 147.94 94.6318C148.13 94.5105 148.226 94.3415 148.226 94.1248C148.226 93.8908 148.126 93.7088 147.927 93.5788C147.736 93.4488 147.472 93.3318 147.134 93.2278C146.804 93.1238 146.423 93.0068 145.99 92.8768C145.426 92.7035 144.958 92.5085 144.586 92.2918C144.222 92.0751 143.949 91.8108 143.767 91.4988C143.593 91.1868 143.507 90.7968 143.507 90.3288C143.507 89.6788 143.658 89.1328 143.962 88.6908C144.274 88.2401 144.69 87.9021 145.21 87.6768C145.73 87.4428 146.297 87.3258 146.913 87.3258C147.346 87.3258 147.762 87.3778 148.161 87.4818C148.568 87.5858 148.945 87.7158 149.292 87.8718C149.647 88.0278 149.963 88.1838 150.241 88.3398L149.305 90.1078ZM151.999 92.9678V87.3128H154.079V92.9678H151.999ZM151.999 96.6338V94.4758H154.079V96.6338H151.999Z" fill="white"/>
</svg>
