<svg width="330" height="203" viewBox="0 0 330 203" fill="none" xmlns="http://www.w3.org/2000/svg">
<path d="M59.9527 74.1259H11.8259V175.481H59.9527V74.1259Z" fill="#EBEBEB"/>
<path d="M62.2808 71.3282H9.49341V74.1259H62.2808V71.3282Z" fill="#DBDBDB"/>
<path d="M78.8813 71.3282H62.2812V74.1259H78.8813V71.3282Z" fill="#EBEBEB"/>
<path d="M76.2576 74.1259H59.9529V175.481H76.2576V74.1259Z" fill="#DBDBDB"/>
<path d="M54.7705 109.063H17.0034V84.8594H54.7705V109.063ZM17.1265 108.923H54.6475V84.9987H17.1265V108.923Z" fill="#C7C7C7"/>
<path d="M37.9693 91.9259H30.6167V96.7131H37.9693V91.9259Z" fill="#C7C7C7"/>
<path d="M40.203 96.4177H32.752V92.2157H40.2227L40.203 96.4177ZM32.8553 96.2784H40.08V92.3773H32.8553V96.2784Z" fill="#C7C7C7"/>
<path d="M54.7705 139.396H17.0034V115.221H54.7705V139.396ZM17.1265 139.257H54.6475V115.36H17.1265V139.257Z" fill="#C7C7C7"/>
<path d="M37.9693 122.287H30.6167V127.075H37.9693V122.287Z" fill="#C7C7C7"/>
<path d="M40.203 126.785H32.752V122.577H40.2227L40.203 126.785ZM32.8553 126.645H40.08V122.716H32.8553V126.645Z" fill="#C7C7C7"/>
<path d="M54.7705 169.758H17.0034V145.582H54.7705V169.758ZM17.1265 169.618H54.6475V145.722H17.1265V169.618Z" fill="#C7C7C7"/>
<path d="M37.9693 152.649H30.6167V157.436H37.9693V152.649Z" fill="#C7C7C7"/>
<path d="M40.203 157.146H32.752V152.944H40.2227L40.203 157.146ZM32.8553 156.99H40.08V153.089H32.8553V156.99Z" fill="#C7C7C7"/>
<path d="M305.789 103.663H257.663V175.481H305.789V103.663Z" fill="#EBEBEB"/>
<path d="M308.117 100.865H255.33V103.662H308.117V100.865Z" fill="#DBDBDB"/>
<path d="M324.716 100.865H308.116V103.663H324.716V100.865Z" fill="#EBEBEB"/>
<path d="M322.094 103.663H305.79V175.481H322.094V103.663Z" fill="#DBDBDB"/>
<path d="M300.548 114.469H262.904V138.499H300.548V114.469Z" fill="#A6A6A6"/>
<path d="M296.881 108.316H268.224V131.839H296.881V108.316Z" fill="#C7C7C7"/>
<path d="M278.347 105.875H268.224V108.316H278.933L278.347 105.875Z" fill="#C7C7C7"/>
<path d="M296.801 131.834H268.149L265.939 110.266H294.592L296.801 131.834Z" fill="#A6A6A6"/>
<path d="M275.832 108.032H265.709L265.94 110.266H276.644L275.832 108.032Z" fill="#A6A6A6"/>
<path d="M282.412 114.469H244.768V138.499H282.412V114.469Z" fill="#EBEBEB"/>
<path d="M282.472 138.599H244.709V114.396H282.472V138.599ZM244.833 138.46H282.349V114.535H244.833V138.46Z" fill="#C7C7C7"/>
<path d="M265.674 121.463H258.321V126.25H265.674V121.463Z" fill="#C7C7C7"/>
<path d="M267.904 125.96H260.434V121.752H267.904V125.96ZM260.557 125.821H267.781V121.881H260.557V125.821Z" fill="#C7C7C7"/>
<path d="M300.547 118.069H282.505V138.499H300.547V118.069Z" fill="#DBDBDB"/>
<path d="M300.607 168.933H262.84V144.757H300.607V168.933ZM262.963 168.794H300.479V144.897H262.963V168.794Z" fill="#C7C7C7"/>
<path d="M283.804 151.824H276.452V156.611H283.804V151.824Z" fill="#C7C7C7"/>
<path d="M286.039 156.321H278.568V152.114H286.039V156.321ZM278.691 156.182H285.916V152.253H278.691V156.182Z" fill="#C7C7C7"/>
<path d="M6.68384 175.481L46.7936 175.348L86.8984 175.297L167.108 175.203L247.318 175.297L287.422 175.348L327.532 175.481L287.422 175.621L247.318 175.665L167.108 175.76L86.8984 175.665L46.7936 175.615L6.68384 175.481Z" fill="#263238"/>
<path d="M314.43 135.741C313.968 137.648 313.663 139.599 313.519 141.57C313.569 141.665 313.559 142.027 313.519 141.926C313.519 142.25 313.081 142.188 313.081 141.876V141.263C312.097 139.848 310.621 138.951 309.435 137.724C308.486 136.758 307.794 135.512 307.436 134.124C306.452 130.301 307.377 126.25 306.196 122.421C305.182 119.139 303.361 116.291 301.821 113.304C300.197 110.155 298.996 106.845 298.868 103.155C298.775 100.336 299.07 96.5682 300.97 94.4561C302.983 92.2269 305.478 93.8988 307.023 95.8939C311.492 101.701 313.559 109.04 314.405 116.547C314.868 120.705 315.345 124.907 315.237 129.075C315.164 131.322 314.894 133.555 314.43 135.741Z" fill="#49B833"/>
<path d="M313.539 143.091C313.784 139.172 313.743 135.238 313.416 131.327C313.416 131.327 313.416 131.299 313.416 131.282C313.47 128.1 313.692 124.934 313.583 121.747C313.448 118.302 313.035 114.879 312.348 111.52C312.348 111.481 312.284 111.52 312.294 111.52C312.846 114.82 313.175 118.162 313.278 121.518C313.337 123.32 313.326 125.118 313.244 126.913C313.214 127.498 313.165 128.083 313.131 128.674C311.96 119.743 309.106 111.202 304.764 103.629C304.705 103.523 304.543 103.629 304.602 103.741C307.7 109.497 309.994 115.76 311.403 122.31C309.253 117.801 305.99 114.095 303.598 109.759C303.598 109.759 303.554 109.759 303.563 109.787C305.724 114.613 309.302 118.414 311.58 123.162C311.974 125.102 312.299 127.063 312.54 129.019C312.862 131.719 313.035 134.438 313.057 137.162C311.748 134.375 310.389 131.739 309.317 128.802C309.317 128.724 309.189 128.802 309.213 128.858C310.124 131.901 311.349 135.183 313.067 137.775C313.067 139.703 313.019 141.629 312.924 143.554C312.658 148.692 311.881 153.763 311.521 158.885C311.518 158.916 311.526 158.947 311.543 158.972C311.56 158.996 311.585 159.012 311.612 159.016C311.64 159.02 311.667 159.011 311.689 158.991C311.711 158.972 311.725 158.944 311.728 158.913C312.648 153.692 313.253 148.405 313.539 143.091Z" fill="#263238"/>
<path d="M308.721 103.49C308.718 103.485 308.714 103.481 308.71 103.479C308.706 103.476 308.701 103.475 308.696 103.475C308.691 103.475 308.686 103.476 308.682 103.479C308.678 103.481 308.674 103.485 308.671 103.49C309.498 106.081 309.966 108.712 310.566 111.376C310.573 111.398 310.587 111.417 310.605 111.429C310.623 111.441 310.644 111.445 310.665 111.441C310.685 111.437 310.704 111.425 310.718 111.407C310.731 111.389 310.738 111.366 310.738 111.342C310.402 108.629 309.723 105.984 308.721 103.49Z" fill="#263238"/>
<path d="M329.765 114.346C329.214 115.876 328.577 117.365 327.86 118.804C326.384 121.869 324.809 124.684 324.528 128.278C324.484 129.878 324.283 131.466 323.928 133.015C323.538 134.337 322.978 135.586 322.265 136.721C320.645 139.391 318.623 141.687 317.127 144.457C315.566 147.344 314.414 150.49 313.711 153.78C313.672 153.958 313.426 153.908 313.46 153.73C313.463 153.717 313.463 153.704 313.46 153.691C313.46 153.691 313.46 153.691 313.46 153.652C313.224 145.989 313.765 138.271 315.827 130.925C316.738 127.69 317.832 124.526 319.105 121.451C320.148 118.743 321.653 116.294 323.534 114.246C324.794 112.958 327.526 110.523 329.317 111.816C330.168 112.406 330.104 113.387 329.765 114.346Z" fill="#49B833"/>
<path d="M322.969 131.717C321.774 133.939 320.459 136.076 319.032 138.115C318.372 139.084 317.708 140.043 317.063 141.012C316.753 141.475 316.404 141.932 316.123 142.422C316.3 141.614 316.473 140.806 316.655 140.004C317.531 136.131 318.367 132.229 319.672 128.507C321.002 124.9 322.571 121.413 324.367 118.074C324.411 117.985 324.288 117.924 324.239 118.007C322.811 120.671 321.36 123.329 320.159 126.138C319.493 127.702 318.914 129.312 318.426 130.959C318.976 127.466 319.745 124.022 320.73 120.654C320.73 120.627 320.7 120.604 320.69 120.654C319.401 124.057 318.594 127.668 318.298 131.355C318.003 132.346 317.732 133.355 317.481 134.364C316.414 138.65 315.478 142.985 314.612 147.332C314.596 144.475 314.816 141.622 315.267 138.811C315.267 138.798 315.262 138.785 315.254 138.776C315.246 138.766 315.234 138.761 315.223 138.761C315.211 138.761 315.2 138.766 315.191 138.776C315.183 138.785 315.178 138.798 315.178 138.811C314.516 141.741 314.295 144.776 314.524 147.789C314.196 149.442 313.876 151.098 313.564 152.755C312.9 156.288 312.088 159.882 311.694 163.466C311.694 163.483 311.699 163.499 311.708 163.512C311.718 163.525 311.731 163.534 311.745 163.537C311.76 163.54 311.775 163.538 311.788 163.53C311.801 163.522 311.811 163.509 311.817 163.494C312.309 161.56 312.56 159.554 312.944 157.598C313.328 155.641 313.717 153.696 314.12 151.718C314.704 148.865 315.314 146.019 315.951 143.18C316.369 142.144 317.176 141.219 317.787 140.344C318.397 139.469 319.115 138.427 319.755 137.451C320.972 135.649 322.061 133.741 323.013 131.745C323.048 131.706 322.989 131.672 322.969 131.717Z" fill="#263238"/>
<path d="M323.254 128.44C321.765 130.591 320.476 132.911 319.406 135.361C319.406 135.395 319.435 135.428 319.455 135.395C320.749 133.099 322.024 130.781 323.313 128.479C323.338 128.445 323.279 128.401 323.254 128.44Z" fill="#263238"/>
<path d="M294.449 121.607C295.33 123.318 296.329 125.375 295.925 127.426C295.689 128.724 294.847 129.783 294.695 131.109C294.355 134.035 296.934 135.969 298.799 137.351C303.445 140.806 309.813 143.883 310.66 150.932C310.694 151.178 311.073 151.116 311.044 150.871C311.046 150.856 311.046 150.841 311.044 150.826C311.044 150.826 311.044 150.826 311.044 150.787C311.654 147.228 311.624 143.566 310.955 140.02C310.266 136.387 308.864 133.121 307.21 129.928C304.415 124.528 301.452 118.994 297.224 114.881C296.053 113.733 293.656 111.676 292.726 114.262C291.796 116.848 293.376 119.523 294.449 121.607Z" fill="#49B833"/>
<path d="M298.706 133.06C301.782 136.838 306.684 138.956 309.332 143.186C307.853 136.747 305.054 130.794 301.162 125.809C301.064 125.681 301.221 125.492 301.334 125.614C304.17 128.735 306.438 132.456 308.008 136.565C307.278 133.696 306.316 130.908 305.134 128.239C305.123 128.219 305.121 128.194 305.126 128.171C305.132 128.148 305.145 128.129 305.163 128.117C305.182 128.105 305.203 128.102 305.224 128.108C305.244 128.114 305.261 128.129 305.272 128.15C306.727 131.058 307.766 134.209 308.352 137.485C311.842 147.065 312.167 158.294 311.433 168.392C311.433 168.537 311.232 168.543 311.236 168.392C311.433 160.434 311.32 152.342 309.637 144.574C309.603 144.412 309.563 144.25 309.529 144.089C306.645 139.536 301.768 137.401 298.633 133.099C298.623 133.082 298.672 133.026 298.706 133.06Z" fill="#263238"/>
<path d="M297.732 122.538C299.164 125.195 300.784 127.717 302.575 130.078C302.578 130.082 302.58 130.085 302.581 130.09C302.582 130.094 302.583 130.098 302.582 130.103C302.582 130.107 302.581 130.111 302.579 130.115C302.578 130.119 302.575 130.123 302.573 130.126C302.57 130.129 302.566 130.131 302.563 130.132C302.559 130.134 302.555 130.134 302.551 130.134C302.547 130.134 302.543 130.133 302.54 130.131C302.536 130.129 302.533 130.126 302.531 130.123C300.523 127.962 298.87 125.415 297.649 122.599C297.641 122.587 297.639 122.572 297.642 122.557C297.645 122.542 297.652 122.53 297.663 122.521C297.674 122.513 297.688 122.51 297.701 122.514C297.714 122.517 297.725 122.526 297.732 122.538Z" fill="#263238"/>
<path d="M305.016 175.531H319.18L317.27 153.953H307.196L305.016 175.531Z" fill="#455A64"/>
<path d="M306.841 157.464H317.58L317.27 153.953H307.196L306.841 157.464Z" fill="#263238"/>
<path d="M305.459 155.012H318.737V151.568H305.459V155.012Z" fill="#455A64"/>
<path d="M155.193 48.011H98.2715V130.758H155.193V48.011Z" fill="#EBEBEB"/>
<path d="M155.192 130.758L126.776 130.87L98.2709 130.931H98.1134V130.753L98.0298 48.0055V47.7603H98.2709L155.192 47.8271H155.379V48.0333L155.296 89.4404L155.192 130.758ZM155.192 130.758L155.069 89.3289L155.01 48.011L155.192 48.2228L98.2709 48.2841L98.5121 48.011L98.4235 130.758L98.2709 130.58L126.692 130.647L155.192 130.758Z" fill="#DBDBDB"/>
<path d="M104.497 65.6996L126.732 65.6327L148.967 65.6996L126.732 65.7609L104.497 65.6996Z" fill="#C7C7C7"/>
<path d="M104.497 67.7504L126.732 67.6891L148.967 67.7504L126.732 67.8173L104.497 67.7504Z" fill="#C7C7C7"/>
<path d="M104.497 69.8069L126.732 69.74L148.967 69.8069L126.732 69.8682L104.497 69.8069Z" fill="#C7C7C7"/>
<path d="M104.497 71.8577L126.732 71.7964L148.967 71.8577L126.732 71.919L104.497 71.8577Z" fill="#C7C7C7"/>
<path d="M104.497 73.914L126.732 73.8472L148.967 73.914L126.732 73.9753L104.497 73.914Z" fill="#C7C7C7"/>
<path d="M104.497 75.965L126.732 75.9037L148.967 75.965L126.732 76.0263L104.497 75.965Z" fill="#C7C7C7"/>
<path d="M104.497 78.0158L126.732 77.9545L148.967 78.0158L126.732 78.0827L104.497 78.0158Z" fill="#C7C7C7"/>
<path d="M104.497 80.0722L126.732 80.0109L148.967 80.0722L126.732 80.1335L104.497 80.0722Z" fill="#C7C7C7"/>
<path d="M104.497 82.1231L126.732 82.0618L148.967 82.1231L126.732 82.1899L104.497 82.1231Z" fill="#C7C7C7"/>
<path d="M104.497 84.1796L126.732 84.1127L148.967 84.1796L126.732 84.2409L104.497 84.1796Z" fill="#C7C7C7"/>
<path d="M104.497 86.2304L126.732 86.1691L148.967 86.2304L126.732 86.2972L104.497 86.2304Z" fill="#C7C7C7"/>
<path d="M104.497 88.2867L126.732 88.2198L148.967 88.2867L126.732 88.348L104.497 88.2867Z" fill="#C7C7C7"/>
<path d="M104.497 90.3375L126.732 90.2762L148.967 90.3375L126.732 90.4044L104.497 90.3375Z" fill="#C7C7C7"/>
<path d="M104.497 92.394L126.732 92.3271L148.967 92.394L126.732 92.4553L104.497 92.394Z" fill="#C7C7C7"/>
<path d="M104.497 94.4448L126.732 94.3835L148.967 94.4448L126.732 94.5117L104.497 94.4448Z" fill="#C7C7C7"/>
<path d="M112.572 88.2198H109.201V96.8356H112.572V88.2198Z" fill="#8FBFD7"/>
<path d="M118.828 83.6222H115.457V96.8357H118.828V83.6222Z" fill="#8FBFD7"/>
<path d="M125.083 78.4784H121.711V96.8413H125.083V78.4784Z" fill="#8FBFD7"/>
<path d="M131.338 76.2715H127.967V96.8413H131.338V76.2715Z" fill="#8FBFD7"/>
<path d="M137.593 72.3314H134.222V96.8413H137.593V72.3314Z" fill="#8FBFD7"/>
<path d="M143.848 68.4359H140.477V96.8357H143.848V68.4359Z" fill="#8FBFD7"/>
<path d="M105.703 64.2562L105.791 72.4039L105.85 80.546C105.895 85.9796 105.905 91.4077 105.914 96.8413L105.703 96.6017H116.53L127.357 96.6295L138.184 96.7075L149.011 96.8469L138.184 96.9862L127.357 97.0642H116.53H105.703H105.496V96.8301C105.496 91.3984 105.516 85.9666 105.555 80.5348L105.619 72.3927L105.703 64.2562Z" fill="#C7C7C7"/>
<path d="M112.572 98.5632H109.201V98.9088H112.572V98.5632Z" fill="#C7C7C7"/>
<path d="M118.828 98.5632H115.457V98.9088H118.828V98.5632Z" fill="#C7C7C7"/>
<path d="M125.083 98.5632H121.711V98.9088H125.083V98.5632Z" fill="#C7C7C7"/>
<path d="M131.338 98.5632H127.967V98.9088H131.338V98.5632Z" fill="#C7C7C7"/>
<path d="M137.593 98.5632H134.222V98.9088H137.593V98.5632Z" fill="#C7C7C7"/>
<path d="M143.848 98.5632H140.477V98.9088H143.848V98.5632Z" fill="#C7C7C7"/>
<path d="M109.581 89.3066C111.227 89.2787 112.87 89.1391 114.502 88.8886C116.138 88.647 117.763 88.3122 119.369 87.8855C122.573 87.0672 125.682 85.8271 128.631 84.1906C131.589 82.5772 134.318 80.4735 136.727 77.9489L137.185 77.4808L137.618 76.9848L138.474 75.9872C139.006 75.2795 139.577 74.6052 140.059 73.8528C141.08 72.3883 142.005 70.8404 142.825 69.2217H142.849C140.609 74.2863 137.272 78.6253 133.149 81.8333C131.785 82.9058 130.35 83.8597 128.858 84.6866C122.855 87.936 116.256 89.5197 109.605 89.3066H109.581Z" fill="#263238"/>
<path d="M143.77 71.8911L143.302 72.0249L142.726 69.4167L140.472 70.2582L140.325 69.7399L143.071 68.7201L143.77 71.8911Z" fill="#263238"/>
<path d="M103.546 111.771H149.916V109.648H103.546V111.771Z" fill="#DBDBDB"/>
<path d="M103.547 117.138H129.655V115.015H103.547V117.138Z" fill="#DBDBDB"/>
<path d="M113.676 59.2795L139.784 59.2795V57.1562H113.676V59.2795Z" fill="#DBDBDB"/>
<path d="M144.434 150.932L88.6745 163.906L73.9692 82.8531L115.368 73.223L132.529 85.3275L144.434 150.932Z" fill="#8FBFD7"/>
<path opacity="0.8" d="M144.434 150.932L88.6745 163.906L73.9692 82.8531L115.368 73.223L132.529 85.3275L144.434 150.932Z" fill="white"/>
<path d="M115.369 73.223L132.53 85.3275L118.169 88.6657L115.369 73.223Z" fill="#8FBFD7"/>
<path d="M82.2522 97.2669L113.254 90.0542L112.877 87.9743L81.8748 95.187L82.2522 97.2669Z" fill="#DBDBDB"/>
<path d="M83.2019 102.519L114.204 95.3059L113.827 93.2261L82.8245 100.439L83.2019 102.519Z" fill="#DBDBDB"/>
<path d="M84.1633 107.769L115.166 100.556L114.788 98.4764L83.786 105.689L84.1633 107.769Z" fill="#DBDBDB"/>
<path d="M85.115 113.024L130.536 102.456L130.159 100.376L84.7377 110.944L85.115 113.024Z" fill="#DBDBDB"/>
<path d="M86.1572 117.999L131.6 107.498L131.225 105.417L85.7822 115.919L86.1572 117.999Z" fill="#DBDBDB"/>
<path d="M87.0218 123.527L132.443 112.959L132.066 110.88L86.6444 121.447L87.0218 123.527Z" fill="#DBDBDB"/>
<path d="M87.9788 128.783L133.4 118.215L133.023 116.135L87.6015 126.703L87.9788 128.783Z" fill="#DBDBDB"/>
<path d="M88.93 134.034L134.351 123.467L133.974 121.387L88.5526 131.954L88.93 134.034Z" fill="#DBDBDB"/>
<path d="M89.8812 139.291L135.302 128.724L134.925 126.644L89.5038 137.211L89.8812 139.291Z" fill="#DBDBDB"/>
<path d="M90.8323 144.543L136.253 133.976L135.876 131.896L90.455 142.463L90.8323 144.543Z" fill="#DBDBDB"/>
<path d="M91.7918 149.793L137.213 139.226L136.836 137.146L91.4145 147.713L91.7918 149.793Z" fill="#DBDBDB"/>
<path d="M92.7444 155.05L138.166 144.483L137.788 142.403L92.3671 152.971L92.7444 155.05Z" fill="#DBDBDB"/>
<path d="M258.769 92.0206L196.311 97.17C189.2 66.5522 196.804 35.9344 191.277 5.31659L253.725 0.167175C260.841 30.785 253.233 61.4028 258.769 92.0206Z" fill="#EBEBEB"/>
<path d="M258.77 92.0206L196.351 97.3595H196.204C196.188 97.3028 196.174 97.2451 196.164 97.1868C189.013 66.5745 196.602 35.9567 191.036 5.33889C191.036 5.24972 191.002 5.15498 190.982 5.06582H191.228L253.686 0H253.858C253.872 0.0659232 253.888 0.131027 253.907 0.195055C260.96 30.7739 253.278 61.3972 258.77 92.0206ZM258.77 92.0206C253.159 61.4084 260.738 30.7961 253.563 0.183909L253.779 0.362243L191.326 5.59525L191.518 5.29431C197.035 35.9456 189.382 66.5355 196.44 97.1589L196.248 96.9973L258.77 92.0206Z" fill="#DBDBDB"/>
<path d="M198.815 18.4353L233.881 15.5764C233.959 16.3603 234.028 17.1461 234.087 17.9338L198.978 20.7983C198.929 20.0069 198.874 19.2211 198.815 18.4353Z" fill="#DBDBDB"/>
<path d="M199.166 24.3928L234.34 21.5283C234.382 22.3122 234.422 23.098 234.458 23.8857L199.25 26.7502C199.225 25.9644 199.196 25.1786 199.166 24.3928Z" fill="#DBDBDB"/>
<path d="M199.328 30.3447L234.585 27.4802C234.585 28.266 234.62 29.0518 234.635 29.8376L199.348 32.7132C199.348 31.9163 199.338 31.1305 199.328 30.3447Z" fill="#DBDBDB"/>
<path d="M199.347 36.2966L251.086 32.1057C251.086 32.8915 251.086 33.6773 251.086 34.4631L199.318 38.6539C199.338 37.8681 199.347 37.0824 199.347 36.2966Z" fill="#DBDBDB"/>
<path d="M199.279 42.2486L251.082 38.0577L251.052 40.4151L199.234 44.6115L199.279 42.2486Z" fill="#DBDBDB"/>
<path d="M199.156 48.2061L250.988 44.0096C250.988 44.7954 250.959 45.5812 250.939 46.367L199.097 50.5467C199.121 49.7776 199.141 48.9919 199.156 48.2061Z" fill="#DBDBDB"/>
<path d="M199.033 54.1579L250.86 49.9894C250.86 50.7752 250.831 51.5665 250.811 52.3523L198.993 56.5432C199.008 55.7295 199.018 54.9437 199.033 54.1579Z" fill="#DBDBDB"/>
<path d="M198.954 60.1099L250.772 55.9191C250.772 56.7049 250.747 57.4906 250.738 58.2764L198.964 62.4673C198.944 61.6926 198.944 60.8957 198.954 60.1099Z" fill="#DBDBDB"/>
<path d="M198.959 66.0618L250.683 61.871C250.683 62.6568 250.683 63.4425 250.683 64.2283L199.008 68.4248C198.979 67.639 198.969 66.8532 198.959 66.0618Z" fill="#DBDBDB"/>
<path d="M199.097 72.0193L250.727 67.8229C250.727 68.6087 250.757 69.3945 250.782 70.1858L199.2 74.3767C199.161 73.5927 199.126 72.807 199.097 72.0193Z" fill="#DBDBDB"/>
<path d="M199.416 77.9712L250.914 73.7748C250.948 74.5661 250.993 75.3519 251.037 76.1377L199.588 80.3286C199.529 79.5261 199.47 78.757 199.416 77.9712Z" fill="#DBDBDB"/>
<path d="M199.958 83.9232L251.294 79.7323C251.358 80.5181 251.427 81.3039 251.506 82.0897L200.244 86.2861C200.141 85.5003 200.047 84.709 199.958 83.9232Z" fill="#DBDBDB"/>
<path d="M249.886 124.795C228.349 120.66 207.058 116.53 186.01 112.406C188.761 82.1509 202.246 51.9176 201.557 21.6843C223.093 25.8195 244.385 29.9546 265.432 34.0897C262.701 64.323 249.197 94.573 249.886 124.795Z" fill="#8FBFD7"/>
<path opacity="0.8" d="M249.886 124.795C228.349 120.66 207.058 116.53 186.01 112.406C188.761 82.1509 202.246 51.9176 201.557 21.6843C223.093 25.8195 244.385 29.9546 265.432 34.0897C262.701 64.323 249.197 94.573 249.886 124.795Z" fill="white"/>
<path d="M206.853 36.2577C218.527 38.5575 230.146 40.8572 241.712 43.157C241.594 43.9372 241.471 44.7119 241.343 45.4865C229.8 43.1904 218.214 40.8907 206.583 38.5872C206.681 37.8125 206.77 37.0379 206.853 36.2577Z" fill="#DBDBDB"/>
<path d="M206.104 42.1371C217.683 44.4369 229.22 46.7366 240.717 49.0364C240.569 49.8166 240.422 50.5913 240.269 51.3659C228.802 49.0698 217.294 46.7701 205.745 44.4666C205.868 43.6919 205.986 42.9173 206.104 42.1371Z" fill="#DBDBDB"/>
<path d="M205.141 48.0166L239.551 54.9159C239.384 55.6906 239.221 56.4708 239.059 57.2454C227.641 54.9419 216.194 52.6421 204.717 50.3461C204.855 49.5715 205.003 48.7968 205.141 48.0166Z" fill="#DBDBDB"/>
<path d="M204.018 53.8905C220.79 57.264 237.507 60.6338 254.167 63.9998C253.985 64.7745 253.798 65.5491 253.611 66.3293C236.954 62.9633 220.259 59.5954 203.526 56.2256C203.674 55.4509 203.836 54.6763 204.018 53.8905Z" fill="#DBDBDB"/>
<path d="M202.724 59.7755C219.431 63.149 236.103 66.5188 252.741 69.8849C252.554 70.6595 252.367 71.4341 252.175 72.2143L202.193 62.105C202.37 61.3304 202.542 60.578 202.724 59.7755Z" fill="#DBDBDB"/>
<path d="M201.356 65.655L251.304 75.7644C251.117 76.539 250.925 77.3136 250.738 78.0939L200.8 67.9845C200.987 67.2099 201.174 66.4297 201.356 65.655Z" fill="#DBDBDB"/>
<path d="M199.939 71.5344L249.891 81.6438C249.704 82.4184 249.522 83.193 249.34 83.9677C232.66 80.6016 216.002 77.2337 199.368 73.8639C199.56 73.0893 199.747 72.3091 199.939 71.5344Z" fill="#DBDBDB"/>
<path d="M198.506 77.4139C215.153 80.78 231.829 84.1479 248.532 87.5177C248.36 88.2979 248.188 89.0726 248.04 89.8472C231.307 86.4811 214.614 83.1132 197.959 79.7434C198.112 78.9688 198.314 78.1886 198.506 77.4139Z" fill="#DBDBDB"/>
<path d="M197.128 83.2933C213.802 86.6594 230.525 90.0273 247.297 93.3971C247.139 94.1773 246.987 94.952 246.834 95.7266C230.023 92.3605 213.273 88.9926 196.586 85.6228C196.739 84.8426 196.921 84.068 197.128 83.2933Z" fill="#DBDBDB"/>
<path d="M195.77 89.1729C212.502 92.5389 229.298 95.9068 246.155 99.2766C246.017 100.057 245.889 100.831 245.762 101.606C228.842 98.24 212.01 94.8721 195.268 91.5024C195.43 90.7221 195.597 89.9475 195.77 89.1729Z" fill="#DBDBDB"/>
<path d="M194.544 95.0468C211.349 98.4202 228.246 101.79 245.234 105.156C245.121 105.931 245.018 106.711 244.919 107.486C227.871 104.12 210.932 100.744 194.101 97.3595C194.243 96.6016 194.391 95.827 194.544 95.0468Z" fill="#DBDBDB"/>
<path d="M193.471 100.926C210.378 104.296 227.388 107.666 244.502 111.036C244.423 111.81 244.354 112.59 244.29 113.365C227.098 109.992 210.037 106.622 193.107 103.256C193.22 102.481 193.343 101.706 193.471 100.926Z" fill="#DBDBDB"/>
<path d="M223.831 112.401H113.448V203.006H223.831V112.401Z" fill="#084F72"/>
<path d="M152.45 103.016H113.448V112.401H154.689L152.45 103.016Z" fill="#084F72"/>
<g opacity="0.1">
<path d="M223.831 112.401H113.448V203.006H223.831V112.401Z" fill="black"/>
<path d="M152.45 103.016H113.448V112.401H154.689L152.45 103.016Z" fill="black"/>
</g>
<path d="M223.078 169.1C201.527 162.117 180.459 155.218 159.715 148.386C164.932 120.772 179.548 93.7204 180.542 65.6996C202.074 72.2812 223.128 78.8629 243.881 85.4724C238.571 113.521 223.974 140.829 223.078 169.1Z" fill="#EBEBEB"/>
<path d="M223.077 169.1C201.526 162.173 180.443 155.318 159.684 148.541L159.532 148.491L159.561 148.335C164.758 120.716 179.345 93.6534 180.29 65.6215C180.29 65.5379 180.29 65.4487 180.29 65.3651L180.541 65.4431C202.087 72.0415 223.151 78.6566 243.88 85.294L244.053 85.3497C244.053 85.4055 244.053 85.4668 244.018 85.5281C238.673 113.571 224.032 140.873 223.077 169.1ZM223.077 169.1C223.914 140.828 238.467 113.521 243.688 85.4166C243.733 85.4946 243.777 85.5727 243.826 85.6507C223.097 79.069 202.048 72.5041 180.532 65.9503L180.792 65.7719C179.744 93.7872 165.103 120.827 159.861 148.43L159.743 148.229C180.468 155.112 201.556 162.067 223.077 169.1Z" fill="#DBDBDB"/>
<path d="M219.667 117.796C216.463 127.487 206.753 132.887 197.693 129.855C188.633 126.824 183.883 116.586 187.008 106.951C190.134 97.315 199.479 91.8312 208.663 94.8016C217.846 97.7719 222.91 108.099 219.667 117.796Z" fill="#455A64"/>
<path d="M203.348 112.362C199.632 117.166 195.872 121.958 192.206 126.751C189.555 124.541 187.613 121.411 186.675 117.838C185.737 114.264 185.854 110.442 187.009 106.951C190.09 97.3595 199.539 91.8478 208.663 94.8015C217.787 97.7552 222.901 108.177 219.677 117.796C214.234 115.979 208.791 114.168 203.348 112.362Z" fill="#DBDBDB"/>
<path d="M203.347 112.362C206.586 117.294 209.789 122.226 213.062 127.175C210.829 128.867 208.296 129.985 205.64 130.448C202.985 130.911 200.272 130.709 197.693 129.855C188.647 126.852 183.912 116.525 187.008 106.951C190.104 97.3762 199.538 91.8478 208.662 94.8015C217.787 97.7551 222.9 108.177 219.677 117.795C214.233 115.979 208.79 114.167 203.347 112.362Z" fill="#DBDBDB"/>
<path d="M203.347 112.362L186.226 115.594C185.846 112.684 186.115 109.713 187.008 106.951C190.089 97.3595 199.538 91.8478 208.663 94.8015C217.787 97.7552 222.9 108.177 219.677 117.796C214.234 115.979 208.791 114.168 203.347 112.362Z" fill="#084F72"/>
<path d="M185.414 77.8541C194.165 80.6072 202.851 83.3621 211.473 86.1188C211.321 86.8377 211.168 87.5511 211.006 88.2644C202.41 85.5039 193.761 82.7472 185.06 79.9941C185.183 79.2808 185.316 78.5675 185.414 77.8541Z" fill="#DBDBDB"/>
<path d="M183.44 133.06C194.966 136.913 206.555 140.778 218.205 144.657C218.033 145.37 217.861 146.084 217.713 146.797C206.01 142.907 194.386 139.036 182.84 135.183C183.027 134.475 183.234 133.768 183.44 133.06Z" fill="#DBDBDB"/>
<path d="M181.935 138.416C193.537 142.279 205.218 146.162 216.981 150.063C216.833 150.776 216.69 151.495 216.552 152.209C204.741 148.296 193.016 144.406 181.379 140.539C181.561 139.831 181.743 139.123 181.935 138.416Z" fill="#DBDBDB"/>
<path d="M180.586 143.777C192.279 147.659 204.074 151.56 215.971 155.48C215.853 156.193 215.74 156.912 215.636 157.631C203.677 153.696 191.831 149.786 180.099 145.9C180.256 145.198 180.419 144.484 180.586 143.777Z" fill="#DBDBDB"/>
<path d="M176.625 133.116L172.432 131.722L173.067 129.605L177.255 131.003C177.044 131.706 176.832 132.413 176.625 133.116Z" fill="#084F72"/>
<path d="M175.133 138.466L170.91 137.061C171.102 136.359 171.299 135.651 171.496 134.943L175.709 136.348C175.512 137.05 175.32 137.758 175.133 138.466Z" fill="#455A64"/>
<path d="M173.805 143.821L169.567 142.411C169.735 141.704 169.907 141.001 170.084 140.294L174.326 141.698C174.139 142.404 173.966 143.112 173.805 143.821Z" fill="#DBDBDB"/>
<path d="M223.541 203.006H113.158L104.644 119.919H215.027L223.541 203.006Z" fill="#084F72"/>
<path d="M142.765 111.314H103.763L104.644 119.919H145.885L142.765 111.314Z" fill="#084F72"/>
<path d="M180.129 56.3203C179.955 55.594 179.872 54.8436 179.883 54.0911C179.869 53.3385 179.952 52.5877 180.129 51.8619C180.458 53.3247 180.458 54.8575 180.129 56.3203Z" fill="#263238"/>
<path d="M176.122 57.6299C175.653 57.0986 175.251 56.4967 174.926 55.841C174.586 55.196 174.328 54.5 174.159 53.7734C174.628 54.3043 175.031 54.9064 175.355 55.5624C175.695 56.2073 175.953 56.9033 176.122 57.6299Z" fill="#263238"/>
<path d="M173.239 61.0294C172.597 60.8381 171.982 60.5454 171.413 60.16C170.832 59.7962 170.3 59.3402 169.833 58.8058C170.475 58.9971 171.089 59.2898 171.659 59.6752C172.237 60.0437 172.768 60.4992 173.239 61.0294Z" fill="#263238"/>
<path d="M172.239 65.5936C170.948 65.9661 169.594 65.9661 168.302 65.5936C169.595 65.2286 170.947 65.2286 172.239 65.5936Z" fill="#263238"/>
<path d="M173.396 70.1467C172.927 70.6785 172.395 71.1343 171.816 71.5009C171.247 71.8863 170.632 72.179 169.99 72.3703C170.943 71.3158 172.114 70.5493 173.396 70.1411V70.1467Z" fill="#263238"/>
<path d="M176.398 73.3958C176.228 74.122 175.969 74.8179 175.63 75.4633C175.307 76.1185 174.905 76.7188 174.434 77.2467C174.603 76.5218 174.861 75.8277 175.202 75.1847C175.525 74.5281 175.927 73.9259 176.398 73.3958Z" fill="#263238"/>
<path d="M180.444 74.5494C180.773 76.0121 180.773 77.5451 180.444 79.0078C180.114 77.5451 180.114 76.0121 180.444 74.5494Z" fill="#263238"/>
<path d="M184.45 73.2341C184.918 73.7665 185.32 74.3683 185.646 75.023C185.986 75.668 186.244 76.364 186.413 77.0906C185.941 76.5619 185.539 75.9595 185.217 75.3017C184.877 74.6567 184.619 73.9607 184.45 73.2341Z" fill="#263238"/>
<path d="M187.339 69.8347C187.979 70.026 188.592 70.3187 189.16 70.7041C189.736 71.0706 190.265 71.5264 190.73 72.0583C189.448 71.6526 188.278 70.8856 187.329 69.8291L187.339 69.8347Z" fill="#263238"/>
<path d="M188.333 65.2537C188.974 65.0601 189.637 64.9664 190.301 64.9751C190.966 64.9599 191.629 65.0538 192.27 65.2537C191.629 65.4537 190.966 65.5475 190.301 65.5324C189.637 65.5411 188.974 65.4474 188.333 65.2537Z" fill="#263238"/>
<path d="M187.176 60.723C187.645 60.1911 188.176 59.7354 188.756 59.3687C189.324 58.9789 189.939 58.6842 190.581 58.4938C190.115 59.0281 189.583 59.4842 189.002 59.848C188.431 60.2329 187.817 60.5273 187.176 60.723Z" fill="#263238"/>
<path d="M184.174 57.4516C184.343 56.725 184.602 56.029 184.942 55.384C185.263 54.7262 185.666 54.1238 186.138 53.5951C185.969 54.3217 185.711 55.0177 185.37 55.6627C185.046 56.3186 184.644 56.9207 184.174 57.4516Z" fill="#263238"/>
<path d="M182.139 157.748H207.43C208.17 155.958 208.596 154.021 208.685 152.047V129.125H183.394V152.365C183.394 154.666 182.139 157.748 182.139 157.748Z" fill="#455A64"/>
<path d="M186.49 135.88C189.443 135.601 192.44 135.54 195.412 135.523C198.385 135.506 201.362 135.601 204.335 135.88C201.382 136.153 198.385 136.22 195.412 136.231C192.44 136.242 189.462 136.153 186.49 135.88Z" fill="white"/>
<path d="M186.49 139.653C189.167 139.38 191.839 139.313 194.517 139.296C197.194 139.279 199.866 139.374 202.539 139.653C199.866 139.931 197.189 139.993 194.517 140.009C191.844 140.026 189.167 139.931 186.49 139.653Z" fill="white"/>
<path d="M186.49 143.431C188.827 143.152 191.17 143.091 193.508 143.074C195.852 143.06 198.196 143.179 200.531 143.431C198.188 143.704 195.85 143.771 193.508 143.782C191.165 143.793 188.827 143.704 186.49 143.431Z" fill="white"/>
<path d="M186.49 147.204C189.443 146.931 192.44 146.864 195.412 146.847C198.385 146.831 201.362 146.925 204.335 147.204C201.382 147.483 198.385 147.544 195.412 147.561C192.44 147.577 189.462 147.483 186.49 147.204Z" fill="white"/>
</svg>
