<svg width="258" height="223" viewBox="0 0 258 223" fill="none" xmlns="http://www.w3.org/2000/svg">
<path d="M183.071 106.106C185.575 104.631 188.271 103.489 191.087 102.711L192.735 94.9853L206.138 94.7544L208.067 102.422C210.909 103.103 213.645 104.151 216.201 105.54L222.983 101.199L232.626 110.273L228.43 117.017C229.937 119.455 231.103 122.078 231.899 124.816L239.829 126.422L240.066 139.48L232.195 141.359C231.497 144.125 230.423 146.789 229.001 149.278L233.44 155.88L224.125 165.275L217.203 161.181C214.699 162.658 212.003 163.8 209.187 164.577L207.539 172.302L194.136 172.533L192.207 164.865C189.366 164.186 186.632 163.137 184.078 161.748L177.301 166.078L167.658 157.004L171.86 150.26C170.345 147.82 169.172 145.194 168.375 142.45L160.445 140.844L160.208 127.787L168.078 125.908C168.773 123.143 169.846 120.481 171.268 117.994L166.829 111.391L176.138 101.997L183.06 106.091L183.071 106.106ZM190.214 123.499C188.24 125.493 186.917 128.012 186.412 130.738C185.908 133.464 186.244 136.275 187.379 138.815C188.514 141.355 190.397 143.51 192.789 145.007C195.181 146.505 197.975 147.278 200.818 147.229C203.66 147.18 206.425 146.31 208.76 144.731C211.096 143.152 212.899 140.933 213.941 138.355C214.982 135.778 215.216 132.957 214.613 130.25C214.009 127.543 212.595 125.072 210.55 123.147C209.192 121.868 207.588 120.863 205.83 120.188C204.073 119.514 202.196 119.183 200.307 119.216C198.418 119.249 196.555 119.644 194.823 120.379C193.091 121.114 191.525 122.174 190.214 123.499Z" fill="#E0E0E0"/>
<path d="M215.345 177.025C216.375 176.419 217.484 175.95 218.641 175.629L219.32 172.449L224.837 172.354L225.628 175.503C226.797 175.785 227.922 176.218 228.974 176.789L231.759 175.01L235.729 178.742L234 181.497C234.623 182.502 235.105 183.584 235.433 184.714L238.697 185.375L238.794 190.744L235.562 191.521C235.275 192.658 234.832 193.752 234.248 194.775L236.074 197.494L232.244 201.356L229.394 199.677C228.363 200.281 227.254 200.75 226.097 201.073L225.418 204.248L219.902 204.342L219.11 201.194C217.94 200.917 216.815 200.486 215.765 199.913L212.974 201.692L209.009 197.961L210.739 195.184C210.114 194.188 209.63 193.115 209.3 191.993L206.036 191.332L205.939 185.963L209.171 185.186C209.459 184.048 209.901 182.952 210.485 181.927L208.659 179.214L212.489 175.346L215.339 177.031L215.345 177.025ZM218.286 184.184C217.47 185.005 216.922 186.043 216.712 187.168C216.502 188.292 216.639 189.452 217.107 190.5C217.574 191.549 218.35 192.438 219.336 193.056C220.323 193.675 221.476 193.994 222.649 193.973C223.822 193.952 224.962 193.593 225.925 192.941C226.888 192.288 227.631 191.372 228.059 190.308C228.487 189.244 228.581 188.08 228.33 186.963C228.079 185.847 227.493 184.829 226.647 184.037C225.516 182.98 224.002 182.401 222.435 182.429C220.868 182.456 219.376 183.087 218.286 184.184Z" fill="#E0E0E0"/>
<path d="M14.3102 113.58C15.5715 112.839 16.9284 112.266 18.3451 111.874L19.1747 107.985L25.9247 107.87L26.8944 111.727C28.3248 112.073 29.7016 112.602 30.9886 113.302L34.3986 111.124L39.2469 115.689L37.1298 119.08C37.8899 120.309 38.4786 121.631 38.8806 123.011L42.8724 123.819L42.9909 130.39L39.0314 131.34C38.6777 132.732 38.1342 134.072 37.4153 135.323L39.6509 138.645L34.9642 143.369L31.4788 141.311C30.2176 142.053 28.8608 142.629 27.4439 143.022L26.6143 146.911L19.8912 147.032L18.9108 143.185C17.4796 142.842 16.1025 142.312 14.8166 141.61L11.4066 143.788L6.55825 139.223L8.66997 135.837C7.90508 134.61 7.31431 133.288 6.91379 131.907L2.92198 131.098L2.80347 124.528L6.76295 123.583C7.11902 122.19 7.66243 120.849 8.37907 119.594L6.14344 116.272L10.8302 111.549L14.3156 113.606L14.3102 113.58ZM17.9088 122.334C16.9136 123.337 16.2463 124.605 15.9911 125.978C15.7359 127.351 15.9043 128.767 16.4751 130.047C17.0459 131.326 17.9934 132.412 19.1978 133.167C20.4021 133.922 21.8092 134.312 23.2411 134.288C24.673 134.263 26.0654 133.826 27.2421 133.031C28.4188 132.236 29.327 131.118 29.8519 129.82C30.3767 128.522 30.4946 127.101 30.1906 125.738C29.8867 124.375 29.1745 123.13 28.1442 122.161C26.7631 120.862 24.9091 120.15 22.9897 120.183C21.0703 120.215 19.2427 120.989 17.9088 122.334Z" fill="#E0E0E0"/>
<path d="M229.62 75.5875C230.484 75.08 231.413 74.6865 232.384 74.4172L232.955 71.7511L237.577 71.6724L238.245 74.2965C239.224 74.5343 240.168 74.896 241.051 75.3724L243.384 73.8819L246.713 77.0308L245.264 79.361C245.787 80.2016 246.191 81.1073 246.465 82.0534L249.202 82.6097L249.283 87.1126L246.589 87.7634C246.358 88.7164 245.996 89.6345 245.512 90.4925L247.047 92.7702L243.815 96.0136L241.423 94.6019C240.559 95.1093 239.63 95.5029 238.66 95.7722L238.067 98.4383L233.445 98.517L232.777 95.8929C231.798 95.6658 230.854 95.3128 229.97 94.8433L227.632 96.339L224.308 93.1901L225.758 90.8651C225.234 90.0226 224.83 89.1153 224.556 88.1675L221.82 87.6165L221.739 83.1082L224.432 82.4627C224.665 81.5086 225.027 80.5891 225.51 79.7284L223.98 77.4507L227.212 74.2125L229.604 75.619L229.62 75.5875ZM232.087 81.5915C231.404 82.2787 230.946 83.148 230.77 84.0893C230.594 85.0305 230.709 86.0014 231.1 86.8791C231.491 87.7567 232.14 88.5015 232.966 89.0192C233.792 89.537 234.757 89.8043 235.739 89.7874C236.721 89.7704 237.675 89.47 238.482 88.9242C239.288 88.3783 239.91 87.6115 240.269 86.721C240.628 85.8305 240.708 84.8562 240.498 83.9216C240.288 82.9869 239.798 82.134 239.09 81.4708C238.145 80.5829 236.876 80.0968 235.563 80.1195C234.25 80.1421 233 80.6715 232.087 81.5915Z" fill="#E0E0E0"/>
<path d="M74.8391 19.7257C77.0406 18.4333 79.4082 17.4309 81.88 16.7447L83.3291 9.95871L95.0998 9.75928L96.7968 16.4928C99.2883 17.0915 101.687 18.0111 103.929 19.2271L109.855 15.4274L118.323 23.3942L114.666 29.2984C115.994 31.4424 117.023 33.7492 117.725 36.1579L124.691 37.5696L124.896 49.0423L117.984 50.6902C117.37 53.1212 116.426 55.4616 115.177 57.6493L119.072 63.4224L110.9 71.6779L104.818 68.1353C102.617 69.4291 100.25 70.4315 97.7772 71.1163L96.3281 77.9023L84.5358 78.1069L82.8443 71.3735C80.3482 70.7779 77.9456 69.8582 75.701 68.6391L69.7753 72.4389L61.3014 64.4615L64.9862 58.5363C63.6512 56.392 62.6166 54.0833 61.9102 51.6716L54.9447 50.2598L54.74 38.7925L61.6516 37.1393C62.2629 34.7075 63.2069 32.3669 64.4582 30.1801L60.558 24.4071L68.7517 16.1359L74.8391 19.7257ZM81.115 35.0033C79.3789 36.754 78.2147 38.9671 77.7697 41.3626C77.3247 43.758 77.6189 46.2283 78.6151 48.4608C79.6113 50.6934 81.2647 52.5879 83.3662 53.9049C85.4677 55.2219 87.923 55.9021 90.4214 55.8595C92.9198 55.8169 95.3491 55.0535 97.402 53.6657C99.455 52.2779 101.039 50.3281 101.955 48.063C102.87 45.7978 103.076 43.3191 102.545 40.9403C102.014 38.5615 100.771 36.3894 98.9731 34.6989C97.7801 33.5754 96.3714 32.6921 94.8278 32.0993C93.2841 31.5066 91.6356 31.216 89.9766 31.2443C88.3176 31.2726 86.6806 31.6191 85.1592 32.2641C83.6377 32.9091 82.2616 33.8399 81.1096 35.0033H81.115Z" fill="#E0E0E0"/>
<path d="M242.452 222.837H243.12H245.124V222.895C233.908 222.958 186.879 223 130.59 223L47.7045 222.958L22.5847 222.895L15.7539 222.869L22.5847 222.785L47.7045 222.743L130.59 222.701C186.879 222.701 233.908 222.748 245.124 222.811V222.869H243.12C242.673 222.848 242.452 222.837 242.452 222.837Z" fill="#263238"/>
<path d="M67.5101 54.7078C69.9686 40.2088 59.8969 26.5134 45.0143 24.1183C30.1318 21.7233 16.0742 31.5354 13.6157 46.0344C11.1573 60.5334 21.229 74.2287 36.1115 76.6238C50.994 79.0189 65.0517 69.2068 67.5101 54.7078Z" fill="white"/>
<path d="M67.8735 50.3754C67.8431 50.2337 67.8251 50.0898 67.8197 49.9451C67.8197 49.6354 67.7712 49.2156 67.7281 48.6803C67.7281 48.4021 67.6904 48.0925 67.6688 47.7513C67.6473 47.4102 67.5557 47.0428 67.4911 46.644C67.3667 45.7184 67.1741 44.8029 66.9146 43.9044C66.2737 41.4212 65.2512 39.0467 63.8817 36.8613C60.6442 31.5959 55.6248 27.5938 49.6867 25.5432C43.7485 23.4925 37.2626 23.5214 31.3439 25.6248C30.1333 26.0508 28.9544 26.5576 27.8154 27.1415C26.6578 27.7609 25.5486 28.4626 24.4969 29.2408C23.4175 30.0191 22.3934 30.8678 21.4317 31.781C20.4783 32.7396 19.5928 33.7601 18.7813 34.8354C17.0998 37.0365 15.7937 39.4874 14.9134 42.0937C13.0529 47.4877 13.0529 53.3262 14.9134 58.7201C15.794 61.3269 17.0981 63.7792 18.7759 65.9837C19.5891 67.0578 20.4745 68.0782 21.4263 69.0381C22.3923 69.9503 23.418 70.8006 24.4969 71.5835C25.5513 72.3581 26.6601 73.0596 27.8154 73.6828C28.9545 74.2651 30.1334 74.7701 31.3439 75.1943C35.8928 76.8046 40.7999 77.205 45.5603 76.3542C49.339 75.6603 52.9243 74.1957 56.081 72.0566C59.2376 69.9175 61.8942 67.1521 63.8763 63.9421C65.2448 61.7581 66.2673 59.3854 66.9092 56.9042C67.1682 56.0038 67.3608 55.0865 67.4857 54.1594C67.5503 53.7605 67.6257 53.3932 67.6634 53.052C67.7011 52.7109 67.7065 52.4013 67.7227 52.1231C67.7658 51.5983 67.7927 51.1679 67.8143 50.8635C67.8191 50.7188 67.8371 50.5748 67.8681 50.4332C67.8778 50.5765 67.8778 50.7202 67.8681 50.8635C67.8681 51.1732 67.8681 51.593 67.825 52.1283C67.825 52.4118 67.825 52.7214 67.7927 53.0625C67.7604 53.4037 67.6958 53.7815 67.6419 54.1856C67.5312 55.1191 67.3512 56.0434 67.1032 56.9515C66.4914 59.467 65.4867 61.876 64.1241 64.0943C62.1371 67.3543 59.4618 70.1659 56.2754 72.3428C53.089 74.5197 49.4642 76.0122 45.6411 76.7215C40.8011 77.6116 35.8046 77.222 31.1715 75.5932C29.9373 75.1634 28.7349 74.6514 27.5729 74.0607C26.398 73.436 25.2677 72.7346 24.1899 71.9614C23.0889 71.1674 22.0433 70.3031 21.06 69.374C20.0912 68.3969 19.1913 67.3572 18.3665 66.2618C16.6518 64.0172 15.3186 61.5186 14.4178 58.8618C12.5216 53.3604 12.5216 47.4062 14.4178 41.9048C15.3171 39.2464 16.6524 36.7473 18.3719 34.5048C19.195 33.4082 20.095 32.3683 21.0654 31.3926C22.0487 30.4599 23.0962 29.5937 24.2007 28.8C25.2759 28.0231 26.4065 27.3216 27.5837 26.7007C28.7447 26.1079 29.9472 25.5958 31.1823 25.1682C35.8124 23.542 40.8057 23.156 45.6411 24.0503C49.4722 24.7642 53.1034 26.2646 56.293 28.4518C59.4827 30.639 62.1578 33.4627 64.1403 36.7353C65.5029 38.9536 66.5076 41.3626 67.1193 43.8781C67.3675 44.7879 67.5475 45.714 67.6581 46.6492C67.7119 47.0533 67.7766 47.4207 67.8089 47.7671C67.8412 48.1135 67.8089 48.4179 67.8412 48.7013C67.8412 49.2261 67.8735 49.6564 67.8843 49.9661C67.8891 50.1026 67.8855 50.2393 67.8735 50.3754Z" fill="#263238"/>
<path d="M72.6035 72.1609C72.6035 72.8971 72.3793 73.6167 71.9594 74.2288C71.5395 74.8408 70.9426 75.3177 70.2444 75.5992C69.5462 75.8807 68.778 75.954 68.0369 75.81C67.2959 75.666 66.6153 75.3111 66.0814 74.7902C65.5474 74.2693 65.1841 73.6058 65.0373 72.8836C64.8906 72.1615 64.967 71.4132 65.2569 70.7333C65.5468 70.0535 66.0372 69.4727 66.666 69.0645C67.2948 68.6563 68.0338 68.4389 68.7894 68.4399C69.2907 68.4399 69.7871 68.5362 70.2502 68.7233C70.7133 68.9104 71.134 69.1845 71.4883 69.5301C71.8425 69.8757 72.1233 70.286 72.3147 70.7374C72.506 71.1888 72.6042 71.6725 72.6035 72.1609Z" fill="white"/>
<path d="M72.6034 72.1606C72.5549 72.1606 72.5549 71.8299 72.3825 71.2789C72.1433 70.5054 71.6515 69.8291 70.9819 69.3528C70.496 69.009 69.9305 68.7875 69.3357 68.7079C68.7408 68.6282 68.1349 68.6929 67.5719 68.8962C66.8891 69.1447 66.3006 69.5905 65.885 70.1739C65.4695 70.7573 65.2469 71.4505 65.2469 72.1606C65.2469 72.8706 65.4695 73.5638 65.885 74.1472C66.3006 74.7306 66.8891 75.1764 67.5719 75.4249C68.1349 75.6282 68.7408 75.6929 69.3357 75.6132C69.9305 75.5336 70.496 75.3121 70.9819 74.9684C71.6504 74.4909 72.1419 73.815 72.3825 73.0423C72.5549 72.5174 72.5549 72.1606 72.6034 72.1606C72.6883 72.4665 72.6883 72.7888 72.6034 73.0947C72.4255 73.9537 71.9383 74.7225 71.2297 75.2623C70.7002 75.6705 70.0732 75.9414 69.4072 76.0497C68.7412 76.1579 68.0579 76.1001 67.421 75.8815C66.6312 75.6095 65.9473 75.1056 65.4636 74.4392C64.9799 73.7728 64.7202 72.9767 64.7202 72.1606C64.7202 71.3444 64.9799 70.5483 65.4636 69.8819C65.9473 69.2155 66.6312 68.7116 67.421 68.4396C68.0577 68.2195 68.7413 68.1609 69.4076 68.2692C70.0739 68.3776 70.7009 68.6493 71.2297 69.0588C71.9383 69.5986 72.4255 70.3674 72.6034 71.2264C72.6875 71.5324 72.6875 71.8545 72.6034 72.1606Z" fill="#263238"/>
<path d="M30.8915 53.0991C32.2393 53.0991 33.3318 52.0347 33.3318 50.7217C33.3318 49.4087 32.2393 48.3442 30.8915 48.3442C29.5437 48.3442 28.4512 49.4087 28.4512 50.7217C28.4512 52.0347 29.5437 53.0991 30.8915 53.0991Z" fill="#263238"/>
<path d="M40.5612 53.0991C41.909 53.0991 43.0015 52.0347 43.0015 50.7217C43.0015 49.4087 41.909 48.3442 40.5612 48.3442C39.2134 48.3442 38.1208 49.4087 38.1208 50.7217C38.1208 52.0347 39.2134 53.0991 40.5612 53.0991Z" fill="#263238"/>
<path d="M50.2311 53.0991C51.5789 53.0991 52.6714 52.0347 52.6714 50.7217C52.6714 49.4087 51.5789 48.3442 50.2311 48.3442C48.8833 48.3442 47.7908 49.4087 47.7908 50.7217C47.7908 52.0347 48.8833 53.0991 50.2311 53.0991Z" fill="#263238"/>
<path d="M49.4446 90.3933C50.5116 89.769 51.658 89.2837 52.8546 88.95L53.5603 85.6647L59.2652 85.5649L60.084 88.8293C61.2888 89.1253 62.4468 89.579 63.5264 90.1781L66.4138 88.3412L70.5295 92.1725L68.7464 95.0432C69.3882 96.0822 69.8863 97.1993 70.2279 98.3654L73.6002 99.0529L73.7025 104.611L70.3518 105.398C70.0579 106.576 69.6012 107.709 68.9942 108.767L70.8797 111.58L66.9202 115.574L63.9735 113.837C62.907 114.462 61.7604 114.948 60.5635 115.28L59.8578 118.566L54.1529 118.666L53.3341 115.401C52.1259 115.112 50.9627 114.668 49.8756 114.079L46.9935 115.915L42.8886 112.058L44.6717 109.198C44.0299 108.159 43.5318 107.042 43.1902 105.876L39.8233 105.188L39.7156 99.6249L43.0556 98.8325C43.3519 97.6554 43.8084 96.5222 44.4131 95.4631L42.5168 92.6553L46.4763 88.6561L49.4231 90.3933H49.4446ZM52.4883 97.7986C51.6473 98.6467 51.0833 99.7187 50.8677 100.879C50.6521 102.04 50.7946 103.236 51.2771 104.318C51.7597 105.399 52.5606 106.317 53.5786 106.955C54.5966 107.593 55.7859 107.923 56.9962 107.902C58.2065 107.882 59.3833 107.512 60.3779 106.84C61.3724 106.167 62.14 105.223 62.5836 104.126C63.0271 103.028 63.1267 101.828 62.8697 100.675C62.6128 99.5229 62.0108 98.4707 61.1399 97.6516C59.9725 96.5537 58.4053 95.9524 56.7829 95.9799C55.1605 96.0075 53.6157 96.6616 52.4883 97.7986Z" fill="#F5F5F5"/>
<path d="M52.4884 97.7983C52.8141 97.4174 53.2017 97.0912 53.6358 96.8326C54.6358 96.2149 55.7966 95.8895 56.9805 95.8951C58.1645 95.9007 59.3221 96.237 60.3158 96.8641C61.2403 97.4648 61.9841 98.2944 62.4706 99.2678C62.7371 99.792 62.9188 100.353 63.0093 100.931C63.1195 101.535 63.1304 102.151 63.0416 102.758C62.8688 104.044 62.2759 105.242 61.3504 106.175C60.425 107.108 59.2161 107.726 57.9024 107.938C57.2837 108.05 56.6505 108.062 56.0277 107.975C55.4536 107.895 54.8946 107.734 54.3685 107.497C53.3488 107.05 52.4708 106.345 51.8258 105.455C51.2621 104.686 50.893 103.798 50.7484 102.863C50.5428 101.51 50.8225 100.129 51.5403 98.9529C51.7894 98.5217 52.1098 98.1334 52.4884 97.8035C52.1759 98.1853 51.8898 98.5868 51.6319 99.0054C50.9691 100.17 50.7281 101.517 50.9477 102.831C51.0911 103.731 51.4511 104.586 51.9982 105.324C52.6231 106.173 53.4693 106.843 54.4493 107.266C54.9746 107.501 55.5345 107.653 56.1085 107.717C56.7046 107.8 57.3104 107.787 57.9024 107.681C59.1581 107.478 60.3134 106.887 61.1973 105.994C62.0811 105.102 62.6466 103.956 62.81 102.726C62.9772 101.585 62.7896 100.42 62.2713 99.3832C61.8326 98.5043 61.1757 97.7459 60.3602 97.1767C59.5446 96.6076 58.5961 96.2458 57.6007 96.1241C56.2426 95.9589 54.867 96.2436 53.6951 96.9323C53.2743 97.1956 52.8713 97.4849 52.4884 97.7983Z" fill="#263238"/>
<path d="M49.4447 90.3933C49.3796 90.3642 49.3166 90.3309 49.2561 90.2936L48.6905 89.9734L46.4764 88.6929H46.5303L42.5869 92.713V92.6238L44.494 95.4263V95.4683V95.5103C43.8964 96.566 43.4436 97.6935 43.1472 98.8639V98.9164H43.0933L39.7426 99.7194L39.8234 99.6249C39.8557 101.373 39.8934 103.23 39.9311 105.183L39.8449 105.078L43.2226 105.76H43.2873V105.828C43.6254 106.985 44.1218 108.092 44.7633 109.119L44.801 109.182L44.7633 109.24L42.9802 112.116V111.964L47.0851 115.821H46.9235L49.8056 113.979L49.8756 113.937L49.9457 113.974C51.0242 114.554 52.176 114.995 53.3718 115.286H53.4526V115.364C53.7058 116.414 53.9913 117.5 54.2715 118.629L54.1368 118.524L59.8417 118.429L59.707 118.534C59.9279 117.485 60.1649 116.377 60.4073 115.244V115.165H60.4935C61.6771 114.836 62.811 114.356 63.8658 113.737L63.9412 113.695L64.0113 113.737L66.958 115.48H66.7856L70.7505 111.486V111.654L68.8596 108.841L68.8165 108.773L68.8542 108.704C69.4561 107.656 69.9108 106.533 70.2064 105.366V105.288H70.2818L73.6325 104.49L73.5302 104.616C73.4979 102.72 73.4656 100.867 73.4332 99.0581L73.541 99.1788L70.1633 98.4913H70.0879V98.4231C69.7543 97.2651 69.2614 96.1564 68.6226 95.1272L68.5849 95.0642L68.6226 95.0012L70.4165 92.1357V92.2774L66.3223 88.4095H66.4516L63.5695 90.2463L63.5157 90.2778H63.4618C62.3835 89.6888 61.2295 89.2423 60.0302 88.95H59.9764V88.8976C59.6855 87.7115 59.4377 86.6408 59.1683 85.6332L59.2491 85.6909L53.5442 85.7696L53.6035 85.7224C53.318 87.0344 53.0648 88.1103 52.887 89.0078C51.9868 89.2528 51.1136 89.5832 50.2797 89.9944C49.9995 90.1256 49.8002 90.2358 49.6655 90.3093C49.5995 90.3468 49.5312 90.3801 49.4608 90.409L49.6548 90.2883C49.784 90.2096 49.9834 90.0942 50.2581 89.9524C51.0851 89.5143 51.9572 89.1625 52.8601 88.9028L52.8277 88.9395C53.0163 88.0421 53.2425 86.961 53.5119 85.6437V85.5964H53.5658L59.2653 85.481H59.3353V85.5439C59.5885 86.5516 59.874 87.6432 60.1649 88.8083L60.0949 88.7401C61.3137 89.0302 62.4875 89.4767 63.5857 90.0679H63.478L66.36 88.2205L66.4301 88.1733L66.4893 88.231C67.793 89.4486 69.1559 90.7292 70.5996 92.0885L70.6697 92.1514L70.6212 92.2249L68.8381 95.101V94.9802C69.4895 96.0257 69.9932 97.152 70.3357 98.3286L70.2441 98.2446L73.6164 98.9217H73.7187V99.0214C73.7565 100.832 73.7888 102.695 73.8265 104.579V104.684L73.7241 104.71L70.3734 105.513L70.4757 105.414C70.1764 106.604 69.7144 107.749 69.102 108.82V108.678L70.9929 111.486L71.0522 111.58L70.9767 111.654L67.0172 115.653L66.9364 115.732L66.8395 115.679L63.8927 113.937H64.0651C62.9893 114.57 61.8317 115.061 60.6228 115.396L60.7198 115.291C60.4774 116.419 60.2403 117.542 60.0195 118.582V118.686H59.9117L54.2068 118.786H54.0937V118.681C53.8082 117.553 53.555 116.44 53.2749 115.417L53.3718 115.517C52.1519 115.222 50.9779 114.771 49.881 114.173H50.0157L47.1336 116.015L47.0474 116.068L46.972 115.999L42.8725 112.137L42.797 112.068L42.8509 111.984L44.6394 109.114V109.234C43.9697 108.204 43.446 107.09 43.0825 105.923L43.1687 106.007L39.7911 105.314H39.7049V105.23C39.6725 103.278 39.6456 101.42 39.6133 99.6722V99.5934H39.6941L43.0556 98.7432L42.9856 98.8115C43.2855 97.6289 43.7457 96.4906 44.3539 95.4263V95.5103L42.4738 92.6973L42.4415 92.65L42.4792 92.6081L46.4656 88.6037H46.4979L48.6528 89.9157L49.1915 90.2568L49.4447 90.3933Z" fill="#263238"/>
<path d="M174.047 42.3248C175.9 41.2394 177.893 40.3993 179.973 39.8266L181.191 34.1323L191.065 33.9644L192.487 39.6114C194.572 40.1125 196.579 40.8802 198.456 41.8944L203.445 38.7088L210.55 45.3897L207.458 50.3598C208.574 52.1636 209.437 54.1053 210.022 56.1329L215.867 57.319L216.04 66.939L210.243 68.3245C209.733 70.3613 208.945 72.3223 207.9 74.1553L211.17 79.0151L204.312 85.9375L199.21 82.9251C197.358 84.011 195.365 84.8511 193.285 85.4232L192.067 91.1175L182.198 91.2855L180.776 85.6384C178.686 85.1396 176.673 84.3718 174.791 83.3554L169.797 86.5411L162.692 79.8549L165.789 74.8848C164.669 73.0821 163.805 71.1402 163.219 69.1117L157.375 67.9256L157.202 58.3056L162.999 56.9253C163.512 54.8895 164.3 52.9288 165.342 51.0946L162.11 46.2347L168.967 39.3123L174.069 42.3248H174.047ZM179.311 55.141C177.855 56.6098 176.879 58.4663 176.506 60.4756C176.133 62.4849 176.38 64.5567 177.216 66.4291C178.052 68.3016 179.439 69.8904 181.202 70.9948C182.965 72.0991 185.024 72.6694 187.12 72.6334C189.216 72.5974 191.253 71.9569 192.975 70.7927C194.697 69.6285 196.026 67.993 196.793 66.0931C197.561 64.1931 197.733 62.1141 197.288 60.1188C196.843 58.1236 195.8 56.3018 194.292 54.8838C192.27 52.984 189.556 51.944 186.747 51.9923C183.938 52.0405 181.263 53.173 179.311 55.141Z" fill="#F5F5F5"/>
<path d="M179.31 55.1406L179.429 55.0199L179.79 54.6735C179.979 54.4816 180.184 54.306 180.404 54.1487C180.693 53.9159 180.999 53.7036 181.32 53.5136C182.185 52.9681 183.132 52.5573 184.126 52.296C185.445 51.9353 186.823 51.8283 188.183 51.9811C189.835 52.1602 191.422 52.7138 192.816 53.5976C194.416 54.6242 195.707 56.0482 196.554 57.7227C197.017 58.6237 197.334 59.5883 197.497 60.583C197.587 61.0949 197.641 61.6122 197.659 62.1312C197.66 62.6578 197.624 63.1839 197.551 63.7057C197.247 65.9095 196.232 67.9623 194.653 69.568C193.844 70.3662 192.916 71.0404 191.9 71.5675C190.912 72.0798 189.846 72.4342 188.743 72.6172C188.208 72.7032 187.669 72.7558 187.127 72.7746C186.587 72.7741 186.047 72.7408 185.511 72.6749C184.484 72.5495 183.483 72.2716 182.543 71.8509C180.795 71.0863 179.29 69.8793 178.184 68.3556C177.313 67.1505 176.715 65.7782 176.431 64.3302C176.146 62.8822 176.182 61.3919 176.536 59.9585C176.771 58.9816 177.158 58.0454 177.683 57.1821C177.867 56.864 178.076 56.5604 178.308 56.2742C178.469 56.0512 178.649 55.8422 178.847 55.6497L179.192 55.2928C179.229 55.2503 179.268 55.21 179.31 55.1721C179.31 55.1721 179.283 55.2245 179.208 55.3085L178.89 55.6864C178.709 55.886 178.544 56.0983 178.395 56.3214C178.175 56.6116 177.977 56.9168 177.802 57.2346C177.304 58.0974 176.941 59.0279 176.725 59.9952C176.424 61.2728 176.378 62.5949 176.59 63.8894C176.836 65.4608 177.46 66.9533 178.411 68.2454C179.499 69.7294 180.976 70.902 182.688 71.641C183.605 72.0483 184.581 72.3156 185.581 72.4335C186.097 72.4993 186.617 72.5308 187.138 72.528C187.667 72.5119 188.195 72.4593 188.716 72.3705C190.909 72.0088 192.925 70.9732 194.47 69.4151C196.015 67.857 197.008 65.8582 197.303 63.7109C197.372 63.1993 197.406 62.6839 197.405 62.168C197.391 61.6613 197.341 61.1563 197.255 60.6565C197.1 59.6859 196.793 58.7442 196.344 57.8644C195.28 55.7269 193.487 54.0166 191.27 53.0265C189.054 52.0364 186.553 51.8282 184.196 52.4377C183.212 52.6857 182.271 53.0767 181.406 53.5976C181.085 53.78 180.777 53.9834 180.485 54.2064C180.261 54.3646 180.05 54.5401 179.854 54.7312L179.477 55.0566C179.348 55.1091 179.316 55.1458 179.31 55.1406Z" fill="#263238"/>
<path d="M174.047 42.3244C174.047 42.3244 173.94 42.2719 173.719 42.146L172.744 41.5792L168.924 39.3487H168.978C167.233 41.1173 164.932 43.458 162.137 46.2868V46.2028C163.128 47.6723 164.232 49.3098 165.417 51.0575V51.0994V51.1414C164.377 52.972 163.591 54.9293 163.079 56.9617V57.0142H163.025L157.229 58.405L157.304 58.3105C157.364 61.3387 157.423 64.5559 157.488 67.9305L157.401 67.8255L163.246 69.0064H163.311V69.0694C163.901 71.0879 164.765 73.0205 165.881 74.8162L165.918 74.8739L165.881 74.9579L162.788 79.9279V79.781L169.894 86.4567H169.732L174.721 83.2711L174.791 83.2291L174.861 83.2658C176.735 84.2801 178.738 85.0478 180.819 85.5488H180.9V85.6275C181.347 87.3962 181.832 89.3275 182.322 91.2746L182.187 91.1749L192.062 91.0017L191.927 91.1119C192.31 89.3118 192.724 87.3699 193.145 85.4176V85.3389L193.225 85.3126C195.295 84.7462 197.277 83.9112 199.119 82.8302L199.194 82.7882L199.264 82.8302L204.366 85.8427H204.193L211.051 78.9203V79.0882L207.781 74.2284L207.738 74.1601L207.776 74.0867C208.82 72.2642 209.61 70.3138 210.125 68.2874V68.2087H210.205L216.007 66.8284L215.905 66.9543C215.844 63.6759 215.786 60.4693 215.732 57.3343L215.835 57.4603L209.995 56.2689H209.92V56.2007C209.335 54.1771 208.474 52.239 207.361 50.4382L207.323 50.3752L207.361 50.2912L210.459 45.3264V45.4681L203.375 38.7976H203.504L198.51 41.978L198.462 42.0148L198.408 41.9833C196.534 40.9626 194.528 40.1912 192.444 39.6898H192.39V39.6373L190.979 33.9902L191.06 34.0532L181.185 34.2001L181.25 34.1529C180.754 36.4306 180.35 38.2938 180.016 39.842H179.989C178.429 40.2668 176.917 40.8435 175.475 41.5634C174.996 41.7943 174.651 41.9885 174.398 42.0882C174.144 42.1879 174.047 42.2719 174.047 42.2719C174.047 42.2719 174.161 42.1984 174.387 42.0672C174.613 41.936 174.958 41.7366 175.432 41.4952C176.872 40.7804 178.382 40.2107 179.941 39.7948H179.887C180.216 38.2203 180.609 36.3782 181.088 34.1004V34.0532H181.137L191.011 33.8643H191.076V33.9272C191.518 35.6749 191.986 37.5223 192.509 39.5743L192.439 39.5114C194.54 40.0131 196.563 40.7843 198.456 41.8048H198.354L203.342 38.6139L203.412 38.5667L203.471 38.6244L210.582 45.3001L210.652 45.3631L210.604 45.4418L207.512 50.4172V50.2912C208.635 52.094 209.505 54.0357 210.098 56.0643L210.001 55.975L215.846 57.1611H215.948V57.2661C216.009 60.394 216.068 63.6007 216.126 66.8861V66.9858H216.018L210.221 68.3713L210.324 68.2769C209.805 70.3267 209.008 72.2999 207.954 74.1444V74.0079L211.223 78.8678L211.288 78.957L211.207 79.0358L204.398 86.0316L204.323 86.1104L204.226 86.0526L199.124 83.0401H199.28C197.428 84.1292 195.436 84.9729 193.355 85.5488L193.457 85.4491C193.037 87.4014 192.622 89.3433 192.239 91.1382V91.2484H192.126L182.252 91.4163H182.144L182.117 91.3114C181.627 89.3643 181.142 87.4329 180.695 85.6643L180.797 85.764C178.693 85.2558 176.668 84.4775 174.775 83.4495H174.909L169.921 86.6352L169.829 86.6929L169.754 86.6194L162.654 79.9332L162.584 79.865L162.638 79.781L165.73 74.8162V74.9579C164.615 73.1529 163.75 71.2116 163.16 69.1848L163.246 69.2635L157.401 68.0722H157.315V67.9882C157.254 64.6084 157.2 61.4017 157.154 58.3682V58.2895H157.234L163.031 56.9145L162.966 56.9775C163.488 54.9327 164.287 52.9648 165.342 51.1257V51.2097L162.11 46.3393L162.077 46.2921L162.115 46.2553C164.922 43.437 167.244 41.1121 168.994 39.3487H169.021H169.048L172.819 41.6106L173.789 42.1932L174.047 42.3244Z" fill="#263238"/>
<path d="M138.406 8.88274C139.586 8.19732 140.854 7.66786 142.177 7.30827L142.953 3.666L149.261 3.56104L150.172 7.17182C151.51 7.49063 152.798 7.98312 154.002 8.63607L157.191 6.59976L161.732 10.8718L159.755 14.047C160.457 15.197 161.001 16.4323 161.371 17.7208L165.105 18.4765L165.218 24.6222L161.512 25.5091C161.181 26.8128 160.674 28.0677 160.003 29.2406L162.093 32.3476L157.714 36.7666L154.481 34.8405C153.302 35.5257 152.034 36.0552 150.71 36.4149L149.935 40.052L143.621 40.1622L142.716 36.5514C141.378 36.2293 140.09 35.7351 138.886 35.0819L135.697 37.1182L131.155 32.8514L133.133 29.671C132.428 28.5223 131.884 27.2867 131.516 25.9972L127.783 25.2415L127.632 19.101L131.339 18.2193C131.665 16.9153 132.171 15.6601 132.842 14.4878L130.751 11.3809L135.136 6.95664L138.406 8.88274ZM141.773 17.07C140.841 18.0079 140.216 19.1941 139.976 20.4786C139.736 21.7631 139.893 23.0879 140.426 24.2855C140.96 25.4831 141.846 26.4996 142.973 27.2062C144.1 27.9128 145.416 28.2778 146.756 28.255C148.096 28.2322 149.399 27.8226 150.5 27.0781C151.601 26.3336 152.45 25.2876 152.94 24.0726C153.43 22.8576 153.54 21.5282 153.254 20.2527C152.968 18.9772 152.301 17.8129 151.335 16.9073C150.695 16.304 149.939 15.8297 149.11 15.5113C148.282 15.193 147.397 15.0369 146.506 15.052C145.616 15.0671 144.737 15.2531 143.92 15.5994C143.103 15.9457 142.365 16.4454 141.746 17.07H141.773Z" fill="#F5F5F5"/>
<path d="M141.747 17.07C142.108 16.6561 142.535 16.3016 143.013 16.0203C144.119 15.3321 145.406 14.9691 146.718 14.9747C148.031 14.9803 149.314 15.3542 150.414 16.0518C151.45 16.7092 152.283 17.6267 152.828 18.7074C153.128 19.2892 153.335 19.9122 153.442 20.5548C153.568 21.2218 153.58 21.9043 153.48 22.5754C153.293 24.0058 152.638 25.3397 151.613 26.3795C150.587 27.4192 149.245 28.1096 147.785 28.3484C146.431 28.5581 145.043 28.3756 143.794 27.8236C142.741 27.3615 141.824 26.6487 141.128 25.7507C140.433 24.8528 139.98 23.7987 139.813 22.6856C139.587 21.1886 139.897 19.6616 140.691 18.361C140.978 17.8826 141.341 17.4521 141.768 17.0857C141.429 17.5147 141.114 17.9614 140.825 18.424C140.094 19.7117 139.828 21.2016 140.071 22.6541C140.232 23.6463 140.628 24.5881 141.229 25.4041C141.918 26.3382 142.847 27.0787 143.923 27.5507C145.118 28.0671 146.444 28.226 147.732 28.0073C149.117 27.7784 150.391 27.1237 151.367 26.1387C152.343 25.1538 152.97 23.8904 153.156 22.5334C153.253 21.8923 153.244 21.2403 153.129 20.602C153.035 19.9762 152.841 19.3688 152.553 18.8019C152.068 17.8307 151.343 16.9928 150.441 16.3641C149.54 15.7354 148.492 15.3358 147.392 15.2016C145.894 15.0194 144.377 15.3317 143.083 16.0885C142.62 16.3931 142.174 16.7207 141.747 17.07Z" fill="#263238"/>
<path d="M138.407 8.88297L138.196 8.77276L137.572 8.42112L135.12 7.0041H135.185L130.8 11.4546V11.3496L132.906 14.4513L132.939 14.4986L132.906 14.5511C132.246 15.7165 131.747 16.9625 131.425 18.2563V18.3193H131.36L127.632 19.2167L127.724 19.1013C127.762 21.0379 127.805 23.0899 127.848 25.2469L127.746 25.1262L131.479 25.8767H131.56V25.9555C131.934 27.2326 132.478 28.4569 133.176 29.5977L133.219 29.6659L133.176 29.7394L131.204 32.9199L131.177 32.7414L135.724 37.0082H135.53L138.719 34.9719L138.8 34.9194L138.881 34.9667C140.068 35.607 141.335 36.0939 142.652 36.4152H142.749V36.5096C143.034 37.638 143.347 38.8713 143.659 40.1152L143.497 39.9945L149.806 39.8842L149.649 40.0155C149.892 38.8661 150.156 37.6275 150.425 36.3784V36.2787H150.522C151.832 35.9194 153.086 35.3898 154.25 34.7043L154.336 34.6518L154.422 34.7043L157.681 36.6303H157.477L161.856 32.2061V32.4055L159.869 29.2986L159.815 29.2199L159.863 29.1359C160.525 27.981 161.027 26.7456 161.355 25.4621V25.3677H161.452L165.159 24.486L165.035 24.6381C165.002 22.5389 164.965 20.4868 164.932 18.4872L165.051 18.6342L161.318 17.8732H161.232L161.205 17.7892C160.834 16.5107 160.291 15.2859 159.589 14.1469L159.54 14.0735L159.589 14L161.571 10.8511V11.0138L157.035 6.73644H157.197L154.029 8.71502L153.97 8.75176L153.905 8.72027C152.713 8.0661 151.435 7.57179 150.107 7.25077H150.043V7.18779C149.719 5.87573 149.423 4.69488 149.148 3.57701L149.245 3.65049L142.932 3.73446L143.007 3.67673C142.684 5.13049 142.425 6.30084 142.21 7.31375V7.34524H142.178C141.184 7.6176 140.219 7.98137 139.295 8.43162C138.988 8.57857 138.757 8.69928 138.617 8.778C138.543 8.82018 138.468 8.85871 138.39 8.89346L138.606 8.75701C138.746 8.67304 138.967 8.54183 139.269 8.38439C140.183 7.91355 141.146 7.53544 142.14 7.25602L142.102 7.298C142.307 6.30084 142.555 5.10949 142.856 3.65573V3.598H142.916L149.224 3.4668H149.305V3.54027L150.258 7.12481L150.177 7.04609C151.523 7.36671 152.818 7.86091 154.029 8.51559H153.905L157.089 6.46878L157.175 6.4163L157.245 6.48453L161.792 10.7461L161.873 10.8248L161.819 10.914L159.852 14.0787V13.9318C160.569 15.0931 161.127 16.3404 161.512 17.6423L161.399 17.5425L165.132 18.293L165.25 18.3193V18.4347C165.29 20.4361 165.328 22.4864 165.363 24.5857V24.7064L165.24 24.7379L161.571 25.6248L161.689 25.5094C161.352 26.8337 160.834 28.1081 160.149 29.2986V29.1359L162.239 32.2428L162.309 32.3478L162.217 32.4423L157.838 36.8665L157.746 36.961L157.633 36.8928L154.374 34.9667H154.541C153.35 35.6699 152.067 36.212 150.727 36.5779L150.845 36.4572C150.581 37.7062 150.307 38.9448 150.07 40.0942L150.043 40.2201H149.908L143.6 40.3251H143.47L143.438 40.2044C143.126 38.9553 142.813 37.722 142.533 36.5936L142.652 36.7091C141.301 36.3828 140 35.8833 138.784 35.2238H138.945L135.756 37.2549L135.654 37.3231L135.562 37.2391L131.021 32.9723L130.935 32.8936L130.999 32.7939L132.976 29.645V29.7867C132.261 28.6261 131.707 27.3784 131.328 26.0762L131.436 26.1706L127.703 25.4044H127.595V25.3047C127.562 23.1477 127.53 21.1061 127.498 19.159V19.012H127.589L131.296 18.1356L131.215 18.2143C131.551 16.9034 132.063 15.6416 132.739 14.4618V14.5616L130.665 11.4546L130.628 11.3969L130.676 11.3496L135.083 6.94637H135.11H135.147L137.555 8.40013L138.17 8.778C138.31 8.83049 138.407 8.88297 138.407 8.88297Z" fill="#263238"/>
<path d="M59.4862 135.79C61.4098 134.653 63.4806 133.771 65.6436 133.166L66.9149 127.225L77.2204 127.047L78.7018 132.941C80.8871 133.465 82.9905 134.271 84.9562 135.339L90.1655 132.012L97.5781 138.987L94.3458 144.172C95.5134 146.05 96.4192 148.07 97.0394 150.181L103.138 151.414L103.321 161.454L97.2656 162.898C96.7319 165.027 95.9056 167.077 94.8091 168.991L98.2191 174.066L91.0544 181.303L85.7266 178.154C83.801 179.292 81.7285 180.174 79.5638 180.778L78.2978 186.719L67.9924 186.898L66.5055 180.972C64.3217 180.451 62.2199 179.647 60.2565 178.579L55.0473 181.907L47.6347 174.947L50.8669 169.757C49.6963 167.883 48.7903 165.863 48.1734 163.753L42.086 162.52L41.9028 152.48L47.9525 151.058C48.4905 148.929 49.3185 146.879 50.4144 144.964L46.999 139.889L54.1584 132.668L59.4862 135.817V135.79ZM64.9756 149.163C63.4559 150.695 62.4367 152.632 62.047 154.728C61.6573 156.824 61.9146 158.986 62.7864 160.94C63.6581 162.894 65.1051 164.552 66.9443 165.704C68.7835 166.857 70.9322 167.452 73.1187 167.415C75.3052 167.377 77.4311 166.709 79.2276 165.494C81.0241 164.279 82.4103 162.573 83.211 160.59C84.0117 158.607 84.1908 156.438 83.7257 154.356C83.2606 152.275 82.1721 150.374 80.5981 148.895C78.4886 146.915 75.6589 145.831 72.73 145.881C69.8011 145.932 67.0123 147.112 64.9756 149.163Z" fill="#F5F5F5"/>
<path d="M64.9757 149.163C65.0139 149.118 65.0553 149.076 65.0996 149.037L65.4713 148.675C65.6733 148.484 65.8894 148.309 66.1177 148.15C66.4186 147.907 66.7373 147.686 67.0712 147.488C67.9745 146.919 68.9632 146.491 70.0018 146.218C71.526 145.807 73.1225 145.717 74.6855 145.952C76.2485 146.187 77.7424 146.743 79.0682 147.583C80.3616 148.395 81.4651 149.464 82.3069 150.719C83.1487 151.974 83.71 153.387 83.9543 154.867C84.0483 155.402 84.1041 155.942 84.1213 156.484C84.1226 157.037 84.0867 157.589 84.0135 158.137C83.8649 159.263 83.5302 160.359 83.0223 161.381C82.4963 162.431 81.8097 163.397 80.986 164.246C80.1424 165.082 79.1745 165.79 78.1147 166.345C77.083 166.872 75.972 167.235 74.8232 167.421C74.2636 167.512 73.6986 167.566 73.1317 167.584C72.575 167.586 72.0188 167.551 71.4671 167.479C70.9213 167.412 70.3811 167.307 69.851 167.164C69.3412 167.024 68.8425 166.849 68.3587 166.639C66.651 165.9 65.1627 164.752 64.0325 163.303C62.9023 161.853 62.1667 160.148 61.8943 158.347C61.6816 156.97 61.7456 155.565 62.0828 154.211C62.3265 153.191 62.7318 152.213 63.2841 151.314C63.4751 150.983 63.6911 150.665 63.9306 150.364C64.09 150.134 64.2703 149.918 64.4693 149.719L64.8248 149.341L64.9541 149.215C64.9541 149.215 64.9218 149.268 64.8464 149.357L64.5124 149.75C64.3169 149.958 64.1369 150.179 63.9737 150.412C63.7468 150.717 63.5399 151.036 63.3542 151.367C62.8291 152.267 62.4442 153.238 62.2121 154.248C61.6366 156.664 61.9436 159.2 63.0802 161.42C64.2169 163.639 66.112 165.403 68.4396 166.408C68.9115 166.62 69.3996 166.795 69.8994 166.933C70.4123 167.07 70.9343 167.172 71.4617 167.238C71.9978 167.303 72.5375 167.336 73.0778 167.337C73.6305 167.317 74.1813 167.261 74.7262 167.169C75.8553 166.994 76.9472 166.639 77.9585 166.12C80.0513 165.06 81.7326 163.365 82.7476 161.291C83.2376 160.298 83.563 159.235 83.7119 158.142C83.784 157.608 83.8218 157.07 83.825 156.531C83.8067 156.003 83.7527 155.477 83.6634 154.957C83.5011 153.944 83.1795 152.961 82.7099 152.044C81.8565 150.344 80.5552 148.895 78.9389 147.845C77.6503 146.995 76.1913 146.421 74.6582 146.161C73.1252 145.9 71.5528 145.959 70.0449 146.334C69.0165 146.593 68.034 147.002 67.1305 147.546C66.7944 147.735 66.4739 147.949 66.1716 148.186C65.9362 148.343 65.7145 148.519 65.509 148.711L65.1157 149.052C65.0295 149.131 64.9811 149.168 64.9757 149.163Z" fill="#263238"/>
<path d="M59.4862 135.79C59.4862 135.79 59.3677 135.732 59.1414 135.601L58.1395 135.013L54.153 132.683H54.2069L47.0529 139.915V139.831C48.0926 141.364 49.2454 143.075 50.4791 144.901V144.938V144.98C49.3968 146.893 48.5781 148.936 48.0441 151.057V151.11H47.9902L41.946 152.564L42.0214 152.469C42.0806 155.618 42.1453 158.982 42.2099 162.504L42.1237 162.404L48.2057 163.653H48.2757V163.721C48.8982 165.819 49.804 167.828 50.9693 169.694L51.007 169.751L50.9693 169.814C49.9727 171.426 48.8683 173.194 47.737 175.005V174.853L55.155 181.822H54.9934L60.1973 178.495L60.2673 178.453L60.3374 178.49C62.2928 179.551 64.3855 180.353 66.5594 180.872H66.6348V180.951C67.0981 182.793 67.6045 184.809 68.1217 186.845L67.9816 186.74L78.287 186.562L78.1524 186.672C78.5564 184.793 78.9874 182.767 79.4237 180.731V180.647H79.5045C81.6558 180.053 83.7158 179.181 85.6296 178.054L85.6996 178.012L85.7751 178.054L91.0975 181.203H90.9251L98.0845 173.982V174.149C96.9388 172.439 95.8004 170.747 94.6691 169.074L94.626 169.006L94.6691 168.933C95.7573 167.029 96.5798 164.992 97.1148 162.876V162.803H97.1902L103.245 161.36L103.143 161.485C103.085 158.06 103.026 154.715 102.965 151.451L103.068 151.572L96.9694 150.328H96.894V150.254C96.2867 148.141 95.3916 146.116 94.2327 144.235L94.1896 144.172L94.2327 144.114C95.3371 142.335 96.4145 140.613 97.465 138.929V139.07L90.0578 132.09H90.1924L84.9778 135.412L84.9293 135.444L84.8754 135.412C82.9183 134.348 80.8239 133.543 78.648 133.019H78.5941V132.961C78.0554 130.82 77.576 128.889 77.1181 127.068L77.1989 127.131L66.8934 127.288L66.9527 127.236C66.414 129.613 66.0207 131.56 65.6706 133.177V133.213C64.0426 133.659 62.4637 134.26 60.9569 135.008C60.4613 135.255 60.1003 135.454 59.8795 135.585C59.6586 135.717 59.5185 135.78 59.5185 135.78L59.8687 135.565C60.1057 135.428 60.4667 135.218 60.9461 134.966C62.4485 134.202 64.0258 133.587 65.6544 133.129L65.6221 133.161C65.9615 131.544 66.3763 129.597 66.8773 127.215V127.167H66.9311L77.2366 126.973H77.3012V127.036C77.7591 128.857 78.2493 130.783 78.7934 132.925L78.7234 132.862C80.9176 133.385 83.0301 134.191 85.0047 135.26H84.9024L90.1063 131.933L90.1763 131.885L90.2409 131.943L97.6589 138.913L97.7289 138.976L97.6805 139.049L94.4482 144.24V144.119C95.6183 146.003 96.5242 148.031 97.1418 150.149L97.0502 150.065L103.148 151.299H103.251V151.398C103.312 154.663 103.373 158.009 103.434 161.438V161.554L103.326 161.58L97.2764 163.028L97.3788 162.929C96.8405 165.069 96.0088 167.129 94.9061 169.053V168.917C96.0302 170.593 97.1687 172.285 98.3215 173.992L98.3808 174.081L98.3054 174.16L91.146 181.382L91.0705 181.46L90.9736 181.403L85.6512 178.254H85.7912C83.8552 179.393 81.7718 180.275 79.5961 180.878L79.6985 180.773C79.2621 182.814 78.8258 184.84 78.4271 186.714V186.824H78.314L68.0085 186.997H67.9008L67.8739 186.892L66.3924 180.998L66.4894 181.093C64.2962 180.562 62.1843 179.752 60.2081 178.684H60.3428L55.1173 182.022L55.0311 182.074L54.9557 182.006L47.5485 175.026L47.4731 174.963L47.5269 174.879L50.7592 169.694V169.814C49.5907 167.928 48.6849 165.898 48.0657 163.779L48.1518 163.858L42.0645 162.603H41.9783V162.514C41.919 158.993 41.8651 155.639 41.8113 152.474V152.396H41.8921L47.9418 150.958L47.8771 151.021C48.4197 148.887 49.2531 146.834 50.3552 144.917V144.996L46.9505 139.915L46.9182 139.873L46.9613 139.831L54.1369 132.625V132.599H54.1638L58.1125 134.956L59.1253 135.565L59.4862 135.79Z" fill="#263238"/>
<path d="M173.8 171.446C172.593 170.685 156.502 167.426 156.502 167.426L117.715 168.413L103.822 170.906C103.822 170.906 101.247 212.892 101.629 213.663C102.012 214.435 130.611 213.962 131.371 214.713C132.131 215.463 158.538 218.234 158.538 218.234L182.979 175.509L173.8 171.446Z" fill="#AE7461"/>
<path d="M210.41 182.132C201.602 174.847 166.775 168.686 164.825 168.686C164.825 168.686 162.131 189.826 137.889 189.826C117.273 189.826 112.349 169.358 112.349 169.358L97.2977 171.662C94.9813 172.092 74.3973 176.789 71.0196 177.723C63.9895 179.665 49.5845 184.635 45.4096 199.467C43.8689 204.957 43.912 214.839 42.0642 222.722H78.7285C78.7285 222.722 197.098 222.821 197.109 222.722L236.909 222.753C236.909 222.753 219.751 189.852 210.41 182.132Z" fill="#C8B19D"/>
<path d="M74.392 222.816C74.3166 222.816 72.7759 218.906 70.912 214.031C69.0481 209.155 67.6205 205.177 67.6798 205.151C67.739 205.124 69.2959 209.055 71.1598 213.936C73.0237 218.817 74.4621 222.79 74.392 222.816Z" fill="#263238"/>
<path d="M192.153 222.638C192.113 222.425 192.095 222.209 192.099 221.992C192.099 221.52 192.072 220.943 192.056 220.229C192.056 218.681 192.002 216.655 191.97 214.414C191.938 212.173 191.819 210.095 191.706 208.609C191.652 207.911 191.609 207.323 191.571 206.856C191.542 206.641 191.533 206.423 191.544 206.206C191.616 206.411 191.661 206.624 191.679 206.841C191.749 207.255 191.824 207.854 191.905 208.594C192.067 210.079 192.201 212.136 192.25 214.409C192.298 216.681 192.282 218.738 192.25 220.229C192.25 220.927 192.218 221.52 192.201 221.992C192.211 222.209 192.195 222.425 192.153 222.638Z" fill="#263238"/>
<g opacity="0.3">
<path d="M122.509 222.837C124.168 215.905 126.021 209.029 126.506 201.44C126.511 200.143 126.714 198.853 127.11 197.614C128.079 195.127 130.789 193.285 130.881 190.624C130.945 187.837 127.648 185.759 124.858 186.284C122.067 186.808 119.945 189.244 118.991 191.873C118.038 194.502 118.016 197.347 117.914 200.134C117.612 207.208 112.355 215.947 110.701 222.837" fill="black"/>
</g>
<path d="M112.441 47.751C100.002 50.6795 88.3284 62.3988 83.1083 73.5775C77.8882 84.7562 77.6027 95.3314 79.1973 107.476C80.1616 114.823 82.2787 122.313 83.6524 129.319C85.08 136.614 81.4976 146.827 77.4249 153.135C75.8735 155.518 73.8048 158.095 74.5483 160.808C75.2324 163.322 78.0714 164.681 80.6949 165.348C86.1083 166.716 91.813 166.521 97.1146 164.786C96.8812 166.585 96.6478 168.383 96.4143 170.182C110.577 169.903 124.217 165.348 137.577 160.845C142.053 159.339 146.735 157.696 149.875 154.306C151.605 152.432 152.752 150.144 153.846 147.877C158.245 138.743 162.138 129.386 165.509 119.846" fill="#263238"/>
<path d="M176.116 64.3776C165.342 51.5772 150.926 44.2086 133.951 43.9357C124.373 43.7783 120.414 45.7201 113.513 47.5308C106.612 49.3414 100.395 52.9469 96.2743 58.6413C91.3882 65.3957 87.2833 72.9637 86.3567 81.2086C85.4086 89.6478 84.4605 98.1447 85.1123 106.615C85.7641 115.086 88.129 123.609 93.2467 130.479L115.334 134.226C127.546 134.63 139.926 135.019 151.826 132.305C163.726 129.592 175.286 123.352 181.659 113.197C190.526 99.0578 186.852 77.1832 176.116 64.3776Z" fill="#263238"/>
<path d="M156.421 64.2357L126.943 52.8208L119.239 53.692C101.909 53.755 89.9551 72.3704 89.8419 86.0473C89.718 101.236 90.1813 119.788 92.654 130.988C97.637 153.503 117.364 155.376 117.364 155.376C117.364 155.376 116.96 167.374 116.826 174.937L161.964 171.761L164.232 71.9506C164.16 69.9447 163.317 68.0383 161.87 66.6093C160.423 65.1804 158.478 64.3332 156.421 64.2357Z" fill="#AE7461"/>
<path d="M101.483 104.495C101.517 105.256 101.855 105.973 102.425 106.494C102.995 107.015 103.751 107.298 104.532 107.282C104.914 107.291 105.294 107.225 105.65 107.089C106.005 106.953 106.329 106.749 106.603 106.488C106.876 106.228 107.093 105.917 107.24 105.574C107.388 105.231 107.464 104.862 107.463 104.49C107.428 103.731 107.09 103.015 106.522 102.494C105.954 101.974 105.199 101.69 104.419 101.703C104.037 101.694 103.657 101.759 103.301 101.896C102.945 102.032 102.621 102.236 102.347 102.496C102.074 102.756 101.856 103.067 101.708 103.411C101.56 103.754 101.483 104.123 101.483 104.495Z" fill="#263238"/>
<path d="M94.7711 97.184C95.1644 97.5304 97.4054 95.872 100.697 95.746C103.988 95.6201 106.477 97.0213 106.817 96.6382C106.984 96.4703 106.563 95.83 105.481 95.174C103.992 94.3241 102.28 93.919 100.557 94.0089C98.8636 94.0589 97.2257 94.6078 95.8593 95.5833C94.8573 96.3548 94.5448 97.0266 94.7711 97.184Z" fill="#263238"/>
<path d="M115.781 118.224C115.781 118.046 113.766 117.815 110.507 117.584C109.677 117.547 108.891 117.432 108.724 116.891C108.557 116.351 108.794 115.443 109.139 114.488L111.223 108.263C114.111 99.4043 116.147 92.1408 115.781 92.0306C115.414 91.9204 112.78 99.0107 109.893 107.87C109.203 110.053 108.542 112.138 107.91 114.126C107.652 115.049 107.172 116.109 107.663 117.275C107.797 117.55 107.995 117.793 108.241 117.983C108.486 118.173 108.773 118.306 109.079 118.371C109.541 118.468 110.014 118.506 110.485 118.487C113.777 118.518 115.781 118.403 115.781 118.224Z" fill="#263238"/>
<path d="M117.327 155.35C117.327 155.35 133.068 155.497 148.092 145.567C148.092 145.567 140.664 161.758 117.208 160.882L117.327 155.35Z" fill="#6F4439"/>
<path d="M95.5685 88.7399C96.1503 89.4747 98.5852 88.8344 101.494 88.9131C104.387 88.9131 106.811 89.6006 107.42 88.8764C107.684 88.5247 107.328 87.7952 106.289 87.0815C104.864 86.212 103.221 85.7413 101.54 85.7209C99.8596 85.7005 98.2053 86.1313 96.759 86.966C95.6762 87.6588 95.3099 88.383 95.5685 88.7399Z" fill="#263238"/>
<path d="M138.746 103.823C138.767 104.583 138.482 105.321 137.953 105.88C137.424 106.439 136.691 106.774 135.912 106.815C135.532 106.851 135.148 106.812 134.783 106.702C134.418 106.591 134.079 106.41 133.787 106.17C133.495 105.93 133.255 105.635 133.082 105.303C132.908 104.972 132.805 104.609 132.777 104.238C132.756 103.478 133.041 102.74 133.57 102.181C134.099 101.623 134.831 101.287 135.611 101.246C135.991 101.21 136.375 101.248 136.741 101.358C137.106 101.469 137.445 101.649 137.737 101.89C138.029 102.13 138.269 102.425 138.442 102.757C138.616 103.089 138.719 103.452 138.746 103.823Z" fill="#263238"/>
<path d="M140.464 95.7722C140.082 96.2131 137.501 94.5494 133.973 94.7226C130.444 94.8957 127.956 96.7799 127.546 96.3757C127.347 96.1973 127.724 95.4206 128.801 94.5599C130.271 93.4451 132.059 92.8016 133.919 92.7177C135.755 92.6139 137.576 93.0847 139.118 94.0613C140.249 94.838 140.658 95.5728 140.464 95.7722Z" fill="#263238"/>
<path d="M135.675 84.767C135.056 85.4912 132.556 84.7932 129.566 84.8089C126.576 84.7355 124.055 85.381 123.457 84.6463C123.193 84.2894 123.581 83.5651 124.675 82.8723C126.17 82.0114 127.884 81.5785 129.62 81.6233C131.351 81.6085 133.05 82.0765 134.517 82.9721C135.589 83.6858 135.95 84.4048 135.675 84.767Z" fill="#263238"/>
<path d="M186.27 79.3561C175.846 58.6886 160.208 44.912 132.26 43.9253L154.438 96.5703C164.868 111.323 164.862 129.214 159.357 146.308C157.816 151.094 155.737 156.631 158.624 160.782C161.511 164.934 168.191 165.044 172.544 162.325C176.482 159.864 178.976 155.823 181.201 151.771C181.085 152.517 181.221 153.279 181.59 153.942C181.958 154.605 182.539 155.132 183.243 155.445C185.171 156.201 187.461 155.287 188.84 153.765C190.219 152.243 190.86 150.233 191.383 148.271C193.214 141.374 193.979 134.253 194.329 127.136C195.127 110.835 193.645 94.0039 186.27 79.3561Z" fill="#263238"/>
<path d="M160.213 110.121C160.122 108.426 161.905 104.348 163.602 103.981C168.143 103.041 176.418 102.931 177.129 114.283C178.109 129.76 161.953 127.524 161.894 127.083C161.851 126.737 160.526 115.962 160.213 110.121Z" fill="#AE7461"/>
<path d="M165.924 121.142C165.988 121.09 166.214 121.316 166.694 121.494C167.369 121.731 168.113 121.703 168.768 121.415C170.384 120.712 171.655 118.03 171.558 115.238C171.515 113.908 171.167 112.605 170.54 111.423C170.002 110.321 169.177 109.57 168.326 109.476C167.998 109.407 167.656 109.453 167.36 109.607C167.064 109.761 166.834 110.012 166.71 110.315C166.527 110.761 166.645 111.061 166.565 111.092C166.484 111.124 166.204 110.856 166.295 110.21C166.349 109.822 166.54 109.464 166.834 109.198C167.255 108.855 167.795 108.683 168.342 108.715C169.571 108.715 170.745 109.764 171.386 110.94C172.144 112.243 172.567 113.705 172.62 115.201C172.711 118.324 171.257 121.342 169 122.129C168.58 122.274 168.132 122.325 167.69 122.28C167.247 122.234 166.82 122.093 166.441 121.867C165.977 121.536 165.88 121.195 165.924 121.142Z" fill="#6F4439"/>
<path d="M164.264 104.023L160.219 108.746C122.137 86.3624 108.718 51.1521 110.62 53.582C110.62 53.582 122.563 48.7956 135.524 50.9579C148.486 53.1202 173.077 59.4285 172.695 74.323C172.313 89.2175 164.264 104.023 164.264 104.023Z" fill="#263238"/>
<path d="M113.416 125.514C112.877 125.75 112.624 127.456 112.791 128.138C112.862 128.439 113.007 128.718 113.212 128.953C113.417 129.187 113.678 129.371 113.971 129.487C114.493 129.651 115.052 129.673 115.587 129.55C116.913 129.3 118.207 128.908 119.444 128.38C120.758 127.855 122.617 126.653 123.899 126.002C121.836 124.984 119.18 124.564 116.987 124.318C116.209 124.175 115.403 124.311 114.719 124.701" fill="#6F4439"/>
<path d="M113.938 125.388C113.652 125.203 113.438 124.929 113.332 124.611C113.225 124.293 113.232 123.949 113.351 123.635C113.481 123.325 113.678 123.046 113.928 122.816C114.178 122.586 114.475 122.411 114.8 122.302C115.452 122.093 116.135 121.995 116.821 122.013C118.437 122.013 119.622 122.465 121.13 123.063C122.652 123.647 123.997 124.597 125.041 125.824C121.27 125.514 117.822 124.716 113.96 125.399" fill="#6F4439"/>
<path d="M113.114 129.015C113.082 129.046 112.829 128.91 112.576 128.49C112.426 128.16 112.346 127.804 112.342 127.443C112.337 127.082 112.407 126.724 112.549 126.391C112.771 125.912 113.104 125.49 113.523 125.159C113.942 124.828 114.435 124.598 114.962 124.485C116.168 124.214 117.417 124.165 118.641 124.344C120.806 124.577 122.943 125.016 125.02 125.656C126.636 126.144 127.557 126.538 127.525 126.642C127.492 126.747 126.485 126.559 124.869 126.217C122.788 125.753 120.682 125.402 118.561 125.168C117.432 125.002 116.284 125.019 115.161 125.22C114.734 125.292 114.328 125.453 113.972 125.693C113.615 125.933 113.317 126.247 113.098 126.611C112.839 127.142 112.771 127.743 112.904 128.317C113.012 128.742 113.163 128.946 113.114 129.015Z" fill="#263238"/>
<path d="M126.517 136.729C126.447 136.792 125.908 136.157 124.809 135.444C123.396 134.492 121.728 133.965 120.01 133.927C118.293 133.889 116.602 134.341 115.145 135.228C114.014 135.9 113.448 136.509 113.378 136.441C113.308 136.372 113.798 135.695 114.924 134.908C116.409 133.877 118.197 133.341 120.02 133.38C121.844 133.42 123.605 134.033 125.041 135.129C126.135 135.963 126.555 136.698 126.517 136.729Z" fill="#6F4439"/>
<path d="M165.805 135.008C168.896 135.008 171.402 132.567 171.402 129.555C171.402 126.544 168.896 124.103 165.805 124.103C162.714 124.103 160.208 126.544 160.208 129.555C160.208 132.567 162.714 135.008 165.805 135.008Z" fill="#455A64"/>
<path d="M112.037 47.7511C111.735 48.5856 126.496 45.5889 132.75 49.2836C139.004 52.9784 143.853 58.5362 148.071 64.3513C156.582 76.0916 163.472 89.6687 164.232 104.023C165.891 103.361 170.443 103.645 172.674 105.025C172.674 105.025 180.496 58.636 133.914 43.9357C133.935 43.9357 114.784 40.1779 112.037 47.7511Z" fill="#455A64"/>
<path d="M116.072 44.8277C116.351 44.7029 116.641 44.6028 116.939 44.5286C117.781 44.2683 118.642 44.0718 119.514 43.9408C120.085 43.883 120.715 43.7518 121.416 43.7413L122.493 43.6836H123.673C125.526 43.7587 127.366 44.0118 129.168 44.4393C133.844 45.6224 138.259 47.6249 142.199 50.3488C147.088 53.599 151.441 57.5561 155.106 62.0839C158.784 66.5853 161.767 71.5853 163.963 76.9259C164.426 78.1697 164.916 79.3663 165.326 80.5576C165.735 81.749 166.053 82.9193 166.403 84.0477L167.179 87.3698C167.421 88.4195 167.54 89.4691 167.718 90.461C167.788 90.9859 167.89 91.4372 167.933 91.9096C167.976 92.3819 168.019 92.8437 168.062 93.2951C168.132 94.1925 168.235 95.0375 168.267 95.83C168.267 97.4044 168.348 98.7847 168.294 99.8974C168.24 101.01 168.165 101.865 168.122 102.464C168.117 102.763 168.084 103.062 168.025 103.356C168.003 103.057 168.003 102.757 168.025 102.458C168.025 101.855 168.062 100.994 168.089 99.8921C168.116 98.79 168.008 97.4202 167.965 95.8457C167.917 95.0585 167.804 94.2188 167.718 93.3266C167.669 92.8857 167.621 92.4239 167.572 91.9568C167.524 91.4897 167.416 91.0121 167.335 90.5188C167.152 89.5426 167.017 88.5087 166.769 87.4538C166.522 86.3989 166.231 85.302 165.967 84.1684C165.703 83.0348 165.25 81.8959 164.889 80.7046C164.528 79.5132 163.984 78.3429 163.516 77.1148C161.311 71.8326 158.343 66.8843 154.702 62.4198C151.081 57.9465 146.796 54.0233 141.989 50.7792C138.107 48.0681 133.76 46.0527 129.152 44.8277C127.387 44.3866 125.583 44.1107 123.765 44.0037L122.515 43.9932L121.437 44.0247C120.742 44.0247 120.117 44.1349 119.552 44.1769C118.684 44.2868 117.824 44.448 116.977 44.6598C116.68 44.7364 116.377 44.7925 116.072 44.8277Z" fill="#263238"/>
<path d="M116.249 222.638C116.249 222.638 120.392 206.946 122.046 200.496C122.438 198.962 122.515 197.367 122.272 195.804L121.836 192.985C123.527 192.697 124.238 192.377 125.79 191.091C126.348 191.161 126.914 191.057 127.407 190.792C127.9 190.528 128.294 190.118 128.532 189.621C129.2 188.351 130.035 186.2 130.843 184.195C132.319 180.521 132.836 175.42 132.836 175.42C132.836 175.42 135.373 170.806 135.223 168.849C135.072 166.891 133.65 163.685 133.65 163.685C133.65 163.685 134.011 160.536 133.407 159.25C132.486 157.261 130.126 156.216 127.675 156.883C125.585 157.45 115.334 159.465 115.334 159.465L113.421 157.523L112.926 150.564L118.717 148.612C118.717 148.612 122.488 150.228 125.24 149.21C126.212 148.881 127.061 148.278 127.681 147.478C127.791 147.325 127.865 147.152 127.899 146.968C127.934 146.785 127.927 146.596 127.879 146.416C127.831 146.235 127.744 146.067 127.624 145.922C127.503 145.778 127.351 145.66 127.18 145.578C124.772 144.413 119.228 141.805 117.44 141.637C115.134 141.416 106.224 145.594 105.508 146.885C105.357 147.147 104.263 162.478 104.263 162.478C102.797 164.109 101.954 166.183 101.877 168.35C101.877 171.762 100.988 197.216 100.988 197.216L87.8757 222.627" fill="#AE7461"/>
<path d="M87.8757 222.627C87.8757 222.627 87.9404 222.475 88.0912 222.181L88.7484 220.875C89.341 219.72 90.2029 218.025 91.3181 215.836L100.902 197.163V197.2C101.047 192.308 101.209 186.861 101.386 180.93C101.473 177.97 101.564 174.898 101.661 171.714C101.661 170.922 101.71 170.14 101.737 169.311C101.729 168.489 101.789 167.667 101.914 166.855C102.253 165.187 103.033 163.635 104.177 162.352L104.145 162.43C104.396 158.998 104.658 155.461 104.931 151.818C105.001 150.91 105.077 149.997 105.152 149.079C105.195 148.617 105.233 148.155 105.276 147.693C105.303 147.457 105.319 147.242 105.357 146.985C105.367 146.915 105.383 146.847 105.405 146.78L105.529 146.628C105.605 146.526 105.696 146.436 105.798 146.36C106.566 145.776 107.386 145.261 108.25 144.822C109.101 144.361 109.979 143.946 110.868 143.537C112.658 142.703 114.534 142.057 116.465 141.611C116.971 141.492 117.499 141.492 118.006 141.611C118.499 141.732 118.985 141.88 119.46 142.057C120.414 142.398 121.351 142.781 122.283 143.18C123.215 143.579 124.141 144.004 125.068 144.434L126.458 145.09L127.147 145.421C127.409 145.533 127.633 145.715 127.794 145.946C127.961 146.174 128.054 146.446 128.061 146.727C128.068 147.008 127.988 147.284 127.832 147.52C127.524 147.949 127.143 148.324 126.706 148.627C126.269 148.929 125.795 149.174 125.294 149.357C124.789 149.533 124.262 149.642 123.727 149.682C122.856 149.734 121.982 149.669 121.13 149.488C120.284 149.321 119.456 149.077 118.657 148.759H118.76L112.974 150.711L113.087 150.533C113.256 152.877 113.419 155.197 113.577 157.492L113.54 157.408L115.452 159.35L115.328 159.313C119.433 158.489 123.468 157.738 127.357 156.809C128.331 156.507 129.369 156.456 130.369 156.662C131.359 156.892 132.248 157.423 132.906 158.179C133.231 158.556 133.485 158.986 133.655 159.449C133.787 159.912 133.865 160.387 133.887 160.866C133.931 161.803 133.902 162.742 133.8 163.674V163.611C134.229 164.598 134.602 165.607 134.916 166.634C135.074 167.142 135.202 167.659 135.298 168.182C135.403 168.702 135.403 169.237 135.298 169.757C135.067 170.767 134.735 171.754 134.307 172.701C133.897 173.641 133.45 174.543 132.976 175.43V175.388C132.751 177.419 132.38 179.432 131.866 181.413C131.333 183.28 130.668 185.109 129.879 186.887C129.518 187.758 129.157 188.619 128.742 189.443C128.542 189.868 128.252 190.247 127.891 190.556C127.528 190.858 127.086 191.058 126.614 191.133C126.381 191.171 126.144 191.179 125.908 191.159H125.822H125.903L125.871 191.185L125.741 191.29L125.477 191.5C125.138 191.777 124.777 192.03 124.4 192.256C123.637 192.678 122.797 192.95 121.927 193.059L122.003 192.954C122.175 194.124 122.374 195.253 122.541 196.381C122.651 197.477 122.607 198.582 122.412 199.666C122.202 200.716 121.873 201.703 121.653 202.679L120.915 205.487C119.956 209.108 119.137 212.22 118.463 214.76L116.912 220.591C116.729 221.252 116.594 221.756 116.503 222.103C116.411 222.449 116.352 222.627 116.352 222.627C116.352 222.627 116.389 222.449 116.476 222.103L116.858 220.586L118.361 214.739C119.018 212.194 119.826 209.082 120.764 205.461C121.001 204.551 121.245 203.613 121.496 202.647C121.733 201.677 122.035 200.679 122.24 199.645C122.431 198.575 122.471 197.483 122.358 196.402C122.218 195.295 122.014 194.156 121.82 192.985V192.896H121.911C122.758 192.787 123.576 192.52 124.319 192.109C124.696 191.885 125.056 191.636 125.397 191.364L125.65 191.159L125.779 191.054H125.811L125.898 191.028H125.995C126.21 191.048 126.428 191.039 126.641 191.002C127.08 190.922 127.491 190.736 127.836 190.461C128.182 190.185 128.45 189.83 128.618 189.427C129.027 188.614 129.383 187.758 129.739 186.887C130.524 185.117 131.182 183.297 131.71 181.439C132.207 179.466 132.567 177.462 132.788 175.441C133.262 174.564 133.703 173.656 134.107 172.727C134.531 171.798 134.858 170.829 135.083 169.836C135.182 169.336 135.182 168.823 135.083 168.324C134.986 167.812 134.86 167.306 134.705 166.807C134.394 165.789 134.024 164.788 133.596 163.811V163.779V163.653C133.698 162.735 133.725 161.81 133.677 160.887C133.66 160.427 133.586 159.971 133.456 159.528C133.296 159.098 133.061 158.698 132.761 158.347C132.136 157.634 131.294 157.134 130.358 156.92C129.4 156.721 128.406 156.774 127.476 157.072C123.57 157.98 119.546 158.757 115.436 159.581H115.361L115.307 159.528L113.394 157.581L113.362 157.549V157.497C113.2 155.202 113.037 152.884 112.872 150.543V150.438L112.974 150.407L118.76 148.449H118.808H118.862C120.418 149.101 122.104 149.409 123.797 149.352C124.304 149.313 124.804 149.209 125.283 149.042C125.761 148.869 126.214 148.636 126.63 148.349C127.049 148.063 127.414 147.708 127.708 147.3C127.834 147.109 127.899 146.885 127.895 146.658C127.89 146.431 127.815 146.21 127.681 146.024C127.546 145.838 127.359 145.692 127.142 145.604L126.452 145.269L124.939 144.67C124.018 144.24 123.091 143.82 122.164 143.421C121.238 143.022 120.306 142.634 119.363 142.298C118.42 141.962 117.467 141.611 116.508 141.847C114.597 142.303 112.74 142.956 110.97 143.794C110.087 144.203 109.208 144.613 108.363 145.069C107.518 145.498 106.715 146.002 105.965 146.575C105.875 146.638 105.795 146.714 105.728 146.801L105.626 146.922C105.623 146.967 105.623 147.013 105.626 147.058C105.599 147.263 105.572 147.51 105.551 147.735C105.508 148.197 105.464 148.654 105.427 149.116C105.351 150.036 105.276 150.949 105.201 151.855C104.926 155.487 104.662 159.029 104.403 162.462V162.504L104.371 162.541C103.255 163.785 102.493 165.292 102.162 166.912C102.041 167.712 101.981 168.519 101.984 169.326C101.984 170.135 101.936 170.938 101.909 171.73C101.812 174.918 101.715 177.991 101.618 180.951C101.43 186.866 101.252 192.314 101.079 197.221C96.9799 205.13 93.6938 211.48 91.4204 215.857C90.2891 218.041 89.4057 219.725 88.8077 220.875C88.5114 221.441 88.269 221.877 88.1235 222.171C87.9781 222.465 87.8757 222.627 87.8757 222.627Z" fill="#6F4439"/>
<path d="M121.744 192.99C122.377 192.873 122.993 192.684 123.581 192.429C124.256 192.105 124.869 191.67 125.391 191.143C126.083 190.438 126.71 189.676 127.266 188.865C128.564 187.102 129.566 184.667 130.552 181.98C131.146 180.602 131.51 179.14 131.629 177.65C131.657 176.872 131.497 176.099 131.161 175.393C130.785 174.677 130.229 174.065 129.545 173.614C128.159 172.752 126.574 172.243 124.933 172.134C123.35 171.966 121.787 171.934 120.317 171.651C118.943 171.35 117.61 170.892 116.346 170.287C115.257 169.775 114.092 169.435 112.893 169.279C112.373 169.231 111.849 169.256 111.336 169.352C110.88 169.456 110.435 169.6 110.006 169.783C109.313 170.072 108.659 170.44 108.056 170.88C107.671 171.151 107.347 171.496 107.102 171.893C107.041 171.997 106.994 172.108 106.962 172.223C106.962 172.302 106.924 172.344 106.924 172.344C106.918 172.302 106.918 172.26 106.924 172.218C106.942 172.095 106.98 171.977 107.038 171.866C107.269 171.455 107.589 171.097 107.975 170.817C108.575 170.355 109.232 169.969 109.93 169.667C110.367 169.47 110.821 169.313 111.288 169.2C111.819 169.092 112.364 169.062 112.904 169.111C114.127 169.252 115.319 169.586 116.433 170.098C117.684 170.688 119.002 171.134 120.36 171.425C121.803 171.693 123.355 171.719 124.96 171.893C126.648 171.999 128.279 172.523 129.701 173.414C130.421 173.89 131.002 174.539 131.387 175.299C131.743 176.042 131.913 176.856 131.883 177.676C131.77 179.194 131.406 180.685 130.805 182.09C129.809 184.793 128.774 187.223 127.438 189.002C126.867 189.813 126.224 190.573 125.515 191.274C124.971 191.804 124.334 192.236 123.635 192.55C123.193 192.738 122.731 192.876 122.256 192.959L121.879 193.006C121.833 193.006 121.788 193.001 121.744 192.99Z" fill="#6F4439"/>
<path d="M122.03 194.292C121.823 193.715 121.652 193.126 121.518 192.529C121.222 191.437 120.775 189.936 120.198 188.33C119.622 186.724 119.045 185.244 118.625 184.184C118.37 183.623 118.16 183.044 117.995 182.452C118.309 182.984 118.581 183.538 118.808 184.111C119.277 185.16 119.886 186.598 120.468 188.241C120.96 189.641 121.376 191.065 121.712 192.508C121.836 193.064 121.927 193.515 121.976 193.825C122.018 193.977 122.036 194.135 122.03 194.292Z" fill="#6F4439"/>
<path d="M117.531 182.515C117.615 182.53 117.701 182.53 117.785 182.515C117.895 182.463 117.993 182.39 118.074 182.3C118.155 182.209 118.216 182.104 118.253 181.991C118.438 181.658 118.583 181.306 118.684 180.941C118.824 180.478 118.824 179.986 118.684 179.524L118.609 179.293L118.841 179.382C120.236 179.892 121.658 180.328 123.102 180.689L123.576 180.815L123.797 180.873L123.64 181.041C123.33 181.377 123.112 181.784 123.007 182.225C122.902 182.666 122.915 183.125 123.042 183.56L123.075 183.665L122.972 183.712C121.937 184.186 121.097 184.989 120.591 185.99C120.412 186.385 120.256 186.79 120.123 187.202C120.115 187.086 120.126 186.969 120.155 186.856C120.215 186.535 120.314 186.224 120.451 185.927C120.932 184.859 121.788 183.994 122.865 183.486L122.8 183.633C122.65 183.156 122.63 182.648 122.741 182.161C122.852 181.673 123.092 181.222 123.436 180.852L123.5 181.077L123.026 180.951C121.573 180.591 120.146 180.137 118.754 179.592L118.911 179.456C119.055 179.96 119.044 180.495 118.878 180.993C118.76 181.363 118.594 181.716 118.383 182.043C118.332 182.165 118.255 182.274 118.158 182.365C118.06 182.455 117.944 182.525 117.817 182.568C117.612 182.594 117.526 182.547 117.531 182.515Z" fill="#6F4439"/>
<path d="M105.174 167.085C105.247 166.987 105.332 166.897 105.427 166.818C105.69 166.582 105.981 166.377 106.294 166.209C107.465 165.631 108.753 165.31 110.065 165.269C113.373 165.107 117.925 165.012 122.967 164.865C124.228 164.865 125.45 164.787 126.652 164.797C127.82 164.769 128.978 165.014 130.029 165.511C130.952 166.024 131.701 166.789 132.184 167.71C132.609 168.499 132.888 169.356 133.009 170.24C133.153 171.511 133.124 172.796 132.922 174.06C132.863 174.506 132.804 174.847 132.766 175.084C132.749 175.204 132.724 175.323 132.691 175.441C132.676 175.32 132.676 175.199 132.691 175.078C132.723 174.811 132.755 174.47 132.798 174.029C132.957 172.774 132.957 171.505 132.798 170.25C132.672 169.392 132.391 168.562 131.969 167.799C131.497 166.917 130.773 166.188 129.884 165.7C128.875 165.233 127.768 165.005 126.652 165.033C125.472 165.033 124.238 165.086 122.978 165.112C117.946 165.254 113.373 165.322 110.081 165.432C108.777 165.447 107.492 165.734 106.31 166.272C105.903 166.504 105.523 166.777 105.174 167.085Z" fill="#6F4439"/>
<path d="M124.836 157.502C124.992 157.457 125.153 157.433 125.316 157.429C125.754 157.379 126.197 157.379 126.636 157.429C128.095 157.625 129.464 158.233 130.574 159.176C131.682 160.106 132.585 161.245 133.229 162.525C133.345 162.74 133.45 162.96 133.542 163.186C133.62 163.357 133.688 163.532 133.747 163.711C133.81 163.856 133.852 164.01 133.871 164.167C133.822 164.167 133.59 163.553 133.057 162.619C132.375 161.397 131.473 160.304 130.396 159.391C129.324 158.484 128.022 157.873 126.625 157.623C125.531 157.471 124.842 157.565 124.836 157.502Z" fill="#6F4439"/>
<path d="M104.263 162.43C104.263 162.43 104.376 162.294 104.624 162.089C104.974 161.801 105.351 161.546 105.75 161.328C106.343 161.002 106.97 160.736 107.619 160.536C108.417 160.305 109.231 160.129 110.054 160.011C111.8 159.764 113.378 159.649 114.509 159.486C115.641 159.323 116.341 159.187 116.352 159.229C116.203 159.306 116.043 159.359 115.878 159.386C115.565 159.476 115.113 159.57 114.542 159.68C113.41 159.89 111.848 160.042 110.092 160.289C109.283 160.402 108.482 160.567 107.695 160.782C107.058 160.967 106.439 161.208 105.847 161.501C104.84 162.016 104.296 162.472 104.263 162.43Z" fill="#6F4439"/>
</svg>
