<svg width="430" height="294" viewBox="0 0 430 294" fill="none" xmlns="http://www.w3.org/2000/svg">
<path d="M430 279.481H394.167V279.756H430V279.481Z" fill="#EBEBEB"/>
<path d="M301.597 282.476H292.195V282.751H301.597V282.476Z" fill="#EBEBEB"/>
<path d="M393.085 269.261H372.323V269.537H393.085V269.261Z" fill="#EBEBEB"/>
<path d="M46.7283 271.111H0V271.387H46.7283V271.111Z" fill="#EBEBEB"/>
<path d="M63.2167 271.111H56.3682V271.387H63.2167V271.111Z" fill="#EBEBEB"/>
<path d="M186.837 275.758H85.4828V276.034H186.837V275.758Z" fill="#EBEBEB"/>
<path d="M55.0374 134.842L33.1068 127.937L57.6016 129.259C52.192 119.744 49.8225 115.063 45.5706 105.934C51.6943 113.037 54.8968 116.649 61.5831 123.962C63.3308 113.398 65.8847 102.989 69.2215 92.8291C67.5984 101.876 66.895 111.068 67.1225 120.261L67.5769 120.349C74.8453 111.921 82.7337 104.069 91.1737 96.8597C83.1339 105.657 75.9759 115.249 69.8057 125.492C78.9371 121.99 88.1335 118.653 97.3948 115.482C88.1119 120.658 79.0021 125.966 70.0004 131.56L92.7209 138.917L69.2647 137.474C74.2091 143.355 76.7733 146.284 82.0964 152.297C75.4966 147.892 72.24 145.689 65.8026 141.284C66.5236 147.424 67.6075 153.514 69.0483 159.521C65.8026 152.076 64.4285 148.376 61.9509 141.064C57.3527 163.485 58.5429 185.224 63.0328 207.514L57.515 206.489C54.2677 184.595 55.1452 162.272 60.1008 140.712C54.5397 146.548 51.9431 149.522 47.1177 155.479C49.9015 149.983 53.0124 144.665 56.4331 139.555C48.5351 141.317 44.6185 142.209 36.8827 143.96C43.8611 140.271 47.5505 138.443 55.0374 134.842Z" fill="#EBEBEB"/>
<path d="M47.2585 142.583L67.5446 131.636L43.7423 137.583C47.2693 127.22 48.7732 122.166 51.3157 112.386C46.6094 120.536 44.1209 124.687 38.8844 133.145C35.2371 123.088 30.8201 113.338 25.6741 103.984C28.9228 112.564 31.2974 121.461 32.7607 130.535L32.328 130.7C23.6382 123.812 14.452 117.598 4.84708 112.111C14.3606 119.224 23.1501 127.288 31.0838 136.185C21.4402 134.445 11.7786 132.914 2.099 131.592C12.1717 134.896 22.0389 138.409 31.9493 142.186L11.0141 153.716L33.7345 147.847C29.9694 154.564 27.9895 157.967 23.8565 164.85C29.5258 159.245 32.3171 156.459 37.835 150.908C38.2618 157.077 38.3196 163.266 38.0081 169.442C39.7932 161.513 40.5073 157.604 41.6001 149.961C50.2555 171.116 53.0468 192.69 52.7547 215.431L57.9912 213.393C57.1713 191.264 52.2141 169.496 43.3852 149.256C49.8768 153.937 53.0144 156.348 58.8459 161.304C55.103 156.429 51.0669 151.795 46.7608 147.428C54.8536 147.66 58.8568 147.792 66.7873 148.078C59.1922 145.809 55.2756 144.708 47.2585 142.583Z" fill="#E6E6E6"/>
<path d="M67.1008 154.873L52.3109 146.889L69.6217 151.228C67.0467 143.674 65.954 139.984 64.1255 132.859C67.5552 138.795 69.3729 141.823 73.1921 147.99C75.8475 140.659 79.0672 133.552 82.8212 126.736C80.4472 132.987 78.7142 139.472 77.6496 146.085L77.9633 146.217C84.2982 141.193 90.9963 136.661 98.0006 132.661C91.066 137.845 84.658 143.722 78.8722 150.204C85.883 148.963 92.9155 147.862 99.9697 146.9C92.6234 149.312 85.4286 151.856 78.2014 154.609L93.4673 163.012L76.8598 158.728C79.6079 163.628 81.0468 166.117 84.0654 171.128C79.9325 167.042 77.8984 165.005 73.8737 160.963C73.5643 165.461 73.521 169.973 73.7438 174.476C72.4455 168.694 71.9262 165.853 71.1364 160.269C64.8396 175.687 62.7839 191.424 63.0003 207.998L59.1811 206.511C59.7823 190.382 63.3954 174.516 69.8273 159.763C65.9291 162.504 62.1699 165.444 58.5644 168.573C61.2909 165.02 64.2284 161.64 67.3605 158.452C61.4748 158.629 58.5536 158.717 52.7653 158.937C58.4022 157.219 61.2584 156.415 67.1008 154.873Z" fill="#E6E6E6"/>
<path d="M72.8351 261.761H37.1857L33.691 203.967H76.3189L72.8351 261.761Z" fill="#E0E0E0"/>
<path d="M79.0778 206.941H30.5751L29.7096 199.254H79.9542L79.0778 206.941Z" fill="#F5F5F5"/>
<path d="M202.428 87.3232C202.428 87.3232 183.559 89.4156 175.001 87.6536C166.443 85.8916 158.318 71.4321 158.318 71.4321L167.547 65.3862L178.02 79.1629L202.006 81.3654L208.498 75.9582L215.324 77.6322C215.324 77.6322 215.476 86.277 212.566 86.7395C209.655 87.202 202.428 87.3232 202.428 87.3232Z" fill="#FFC3BD"/>
<path d="M155.97 50.0573C155.97 50.0573 161.65 49.9251 167.687 59.6492C169.07 61.8001 170.213 64.1013 171.095 66.51C171.907 68.7125 167.785 71.3225 164.82 73.2717C162.516 74.7804 160.071 76.3993 158.632 76.168C157.462 74.6287 156.494 72.9406 155.754 71.1463C153.255 65.0894 150.636 49.804 155.97 50.0573Z" fill="#407BFF"/>
<path opacity="0.2" d="M154.683 68.3818L157.29 61.8624L159.194 60.2876C159.194 60.2876 163.306 68.3267 163.003 74.5158C159.757 76.509 157.864 76.2888 155.754 71.1459C155.429 70.3641 155.061 69.428 154.683 68.3818Z" fill="black"/>
<path d="M159.627 51.2574C159.627 51.2574 159.432 60.1665 158.891 64.7037C158.221 70.3972 156.673 75.2757 152.205 83.425C146.871 93.1711 140.91 104.184 140.91 104.184L106.667 89.7462C110.248 80.9409 113.315 71.9279 115.852 62.7545C116.987 58.6672 117.779 54.4895 118.222 50.2663C118.363 48.1232 118.796 46.0105 119.509 43.9891C122.225 36.8971 128.359 37.0733 134.483 39.0555C134.472 39.1911 134.472 39.3274 134.483 39.463C134.613 44.5618 140.412 53.2507 142.057 53.9004C144.101 54.7263 150.485 51.1583 150.561 46.3128C150.566 46.2137 150.566 46.1145 150.561 46.0154C154.326 47.8766 159.627 51.2574 159.627 51.2574Z" fill="#407BFF"/>
<path opacity="0.9" d="M138.497 38.1636L131.519 38.4279L127.083 46.2578L133.531 47.293L141.299 55.7616L151.653 53.5811L156.284 54.7264L154.715 47.4031L147.325 41.7426L138.497 38.1636Z" fill="white"/>
<path d="M150.572 46.3238C150.496 51.1694 144.08 54.7374 142.068 53.9115C140.434 53.2617 134.635 44.5729 134.494 39.4741C135.134 39.5619 135.784 39.4928 136.392 39.2724C137 39.0521 137.548 38.687 137.989 38.2076C140.867 34.7276 142.652 28.4615 143.452 24.519L149.078 36.0271C148.353 37.0002 147.854 38.1285 147.62 39.3266C147.386 40.5247 147.422 41.7613 147.726 42.943C147.791 43.0311 148.007 44.683 150.572 46.3238Z" fill="#FFC3BD"/>
<path opacity="0.1" d="M147.726 33.2074L149.1 36.0266C148.263 37.2101 147.731 38.5883 147.553 40.0351C144.091 36.401 143.312 30.1899 143.312 30.1899L147.726 33.2074Z" fill="black"/>
<path opacity="0.2" d="M126.022 47.3149C123.287 52.8664 119.878 58.0461 115.874 62.7324C117.008 58.6451 117.801 54.4675 118.243 50.2442C118.384 48.1012 118.817 45.9885 119.531 43.9671L123.058 43.1191L126.022 47.3149Z" fill="black"/>
<path d="M107.695 45.8936C107.695 45.8936 96.5616 54.8247 93.2076 58.2056C88.2091 63.2383 74.9339 79.9553 74.9339 79.9553L66.4949 85.4616L66.8627 91.1L71.1904 93.732C71.5086 93.9254 71.8614 94.0523 72.2282 94.1055C72.5951 94.1586 72.9686 94.1369 73.3271 94.0416C73.6857 93.9462 74.0219 93.7792 74.3164 93.5502C74.6108 93.3212 74.8575 93.0348 75.0421 92.7078L79.8242 84.2612C79.8242 84.2612 92.1365 71.1453 96.7347 67.3349C100.619 64.1083 113.385 55.97 113.385 55.97L107.695 45.8936Z" fill="#FFC3BD"/>
<path d="M128.251 37.8878C128.251 37.8878 121.067 34.4299 114.879 38.3173C108.69 42.2047 105.141 42.9536 106.905 48.4048C108.171 52.4023 113.029 60.3754 113.029 60.3754C117.118 58.6905 131.172 43.4711 128.251 37.8878Z" fill="#407BFF"/>
<path d="M110.583 271.629C110.778 279.117 110.951 285.042 110.951 285.042L119.163 285.428C119.163 285.428 119.607 280.329 120.245 272.51L110.583 271.629Z" fill="#FFC3BD"/>
<path d="M121.424 284.238C121.379 284.23 121.337 284.209 121.303 284.178C121.268 284.146 121.243 284.106 121.23 284.061C121.226 284.015 121.235 283.969 121.256 283.928C121.277 283.887 121.309 283.853 121.349 283.83C121.5 283.753 124.93 281.903 126.564 282.311C126.862 282.374 127.125 282.551 127.299 282.806C127.402 282.94 127.458 283.104 127.458 283.274C127.458 283.444 127.402 283.608 127.299 283.742C126.446 284.312 125.427 284.569 124.411 284.469C123.411 284.469 122.413 284.392 121.424 284.238ZM122.171 283.94C123.999 284.128 126.499 284.095 126.931 283.5C126.996 283.423 127.061 283.291 126.931 283.026C126.883 282.944 126.817 282.875 126.739 282.823C126.66 282.772 126.57 282.739 126.477 282.729C126.332 282.689 126.183 282.67 126.033 282.674C124.683 282.865 123.376 283.293 122.171 283.94Z" fill="#407BFF"/>
<path d="M121.295 284.228C121.262 284.207 121.235 284.178 121.218 284.143C121.201 284.108 121.194 284.068 121.197 284.029C121.197 283.919 121.479 281.453 122.723 280.483C123.094 280.197 123.557 280.063 124.021 280.109C124.659 280.164 124.865 280.461 124.887 280.704C125.092 281.728 122.723 283.732 121.554 284.228H121.457C121.404 284.244 121.348 284.244 121.295 284.228ZM123.87 280.516C123.577 280.515 123.291 280.612 123.058 280.792C122.337 281.565 121.878 282.553 121.749 283.611C122.972 282.928 124.519 281.408 124.465 280.748C124.465 280.693 124.465 280.538 123.999 280.505L123.87 280.516Z" fill="#407BFF"/>
<path d="M120.418 282.972L110.681 282.895C110.49 282.89 110.304 282.951 110.151 283.066C109.998 283.182 109.888 283.347 109.837 283.534L107.879 291.65C107.84 291.827 107.837 292.01 107.871 292.188C107.905 292.367 107.976 292.535 108.077 292.685C108.179 292.834 108.31 292.96 108.462 293.054C108.614 293.149 108.784 293.211 108.961 293.236C109.061 293.247 109.163 293.247 109.263 293.236C113.126 293.136 115.625 293.081 120.429 293.048C126.109 293.048 124.659 293.632 131.335 293.665C135.36 293.665 136.095 289.414 134.397 289.26C126.553 288.423 121.262 282.928 120.418 282.972Z" fill="#263238"/>
<path d="M103.843 95.1747L106.007 89.6685C106.147 88.9637 106.461 88.5672 107.089 88.7985L141.31 103.511C141.938 103.776 142.024 104.106 141.678 104.701L139.817 111.088C139.817 111.088 135.175 171.425 132.914 191.479C130.61 211.974 121.565 273.423 121.565 273.423C121.538 273.641 121.429 273.839 121.262 273.976C121.094 274.114 120.881 274.18 120.667 274.161L110.443 273.181C110.25 273.166 110.068 273.081 109.931 272.942C109.794 272.802 109.711 272.618 109.696 272.421C109.231 267.267 107.143 234.637 108.841 211.335C109.447 203.009 111.741 196.215 112.358 191.611C113.05 186.524 111.276 183.275 109.815 171.249C107.121 148.674 103.367 112.949 103.843 95.1747Z" fill="#407BFF"/>
<path opacity="0.7" d="M103.843 95.1747L106.007 89.6685C106.147 88.9637 106.461 88.5672 107.089 88.7985L141.31 103.511C141.938 103.776 142.024 104.106 141.678 104.701L139.817 111.088C139.817 111.088 135.175 171.425 132.914 191.479C130.61 211.974 121.565 273.423 121.565 273.423C121.538 273.641 121.429 273.839 121.262 273.976C121.094 274.114 120.881 274.18 120.667 274.161L110.443 273.181C110.25 273.166 110.068 273.081 109.931 272.942C109.794 272.802 109.711 272.618 109.696 272.421C109.231 267.267 107.143 234.637 108.841 211.335C109.447 203.009 111.741 196.215 112.358 191.611C113.05 186.524 111.276 183.275 109.815 171.249C107.121 148.674 103.367 112.949 103.843 95.1747Z" fill="black"/>
<path opacity="0.5" d="M109.859 171.316C108.972 163.739 107.944 154.709 107.002 145.37L115.928 127.398L119.737 116.881L124.367 122.464C124.367 122.464 118.958 155.105 110.497 175.974C110.227 174.575 110.01 173.045 109.859 171.316Z" fill="black"/>
<path d="M38.1595 247.919C34.3403 254.318 31.8627 258.514 31.8627 258.514L38.5598 263.359C38.5598 263.359 41.6433 259.317 46.3605 253.106L38.1595 247.919Z" fill="#FFC3BD"/>
<path d="M41.4161 262.004C41.3922 261.965 41.3795 261.919 41.3795 261.872C41.3795 261.826 41.3922 261.78 41.4161 261.74C41.4355 261.696 41.4676 261.658 41.5081 261.633C41.5486 261.607 41.5957 261.595 41.6433 261.597C41.8164 261.597 45.7113 261.795 46.8473 263.073C47.0604 263.306 47.1766 263.613 47.1719 263.932C47.182 264.114 47.1365 264.296 47.0417 264.452C46.9468 264.607 46.8072 264.729 46.6418 264.802C46.0251 265.033 44.8566 264.537 43.8288 263.876C42.9728 263.325 42.1655 262.698 41.4161 262.004ZM42.2167 262.148C43.6232 263.337 45.7005 264.669 46.4146 264.35C46.5119 264.35 46.6418 264.229 46.6526 263.887C46.6583 263.791 46.6428 263.695 46.6072 263.605C46.5716 263.516 46.5169 263.435 46.447 263.37C46.3475 263.253 46.2307 263.153 46.1008 263.073C44.8745 262.519 43.5569 262.205 42.2167 262.148Z" fill="#407BFF"/>
<path d="M41.3187 261.926C41.2977 261.892 41.2865 261.852 41.2865 261.811C41.2865 261.77 41.2977 261.73 41.3187 261.695C41.3945 261.596 43.0173 259.493 44.5645 259.283C44.7928 259.256 45.0242 259.275 45.2452 259.339C45.4663 259.403 45.6725 259.512 45.852 259.658C46.3605 260.054 46.3497 260.44 46.2307 260.682C45.8195 261.728 42.7036 262.257 41.4485 262.07C41.42 262.076 41.3906 262.076 41.362 262.07C41.3358 262.026 41.3209 261.977 41.3187 261.926ZM45.5815 259.944C45.3361 259.779 45.0393 259.712 44.7484 259.757C43.6854 260.078 42.7449 260.724 42.0544 261.607C43.4501 261.607 45.6356 261.078 45.9385 260.506C45.9385 260.44 46.0251 260.286 45.6897 260.032L45.5815 259.966V259.944Z" fill="#407BFF"/>
<path d="M40.7236 260.033L33.6478 255.341C33.483 255.229 33.2848 255.179 33.0874 255.199C32.8901 255.219 32.7057 255.308 32.5659 255.451L26.2908 261.817C26.0252 262.089 25.8761 262.457 25.8761 262.841C25.8761 263.225 26.0252 263.593 26.2908 263.865C26.3586 263.94 26.4348 264.006 26.518 264.063C29.7637 266.101 30.8457 266.662 34.9029 269.272C39.6417 272.356 38.0729 272.157 43.5583 275.88C46.8906 278.082 49.9416 274.624 48.6433 273.501C42.6927 268.413 41.4485 260.462 40.7236 260.033Z" fill="#263238"/>
<path d="M130.231 107.839C130.231 107.839 107.781 172.043 96.4534 191.535C86.4023 208.802 46.8255 253.965 46.8255 253.965C46.5342 254.332 46.1149 254.57 45.6552 254.629C45.1955 254.689 44.7309 254.565 44.3587 254.284L38.1485 249.604C37.804 249.346 37.5614 248.971 37.4642 248.547C37.367 248.123 37.4217 247.678 37.6183 247.291C40.8641 241.058 54.399 215.102 66.668 197.977C71.5583 191.149 76.4053 186.061 78.6449 182.328C81.6526 177.395 80.6248 173.672 82.3884 160.424C85.6341 135.8 92.8073 99.4149 106.883 92.6973L130.231 107.839Z" fill="#407BFF"/>
<path opacity="0.7" d="M130.231 107.839C130.231 107.839 107.781 172.043 96.4536 191.535C86.4025 208.802 47.2477 254.229 47.2477 254.229C46.9583 254.595 46.5408 254.833 46.0829 254.892C45.625 254.952 45.1622 254.829 44.7917 254.548L37.7484 249.306C37.5134 249.133 37.3479 248.88 37.2823 248.593C37.2167 248.305 37.2554 248.003 37.3913 247.743C40.1178 242.413 54.0746 215.553 66.6682 197.977C71.5585 191.149 76.4055 186.061 78.6451 182.328C81.6529 177.395 80.625 173.672 82.3886 160.424C85.6343 135.8 92.8075 99.4149 106.883 92.6973L130.231 107.839Z" fill="black"/>
<path d="M156.598 4.94957C157.063 8.0551 160.687 9.76205 162.364 13.2861C162.364 13.2861 167.146 9.09028 163.792 5.92969C160.439 2.76909 155.884 0.0820355 156.598 4.94957Z" fill="#263238"/>
<path d="M162.451 8.573C166.129 10.1368 168.023 17.5262 163.533 20.2683C163.598 20.6647 163.868 20.918 164.106 20.7749C169.224 17.7685 167.352 8.34174 162.851 5.08203L162.451 8.573Z" fill="#263238"/>
<path d="M153.644 11.5571C150.193 14.9812 148.2 19.6474 148.094 24.5519C148.018 29.3864 145.778 32.58 149.078 36.06C160.503 39.1765 160.59 40.5972 162.235 41.368C162.97 39.0114 163.176 32.2497 160.201 29.948C158.037 28.2631 155.97 26.402 155.299 23.7039C154.404 20.1089 154.097 16.3882 154.391 12.6914L153.644 11.5571Z" fill="#263238"/>
<path d="M140.217 17.1296C140.888 25.5432 140.986 29.1112 145.281 33.3621C151.686 39.7383 161.715 37.0843 163.49 28.6377C165.134 21.0501 163.771 8.59489 155.592 5.37924C154.211 4.82674 152.736 4.55684 151.253 4.58501C149.769 4.61317 148.306 4.93883 146.946 5.54336C145.587 6.14788 144.357 7.0194 143.329 8.10804C142.301 9.19667 141.493 10.481 140.953 11.8876C140.305 13.5515 140.053 15.3477 140.217 17.1296Z" fill="#FFC3BD"/>
<path d="M158.859 20.2021C159.41 21.7715 160.175 23.2543 161.131 24.6072C160.781 24.8462 160.383 25.0045 159.966 25.071C159.55 25.1376 159.124 25.1108 158.718 24.9926L158.859 20.2021Z" fill="#ED893E"/>
<path d="M156.003 28.8143C156.323 28.8418 156.645 28.8418 156.966 28.8143C157.015 28.8115 157.062 28.7894 157.096 28.7525C157.131 28.7157 157.15 28.6668 157.15 28.6161C157.147 28.5644 157.126 28.5155 157.09 28.4789C157.054 28.4423 157.006 28.4205 156.955 28.4179C156.118 28.4564 155.284 28.2918 154.522 27.9376C153.76 27.5833 153.092 27.0496 152.573 26.3806C152.541 26.3381 152.494 26.309 152.443 26.2989C152.391 26.2887 152.337 26.2982 152.292 26.3255C152.256 26.3643 152.236 26.4155 152.236 26.4687C152.236 26.5219 152.256 26.5731 152.292 26.6118C152.735 27.212 153.292 27.7159 153.929 28.0942C154.566 28.4724 155.271 28.7172 156.003 28.8143Z" fill="#263238"/>
<path d="M141.548 2.92331C135.425 7.47149 129.723 22.7459 142.879 30.3996C145.681 29.045 143.842 25.9946 143.214 21.2041C142.803 18.0766 148.202 12.6914 150.788 10.9845C153.374 9.27753 156.035 6.57948 158.892 7.7468C159.589 8.17377 160.393 8.38782 161.207 8.3635C163.803 7.82389 162.992 6.161 162.029 4.8395C160.476 2.99945 158.437 1.65052 156.154 0.952079C153.741 0.0772766 151.157 -0.200217 148.617 0.142556C146.078 0.48533 143.654 1.43852 141.548 2.92331Z" fill="#263238"/>
<path d="M149.046 12.2069C148.836 13.8574 148.21 15.4245 147.228 16.7551C146.131 18.0582 144.579 18.8757 142.901 19.0347C141.225 19.1559 139.541 19.0559 137.891 18.7374C139.05 19.3919 140.328 19.8015 141.646 19.9415C142.964 20.0815 144.297 19.9491 145.564 19.5521C146.831 19.1552 148.006 18.5019 149.019 17.6314C150.032 16.761 150.862 15.6913 151.459 14.4865C152.054 13.2972 152.4 12.0087 152.919 10.7753C153.369 9.5157 154.184 8.42492 155.256 7.64774C155.802 7.27516 156.448 7.08457 157.105 7.10232C157.763 7.12008 158.398 7.34532 158.924 7.74687C159.159 7.73764 159.387 7.65879 159.579 7.51997C159.771 7.38114 159.919 7.18835 160.005 6.96519C160.091 6.74202 160.112 6.49815 160.064 6.26341C160.016 6.02867 159.902 5.81324 159.735 5.64347C158.167 5.50031 150.182 3.46298 149.046 12.2069Z" fill="#263238"/>
<path d="M138.584 6.05078C135.165 9.35454 131.908 15.7638 131.822 20.5983C131.764 25.4892 133.589 30.2087 136.907 33.7473C140.942 34.3597 144.754 36.021 147.975 38.5708C149.262 35.0027 146.893 28.2851 143.907 25.9945C141.743 24.2985 139.676 22.4374 139.005 19.7394C138.111 16.1442 137.8 12.4242 138.086 8.72683L138.584 6.05078Z" fill="#263238"/>
<path d="M137.88 23.5174C138.174 24.272 138.612 24.9597 139.169 25.5401C139.727 26.1206 140.392 26.5823 141.126 26.8982C143.085 27.7462 144.296 26.0282 144.015 24.0129C143.723 22.1959 142.37 19.6079 140.293 19.6079C139.842 19.6207 139.401 19.7478 139.011 19.9775C138.62 20.2072 138.292 20.5325 138.055 20.9238C137.819 21.3151 137.682 21.7602 137.657 22.2187C137.633 22.6773 137.72 23.135 137.913 23.5504L137.88 23.5174Z" fill="#FFC3BD"/>
<path d="M150.55 16.205C150.627 16.2315 150.709 16.233 150.787 16.2093C150.865 16.1856 150.933 16.1379 150.983 16.0728C151.431 15.5977 151.973 15.2253 152.574 14.9803C153.175 14.7354 153.82 14.6235 154.466 14.6522C154.56 14.6364 154.645 14.5873 154.706 14.5137C154.767 14.4401 154.801 14.3468 154.801 14.2503C154.801 14.1538 154.767 14.0604 154.706 13.9868C154.645 13.9132 154.56 13.8641 154.466 13.8483C153.691 13.8198 152.919 13.9615 152.202 14.2636C151.485 14.5657 150.84 15.0212 150.312 15.5993C150.249 15.6833 150.221 15.7887 150.233 15.8934C150.245 15.9982 150.297 16.0941 150.377 16.1609L150.55 16.205Z" fill="#263238"/>
<path d="M163.133 15.5658C163.199 15.5836 163.268 15.5838 163.335 15.5665C163.401 15.5491 163.462 15.5148 163.511 15.4667C163.549 15.4306 163.579 15.3871 163.599 15.3388C163.62 15.2905 163.631 15.2385 163.631 15.1858C163.631 15.1332 163.62 15.0812 163.599 15.0329C163.579 14.9846 163.549 14.9411 163.511 14.905C163.085 14.4375 162.556 14.0791 161.967 13.859C161.379 13.6389 160.747 13.5634 160.125 13.6386C160.021 13.66 159.93 13.7211 159.869 13.8093C159.809 13.8974 159.784 14.0059 159.8 14.1121C159.809 14.1647 159.829 14.2148 159.857 14.2595C159.886 14.3043 159.923 14.3427 159.966 14.3725C160.01 14.4023 160.059 14.4229 160.11 14.433C160.161 14.4432 160.214 14.4427 160.266 14.4315C160.758 14.3771 161.256 14.4426 161.719 14.6226C162.182 14.8026 162.596 15.0919 162.927 15.4667C162.989 15.512 163.059 15.5455 163.133 15.5658Z" fill="#263238"/>
<path d="M162.061 18.6158C162.516 18.6158 162.862 19.2436 162.819 19.9484C162.776 20.6532 162.386 21.2368 161.932 21.2038C161.477 21.1708 161.131 20.5761 161.163 19.8713C161.196 19.1665 161.607 18.5938 162.061 18.6158Z" fill="#263238"/>
<path d="M163.565 18.2529L161.856 18.6604C162.624 19.5414 163.565 18.2529 163.565 18.2529Z" fill="#263238"/>
<path d="M154.087 18.4181C154.542 18.4181 154.888 19.0458 154.845 19.7617C154.802 20.4775 154.412 21.0391 153.958 21.0171C153.503 20.9951 153.157 20.3894 153.189 19.6736C153.222 18.9578 153.633 18.4071 154.087 18.4181Z" fill="#263238"/>
<path d="M155.591 18.0654L153.871 18.4729C154.65 19.3539 155.591 18.0654 155.591 18.0654Z" fill="#263238"/>
<path d="M106.548 91.9155L113.094 94.6907L112.131 97.0143L105.617 94.2282L106.548 91.9155Z" fill="#407BFF"/>
<path d="M114.834 95.4418L113.884 97.7588L120.324 100.495L121.274 98.1783L114.834 95.4418Z" fill="#407BFF"/>
<path d="M132.027 102.73L136.398 104.581L135.457 106.904L131.075 105.043L132.027 102.73Z" fill="#407BFF"/>
<path d="M138.138 105.311L137.186 107.627L139.102 108.443L140.054 106.127L138.138 105.311Z" fill="#407BFF"/>
<path d="M220.821 70.5633C218.192 70.5574 215.673 69.4913 213.815 67.5984C211.958 65.7055 210.913 63.1403 210.91 60.4648V40.9066C210.969 40.6684 211.104 40.4571 211.294 40.3061C211.484 40.155 211.719 40.073 211.96 40.073C212.201 40.073 212.435 40.155 212.625 40.3061C212.815 40.4571 212.951 40.6684 213.009 40.9066V60.4648C212.97 61.5346 213.143 62.6014 213.519 63.6015C213.894 64.6015 214.463 65.5143 215.193 66.2852C215.923 67.0561 216.798 67.6693 217.766 68.0882C218.733 68.507 219.774 68.7229 220.826 68.7229C221.878 68.7229 222.919 68.507 223.887 68.0882C224.855 67.6693 225.73 67.0561 226.459 66.2852C227.189 65.5143 227.758 64.6015 228.134 63.6015C228.509 62.6014 228.682 61.5346 228.643 60.4648V39.8934C228.603 39.731 228.6 39.5615 228.634 39.3977C228.668 39.2339 228.738 39.0802 228.84 38.9482C228.941 38.8162 229.07 38.7095 229.218 38.636C229.366 38.5626 229.528 38.5244 229.693 38.5244C229.857 38.5244 230.019 38.5626 230.167 38.636C230.315 38.7095 230.444 38.8162 230.545 38.9482C230.647 39.0802 230.717 39.2339 230.751 39.3977C230.785 39.5615 230.782 39.731 230.742 39.8934V60.4648C230.739 63.1422 229.693 65.7091 227.833 67.6023C225.973 69.4955 223.451 70.5604 220.821 70.5633Z" fill="#263238"/>
<path d="M255.732 35.7306L208.506 43.241C205.938 43.6494 204.181 46.0995 204.582 48.7135L215.368 118.98C215.769 121.594 218.176 123.382 220.745 122.973L267.971 115.463C270.539 115.055 272.296 112.605 271.894 109.991L261.109 39.7241C260.708 37.1102 258.301 35.3222 255.732 35.7306Z" fill="#407BFF"/>
<path opacity="0.6" d="M255.732 35.7306L208.506 43.241C205.938 43.6494 204.181 46.0995 204.582 48.7135L215.368 118.98C215.769 121.594 218.176 123.382 220.745 122.973L267.971 115.463C270.539 115.055 272.296 112.605 271.894 109.991L261.109 39.7241C260.708 37.1102 258.301 35.3222 255.732 35.7306Z" fill="white"/>
<path opacity="0.2" d="M258.53 73.6942L220.56 79.9405C219.968 80.0378 219.566 80.6048 219.662 81.2069L219.717 81.5558C219.813 82.1579 220.37 82.5672 220.961 82.4698L258.932 76.2235C259.524 76.1262 259.926 75.5592 259.83 74.9571L259.775 74.6082C259.679 74.0061 259.122 73.5969 258.53 73.6942Z" fill="black"/>
<path opacity="0.2" d="M259.101 83.6133L221.236 89.8281C220.646 89.9249 220.245 90.4902 220.34 91.0906L220.395 91.4385C220.49 92.039 221.046 92.4472 221.636 92.3504L259.501 86.1357C260.091 86.0388 260.492 85.4736 260.397 84.8731L260.342 84.5252C260.246 83.9248 259.691 83.5165 259.101 83.6133Z" fill="black"/>
<path opacity="0.2" d="M260.737 93.9322L222.872 100.147C222.282 100.244 221.881 100.809 221.976 101.409L222.032 101.757C222.127 102.358 222.682 102.766 223.272 102.669L261.137 96.4545C261.727 96.3577 262.128 95.7925 262.033 95.192L261.978 94.8441C261.883 94.2436 261.327 93.8354 260.737 93.9322Z" fill="black"/>
<path d="M254.717 38.2177L207.233 43.8013C204.651 44.1049 202.799 46.4817 203.098 49.1099L211.116 119.759C211.415 122.387 213.75 124.272 216.332 123.968L263.815 118.384C266.397 118.081 268.249 115.704 267.951 113.076L259.932 42.4267C259.634 39.7985 257.299 37.914 254.717 38.2177Z" fill="#407BFF"/>
<path opacity="0.7" d="M254.717 38.2177L207.233 43.8013C204.651 44.1049 202.799 46.4817 203.098 49.1099L211.116 119.759C211.415 122.387 213.75 124.272 216.332 123.968L263.815 118.384C266.397 118.081 268.249 115.704 267.951 113.076L259.932 42.4267C259.634 39.7985 257.299 37.914 254.717 38.2177Z" fill="white"/>
<path opacity="0.2" d="M254.997 75.8406L216.918 80.5104C216.325 80.5831 215.902 81.1316 215.973 81.7354L216.015 82.0853C216.086 82.6892 216.625 83.1197 217.218 83.0469L255.297 78.3772C255.89 78.3044 256.313 77.7559 256.242 77.1521L256.2 76.8022C256.129 76.1984 255.59 75.7678 254.997 75.8406Z" fill="black"/>
<path opacity="0.2" d="M256.218 86.2112L218.139 90.881C217.546 90.9537 217.123 91.5022 217.194 92.106L217.236 92.4559C217.307 93.0597 217.846 93.4903 218.439 93.4175L256.518 88.7477C257.112 88.675 257.535 88.1265 257.463 87.5227L257.422 87.1728C257.35 86.569 256.811 86.1384 256.218 86.2112Z" fill="black"/>
<path opacity="0.2" d="M257.449 96.5701L219.37 101.24C218.777 101.313 218.354 101.861 218.425 102.465L218.466 102.815C218.538 103.419 219.077 103.849 219.67 103.776L257.749 99.1066C258.342 99.0339 258.765 98.4854 258.694 97.8816L258.652 97.5317C258.581 96.9279 258.042 96.4973 257.449 96.5701Z" fill="black"/>
<path d="M264.065 60.1117L264.173 119.921C264.173 120.292 264.029 120.647 263.771 120.91C263.513 121.172 263.164 121.319 262.799 121.319L208.465 121.418C208.285 121.42 208.107 121.385 207.94 121.316C207.773 121.247 207.622 121.145 207.494 121.016C207.366 120.887 207.265 120.733 207.196 120.564C207.127 120.395 207.091 120.214 207.091 120.031L206.961 42.2274C206.96 42.0442 206.994 41.8626 207.062 41.693C207.13 41.5233 207.23 41.3691 207.357 41.2391C207.483 41.109 207.634 41.0059 207.8 40.9354C207.966 40.865 208.145 40.8288 208.324 40.8288L244.937 40.7627L264.065 60.1117Z" fill="#407BFF"/>
<g opacity="0.8">
<path d="M264.065 60.1117L264.173 119.921C264.173 120.292 264.029 120.647 263.771 120.91C263.513 121.172 263.164 121.319 262.799 121.319L208.465 121.418C208.285 121.42 208.107 121.385 207.94 121.316C207.773 121.247 207.622 121.145 207.494 121.016C207.366 120.887 207.265 120.733 207.196 120.564C207.127 120.395 207.091 120.214 207.091 120.031L206.961 42.2274C206.96 42.0442 206.994 41.8626 207.062 41.693C207.13 41.5233 207.23 41.3691 207.357 41.2391C207.483 41.109 207.634 41.0059 207.8 40.9354C207.966 40.865 208.145 40.8288 208.324 40.8288L244.937 40.7627L264.065 60.1117Z" fill="white"/>
</g>
<path d="M254.74 78.1178L216.386 78.3086C215.789 78.3116 215.307 78.807 215.31 79.4152L215.311 79.7676C215.314 80.3758 215.801 80.8664 216.399 80.8635L254.752 80.6727C255.35 80.6697 255.832 80.1743 255.829 79.5661L255.827 79.2137C255.824 78.6055 255.338 78.1148 254.74 78.1178Z" fill="#263238"/>
<path d="M254.748 88.6131L216.394 88.7971C215.797 88.7999 215.315 89.2953 215.317 89.9035L215.319 90.2559C215.322 90.8641 215.808 91.3548 216.406 91.3519L254.76 91.168C255.357 91.1651 255.839 90.6697 255.837 90.0615L255.835 89.7091C255.832 89.1009 255.345 88.6102 254.748 88.6131Z" fill="#263238"/>
<path d="M254.84 99.0079L216.487 99.1987C215.889 99.2017 215.407 99.6971 215.41 100.305L215.412 100.658C215.415 101.266 215.901 101.757 216.499 101.754L254.853 101.563C255.45 101.56 255.932 101.064 255.929 100.456L255.928 100.104C255.925 99.4956 255.438 99.005 254.84 99.0079Z" fill="#263238"/>
<path d="M244.969 40.7192V58.7578C244.969 59.1268 245.113 59.4809 245.368 59.7428C245.623 60.0048 245.97 60.1535 246.332 60.1564H264.011L244.969 40.7192Z" fill="#407BFF"/>
<path opacity="0.9" d="M244.969 40.7192V58.7578C244.969 59.1268 245.113 59.4809 245.368 59.7428C245.623 60.0048 245.97 60.1535 246.332 60.1564H264.011L244.969 40.7192Z" fill="white"/>
<path opacity="0.5" d="M254.74 78.1178L216.386 78.3086C215.789 78.3116 215.307 78.807 215.31 79.4152L215.311 79.7676C215.314 80.3758 215.801 80.8664 216.399 80.8635L254.752 80.6727C255.35 80.6697 255.832 80.1743 255.829 79.5661L255.827 79.2137C255.824 78.6055 255.338 78.1148 254.74 78.1178Z" fill="white"/>
<path opacity="0.5" d="M254.748 88.6131L216.394 88.7971C215.797 88.7999 215.315 89.2953 215.317 89.9035L215.319 90.2559C215.322 90.8641 215.808 91.3548 216.406 91.3519L254.76 91.168C255.357 91.1651 255.839 90.6697 255.837 90.0615L255.835 89.7091C255.832 89.1009 255.345 88.6102 254.748 88.6131Z" fill="white"/>
<path opacity="0.5" d="M254.84 99.0079L216.487 99.1987C215.889 99.2017 215.407 99.6971 215.41 100.305L215.412 100.658C215.415 101.266 215.901 101.757 216.499 101.754L254.853 101.563C255.45 101.56 255.932 101.064 255.929 100.456L255.928 100.104C255.925 99.4956 255.438 99.005 254.84 99.0079Z" fill="white"/>
<path d="M225.267 41.9961H223.169V38.3289C223.108 36.9989 222.547 35.7437 221.601 34.8242C220.655 33.9047 219.397 33.3917 218.089 33.3917C216.781 33.3917 215.523 33.9047 214.577 34.8242C213.631 35.7437 213.07 36.9989 213.009 38.3289V40.9278H210.91V38.3289C210.982 36.4401 211.77 34.6531 213.109 33.3427C214.447 32.0323 216.232 31.3003 218.089 31.3003C219.946 31.3003 221.731 32.0323 223.069 33.3427C224.408 34.6531 225.195 36.4401 225.267 38.3289V41.9961Z" fill="#263238"/>
<path d="M220.767 61.4119C219.575 61.409 218.433 60.9251 217.591 60.0662C216.749 59.2074 216.277 58.0438 216.277 56.8307V39.9705C216.237 39.8081 216.234 39.6386 216.268 39.4748C216.302 39.3111 216.372 39.1573 216.473 39.0253C216.574 38.8934 216.704 38.7866 216.852 38.7132C216.999 38.6397 217.162 38.6016 217.326 38.6016C217.491 38.6016 217.653 38.6397 217.801 38.7132C217.949 38.7866 218.078 38.8934 218.179 39.0253C218.28 39.1573 218.351 39.3111 218.385 39.4748C218.419 39.6386 218.416 39.8081 218.376 39.9705V56.8858C218.354 57.2199 218.399 57.5551 218.51 57.8705C218.62 58.1859 218.793 58.4749 219.018 58.7195C219.242 58.9641 219.514 59.1591 219.816 59.2924C220.118 59.4257 220.443 59.4945 220.772 59.4945C221.101 59.4945 221.427 59.4257 221.728 59.2924C222.03 59.1591 222.302 58.9641 222.527 58.7195C222.751 58.4749 222.924 58.1859 223.035 57.8705C223.145 57.5551 223.191 57.2199 223.169 56.8858V40.9286C223.129 40.7662 223.125 40.5967 223.16 40.4329C223.194 40.2691 223.264 40.1154 223.365 39.9834C223.466 39.8515 223.596 39.7447 223.743 39.6713C223.891 39.5978 224.054 39.5596 224.218 39.5596C224.383 39.5596 224.545 39.5978 224.693 39.6713C224.84 39.7447 224.97 39.8515 225.071 39.9834C225.172 40.1154 225.242 40.2691 225.277 40.4329C225.311 40.5967 225.308 40.7662 225.268 40.9286V56.8307C225.268 58.0457 224.793 59.211 223.949 60.0701C223.105 60.9293 221.96 61.4119 220.767 61.4119Z" fill="#263238"/>
</svg>
