<svg width="258" height="224" viewBox="0 0 258 224" fill="none" xmlns="http://www.w3.org/2000/svg">
<path d="M258 196.02H0V196.169H258V196.02Z" fill="#EBEBEB"/>
<path d="M44.1593 201.72H27.0693V201.869H44.1593V201.72Z" fill="#EBEBEB"/>
<path d="M110.254 200.097H88.3082V200.246H110.254V200.097Z" fill="#EBEBEB"/>
<path d="M58.1326 203.821H48.2306V203.971H58.1326V203.821Z" fill="#EBEBEB"/>
<path d="M232.148 206.276H224.29V206.426H232.148V206.276Z" fill="#EBEBEB"/>
<path d="M219.692 206.276H201.998V206.426H219.692V206.276Z" fill="#EBEBEB"/>
<path d="M171.224 201.965H158.928V202.115H171.224V201.965Z" fill="#EBEBEB"/>
<path d="M122.292 169.317H22.6628C21.8814 169.317 21.1319 168.957 20.5794 168.316C20.0268 167.675 19.7164 166.805 19.7164 165.898V3.38873C19.7232 2.48724 20.0367 1.62536 20.5885 0.990699C21.1403 0.356034 21.8858 -3.45615e-05 22.6628 2.51613e-09H122.292C123.074 2.51614e-09 123.823 0.36018 124.375 1.00131C124.928 1.64243 125.238 2.51198 125.238 3.41867V165.898C125.238 166.805 124.928 167.675 124.375 168.316C123.823 168.957 123.074 169.317 122.292 169.317ZM22.6628 0.119744C21.916 0.121326 21.2002 0.466244 20.6721 1.07896C20.1441 1.69167 19.8468 2.52223 19.8454 3.38873V165.898C19.8468 166.765 20.1441 167.595 20.6721 168.208C21.2002 168.821 21.916 169.166 22.6628 169.167H122.292C123.039 169.166 123.755 168.821 124.283 168.208C124.811 167.595 125.108 166.765 125.109 165.898V3.38873C125.108 2.52223 124.811 1.69167 124.283 1.07896C123.755 0.466244 123.039 0.121326 122.292 0.119744H22.6628Z" fill="#EBEBEB"/>
<path d="M233.908 169.317H134.268C133.487 169.315 132.739 168.955 132.186 168.314C131.634 167.673 131.323 166.804 131.322 165.898V3.38873C131.33 2.48773 131.644 1.62676 132.195 0.992428C132.747 0.358097 133.492 0.0015257 134.268 0H233.908C234.683 0.00311602 235.426 0.360576 235.976 0.994904C236.525 1.62923 236.837 2.48931 236.844 3.38873V165.898C236.844 166.803 236.535 167.671 235.985 168.311C235.434 168.952 234.687 169.314 233.908 169.317ZM134.268 0.119744C133.521 0.121326 132.806 0.466244 132.278 1.07896C131.75 1.69167 131.452 2.52223 131.451 3.38873V165.898C131.452 166.765 131.75 167.595 132.278 168.208C132.806 168.821 133.521 169.166 134.268 169.167H233.908C234.655 169.166 235.37 168.821 235.899 168.208C236.427 167.595 236.724 166.765 236.725 165.898V3.38873C236.724 2.52223 236.427 1.69167 235.899 1.07896C235.37 0.466244 234.655 0.121326 233.908 0.119744H134.268Z" fill="#EBEBEB"/>
<path d="M158.67 84.6406L214.331 84.6406V19.8835L158.67 19.8835V84.6406Z" fill="#F0F0F0"/>
<path d="M158.67 19.8892H157.71V84.6463H158.67V19.8892Z" fill="#E0E0E0"/>
<path d="M163.587 80.5508H209.418V23.9721L163.587 23.9721V80.5508Z" fill="#FAFAFA"/>
<path d="M181.632 68.2538H196.147C199.295 68.2538 201.4 65.2961 200.848 61.6679L198.025 42.9101C197.712 41.0951 196.878 39.4566 195.66 38.2609C194.442 37.0652 192.912 36.3827 191.317 36.3242H176.838C173.691 36.3242 171.585 39.2819 172.137 42.9101L174.96 61.6679C175.271 63.4765 176.099 65.1105 177.31 66.3056C178.521 67.5007 180.043 68.1871 181.632 68.2538Z" fill="#F0F0F0"/>
<path d="M54.1645 104.308H41.7805V192.948H54.1645V104.308Z" fill="#F0F0F0"/>
<path d="M108.504 192.954H43.0447V196.014H108.504V192.954Z" fill="#F0F0F0"/>
<path d="M54.1645 192.954H109.593L109.593 104.314L54.1645 104.314L54.1645 192.954Z" fill="#F5F5F5"/>
<path d="M56.3937 166.293H107.364V150.463H56.3937V166.293Z" fill="#F0F0F0"/>
<path d="M56.3937 187.009H107.364V171.179H56.3937V187.009Z" fill="#F0F0F0"/>
<path d="M101.332 149.494H62.4257C62.0894 149.494 61.8168 149.81 61.8168 150.2V150.961C61.8168 151.351 62.0894 151.667 62.4257 151.667H101.332C101.668 151.667 101.941 151.351 101.941 150.961V150.2C101.941 149.81 101.668 149.494 101.332 149.494Z" fill="#F5F5F5"/>
<path d="M101.332 170.214H62.4257C62.0894 170.214 61.8168 170.531 61.8168 170.921V171.681C61.8168 172.071 62.0894 172.388 62.4257 172.388H101.332C101.668 172.388 101.941 172.071 101.941 171.681V170.921C101.941 170.531 101.668 170.214 101.332 170.214Z" fill="#F5F5F5"/>
<path d="M56.3937 125.024L107.364 125.024V109.194H56.3937V125.024Z" fill="#F0F0F0"/>
<path d="M56.3937 145.584H107.364V129.754H56.3937V145.584Z" fill="#F0F0F0"/>
<path d="M101.332 108.23H62.4257C62.0894 108.23 61.8168 108.546 61.8168 108.936V109.697C61.8168 110.087 62.0894 110.403 62.4257 110.403H101.332C101.668 110.403 101.941 110.087 101.941 109.697V108.936C101.941 108.546 101.668 108.23 101.332 108.23Z" fill="#F5F5F5"/>
<path d="M101.332 128.778H62.4257C62.0894 128.778 61.8168 129.094 61.8168 129.484V130.245C61.8168 130.635 62.0894 130.951 62.4257 130.951H101.332C101.668 130.951 101.941 130.635 101.941 130.245V129.484C101.941 129.094 101.668 128.778 101.332 128.778Z" fill="#F5F5F5"/>
<path d="M107.586 15.0039H38.0757V85.8081H107.586V15.0039Z" fill="#E6E6E6"/>
<path d="M115.037 12.2495H33.5761C33.4855 12.2495 33.3958 12.2703 33.3122 12.3107C33.2286 12.3511 33.1528 12.4103 33.089 12.4849C33.0252 12.5594 32.9747 12.6479 32.9405 12.7452C32.9064 12.8425 32.8891 12.9467 32.8898 13.0518C32.8898 13.263 32.9621 13.4655 33.0908 13.6149C33.2195 13.7642 33.3941 13.8481 33.5761 13.8481H115.037C115.219 13.8481 115.395 13.7644 115.524 13.6152C115.654 13.4661 115.727 13.2635 115.728 13.0518C115.728 12.839 115.656 12.635 115.526 12.4845C115.396 12.334 115.22 12.2495 115.037 12.2495Z" fill="#E6E6E6"/>
<path d="M110.538 15.0039H39.4534V85.8081H110.538V15.0039Z" fill="#F0F0F0"/>
<path d="M107.586 85.8081H38.0757V88.0772H109.619L107.586 85.8081Z" fill="#E6E6E6"/>
<path d="M115.45 85.8081H44.3708L46.3987 88.0772H117.483L115.45 85.8081Z" fill="#F0F0F0"/>
<path d="M106.41 81.0182V19.7935L43.5865 19.7935V81.0182H106.41Z" fill="#FAFAFA"/>
<path d="M57.8488 81.0182L82.0801 19.7935H93.525L69.2885 81.0182H57.8488Z" fill="white"/>
<path d="M71.7448 81.0182L95.9813 19.7935H100.44L76.2082 81.0182H71.7448Z" fill="white"/>
<path d="M106.41 81.0182V19.7935H105.883V81.0182H106.41Z" fill="#E6E6E6"/>
<g opacity="0.4">
<path d="M43.6332 10.8193H36.5278V69.2481H43.6332V10.8193Z" fill="#F0F0F0"/>
<path d="M46.404 10.8193H40.8673V69.2481H46.404V10.8193Z" fill="#E6E6E6"/>
<path d="M50.7384 10.8193H43.6331V69.2481H50.7384V10.8193Z" fill="#F0F0F0"/>
<path d="M53.5093 10.8193H47.9727V69.2481H53.5093V10.8193Z" fill="#E6E6E6"/>
<path d="M57.8437 10.8193H50.7384V69.2481H57.8437V10.8193Z" fill="#F0F0F0"/>
</g>
<g opacity="0.4">
<path d="M103.768 10.8193H99.6707V69.2481H103.768V10.8193Z" fill="#F0F0F0"/>
<path d="M105.357 10.8193H102.168V69.2481H105.357V10.8193Z" fill="#E6E6E6"/>
<path d="M107.859 10.8193H103.762V69.2481H107.859V10.8193Z" fill="#F0F0F0"/>
<path d="M109.454 10.8193H106.265V69.2481H109.454V10.8193Z" fill="#E6E6E6"/>
<path d="M111.957 10.8193H107.86V69.2481H111.957V10.8193Z" fill="#F0F0F0"/>
</g>
<path d="M184.135 128.251C184.074 129.117 184.236 129.984 184.6 130.744C184.964 131.503 185.514 132.12 186.18 132.517C186.847 132.913 187.599 133.072 188.343 132.973C189.087 132.873 189.789 132.52 190.36 131.958C190.931 131.396 191.346 130.65 191.551 129.814C191.757 128.979 191.745 128.091 191.516 127.264C191.287 126.437 190.852 125.706 190.265 125.166C189.679 124.626 188.968 124.299 188.221 124.227C187.22 124.133 186.227 124.504 185.461 125.258C184.694 126.012 184.217 127.089 184.135 128.251Z" fill="#E0E0E0"/>
<path d="M194.665 135.249C196.738 134.896 198.17 132.66 197.866 130.255C197.561 127.851 195.634 126.188 193.561 126.542C191.489 126.896 190.056 129.132 190.361 131.536C190.666 133.941 192.593 135.603 194.665 135.249Z" fill="#E0E0E0"/>
<path d="M196.968 131.448C196.907 132.314 197.069 133.182 197.433 133.941C197.797 134.7 198.347 135.317 199.013 135.714C199.679 136.111 200.432 136.269 201.176 136.17C201.92 136.07 202.622 135.717 203.193 135.155C203.764 134.593 204.179 133.847 204.384 133.011C204.59 132.176 204.578 131.288 204.349 130.461C204.12 129.634 203.685 128.904 203.098 128.363C202.512 127.823 201.801 127.496 201.054 127.425C200.558 127.376 200.058 127.442 199.584 127.618C199.11 127.794 198.67 128.078 198.291 128.451C197.911 128.825 197.599 129.282 197.372 129.797C197.145 130.311 197.007 130.872 196.968 131.448Z" fill="#E0E0E0"/>
<path d="M177.091 130.556C177.03 131.422 177.192 132.289 177.557 133.049C177.921 133.808 178.471 134.425 179.137 134.822C179.803 135.219 180.556 135.377 181.3 135.278C182.044 135.178 182.746 134.825 183.317 134.263C183.888 133.701 184.302 132.955 184.508 132.119C184.714 131.284 184.701 130.396 184.472 129.569C184.243 128.742 183.808 128.012 183.222 127.471C182.636 126.931 181.924 126.604 181.178 126.533C180.176 126.438 179.183 126.809 178.417 127.563C177.651 128.318 177.174 129.394 177.091 130.556Z" fill="#E0E0E0"/>
<path d="M206.771 135.247C208.843 134.893 210.276 132.657 209.971 130.253C209.666 127.848 207.739 126.186 205.667 126.54C203.594 126.893 202.162 129.129 202.466 131.534C202.771 133.938 204.698 135.601 206.771 135.247Z" fill="#E0E0E0"/>
<path d="M178.224 130.539C179.816 128.96 180.002 126.182 178.641 124.335C177.279 122.488 174.885 122.271 173.293 123.851C171.701 125.43 171.515 128.208 172.876 130.055C174.238 131.902 176.632 132.119 178.224 130.539Z" fill="#E0E0E0"/>
<path d="M166.627 129.556C166.566 130.422 166.728 131.29 167.092 132.049C167.456 132.809 168.006 133.426 168.672 133.822C169.339 134.219 170.091 134.378 170.835 134.278C171.579 134.179 172.281 133.826 172.852 133.264C173.423 132.701 173.838 131.955 174.043 131.12C174.249 130.284 174.237 129.397 174.008 128.57C173.779 127.742 173.344 127.012 172.757 126.472C172.171 125.931 171.46 125.605 170.713 125.533C169.712 125.439 168.719 125.809 167.953 126.564C167.186 127.318 166.71 128.394 166.627 129.556Z" fill="#E0E0E0"/>
<path d="M162.297 130.742C162.297 130.742 162.948 148.746 187.881 148.746C212.814 148.746 213.464 130.742 213.464 130.742H162.297Z" fill="#F0F0F0"/>
<path d="M227.69 148.745H222.948V196.014H227.69V148.745Z" fill="#E6E6E6"/>
<path d="M228.954 148.745H226.163V196.014H228.954V148.745Z" fill="#F0F0F0"/>
<path d="M207.515 148.745H202.773V196.014H207.515V148.745Z" fill="#E6E6E6"/>
<path d="M208.402 148.745H205.611V196.014H208.402V148.745Z" fill="#F0F0F0"/>
<path d="M162.504 154.481H229.821V148.751H162.504V154.481Z" fill="#F0F0F0"/>
<path d="M141.931 148.745H137.189V196.014H141.931V148.745Z" fill="#E6E6E6"/>
<path d="M142.818 148.745H140.027V196.014H142.818V148.745Z" fill="#F0F0F0"/>
<path d="M136.343 154.481H160.476V148.751H136.343V154.481Z" fill="#E6E6E6"/>
<path d="M162.101 148.745H157.359V196.014H162.101V148.745Z" fill="#E6E6E6"/>
<path d="M163.371 148.745H160.579V196.014H163.371V148.745Z" fill="#F0F0F0"/>
<path d="M129 223.058C184.255 223.058 229.047 220.023 229.047 216.28C229.047 212.537 184.255 209.503 129 209.503C73.7454 209.503 28.9528 212.537 28.9528 216.28C28.9528 220.023 73.7454 223.058 129 223.058Z" fill="#F5F5F5"/>
<path d="M183.428 210.335C183.428 211.531 183.063 212.689 182.397 213.602C181.731 214.516 180.807 215.125 179.79 215.322C167.271 217.773 154.486 217.773 141.967 215.322C140.954 215.12 140.036 214.508 139.375 213.595C138.714 212.682 138.352 211.527 138.355 210.335V161.839H183.448L183.428 210.335Z" fill="#565656"/>
<path opacity="0.3" d="M138.329 162.712V169.52C141.044 170.687 149.955 171.543 160.879 171.543C171.802 171.543 180.729 170.687 183.428 169.52V162.712H138.329Z" fill="black"/>
<path d="M184.274 167.904C184.274 169.443 174.037 170.688 160.879 170.688C147.721 170.688 137.483 169.443 137.483 167.904L137.055 161.857H184.728L184.274 167.904Z" fill="#565656"/>
<path d="M160.878 164.635C174.036 164.635 184.702 163.391 184.702 161.857C184.702 160.322 174.036 159.079 160.878 159.079C147.721 159.079 137.055 160.322 137.055 161.857C137.055 163.391 147.721 164.635 160.878 164.635Z" fill="#565656"/>
<path opacity="0.3" d="M160.878 164.635C174.036 164.635 184.702 163.391 184.702 161.857C184.702 160.322 174.036 159.079 160.878 159.079C147.721 159.079 137.055 160.322 137.055 161.857C137.055 163.391 147.721 164.635 160.878 164.635Z" fill="black"/>
<path opacity="0.2" d="M144.377 206.922C143.913 206.921 143.469 206.706 143.141 206.326C142.814 205.946 142.629 205.43 142.627 204.893V177.088C142.629 176.55 142.814 176.035 143.141 175.655C143.469 175.275 143.913 175.06 144.377 175.059C144.84 175.062 145.283 175.277 145.611 175.657C145.938 176.036 146.123 176.551 146.126 177.088V204.893C146.123 205.43 145.938 205.944 145.611 206.324C145.283 206.704 144.84 206.919 144.377 206.922Z" fill="black"/>
<path opacity="0.2" d="M177.385 206.922C176.922 206.921 176.478 206.706 176.15 206.326C175.822 205.946 175.637 205.43 175.636 204.893V177.088C175.637 176.55 175.822 176.035 176.15 175.655C176.478 175.275 176.922 175.06 177.385 175.059C177.848 175.062 178.292 175.277 178.619 175.657C178.947 176.036 179.132 176.551 179.134 177.088V204.893C179.132 205.43 178.947 205.944 178.619 206.324C178.292 206.704 177.848 206.919 177.385 206.922Z" fill="black"/>
<path opacity="0.2" d="M166.379 206.922C165.916 206.919 165.473 206.704 165.145 206.324C164.818 205.944 164.632 205.43 164.63 204.893V177.088C164.632 176.551 164.818 176.036 165.145 175.657C165.473 175.277 165.916 175.062 166.379 175.059C166.843 175.06 167.287 175.275 167.614 175.655C167.942 176.035 168.127 176.55 168.128 177.088V204.893C168.127 205.43 167.942 205.946 167.614 206.326C167.287 206.706 166.843 206.921 166.379 206.922Z" fill="black"/>
<path opacity="0.2" d="M155.378 206.922C154.915 206.919 154.471 206.704 154.144 206.324C153.817 205.944 153.631 205.43 153.629 204.893V177.088C153.631 176.551 153.817 176.036 154.144 175.657C154.471 175.277 154.915 175.062 155.378 175.059C155.841 175.06 156.286 175.275 156.613 175.655C156.941 176.035 157.126 176.55 157.127 177.088V204.893C157.126 205.43 156.941 205.946 156.613 206.326C156.286 206.706 155.841 206.921 155.378 206.922Z" fill="black"/>
<path d="M99.526 50.3879C99.526 50.9374 99.3856 51.4745 99.1225 51.9313C98.8594 52.3881 98.4855 52.7442 98.048 52.9545C97.6105 53.1647 97.1291 53.2198 96.6647 53.1126C96.2003 53.0054 95.7736 52.7408 95.4388 52.3523C95.104 51.9638 94.8759 51.4688 94.7836 50.9299C94.6912 50.391 94.7386 49.8324 94.9198 49.3248C95.101 48.8172 95.4079 48.3833 95.8016 48.078C96.1953 47.7728 96.6583 47.6099 97.1318 47.6099C97.7668 47.6099 98.3758 47.9025 98.8248 48.4235C99.2738 48.9445 99.526 49.6511 99.526 50.3879Z" fill="#263238"/>
<path d="M95.2072 50.7888C95.1838 50.7896 95.1608 50.7826 95.1407 50.7689C95.1206 50.7551 95.1043 50.735 95.0936 50.711C94.9354 50.3737 94.836 50.0035 94.8011 49.6216C94.7661 49.2398 94.7964 48.8536 94.89 48.4853C94.9837 48.117 95.139 47.7737 95.347 47.475C95.555 47.1763 95.8117 46.9281 96.1024 46.7445C96.3931 46.5609 96.7121 46.4455 97.0413 46.405C97.3704 46.3645 97.7032 46.3996 98.0206 46.5082C98.338 46.6169 98.6339 46.7971 98.8913 47.0385C99.1488 47.2798 99.3627 47.5777 99.5209 47.915C99.5361 47.9502 99.5392 47.9908 99.5296 48.0285C99.5201 48.0663 99.4985 48.0985 99.4693 48.1185C99.4544 48.128 99.4381 48.134 99.4212 48.1361C99.4043 48.1382 99.3872 48.1365 99.3709 48.1309C99.3546 48.1253 99.3394 48.1161 99.3262 48.1037C99.313 48.0913 99.302 48.076 99.2939 48.0587C99.0072 47.4473 98.5229 46.9932 97.9476 46.7961C97.3723 46.5991 96.7531 46.6753 96.2263 47.0079C95.6994 47.3406 95.308 47.9025 95.1381 48.57C94.9683 49.2375 95.034 49.956 95.3207 50.5673C95.3289 50.5846 95.334 50.6036 95.3358 50.6232C95.3377 50.6428 95.3361 50.6626 95.3313 50.6815C95.3265 50.7004 95.3186 50.7181 95.3079 50.7334C95.2972 50.7487 95.284 50.7615 95.2691 50.7709C95.2499 50.7823 95.2287 50.7885 95.2072 50.7888Z" fill="#263238"/>
<path d="M92.8801 63.0813C92.4137 63.0791 91.9569 62.927 91.5605 62.6418C91.1641 62.3565 90.8436 61.9494 90.6346 61.4656C90.4256 60.9818 90.3362 60.4403 90.3765 59.9011C90.4167 59.3619 90.5849 58.8463 90.8625 58.4113C91.0603 58.1039 91.3085 57.8446 91.5927 57.6484C91.8769 57.4522 92.1916 57.3229 92.5189 57.2678C92.5355 57.2644 92.5526 57.265 92.5691 57.2696C92.5855 57.2741 92.601 57.2826 92.6146 57.2944C92.6281 57.3062 92.6394 57.321 92.6478 57.3381C92.6562 57.3551 92.6615 57.374 92.6633 57.3935C92.6678 57.4324 92.6589 57.4717 92.6387 57.503C92.6184 57.5344 92.5884 57.5552 92.555 57.5612C91.9617 57.662 91.4273 58.0321 91.0693 58.5902C90.7112 59.1482 90.5589 59.8484 90.6458 60.5368C90.7327 61.2251 91.0517 61.8452 91.5326 62.2607C92.0136 62.6761 92.6171 62.8529 93.2103 62.752C93.2445 62.7457 93.2795 62.7554 93.3076 62.7789C93.3356 62.8025 93.3545 62.8381 93.3599 62.8778C93.3654 62.9175 93.3571 62.9581 93.3368 62.9906C93.3164 63.0232 93.2858 63.045 93.2516 63.0514C93.1284 63.0703 93.0043 63.0803 92.8801 63.0813Z" fill="#263238"/>
<path d="M105.888 67.6077C105.404 67.6069 104.931 67.4425 104.526 67.1347C104.497 67.1126 104.477 67.0786 104.469 67.0395C104.462 67.0005 104.467 66.9595 104.485 66.9252C104.505 66.8928 104.534 66.8704 104.568 66.8626C104.601 66.8548 104.636 66.8622 104.665 66.8833C105.168 67.262 105.78 67.3934 106.367 67.2485C106.953 67.1037 107.466 66.6945 107.792 66.1109C108.119 65.5274 108.232 64.8173 108.107 64.1368C107.982 63.4564 107.63 62.8614 107.127 62.4827C107.098 62.4606 107.078 62.4265 107.07 62.3875C107.062 62.3485 107.068 62.3075 107.085 62.2731C107.105 62.2407 107.135 62.2183 107.168 62.2105C107.202 62.2028 107.237 62.2102 107.266 62.2312C107.825 62.6538 108.218 63.3164 108.357 64.0738C108.496 64.8313 108.371 65.6219 108.009 66.2726C107.83 66.5963 107.598 66.8753 107.325 67.0933C107.052 67.3113 106.744 67.4638 106.42 67.5418C106.245 67.5845 106.067 67.6065 105.888 67.6077Z" fill="#263238"/>
<path d="M95.7901 59.051C97.6596 59.051 99.1751 57.2925 99.1751 55.1234C99.1751 52.9542 97.6596 51.1958 95.7901 51.1958C93.9206 51.1958 92.4052 52.9542 92.4052 55.1234C92.4052 57.2925 93.9206 59.051 95.7901 59.051Z" fill="#263238"/>
<path d="M98.9672 64.0943C100.72 62.0602 100.72 58.7621 98.9672 56.7279C97.2141 54.6938 94.3717 54.6938 92.6186 56.7279C90.8654 58.7621 90.8654 62.0602 92.6186 64.0943C94.3717 66.1285 97.2141 66.1285 98.9672 64.0943Z" fill="#263238"/>
<path d="M96.2649 72.7923C99.0064 72.7923 101.229 70.2136 101.229 67.0326C101.229 63.8516 99.0064 61.2729 96.2649 61.2729C93.5234 61.2729 91.301 63.8516 91.301 67.0326C91.301 70.2136 93.5234 72.7923 96.2649 72.7923Z" fill="#263238"/>
<path d="M106.062 68.746C106.692 65.6501 105.039 62.5481 102.371 61.8174C99.703 61.0867 97.0295 63.004 96.3998 66.0999C95.77 69.1958 97.4225 72.2979 100.091 73.0286C102.759 73.7593 105.432 71.8419 106.062 68.746Z" fill="#263238"/>
<path d="M117.694 79.3063C117.694 79.7733 117.694 80.366 117.73 80.9049C117.767 81.4437 117.767 82.0185 117.798 82.5753C117.865 83.6889 117.932 84.8145 118.035 85.9341C118.221 88.1813 118.48 90.4185 118.814 92.6457C118.902 93.1965 118.979 93.7593 119.077 94.3101L119.304 95.6692C119.361 95.8847 119.304 95.8428 119.232 95.8368C119.16 95.8309 119.232 95.9446 119.536 95.9446C120.316 95.8539 121.074 95.6004 121.776 95.1962C122.189 94.9807 122.612 94.7472 123.035 94.4957C123.458 94.2443 123.886 93.9569 124.273 93.7054L125.78 95.7231C125.421 96.2008 125.038 96.6546 124.635 97.0822C124.237 97.5212 123.817 97.9311 123.375 98.3095C122.913 98.7133 122.425 99.0755 121.915 99.3932C121.335 99.7606 120.713 100.031 120.068 100.196C119.67 100.296 119.262 100.336 118.855 100.315C118.359 100.282 117.872 100.14 117.421 99.8961C116.941 99.6348 116.514 99.2595 116.167 98.7945C115.869 98.3903 115.625 97.9361 115.445 97.4474C115.304 97.0735 115.191 96.6871 115.104 96.2919L114.903 95.4177C114.758 94.819 114.64 94.2502 114.516 93.6635C114.033 91.3098 113.661 88.9274 113.401 86.5268C113.272 85.3294 113.169 84.1319 113.107 82.9046C113.076 82.3059 113.05 81.7071 113.035 81.0725C113.019 80.4379 113.035 79.8751 113.035 79.1626L117.694 79.3063Z" fill="#FFB573"/>
<path d="M115.192 72.8522C119.593 76.7618 119.418 84.132 119.418 84.132L111.544 86.3173C111.544 86.3173 109.129 78.9052 110.109 76.193C111.131 73.3671 112.715 70.6489 115.192 72.8522Z" fill="black"/>
<path opacity="0.7" d="M115.192 72.8522C119.593 76.7618 119.418 84.132 119.418 84.132L111.544 86.3173C111.544 86.3173 109.129 78.9052 110.109 76.193C111.131 73.3671 112.715 70.6489 115.192 72.8522Z" fill="white"/>
<path d="M123.979 94.394L125.28 91.8555L128.541 95.9028C128.541 95.9028 126.203 97.6391 123.778 96.3997L123.979 94.394Z" fill="#FFB573"/>
<path d="M126.884 90.6396L131.069 93.5015L128.541 95.9024L125.28 91.855L126.884 90.6396Z" fill="#FFB573"/>
<path d="M90.5527 211.862L95.0523 212.365L97.849 200.133L93.3443 199.63L90.5527 211.862Z" fill="#FFB573"/>
<path d="M67.4875 201.582L71.5278 204.037L76.3318 192.985L72.2915 190.53L67.4875 201.582Z" fill="#FFB573"/>
<path d="M72.6063 201.887L68.9943 197.63C68.9343 197.556 68.8525 197.509 68.7649 197.501C68.6772 197.492 68.5898 197.521 68.5196 197.582L65.2017 200.414C65.1212 200.489 65.0553 200.583 65.008 200.69C64.9608 200.796 64.9334 200.913 64.9276 201.033C64.9217 201.153 64.9376 201.272 64.9742 201.384C65.0107 201.496 65.0671 201.598 65.1398 201.684C66.4195 203.144 67.1006 203.773 68.6899 205.647C69.6703 206.797 71.6827 209.509 73.0346 211.101C74.3865 212.694 75.8107 211.227 75.3721 210.425C73.401 206.833 73.0707 204.575 72.9469 202.749C72.9245 202.424 72.8039 202.119 72.6063 201.887Z" fill="#263238"/>
<path d="M95.7541 210.778H90.3C90.2024 210.779 90.1078 210.817 90.0305 210.886C89.9532 210.955 89.8975 211.052 89.8717 211.161L88.7055 216.136C88.6764 216.255 88.6716 216.379 88.6915 216.5C88.7115 216.621 88.7557 216.734 88.8205 216.832C88.8852 216.929 88.9688 217.007 89.0645 217.06C89.1602 217.113 89.2652 217.139 89.3712 217.136C91.2855 217.136 92.1937 217.136 94.5828 217.136H101.894C103.881 217.136 104.299 214.807 103.473 214.592C99.7892 213.646 97.6633 212.341 96.5281 211.095C96.313 210.882 96.0371 210.769 95.7541 210.778Z" fill="#263238"/>
<path opacity="0.2" d="M97.8438 200.139L96.4042 206.443H91.786L93.3392 199.636L97.8438 200.139Z" fill="black"/>
<path opacity="0.2" d="M72.2865 190.53L76.3319 192.991L73.8551 198.684L69.8097 196.224L72.2865 190.53Z" fill="black"/>
<path d="M113.861 72.0973C113.861 72.0973 115.852 73.1091 109.175 103.763L90.6302 101.901C91.5951 93.1781 92.0028 87.7777 89.7375 69.439C92.3813 69.0798 95.0438 68.9417 97.7046 69.0259C100.525 69.0754 103.339 69.3575 106.126 69.8701C108.735 70.4604 111.316 71.2037 113.861 72.0973Z" fill="black"/>
<path opacity="0.7" d="M113.861 72.0973C113.861 72.0973 115.852 73.1091 109.175 103.763L90.6302 101.901C91.5951 93.1781 92.0028 87.7777 89.7375 69.439C92.3813 69.0798 95.0438 68.9417 97.7046 69.0259C100.525 69.0754 103.339 69.3575 106.126 69.8701C108.735 70.4604 111.316 71.2037 113.861 72.0973Z" fill="white"/>
<path d="M97.7046 68.8525C97.7046 68.8525 96.6726 68.8525 95.4084 68.8525C94.6602 70.1877 97.8181 74.0853 101.833 77.9171C102.803 74.4266 104.33 74.4386 104.33 74.4386L97.7046 68.8525Z" fill="white"/>
<path d="M106.12 69.7925C106.12 69.7925 106.59 69.8703 107.715 70.1697C108.458 71.5048 108.876 74.8456 106.683 77.7554C105.821 74.1631 104.335 74.4864 104.335 74.4864L106.12 69.7925Z" fill="white"/>
<path d="M99.3558 58.1055C99.6551 61.3026 99.7531 67.0862 97.7046 69.026C97.7046 69.026 99.8924 71.6245 104.33 74.4863C107.55 71.8999 106.126 69.8702 106.126 69.8702C103.164 68.7327 103.437 66.1402 104.144 63.7454L99.3558 58.1055Z" fill="#FFB573"/>
<path opacity="0.2" d="M101.311 60.4102L104.144 63.745C103.97 64.2993 103.839 64.8703 103.752 65.4514C102.617 65.146 100.966 63.769 100.945 62.356C100.965 61.687 101.089 61.0277 101.311 60.4102Z" fill="black"/>
<path d="M109.996 47.6758C111.895 49.6276 112.452 54.3814 110.646 57.6085C110.104 54.3372 109.886 51.0046 109.996 47.6758Z" fill="#263238"/>
<path d="M98.7779 51.394C98.4477 56.6567 98.2155 58.8779 100.176 61.9134C103.128 66.4816 108.773 65.7931 110.45 60.7519C111.962 56.2077 112.246 48.3645 108.081 45.5984C107.166 44.9787 106.13 44.6417 105.07 44.6198C104.011 44.5979 102.964 44.8917 102.031 45.4732C101.097 46.0548 100.308 46.9045 99.7386 47.9411C99.1691 48.9778 98.8383 50.1666 98.7779 51.394Z" fill="#FFB573"/>
<path d="M98.1741 55.633C101.528 55.4833 103.386 50.3942 102.545 48.2448C106.348 50.5439 112.106 52.352 111.466 49.3943C110.605 45.4009 106.44 42.4732 101.317 44.6046C98.3496 46.1014 95.8109 49.3943 98.1741 55.633Z" fill="#263238"/>
<path d="M97.1525 55.6265C97.2958 56.6328 97.7739 57.5336 98.4838 58.1351C99.4332 58.9194 100.3 58.0453 100.367 56.77C100.429 55.6145 100.011 53.8183 98.8966 53.5429C98.6525 53.4867 98.4002 53.5022 98.1626 53.5881C97.925 53.6739 97.7098 53.8274 97.5364 54.0345C97.363 54.2416 97.2371 54.4958 97.17 54.7739C97.103 55.0519 97.097 55.345 97.1525 55.6265Z" fill="#FFB573"/>
<path d="M109.175 103.764C109.175 103.764 113.37 135.526 111.033 155.93C109.263 171.347 97.8439 204.612 97.8439 204.612L90.429 204.378C90.429 204.378 98.0864 172.137 99.6705 159.475C102.38 137.789 95.5941 102.423 95.5941 102.423L109.175 103.764Z" fill="#263238"/>
<path opacity="0.2" d="M101.941 110.271L97.9833 117.51C99.175 126.093 99.9314 134.749 100.249 143.434C105.811 131.879 103.2 116.384 101.941 110.271Z" fill="black"/>
<path d="M98.9997 205.09L89.6808 204.797L90.2484 201.318L99.8769 201.384L98.9997 205.09Z" fill="black"/>
<path d="M105.12 103.423C105.12 103.423 102.024 138.591 94.9492 157.726C89.2268 173.173 75.5837 197.882 75.5837 197.882L70.1348 194.182C70.1348 194.182 78.9068 166.707 83.236 156.409C93.7985 131.161 83.9739 110.907 90.6303 101.926L105.12 103.423Z" fill="#263238"/>
<path d="M76.1771 198.42L69.2266 193.995L70.3566 190.547L77.7612 195.396L76.1771 198.42Z" fill="black"/>
<path d="M90.4443 100.614L89.4639 102.458C89.3917 102.596 89.531 102.77 89.7477 102.788L109.196 104.74C109.361 104.74 109.511 104.674 109.526 104.554L109.841 102.644C109.841 102.512 109.722 102.387 109.541 102.369L90.7591 100.483C90.7013 100.472 90.6423 100.479 90.5873 100.502C90.5323 100.525 90.4832 100.564 90.4443 100.614Z" fill="black"/>
<path d="M92.7869 103.303L92.2709 103.255C92.1729 103.255 92.1006 103.177 92.111 103.105L92.5341 100.626C92.5341 100.548 92.6424 100.501 92.7405 100.513L93.2565 100.56C93.3597 100.56 93.4319 100.638 93.4164 100.71L92.9985 103.189C92.9778 103.261 92.8798 103.315 92.7869 103.303Z" fill="#263238"/>
<path d="M107.767 104.805L107.251 104.757C107.147 104.757 107.075 104.68 107.091 104.608L107.514 102.129C107.514 102.057 107.617 102.003 107.715 102.015L108.231 102.063C108.329 102.063 108.401 102.141 108.391 102.213L107.968 104.692C107.957 104.775 107.844 104.817 107.767 104.805Z" fill="#263238"/>
<path d="M100.274 104.057L99.7582 104.003C99.6602 104.003 99.588 103.925 99.5983 103.853L100.021 101.375C100.021 101.303 100.125 101.249 100.228 101.261L100.744 101.315C100.842 101.315 100.914 101.393 100.904 101.465L100.481 103.943C100.47 104.015 100.377 104.063 100.274 104.057Z" fill="#263238"/>
<path d="M105.883 54.0105C105.832 54.4355 105.986 54.8127 106.224 54.8487C106.461 54.8846 106.699 54.5732 106.74 54.1482C106.781 53.7231 106.631 53.3459 106.394 53.3099C106.157 53.274 105.93 53.5854 105.883 54.0105Z" fill="#263238"/>
<path d="M110.022 54.6569C109.975 55.082 110.13 55.4592 110.367 55.4951C110.605 55.5311 110.842 55.2197 110.883 54.7946C110.925 54.3696 110.78 53.9924 110.543 53.9564C110.305 53.9205 110.073 54.2318 110.022 54.6569Z" fill="#263238"/>
<path d="M110.424 53.9628L111.342 53.8071C111.342 53.8071 110.806 54.5316 110.424 53.9628Z" fill="#263238"/>
<path d="M108.396 55.124C108.611 56.1435 108.944 57.1243 109.387 58.0398C109.183 58.1657 108.957 58.2384 108.726 58.2529C108.496 58.2673 108.265 58.2232 108.05 58.1236L108.396 55.124Z" fill="#ED893E"/>
<path d="M105.904 59.3922C105.178 59.1177 104.569 58.5334 104.201 57.7577C104.192 57.7329 104.191 57.705 104.199 57.6795C104.206 57.654 104.222 57.6328 104.242 57.62C104.264 57.6074 104.289 57.6055 104.313 57.6144C104.336 57.6234 104.355 57.6426 104.366 57.6679C104.595 58.1343 104.916 58.5314 105.303 58.8269C105.689 59.1223 106.13 59.3078 106.59 59.3682C106.613 59.3682 106.636 59.3789 106.652 59.398C106.669 59.4171 106.678 59.443 106.678 59.47C106.678 59.497 106.669 59.5229 106.652 59.542C106.636 59.5611 106.613 59.5718 106.59 59.5718C106.356 59.5419 106.126 59.4816 105.904 59.3922Z" fill="#263238"/>
<path d="M104 51.5498C103.97 51.5354 103.943 51.5129 103.922 51.484C103.905 51.465 103.892 51.4422 103.883 51.417C103.873 51.3918 103.869 51.3647 103.869 51.3373C103.869 51.3099 103.873 51.2828 103.883 51.2576C103.892 51.2324 103.905 51.2096 103.922 51.1906C104.175 50.9283 104.479 50.7411 104.808 50.6451C105.137 50.5492 105.481 50.5473 105.811 50.6398C105.833 50.6473 105.854 50.66 105.873 50.6771C105.891 50.6942 105.906 50.7154 105.917 50.7394C105.928 50.7634 105.935 50.7897 105.937 50.8169C105.939 50.844 105.937 50.8713 105.93 50.8972C105.916 50.9503 105.886 50.9951 105.844 51.022C105.803 51.0489 105.754 51.0557 105.708 51.0409C105.436 50.9708 105.154 50.9766 104.885 51.0578C104.616 51.139 104.367 51.2933 104.16 51.5079C104.137 51.5279 104.111 51.542 104.084 51.5492C104.056 51.5565 104.027 51.5567 104 51.5498Z" fill="#263238"/>
<path d="M111.76 52.8252C111.733 52.8131 111.709 52.7947 111.688 52.7714C111.507 52.525 111.279 52.3316 111.022 52.2068C110.764 52.082 110.485 52.0293 110.207 52.0529C110.184 52.059 110.159 52.0592 110.136 52.0535C110.112 52.0478 110.09 52.0364 110.07 52.02C110.051 52.0036 110.035 51.9825 110.023 51.9583C110.011 51.934 110.003 51.9071 110.001 51.8793C109.993 51.8245 110.005 51.7685 110.033 51.7237C110.061 51.6788 110.103 51.6486 110.151 51.6398C110.487 51.6046 110.827 51.6634 111.14 51.8113C111.453 51.9592 111.731 52.1919 111.951 52.49C111.976 52.5246 111.991 52.5676 111.993 52.6127C111.996 52.6579 111.985 52.7026 111.964 52.7403C111.942 52.778 111.911 52.8067 111.874 52.822C111.838 52.8373 111.798 52.8384 111.76 52.8252Z" fill="#263238"/>
<path d="M115.842 97.9982C116.176 96.7905 116.712 95.671 117.419 94.7036C118.126 93.7362 118.99 92.9398 119.962 92.36C120.934 91.7801 121.995 91.4281 123.085 91.3241C124.174 91.22 125.271 91.366 126.312 91.7536C127.352 92.1412 128.317 92.7629 129.151 93.5832C129.985 94.4034 130.671 95.4062 131.171 96.5343C131.671 97.6623 131.974 98.8935 132.064 100.158C132.153 101.422 132.028 102.694 131.693 103.902L128.484 115.553L112.632 109.643L115.842 97.9982Z" fill="black"/>
<path opacity="0.3" d="M115.842 97.9982C116.176 96.7905 116.712 95.671 117.419 94.7036C118.126 93.7362 118.99 92.9398 119.962 92.36C120.934 91.7801 121.995 91.4281 123.085 91.3241C124.174 91.22 125.271 91.366 126.312 91.7536C127.352 92.1412 128.317 92.7629 129.151 93.5832C129.985 94.4034 130.671 95.4062 131.171 96.5343C131.671 97.6623 131.974 98.8935 132.064 100.158C132.153 101.422 132.028 102.694 131.693 103.902L128.484 115.553L112.632 109.643L115.842 97.9982Z" fill="black"/>
<path d="M100.202 92.1663L97.3021 102.644C97.2596 102.794 97.2433 102.953 97.2541 103.111C97.2649 103.269 97.3026 103.423 97.3649 103.564C97.4273 103.705 97.5132 103.83 97.6175 103.932C97.7219 104.034 97.8427 104.111 97.9729 104.159L112.627 109.619L115.847 97.9918C116.523 95.5551 118.004 93.5293 119.967 92.3595C121.929 91.1897 124.211 90.9716 126.312 91.7532L110.672 85.9217C108.57 85.1419 106.287 85.3614 104.324 86.5321C102.361 87.7028 100.879 89.729 100.202 92.1663Z" fill="black"/>
<path d="M108.066 100.111L112.106 85.5207C112.12 85.4683 112.124 85.4131 112.118 85.3587C112.112 85.3044 112.096 85.2522 112.071 85.2057C112.046 85.1591 112.013 85.1194 111.973 85.089C111.934 85.0587 111.89 85.0384 111.843 85.0297L107.715 84.3232L107.199 86.2152L110.207 87.3348L106.802 99.6324L108.066 100.111Z" fill="#263238"/>
<path d="M105.919 99.3091C105.826 99.6473 105.821 100.01 105.905 100.351C105.99 100.692 106.159 100.997 106.393 101.227C106.626 101.456 106.913 101.601 107.217 101.641C107.521 101.682 107.828 101.617 108.1 101.455C108.373 101.293 108.597 101.04 108.746 100.73C108.895 100.42 108.961 100.066 108.937 99.7118C108.912 99.3579 108.797 99.0205 108.607 98.7421C108.418 98.4637 108.161 98.2568 107.87 98.1476C107.676 98.0749 107.472 98.0473 107.269 98.0664C107.066 98.0855 106.868 98.1508 106.687 98.2587C106.506 98.3666 106.344 98.5149 106.213 98.6952C106.081 98.8754 105.981 99.0841 105.919 99.3091Z" fill="#263238"/>
<path d="M113.391 111.361L133.721 118.935C133.795 118.963 133.873 118.973 133.95 118.966C134.028 118.959 134.103 118.934 134.172 118.893C134.241 118.852 134.303 118.795 134.353 118.726C134.403 118.657 134.441 118.578 134.464 118.492C134.489 118.406 134.499 118.316 134.493 118.225C134.487 118.135 134.466 118.048 134.43 117.967C134.395 117.887 134.345 117.816 134.286 117.758C134.226 117.7 134.157 117.656 134.082 117.63L112.627 109.637C112.531 109.983 112.558 110.359 112.701 110.682C112.845 111.006 113.093 111.25 113.391 111.361Z" fill="black"/>
<path opacity="0.2" d="M113.391 111.361L121.698 114.456C121.773 114.484 121.851 114.495 121.929 114.488C122.006 114.481 122.082 114.456 122.152 114.415C122.221 114.374 122.283 114.317 122.334 114.248C122.384 114.179 122.423 114.099 122.447 114.013C122.494 113.84 122.48 113.653 122.409 113.491C122.337 113.33 122.214 113.207 122.065 113.151L112.627 109.637C112.531 109.983 112.558 110.359 112.701 110.682C112.845 111.006 113.093 111.25 113.391 111.361Z" fill="black"/>
<path d="M91.9201 77.8933L91.6363 78.2585L91.3164 78.6836C91.0996 78.971 90.8829 79.2823 90.6765 79.5757C90.2534 80.1744 89.8509 80.815 89.4742 81.4617C87.9151 84.0223 86.6878 86.8342 85.8313 89.8078C85.6249 90.5502 85.434 91.2926 85.2843 92.0529C85.2327 92.2745 85.2276 92.3643 85.2018 92.4661C85.1978 92.5538 85.1978 92.6417 85.2018 92.7295C85.1935 92.8231 85.1935 92.9173 85.2018 93.0109C85.2018 93.1187 85.3772 93.3701 85.8003 93.6096C86.309 93.8751 86.8448 94.0642 87.3948 94.1724C88.722 94.4172 90.0658 94.5194 91.4092 94.4778C92.8128 94.4778 94.2369 94.3341 95.6611 94.1604C97.0852 93.9868 98.53 93.7713 99.9284 93.5258L100.491 96.1182C97.6109 97.2059 94.6474 97.9697 91.6414 98.3993C90.0588 98.6383 88.4585 98.6785 86.8684 98.5191C85.9594 98.4201 85.0667 98.1742 84.2162 97.7887C83.7061 97.5513 83.2268 97.2329 82.792 96.8427C82.2801 96.3769 81.8582 95.7915 81.5536 95.1244C81.0295 93.873 80.8893 92.4514 81.1563 91.095C81.2802 90.179 81.4608 89.2989 81.6723 88.3768C82.0773 86.6069 82.616 84.8819 83.2822 83.2219C83.9503 81.558 84.7283 79.9566 85.6094 78.4322C86.0532 77.6718 86.5279 76.9354 87.0232 76.2109C87.2761 75.8517 87.5392 75.4984 87.7972 75.1452L88.2152 74.6243C88.3648 74.4387 88.4835 74.289 88.6899 74.0615L91.9201 77.8933Z" fill="#FFB573"/>
<path d="M98.8037 94.0767L102.416 91.8555L102.576 96.3578C102.576 96.3578 99.9957 97.5972 98.5199 96.2321L98.8037 94.0767Z" fill="#FFB573"/>
<path d="M105.393 91.5137L104.851 95.6628L102.581 96.3573L102.421 91.8549L105.393 91.5137Z" fill="#FFB573"/>
<path d="M89.7375 69.4509C87.4619 69.9179 84.2782 77.4857 84.2782 77.4857L90.011 83.4729C90.011 83.4729 94.5672 77.7012 94.3247 74.2646C94.1183 71.3608 92.6322 68.8522 89.7375 69.4509Z" fill="black"/>
<path opacity="0.7" d="M89.7375 69.4509C87.4619 69.9179 84.2782 77.4857 84.2782 77.4857L90.011 83.4729C90.011 83.4729 94.5672 77.7012 94.3247 74.2646C94.1183 71.3608 92.6322 68.8522 89.7375 69.4509Z" fill="white"/>
<path d="M74.3814 204.198C74.3215 204.208 74.2608 204.208 74.2008 204.198C73.6281 204.163 73.0192 203.145 72.7044 202.546C72.6947 202.529 72.6895 202.509 72.6895 202.489C72.6895 202.469 72.6947 202.449 72.7044 202.432C72.7139 202.414 72.728 202.401 72.7448 202.393C72.7616 202.386 72.78 202.385 72.7973 202.39C72.9831 202.432 74.5878 202.851 74.7891 203.48C74.81 203.548 74.8152 203.622 74.8044 203.693C74.7935 203.764 74.7669 203.831 74.7272 203.887C74.6446 204.032 74.523 204.142 74.3814 204.198ZM72.9728 202.678C73.432 203.498 73.8861 203.989 74.2112 204.013C74.2852 204.015 74.3583 203.994 74.4235 203.953C74.4886 203.912 74.5434 203.852 74.5827 203.779C74.6049 203.753 74.6202 203.72 74.6266 203.684C74.633 203.648 74.6303 203.61 74.6188 203.576C74.495 203.193 73.53 202.833 72.9728 202.678Z" fill="black"/>
<path d="M74.2163 202.546C73.7405 202.698 73.2412 202.722 72.756 202.618C72.7408 202.612 72.7271 202.602 72.7163 202.588C72.7054 202.575 72.6978 202.558 72.6941 202.54C72.6869 202.524 72.6831 202.507 72.6831 202.489C72.6831 202.471 72.6869 202.454 72.6941 202.438C72.7354 202.396 73.6745 201.33 74.3298 201.384C74.4108 201.386 74.4904 201.409 74.5621 201.453C74.6338 201.497 74.6957 201.559 74.7426 201.636C74.799 201.706 74.8336 201.796 74.8411 201.891C74.8486 201.986 74.8285 202.082 74.7839 202.163C74.6357 202.359 74.4364 202.493 74.2163 202.546ZM72.9727 202.45C73.4887 202.534 74.4537 202.384 74.6549 202.043C74.6859 201.989 74.7117 201.905 74.6188 201.767C74.5876 201.715 74.546 201.672 74.4976 201.642C74.4491 201.611 74.3952 201.595 74.3402 201.594C73.8912 201.558 73.2411 202.169 72.9727 202.45Z" fill="black"/>
<path d="M97.6786 211.58C97.1797 211.566 96.6834 211.492 96.1977 211.359C96.1807 211.352 96.166 211.339 96.1556 211.322C96.1452 211.304 96.1396 211.284 96.1396 211.263C96.1396 211.242 96.1452 211.222 96.1556 211.204C96.166 211.187 96.1807 211.174 96.1977 211.167C96.4196 211.042 98.3959 209.97 98.8912 210.377C98.9359 210.412 98.9715 210.461 98.9942 210.518C99.0169 210.575 99.0259 210.638 99.0202 210.7C99.0179 210.817 98.9925 210.932 98.9459 211.036C98.8994 211.139 98.8331 211.23 98.7519 211.299C98.4282 211.52 98.0529 211.619 97.6786 211.58ZM96.5073 211.221C97.0904 211.347 98.174 211.515 98.6229 211.125C98.6805 211.073 98.7277 211.007 98.7615 210.931C98.7953 210.856 98.8149 210.773 98.819 210.688C98.8235 210.662 98.821 210.635 98.8118 210.61C98.8026 210.585 98.7871 210.565 98.7674 210.551C98.4888 210.329 97.3226 210.802 96.4918 211.221H96.5073Z" fill="black"/>
<path d="M96.2132 211.347C96.1946 211.353 96.175 211.353 96.1564 211.347C96.144 211.333 96.1346 211.317 96.1292 211.298C96.1238 211.279 96.1225 211.259 96.1254 211.239C96.1254 211.143 96.595 208.886 97.6734 209.03C97.9418 209.072 98.014 209.222 98.0295 209.347C98.0966 209.946 96.853 211.078 96.2596 211.365L96.2132 211.347ZM97.5651 209.21C96.884 209.21 96.4866 210.527 96.3525 211.054C96.9975 210.659 97.9005 209.719 97.8437 209.353C97.8437 209.323 97.8437 209.24 97.6425 209.216L97.5651 209.21Z" fill="black"/>
<path d="M106.296 53.3153L107.209 53.1597C107.209 53.1597 106.668 53.8841 106.296 53.3153Z" fill="#263238"/>
<path d="M138.045 103.405L118.066 108.194C117.724 108.269 117.371 108.185 117.082 107.961C116.792 107.738 116.59 107.392 116.518 106.997L115.584 101.968L115.249 100.112L115.837 97.9922C115.919 97.688 116.017 97.3901 116.131 97.1002C116.144 97.0541 116.161 97.01 116.182 96.9684C116.512 96.0962 116.956 95.2884 117.498 94.5736L118.53 94.3221L135.661 90.197C136.003 90.1225 136.356 90.2061 136.646 90.4298C136.935 90.6536 137.137 90.9998 137.209 91.3944L139.031 101.573C139.106 101.967 139.044 102.379 138.86 102.722C138.676 103.064 138.383 103.309 138.045 103.405Z" fill="#B2B7B9"/>
<path opacity="0.3" d="M137.055 90.8555L127.416 102.231L125.352 101.261L117.323 97.4833L116.193 96.9504C116.522 96.0782 116.966 95.2704 117.509 94.5556L118.541 94.3041L135.672 90.179C135.934 90.1182 136.206 90.1501 136.453 90.2708C136.699 90.3914 136.909 90.5951 137.055 90.8555Z" fill="black"/>
<path d="M137.055 90.8555L125.352 101.279L124.588 101.962L117.235 97.7288L116.141 97.1301C116.154 97.084 116.172 97.0399 116.193 96.9983C116.523 96.1261 116.966 95.3183 117.509 94.6035L118.541 94.352L135.672 90.2269C135.93 90.1612 136.199 90.1859 136.446 90.2978C136.692 90.4097 136.904 90.6038 137.055 90.8555Z" fill="#B2B7B9"/>
<path opacity="0.2" d="M137.055 90.8555L125.352 101.279L124.588 101.962L117.235 97.7288L116.141 97.1301C116.154 97.084 116.172 97.0399 116.193 96.9983C116.523 96.1261 116.966 95.3183 117.509 94.6035L118.541 94.352L135.672 90.2269C135.93 90.1612 136.199 90.1859 136.446 90.2978C136.692 90.4097 136.904 90.6038 137.055 90.8555Z" fill="white"/>
<path d="M162.437 124.402L156.348 132.017C156.108 132.314 155.776 132.489 155.425 132.504C155.075 132.518 154.733 132.372 154.475 132.095L139.542 115.96C139.285 115.682 139.133 115.297 139.121 114.889C139.108 114.482 139.236 114.085 139.475 113.787L145.584 106.171C145.703 106.022 145.845 105.901 146.004 105.816C146.163 105.731 146.335 105.684 146.509 105.677C146.684 105.67 146.858 105.703 147.022 105.774C147.186 105.846 147.335 105.954 147.463 106.093L162.39 122.228C162.584 122.437 162.719 122.708 162.779 123.007C162.839 123.306 162.82 123.618 162.726 123.905C162.661 124.093 162.563 124.262 162.437 124.402Z" fill="#B2B7B9"/>
<path opacity="0.3" d="M162.705 123.935L149.124 121.366L145.971 105.799C146.212 105.671 146.48 105.628 146.742 105.676C147.003 105.724 147.247 105.861 147.442 106.069L162.37 122.204C162.573 122.417 162.714 122.698 162.774 123.008C162.834 123.318 162.81 123.641 162.705 123.935Z" fill="black"/>
<path d="M162.705 123.934L149.48 119.36L145.971 105.853C146.212 105.725 146.48 105.682 146.742 105.729C147.003 105.777 147.247 105.914 147.442 106.123L162.37 122.258C162.563 122.467 162.698 122.738 162.758 123.037C162.818 123.335 162.799 123.648 162.705 123.934Z" fill="#B2B7B9"/>
<path opacity="0.2" d="M162.705 123.934L149.48 119.36L145.971 105.853C146.212 105.725 146.48 105.682 146.742 105.729C147.003 105.777 147.247 105.914 147.442 106.123L162.37 122.258C162.563 122.467 162.698 122.738 162.758 123.037C162.818 123.335 162.799 123.648 162.705 123.934Z" fill="white"/>
<path d="M167.746 136.945L174.454 146.033C174.583 146.207 174.679 146.409 174.737 146.628C174.796 146.846 174.815 147.076 174.794 147.304C174.774 147.531 174.713 147.752 174.617 147.951C174.52 148.15 174.389 148.325 174.233 148.464L159.661 161.636C159.416 161.807 159.125 161.866 158.844 161.802C158.564 161.737 158.314 161.554 158.144 161.288L152.896 154.343C152.797 154.21 152.716 154.06 152.653 153.9C152.556 153.68 152.515 153.432 152.536 153.185C152.557 152.939 152.639 152.705 152.772 152.511L165.672 136.879C165.874 136.626 166.14 136.454 166.431 136.389C166.723 136.325 167.025 136.37 167.292 136.519C167.466 136.626 167.62 136.771 167.746 136.945Z" fill="#B2B7B9"/>
<path opacity="0.3" d="M167.292 136.537L164.088 153.074L152.674 153.918C152.577 153.698 152.536 153.45 152.557 153.203C152.578 152.957 152.66 152.723 152.793 152.529L165.693 136.897C165.893 136.649 166.155 136.481 166.442 136.416C166.73 136.352 167.027 136.394 167.292 136.537Z" fill="black"/>
<path d="M167.292 136.538L161.921 154.086L152.664 153.919C152.566 153.698 152.526 153.45 152.547 153.204C152.568 152.957 152.65 152.723 152.782 152.53L165.682 136.897C165.883 136.647 166.147 136.477 166.437 136.412C166.726 136.348 167.026 136.392 167.292 136.538Z" fill="#B2B7B9"/>
<path opacity="0.2" d="M167.292 136.538L161.921 154.086L152.664 153.919C152.566 153.698 152.526 153.45 152.547 153.204C152.568 152.957 152.65 152.723 152.782 152.53L165.682 136.897C165.883 136.647 166.147 136.477 166.437 136.412C166.726 136.348 167.026 136.392 167.292 136.538Z" fill="white"/>
</svg>
