<svg width="444" height="427" viewBox="0 0 444 427" fill="none" xmlns="http://www.w3.org/2000/svg">
<path d="M222 427C344.607 427 444 368.582 444 296.52C444 224.458 344.607 166.04 222 166.04C99.3928 166.04 0 224.458 0 296.52C0 368.582 99.3928 427 222 427Z" fill="#F5F5F5" fill-opacity="0.19"/>
<path d="M97.6106 20.1726L89.629 24.8536C89.6752 24.499 89.6977 24.1416 89.6965 23.7839V21.4287C89.6965 17.2383 86.8046 15.5406 83.2572 17.6407C81.7183 18.5926 80.4023 19.8754 79.4014 21.3992C78.823 16.1392 74.7647 14.1765 69.8389 17.0715C64.5082 20.202 60.1993 27.8663 60.1993 34.0783V37.6013C60.1662 39.0045 60.4463 40.397 61.0187 41.6739L54.3963 45.5993C53.3554 46.289 52.4891 47.2191 51.8677 48.3138C51.2462 49.4085 50.8873 50.637 50.82 51.8995C50.82 54.2253 52.4202 55.1674 54.3963 54.0094L97.6106 28.5729C98.6515 27.8831 99.5178 26.9531 100.139 25.8584C100.761 24.7637 101.12 23.5351 101.187 22.2726C101.187 19.9469 99.5867 19.0048 97.6106 20.1726Z" fill="#EBEBEB"/>
<path d="M131.735 43.823L125.72 47.3559C125.75 47.0888 125.766 46.8201 125.768 46.5512V44.775C125.768 41.615 123.589 40.3393 120.9 41.9192C119.745 42.6395 118.758 43.6073 118.008 44.7553C117.565 40.8299 114.499 39.299 110.788 41.4874C108.668 42.8934 106.903 44.7884 105.637 47.0186C104.371 49.2488 103.639 51.7514 103.5 54.3235V56.9829C103.479 58.0407 103.69 59.09 104.117 60.0545L99.124 62.9986C98.3389 63.5207 97.6854 64.2236 97.2165 65.0504C96.7476 65.8773 96.4765 66.8048 96.4249 67.7581C96.4249 69.5147 97.6299 70.2213 99.124 69.3479L131.735 50.1822C132.52 49.6601 133.173 48.9572 133.642 48.1303C134.111 47.3035 134.382 46.3759 134.434 45.4227C134.434 43.6562 133.229 42.9497 131.735 43.823Z" fill="#EBEBEB"/>
<path d="M80.8859 341.505L90.8436 335.617C90.8436 335.617 93.2824 313.919 91.6533 297.119C89.3784 273.507 74.3984 245.107 56.5266 251.771C38.6548 258.434 64.7106 282.546 70.4944 302.555C76.2782 322.565 80.8859 341.505 80.8859 341.505Z" fill="#8FBFD7"/>
<path opacity="0.2" d="M80.8859 341.505L90.8436 335.617C90.8436 335.617 93.2824 313.919 91.6533 297.119C89.3784 273.507 74.3984 245.107 56.5266 251.771C38.6548 258.434 64.7106 282.546 70.4944 302.555C76.2782 322.565 80.8859 341.505 80.8859 341.505Z" fill="black"/>
<path d="M86.1202 339.042C86.0417 339.039 85.9645 339.021 85.8929 338.988C85.8214 338.955 85.7569 338.908 85.7032 338.85C85.6494 338.791 85.6076 338.723 85.5799 338.648C85.5522 338.573 85.5393 338.494 85.5418 338.414C87.2866 285.941 61.6356 259.553 61.3754 259.298C61.3079 259.244 61.2524 259.176 61.2125 259.099C61.1725 259.022 61.1491 258.937 61.1436 258.85C61.1382 258.763 61.1509 258.676 61.181 258.594C61.211 258.512 61.2577 258.438 61.3179 258.376C61.3781 258.314 61.4505 258.266 61.5304 258.234C61.6103 258.203 61.6958 258.189 61.7814 258.193C61.8669 258.198 61.9505 258.221 62.0268 258.261C62.103 258.3 62.1701 258.356 62.2236 258.424C62.4839 258.679 88.5108 285.46 86.7468 338.453C86.7443 338.534 86.7261 338.613 86.6931 338.687C86.6601 338.76 86.6131 338.826 86.5548 338.881C86.4965 338.936 86.428 338.978 86.3534 339.006C86.2788 339.034 86.1995 339.046 86.1202 339.042Z" fill="white"/>
<path d="M75.5745 345.695L82.6596 341.534C82.6596 341.534 83.8645 326.647 76.6927 308.551C70.4462 292.85 54.965 279.749 47.1762 282.487C39.3874 285.225 39.5706 290.858 43.3204 296.756C47.0702 302.653 70.2823 316.716 75.5745 345.695Z" fill="#8FBFD7"/>
<path d="M79.3146 344.115C79.1535 344.115 78.9991 344.05 78.8852 343.934C78.7713 343.818 78.7073 343.661 78.7073 343.497C78.8519 310.328 48.2558 287.904 47.9473 287.678C47.8384 287.578 47.7697 287.44 47.7542 287.291C47.7388 287.142 47.7777 286.993 47.8635 286.872C47.9494 286.75 48.0762 286.665 48.2197 286.633C48.3632 286.601 48.5133 286.623 48.6414 286.697C48.9499 286.922 80.0569 309.719 79.9123 343.527C79.9073 343.685 79.8421 343.834 79.7305 343.944C79.619 344.054 79.4698 344.115 79.3146 344.115Z" fill="white"/>
<path d="M266.757 299.582L205.063 335.892L204.919 335.813L181.446 322.006C179.404 320.67 177.782 318.765 176.773 316.517C175.765 314.269 175.413 311.773 175.759 309.327L184.434 263.282L246.128 226.972L237.452 273.017C237.106 275.463 237.458 277.959 238.467 280.207C239.475 282.455 241.097 284.36 243.14 285.696L266.757 299.582Z" fill="#37474F"/>
<path d="M184.463 263.282L175.826 308.924L237.539 272.663L245.521 230.446L241.626 229.651L184.463 263.282Z" fill="#263238"/>
<path d="M205.044 335.882L181.437 322.006C179.396 320.668 177.775 318.763 176.767 316.515C175.759 314.267 175.405 311.773 175.749 309.327L184.425 263.282L174.139 257.227L164.191 309.906C162.871 316.873 166.736 325.48 172.771 329.022L205.015 347.972L205.044 335.882Z" fill="#263238"/>
<path d="M266.757 299.582L205.044 335.882V347.982L266.757 311.682V299.582Z" fill="#455A64"/>
<path d="M327.13 1.20312C329.964 2.87141 332.267 7.0912 332.267 10.6731V203.469C332.164 205.405 331.613 207.29 330.66 208.97C329.707 210.649 328.379 212.076 326.782 213.135L90.7376 351.888C87.7108 353.664 82.9488 353.752 80.134 352.084C77.3193 350.416 74.9865 346.196 74.9865 342.614V149.818C75.0907 147.88 75.6415 145.995 76.5943 144.314C77.5472 142.633 78.8754 141.204 80.4714 140.142L316.497 1.39938C319.524 -0.386669 324.286 -0.474988 327.13 1.20312Z" fill="#455A64"/>
<path d="M90.082 352.221C87.0552 353.664 82.7463 353.634 80.0954 352.084C77.2517 350.416 74.9479 346.196 74.9479 342.614V149.818C75.0164 147.874 75.5704 145.979 76.5577 144.313L86.8817 150.368C85.8936 152.03 85.3395 153.922 85.2719 155.863V348.659C85.243 351.966 87.354 353.448 90.082 352.221Z" fill="#263238"/>
<path d="M332.267 203.469V10.7124C332.267 7.15008 329.819 5.7075 326.782 7.48374L90.7375 146.197C89.1412 147.256 87.8126 148.683 86.8595 150.363C85.9065 152.042 85.356 153.927 85.2526 155.863V348.659C85.2526 352.221 87.7107 353.664 90.7375 351.888L326.782 213.135C328.379 212.076 329.707 210.649 330.66 208.97C331.613 207.29 332.164 205.405 332.267 203.469Z" fill="#37474F"/>
<path d="M320.218 17.2874L94.7766 149.867C93.5 150.715 92.4377 151.857 91.6756 153.2C90.9136 154.544 90.4733 156.051 90.3905 157.6V328.777C90.3905 331.623 92.3185 332.781 94.7766 331.358L320.228 198.778C321.504 197.93 322.566 196.789 323.328 195.445C324.09 194.101 324.531 192.594 324.614 191.045V19.8683C324.614 17.0224 322.647 15.8644 320.218 17.2874Z" fill="#8FBFD7"/>
<path opacity="0.8" d="M320.218 17.2874L94.7766 149.867C93.5 150.715 92.4377 151.857 91.6756 153.2C90.9136 154.544 90.4733 156.051 90.3905 157.6V328.777C90.3905 331.623 92.3185 332.781 94.7766 331.358L320.228 198.778C321.504 197.93 322.566 196.789 323.328 195.445C324.09 194.101 324.531 192.594 324.614 191.045V19.8683C324.614 17.0224 322.647 15.8644 320.218 17.2874Z" fill="white"/>
<path d="M106.46 310.308C105.264 310.308 104.532 309.327 104.532 307.648V172.085L310.453 51.0654V186.06C310.372 187.498 309.961 188.897 309.253 190.145C308.545 191.392 307.559 192.454 306.375 193.243L108.147 309.768C107.64 310.094 107.059 310.28 106.46 310.308Z" fill="#F5F5F5"/>
<path d="M309.971 51.929V186.079C309.889 187.435 309.498 188.753 308.829 189.929C308.16 191.104 307.23 192.104 306.115 192.85L107.906 309.346C107.471 309.625 106.973 309.787 106.46 309.817C105.168 309.817 105.033 308.306 105.033 307.649V172.37L309.971 51.929ZM310.935 50.2312L104.069 171.82V307.649C104.069 309.611 105.033 310.799 106.46 310.799C107.144 310.774 107.81 310.564 108.388 310.19L306.607 193.685C307.867 192.85 308.915 191.724 309.667 190.399C310.419 189.074 310.854 187.588 310.935 186.06V50.2116V50.2312Z" fill="#E0E0E0"/>
<path d="M104.069 171.801V190.868L310.935 69.2792V50.2116L104.069 171.801Z" fill="#8FBFD7"/>
<path d="M233.866 102.959V107.061C233.866 107.895 234.454 108.239 235.168 107.827L298.789 70.4372V63.3126L235.168 100.702C234.795 100.951 234.483 101.284 234.257 101.675C234.031 102.067 233.898 102.506 233.866 102.959Z" fill="#FAFAFA"/>
<path d="M305.585 59.3087C306.298 58.8867 306.877 59.2302 306.877 60.0742V64.1762C306.851 64.6333 306.721 65.078 306.496 65.475C306.272 65.8719 305.96 66.2101 305.585 66.4627L298.77 70.4666V63.3126L305.585 59.3087Z" fill="#455A64"/>
<path d="M305.074 64.9318L304.322 64.6963C304.397 64.3747 304.436 64.0455 304.438 63.715C304.472 63.4025 304.427 63.0863 304.305 62.7973C304.183 62.5083 303.99 62.2564 303.744 62.0663C303.577 61.9632 303.385 61.9088 303.19 61.9088C302.994 61.9088 302.802 61.9632 302.635 62.0663C302.151 62.4429 301.762 62.931 301.499 63.4905C301.235 64.05 301.106 64.665 301.122 65.2851C301.088 65.599 301.133 65.9166 301.255 66.2071C301.377 66.4976 301.57 66.7513 301.816 66.9436C301.963 67.0284 302.129 67.0724 302.298 67.0712C302.519 67.0679 302.736 67.0034 302.924 66.8847C303.501 66.4805 303.932 65.8942 304.149 65.2164L304.91 65.4519H304.997C305.057 65.4507 305.116 65.4301 305.165 65.3931C305.213 65.3562 305.249 65.3046 305.267 65.2459C305.273 65.1792 305.258 65.1123 305.223 65.0555C305.188 64.9988 305.136 64.9553 305.074 64.9318ZM302.635 66.4235C302.554 66.4727 302.46 66.4987 302.365 66.4987C302.27 66.4987 302.177 66.4727 302.095 66.4235C301.941 66.2781 301.822 66.0971 301.75 65.8957C301.678 65.6942 301.654 65.4782 301.681 65.2655C301.673 64.7462 301.781 64.2317 301.996 63.7609C302.211 63.29 302.529 62.8751 302.924 62.5472C303.026 62.4817 303.142 62.4445 303.262 62.4392C303.328 62.4233 303.398 62.4233 303.464 62.4392C303.617 62.586 303.734 62.7672 303.806 62.9682C303.878 63.1693 303.903 63.3846 303.879 63.5972C303.9 64.1341 303.799 64.6688 303.584 65.1592C303.368 65.6496 303.043 66.0824 302.635 66.4235Z" fill="#FAFAFA"/>
<path d="M104.069 162.586C104.149 161.058 104.581 159.572 105.332 158.247C106.082 156.922 107.129 155.796 108.388 154.961L306.607 38.4551C308.997 37.0517 310.935 38.1901 310.935 40.9968V50.2116L104.069 171.801V162.586Z" fill="#37474F"/>
<path d="M286.595 54.9711C286.006 55.363 285.516 55.8905 285.164 56.5111C284.812 57.1317 284.609 57.8278 284.571 58.5432C284.571 59.8681 285.477 60.398 286.595 59.7405C287.188 59.35 287.682 58.8216 288.036 58.1989C288.389 57.5762 288.593 56.8769 288.629 56.1586C288.629 54.873 287.723 54.3136 286.595 54.9711Z" fill="#8FBFD7"/>
<path d="M293.699 50.8102C293.107 51.1998 292.614 51.7266 292.261 52.3475C291.907 52.9684 291.703 53.6657 291.665 54.3823C291.665 55.6974 292.571 56.2371 293.699 55.5796C294.29 55.1868 294.781 54.6577 295.133 54.0353C295.484 53.4129 295.687 52.7148 295.724 51.9977C295.724 50.6827 294.818 50.1527 293.699 50.8102Z" fill="#8FBFD7"/>
<path d="M300.794 46.6493C300.205 47.0412 299.715 47.5687 299.363 48.1893C299.011 48.8099 298.808 49.506 298.77 50.2214C298.77 51.5364 299.676 52.0762 300.794 51.4187C301.384 51.0253 301.875 50.4961 302.226 49.8738C302.578 49.2515 302.781 48.5537 302.818 47.8368C302.809 46.5218 301.912 46.0409 300.794 46.6493Z" fill="#8FBFD7"/>
<path d="M194.758 176.285L220.246 161.31C221.855 160.329 223.137 161.124 223.137 163.027V192.978C223.084 194.007 222.795 195.009 222.293 195.904C221.791 196.799 221.089 197.561 220.246 198.13L194.758 213.105C193.149 214.087 191.867 213.282 191.867 211.388V181.467C191.913 180.432 192.199 179.423 192.702 178.523C193.204 177.622 193.909 176.856 194.758 176.285Z" fill="#8FBFD7"/>
<path d="M201.757 213.596L217.18 204.548C218.337 203.861 219.262 204.352 219.262 205.618C219.21 206.331 218.995 207.022 218.633 207.636C218.272 208.249 217.774 208.768 217.18 209.151L201.757 218.199C200.6 218.876 199.665 218.395 199.665 217.129C199.716 216.414 199.932 215.722 200.295 215.108C200.659 214.494 201.16 213.976 201.757 213.596Z" fill="#455A64"/>
<path d="M207.28 175.186C209.989 173.596 212.177 174.882 212.177 178.062C212.086 179.79 211.595 181.473 210.744 182.972C209.893 184.471 208.706 185.744 207.28 186.688C204.581 188.277 202.393 186.992 202.393 183.812C202.485 182.085 202.975 180.403 203.824 178.905C204.673 177.406 205.857 176.132 207.28 175.186Z" fill="#FAFAFA"/>
<path d="M216.93 192.173C216.93 186.962 213.324 184.637 208.89 187.267L206.114 188.905C201.67 191.516 198.075 197.855 198.075 203.076V204.479L216.93 193.41V192.173Z" fill="#FAFAFA"/>
<path d="M241.771 148.631L267.248 133.656C268.868 132.674 270.14 133.469 270.14 135.373V165.324C270.089 166.353 269.8 167.356 269.298 168.251C268.795 169.146 268.093 169.908 267.248 170.476L241.771 185.451C240.161 186.432 238.879 185.628 238.879 183.734V153.783C238.931 152.754 239.219 151.751 239.722 150.856C240.224 149.961 240.926 149.199 241.771 148.631Z" fill="#8FBFD7"/>
<path opacity="0.2" d="M241.771 148.631L267.248 133.656C268.868 132.674 270.14 133.469 270.14 135.373V165.324C270.089 166.353 269.8 167.356 269.298 168.251C268.795 169.146 268.093 169.908 267.248 170.476L241.771 185.451C240.161 186.432 238.879 185.628 238.879 183.734V153.783C238.931 152.754 239.219 151.751 239.722 150.856C240.224 149.961 240.926 149.199 241.771 148.631Z" fill="black"/>
<path d="M248.769 185.942L264.193 176.894C265.34 176.217 266.275 176.697 266.275 177.963C266.224 178.677 266.009 179.369 265.648 179.983C265.286 180.596 264.787 181.115 264.193 181.496L248.769 190.544C247.612 191.221 246.677 190.741 246.677 189.475C246.728 188.76 246.944 188.067 247.308 187.453C247.671 186.839 248.172 186.321 248.769 185.942Z" fill="#455A64"/>
<path d="M254.293 147.532C257.001 145.942 259.19 147.228 259.19 150.407C259.099 152.136 258.608 153.819 257.757 155.318C256.906 156.817 255.719 158.09 254.293 159.033C251.594 160.623 249.405 159.337 249.405 156.158C249.498 154.43 249.988 152.749 250.837 151.251C251.686 149.752 252.87 148.478 254.293 147.532Z" fill="#FAFAFA"/>
<path d="M263.942 164.519C263.942 159.308 260.337 156.982 255.902 159.612L253.126 161.251C248.682 163.861 245.087 170.201 245.087 175.422V176.825L263.942 165.765V164.519Z" fill="#FAFAFA"/>
<path d="M147.794 203.871L173.281 188.896C174.891 187.914 176.173 188.719 176.173 190.613V220.564C176.122 221.593 175.834 222.596 175.332 223.491C174.829 224.386 174.127 225.148 173.281 225.716L147.794 240.691C146.185 241.673 144.902 240.878 144.902 238.974V209.023C144.956 207.994 145.245 206.992 145.747 206.097C146.249 205.202 146.95 204.44 147.794 203.871Z" fill="#8FBFD7"/>
<path opacity="0.5" d="M147.794 203.871L173.281 188.896C174.891 187.914 176.173 188.719 176.173 190.613V220.564C176.122 221.593 175.834 222.596 175.332 223.491C174.829 224.386 174.127 225.148 173.281 225.716L147.794 240.691C146.185 241.673 144.902 240.878 144.902 238.974V209.023C144.956 207.994 145.245 206.992 145.747 206.097C146.249 205.202 146.95 204.44 147.794 203.871Z" fill="white"/>
<path d="M154.793 241.182L170.216 232.134C171.373 231.457 172.298 231.938 172.298 233.204C172.248 233.917 172.033 234.609 171.671 235.223C171.309 235.836 170.811 236.355 170.216 236.736L154.793 245.784C153.636 246.462 152.701 245.981 152.701 244.715C152.752 244 152.968 243.307 153.331 242.693C153.695 242.079 154.196 241.562 154.793 241.182Z" fill="#455A64"/>
<path d="M160.316 202.772C163.025 201.182 165.213 202.477 165.213 205.647C165.122 207.377 164.631 209.061 163.78 210.562C162.929 212.062 161.742 213.337 160.316 214.283C157.617 215.863 155.429 214.577 155.429 211.398C155.521 209.671 156.012 207.989 156.861 206.491C157.71 204.992 158.894 203.718 160.316 202.772Z" fill="#FAFAFA"/>
<path d="M169.965 219.739C169.965 214.519 166.36 212.203 161.926 214.833L159.179 216.472C154.735 219.082 151.139 225.431 151.139 230.652V232.055L169.994 220.976L169.965 219.739Z" fill="#FAFAFA"/>
<path d="M392.149 141.85L381.911 135.834C371.587 129.946 357.436 130.78 341.753 139.995C327.081 148.601 313.701 162.968 303.618 179.592C291.955 198.729 284.619 220.888 284.619 240.75C284.619 259.278 290.991 272.271 301.295 278.365L311.639 284.4C322.049 291.152 336.702 290.553 353.089 280.975C384.649 262.418 410.232 217.306 410.232 180.211C410.194 160.859 403.253 147.581 392.149 141.85Z" fill="#8FBFD7"/>
<path opacity="0.1" d="M311.234 284.155L301.295 278.365C290.991 272.281 284.629 259.268 284.629 240.74C284.629 220.878 291.964 198.739 303.619 179.602L314.878 186.266C303.214 205.402 295.897 227.531 295.897 247.374C295.897 265.087 301.719 277.747 311.234 284.155Z" fill="black"/>
<path opacity="0.4" d="M391.734 141.604C381.555 136.58 367.972 137.856 353.06 146.609C338.369 155.255 324.989 169.632 314.878 186.266L303.618 179.602C313.711 162.919 327.101 148.611 341.762 140.005C357.436 130.78 371.597 129.907 381.931 135.834L391.734 141.604Z" fill="white"/>
<path d="M327.419 281.054C323.264 281.143 319.172 280.004 315.639 277.776L315.475 277.668L315.147 277.482C307.619 272.261 303.474 261.584 303.474 247.364C303.474 229.7 309.961 208.984 321.288 190.446C331.12 174.274 343.719 161.133 356.781 153.449C364.444 148.945 371.944 146.58 378.441 146.58C381.742 146.53 385.012 147.23 388.013 148.631L388.36 148.827L388.534 148.916C397.315 153.44 402.347 164.862 402.347 180.26C402.347 214.813 378.441 256.962 349.05 274.224C341.367 278.679 333.916 281.054 327.419 281.054Z" fill="#FAFAFA"/>
<mask id="mask0_455_5309" style="mask-type:luminance" maskUnits="userSpaceOnUse" x="303" y="146" width="100" height="136">
<path d="M327.419 281.054C323.264 281.143 319.172 280.004 315.639 277.776L315.475 277.668L315.147 277.482C307.619 272.261 303.474 261.584 303.474 247.364C303.474 229.7 309.961 208.984 321.288 190.446C331.12 174.274 343.719 161.133 356.781 153.449C364.444 148.945 371.944 146.58 378.441 146.58C381.742 146.53 385.012 147.23 388.013 148.631L388.36 148.827L388.534 148.916C397.315 153.44 402.347 164.862 402.347 180.26C402.347 214.813 378.441 256.962 349.05 274.224C341.367 278.679 333.916 281.054 327.419 281.054Z" fill="white"/>
</mask>
<g mask="url(#mask0_455_5309)">
<path d="M355.557 225.127C341.011 229.052 329.212 220.299 329.212 205.5V196.01C329.212 183.459 339.208 170.564 351.537 167.198L359.567 165.01C371.896 161.644 381.892 169.092 381.892 181.643V191.133C381.853 205.932 370.103 221.153 355.557 225.127Z" fill="#263238"/>
<path d="M391.368 262.536L402.993 299.582L388.457 307.688L379.742 272.84L391.368 262.536Z" fill="#FFA8A7"/>
<path d="M365.919 230.809C373.631 228.846 382.181 229.828 385.112 236.108C388.042 242.389 394.452 264.95 394.452 264.95C390.464 270.421 384.626 274.194 378.065 275.539L365.919 230.809Z" fill="#8FBFD7"/>
<path opacity="0.3" d="M365.919 230.809C373.631 228.846 382.181 229.828 385.112 236.108C388.042 242.389 394.452 264.95 394.452 264.95C390.464 270.421 384.626 274.194 378.065 275.539L365.919 230.809Z" fill="black"/>
<path d="M349.898 235.5L343.459 237.57C336.451 241.496 333.925 247.796 330.985 255.912C328.84 261.674 328.643 268.001 330.426 273.89L338.63 299.552C338.63 299.552 334.774 311.505 330.33 323.036C350.91 330.887 376.6 316.814 382.798 305.274C383.068 303.105 382.711 293.782 383.203 282.928C383.743 271.348 385.073 258.081 383.55 251.427C380.706 239.092 375.395 228.228 364.811 231.113L349.898 235.5Z" fill="#F5F5F5"/>
<path d="M343.459 237.57C336.441 240.652 326.108 245.127 322.57 265.725C318.965 286.599 318.271 291.525 318.271 291.525C318.271 291.525 324.411 297.05 336.065 293.802C336.065 293.802 346.341 251.947 343.459 237.57Z" fill="#8FBFD7"/>
<path opacity="0.3" d="M343.459 237.57C336.441 240.652 326.108 245.127 322.57 265.725C318.965 286.599 318.271 291.525 318.271 291.525C318.271 291.525 324.411 297.05 336.065 293.802C336.065 293.802 346.341 251.947 343.459 237.57Z" fill="black"/>
<path d="M332.518 265.352C340.76 263.105 347.45 254.479 347.45 246.089V219.102C339.198 221.359 332.518 229.985 332.518 238.375V265.352Z" fill="#263238"/>
<path d="M336.374 292.506C337.675 286.942 339.044 280.612 340.336 273.861C340.336 273.861 340.278 287.815 338.254 298.394L336.374 292.506Z" fill="#E0E0E0"/>
<path d="M373.245 173.793C376.022 174.96 379.463 182.252 379.126 199.592C378.836 214.313 374.807 218.994 372.783 220.583C370.758 222.173 366.854 222.605 363.066 222.899V231.673C363.066 231.673 368.31 237.404 367.972 241.486C367.635 245.568 360.405 248.522 355.499 245.932C352.259 244.038 349.502 241.396 347.45 238.218V217.041C347.45 217.041 344.886 221.761 340.702 219.631C336.518 217.502 336.355 209.455 338.774 205.893C341.194 202.33 346.486 201.81 347.45 205.559C347.45 205.559 353.494 204.175 361.553 196.727C368.016 190.75 372.164 182.614 373.245 173.793Z" fill="#FFA8A7"/>
<path d="M365.244 199.7C365.267 200.207 365.137 200.709 364.871 201.139C364.606 201.568 364.218 201.905 363.76 202.105C362.902 202.379 362.16 201.771 362.121 200.731C362.097 200.225 362.225 199.723 362.489 199.293C362.752 198.863 363.139 198.526 363.596 198.326C364.502 198.052 365.196 198.66 365.244 199.7Z" fill="#263238"/>
<path d="M365.659 211.977L369.293 212.35C369.204 212.933 368.92 213.468 368.491 213.864C368.061 214.261 367.51 214.495 366.931 214.528C365.929 214.42 365.36 213.282 365.659 211.977Z" fill="#F28F8F"/>
<path d="M378.065 190.564L374.894 188.847C375.472 187.63 376.648 187.021 377.525 187.502C378.403 187.983 378.634 189.318 378.065 190.564Z" fill="#263238"/>
<path d="M377.333 195.078C377.357 195.584 377.228 196.086 376.962 196.514C376.696 196.943 376.307 197.277 375.848 197.473C374.99 197.757 374.257 197.139 374.209 196.099C374.185 195.594 374.314 195.094 374.578 194.666C374.841 194.238 375.227 193.902 375.684 193.704C376.552 193.42 377.284 194.038 377.333 195.078Z" fill="#263238"/>
<path d="M369.958 196.04L370.209 207.031L375.154 203.881L369.958 196.04Z" fill="#F28F8F"/>
<path d="M363.066 222.899C359.065 223.37 350.843 222.84 349.57 219.366C350.022 221.039 351.048 222.491 352.462 223.459C354.92 225.264 363.066 225.824 363.066 225.824V222.899Z" fill="#F28F8F"/>
</g>
<path d="M339.015 263.036L331.14 258.404H331.053C327.139 256.147 321.77 256.442 315.822 259.975C310.26 263.243 305.219 268.689 301.363 274.989C296.948 282.251 294.162 290.691 294.162 298.188C294.162 305.205 296.582 310.141 300.486 312.447L308.487 317.099C312.429 319.66 318.001 319.434 324.189 315.794C336.152 308.757 345.859 291.653 345.859 277.59C345.859 270.249 343.228 265.205 339.015 263.036Z" fill="#37474F"/>
<path d="M308.323 316.991L300.486 312.437C296.572 310.131 294.162 305.195 294.162 298.169C294.162 290.642 296.938 282.241 301.363 274.989L309.73 279.896C305.305 287.158 302.529 295.539 302.529 303.066C302.51 309.758 304.737 314.567 308.323 316.991Z" fill="#263238"/>
<path d="M338.851 262.919C334.995 261.015 329.848 261.496 324.189 264.822C318.531 268.149 313.586 273.547 309.73 279.857L301.363 274.95C305.219 268.64 310.27 263.174 315.822 259.935C321.77 256.442 327.139 256.108 331.053 258.355H331.14L338.851 262.919Z" fill="#455A64"/>
<path d="M333.588 281.829L326.368 286.078V274.302C326.368 272.408 325.404 271.456 324.189 272.163C322.975 272.87 322.011 274.97 322.011 276.864V288.64L314.781 292.889C314.183 293.372 313.703 293.989 313.377 294.692C313.051 295.395 312.888 296.165 312.901 296.942C312.901 298.571 313.75 299.395 314.781 298.777L322.011 294.538V306.314C322.011 308.208 322.975 309.16 324.189 308.453C325.404 307.747 326.368 305.637 326.368 303.753V291.976L333.588 287.727C334.188 287.245 334.669 286.629 334.995 285.925C335.321 285.222 335.483 284.452 335.468 283.674C335.468 282.045 334.619 281.221 333.588 281.829Z" fill="#F5F5F5"/>
</svg>
