<svg width="30" height="30" viewBox="0 0 30 30" fill="none" xmlns="http://www.w3.org/2000/svg">
<path d="M24.5225 26.5625C24.5225 22.06 19.5025 18.4 15 18.4C10.4975 18.4 5.4775 22.06 5.4775 26.5625M15 14.32C16.4431 14.32 17.8271 13.7467 18.8475 12.7263C19.868 11.7059 20.4413 10.3219 20.4413 8.87875C20.4413 7.43564 19.868 6.05164 18.8475 5.03121C17.8271 4.01077 16.4431 3.4375 15 3.4375C13.5569 3.4375 12.1729 4.01077 11.1525 5.03121C10.132 6.05164 9.55875 7.43564 9.55875 8.87875C9.55875 10.3219 10.132 11.7059 11.1525 12.7263C12.1729 13.7467 13.5569 14.32 15 14.32Z" stroke="white" stroke-width="1.5" stroke-linecap="round" stroke-linejoin="round"/>
</svg>
