<svg width="30" height="30" viewBox="0 0 30 30" fill="none" xmlns="http://www.w3.org/2000/svg">
<path d="M2.5 20C2.5 16.465 2.5 14.6962 3.59875 13.5987C4.69625 12.5 6.465 12.5 10 12.5H20C23.535 12.5 25.3038 12.5 26.4013 13.5987C27.5 14.6962 27.5 16.465 27.5 20C27.5 23.535 27.5 25.3038 26.4013 26.4013C25.3038 27.5 23.535 27.5 20 27.5H10C6.465 27.5 4.69625 27.5 3.59875 26.4013C2.5 25.3038 2.5 23.535 2.5 20Z" stroke="white" stroke-width="1.5"/>
<path d="M7.5 12.5V10C7.5 8.01088 8.29018 6.10322 9.6967 4.6967C11.1032 3.29018 13.0109 2.5 15 2.5C16.9891 2.5 18.8968 3.29018 20.3033 4.6967C21.7098 6.10322 22.5 8.01088 22.5 10V12.5" stroke="white" stroke-width="1.5" stroke-linecap="round"/>
<path d="M10 20H10.0112M14.9888 20H15M19.9888 20H20" stroke="white" stroke-width="2" stroke-linecap="round" stroke-linejoin="round"/>
</svg>
