<?xml version="1.0" standalone="no"?>
<!DOCTYPE svg PUBLIC "-//W3C//DTD SVG 20010904//EN"
 "http://www.w3.org/TR/2001/REC-SVG-20010904/DTD/svg10.dtd">
<svg version="1.0" xmlns="http://www.w3.org/2000/svg"
 width="1640.000000pt" height="924.000000pt" viewBox="0 0 1640.000000 924.000000"
 preserveAspectRatio="xMidYMid meet">

<g transform="translate(0.000000,924.000000) scale(0.100000,-0.100000)"
fill="#000000" stroke="none">
<path d="M8652 7658 c-7 -7 -47 -15 -90 -18 -68 -5 -92 -13 -197 -64 -66 -32
-114 -61 -107 -63 7 -3 61 19 120 48 93 45 117 53 182 57 49 3 81 10 93 20 14
12 36 16 85 14 37 -1 74 3 82 8 10 7 -12 10 -70 10 -55 0 -90 -4 -98 -12z"/>
<path d="M8990 7660 c0 -6 35 -10 84 -10 58 0 87 -4 95 -14 7 -8 40 -15 86
-18 66 -4 88 -12 187 -61 61 -31 114 -54 117 -52 8 9 -12 22 -119 76 -95 48
-113 54 -182 57 -50 3 -81 9 -89 18 -14 17 -179 20 -179 4z"/>
<path d="M8751 7580 c-123 -14 -161 -21 -161 -30 0 -4 16 -22 35 -39 34 -30
39 -31 125 -31 l90 0 0 -63 c0 -59 -2 -65 -25 -75 -38 -18 -55 -15 -55 9 0 12
8 23 20 26 14 4 20 14 20 34 l0 29 -78 0 -78 0 -63 70 c-35 39 -71 70 -81 70
-9 0 -70 -28 -136 -61 -65 -34 -186 -95 -268 -136 l-149 -75 -49 23 c-26 12
-48 28 -48 34 0 22 -29 38 -55 31 -16 -4 -25 -13 -25 -25 0 -21 19 -31 56 -31
14 0 38 -10 54 -22 l30 -22 -48 -34 c-79 -57 -81 -57 -145 -21 -31 18 -58 40
-60 48 -3 10 -5 8 -6 -6 -1 -16 13 -31 49 -55 28 -18 50 -35 50 -38 0 -3 -21
-22 -47 -42 -107 -82 -281 -274 -299 -331 -5 -15 31 -56 182 -206 l189 -186
-5 -507 -5 -507 -58 -52 -58 -51 141 -94 140 -94 80 0 c87 0 73 6 459 -198
l93 -50 -33 -35 c-23 -24 -80 -57 -175 -101 l-140 -66 -126 0 c-106 0 -231
-13 -325 -35 -24 -6 -27 0 -102 223 l-42 123 22 62 c13 34 24 64 27 67 2 3 52
7 110 10 l107 5 -123 83 c-67 46 -127 82 -131 80 -5 -2 -43 -36 -85 -75 -42
-40 -81 -73 -86 -73 -20 0 3 24 143 155 76 71 142 137 147 145 5 9 9 233 10
497 l1 480 -189 181 -189 181 -16 -37 c-25 -56 -64 -206 -81 -307 -16 -90 -13
-104 20 -105 18 0 36 -27 43 -63 5 -24 13 -33 31 -35 41 -6 60 -31 60 -79 0
-43 0 -43 35 -43 l36 0 -3 -105 c-4 -129 -21 -140 -28 -18 l-5 88 -37 3 -38 3
0 50 c0 46 -2 49 -25 49 l-25 0 0 -153 0 -152 80 -80 80 -80 0 -85 c0 -93 4
-103 58 -139 17 -12 32 -29 32 -37 0 -26 -29 -14 -69 29 l-40 42 -1 88 0 88
-85 80 -85 81 -2 156 c-2 101 -7 157 -14 159 -7 2 -13 -61 -17 -205 -4 -115
-10 -222 -13 -240 -7 -35 3 -48 104 -124 l62 -48 0 -400 0 -399 48 -32 c72
-48 72 -49 72 -180 l0 -117 68 -38 c56 -31 168 -99 181 -110 1 -1 0 -7 -4 -13
-8 -13 -19 -7 -135 67 -127 82 -130 85 -130 152 0 32 -3 84 -6 118 -6 55 -9
62 -36 73 -16 6 -40 20 -53 31 -25 19 -25 22 -25 166 0 81 -3 265 -7 408 l-6
262 -66 49 c-36 28 -76 57 -88 64 -13 8 -23 19 -23 26 0 7 -9 13 -20 13 -31 0
-23 -26 15 -49 30 -18 35 -25 34 -58 -1 -48 -13 -81 -23 -65 -9 15 -26 16 -26
1 0 -6 10 -13 21 -16 21 -6 21 -10 17 -100 l-5 -94 46 -57 c89 -108 94 -118
88 -175 -32 -286 -50 -433 -68 -551 -11 -76 -18 -149 -15 -160 3 -12 23 -35
45 -51 43 -32 66 -65 59 -86 -6 -19 -184 148 -180 170 1 10 -4 23 -11 30 -11
9 -17 8 -28 -6 -11 -13 -11 -17 -1 -20 6 -3 10 -9 7 -13 -3 -5 44 -53 104
-106 105 -94 109 -99 114 -146 7 -54 38 -114 65 -122 33 -11 102 -14 102 -5 0
12 61 11 79 0 17 -11 7 -41 -14 -41 -9 0 -25 5 -37 11 -19 10 -18 9 3 -20 24
-33 42 -37 83 -22 22 9 25 7 31 -21 10 -43 59 -150 89 -195 l26 -38 0 -285 0
-285 80 -90 c106 -118 115 -125 161 -125 34 0 42 -5 81 -54 24 -30 46 -55 51
-55 4 -1 7 20 7 46 0 40 -6 54 -39 93 -34 40 -40 55 -43 101 -3 46 -6 54 -22
51 -10 -2 -25 -1 -33 2 -13 6 -13 9 1 31 16 24 15 26 -19 64 l-35 38 0 156 0
156 -40 46 c-44 51 -67 90 -70 120 -1 11 -2 84 -1 162 l1 142 77 -35 c43 -20
81 -41 85 -47 4 -7 29 -77 55 -155 45 -134 50 -145 80 -157 35 -15 38 -25 49
-155 8 -104 29 -243 41 -264 4 -8 51 -49 103 -91 138 -111 130 -96 129 -244
-1 -69 -4 -151 -9 -181 -5 -39 -8 -3 -9 127 l-1 183 -207 172 c-114 95 -214
178 -223 185 -11 8 -15 31 -15 84 0 49 -4 74 -12 76 -10 4 -13 -28 -13 -135 0
-154 -6 -135 82 -245 15 -18 23 -43 25 -75 1 -26 2 -50 2 -54 1 -4 18 -27 40
-51 l38 -45 7 -141 c3 -78 9 -204 12 -281 4 -77 10 -140 14 -140 14 0 30 53
30 101 0 58 20 190 30 202 10 12 109 -81 142 -132 l28 -45 1 -460 c1 -431 7
-592 21 -556 4 8 9 175 12 370 3 195 10 375 16 400 33 139 39 144 91 80 18
-22 36 -40 41 -40 4 0 8 155 8 345 l0 345 -25 62 c-14 34 -28 87 -32 118 l-6
55 -12 -50 c-11 -48 -43 -115 -55 -115 -3 0 -14 14 -23 30 -52 88 -32 290 29
290 26 0 43 -32 50 -93 l7 -62 13 49 c25 95 76 132 110 80 21 -32 29 -160 17
-274 -7 -64 -11 -76 -30 -85 l-23 -10 0 -367 c0 -357 1 -368 20 -378 15 -8 31
-7 60 1 l40 12 0 377 c0 369 0 378 -22 426 -19 42 -23 66 -23 165 0 128 8 149
54 149 16 0 37 -10 51 -25 l23 -24 34 29 c38 34 55 37 77 15 22 -23 29 -75 24
-180 -4 -76 -10 -101 -32 -140 l-26 -48 0 -373 0 -373 44 -6 c64 -10 80 -1
126 70 43 69 75 85 85 43 3 -13 12 -52 20 -88 10 -44 15 -122 15 -246 0 -323
12 -604 25 -604 9 0 14 132 19 542 6 421 11 548 21 568 7 14 41 52 74 85 l61
59 0 136 c0 116 3 139 19 165 35 54 67 88 80 84 9 -3 0 -21 -28 -53 l-42 -48
4 -122 c2 -85 10 -143 25 -196 20 -70 22 -97 22 -397 0 -263 2 -323 13 -323
11 0 15 75 22 392 4 216 7 447 6 513 l-2 120 40 49 c38 45 41 52 41 111 0 63
0 64 44 100 24 20 48 44 52 53 9 21 16 261 8 282 -5 13 -7 12 -18 -3 -9 -12
-11 -30 -6 -59 5 -23 5 -51 0 -62 -6 -18 -60 -69 -145 -139 -11 -9 -81 -67
-155 -129 l-135 -113 -3 -98 c-4 -128 -22 -127 -22 2 l0 99 108 91 c60 49 114
97 121 105 7 8 21 94 32 193 24 227 22 219 63 233 31 10 37 18 51 68 10 31 31
100 48 152 l32 94 75 38 c41 20 78 37 83 37 4 1 7 -69 7 -155 0 -173 -1 -176
-77 -270 l-33 -41 0 -153 0 -154 -40 -47 c-27 -32 -36 -49 -27 -53 9 -5 9 -7
0 -12 -7 -3 -10 -11 -7 -19 4 -10 0 -12 -15 -8 -19 5 -21 1 -21 -49 0 -55 -10
-77 -56 -123 -19 -20 -24 -34 -24 -77 l1 -53 52 58 c45 50 57 57 88 57 45 0
67 17 164 126 l75 84 0 295 c0 168 4 296 9 299 16 10 78 129 96 184 l17 52 49
0 c58 0 63 14 12 35 -47 20 -33 36 36 43 51 5 62 -3 39 -28 -7 -7 -2 -6 12 3
13 10 34 17 47 17 62 0 100 44 110 130 6 48 9 52 120 151 74 66 112 107 108
116 -3 8 -5 17 -5 19 0 2 -9 4 -21 4 -16 0 -20 -5 -17 -25 2 -19 -14 -40 -87
-107 -84 -77 -90 -81 -94 -58 -2 20 8 35 50 71 l52 47 -6 78 c-4 44 -18 169
-32 279 -13 110 -30 250 -36 311 l-12 111 28 39 c16 21 47 61 69 87 l39 48 -6
95 c-5 88 -4 94 14 94 25 0 24 17 -1 25 -16 5 -20 15 -20 55 0 45 3 51 30 65
18 9 30 23 30 35 0 23 -25 27 -33 6 -3 -7 -46 -44 -96 -81 l-91 -67 -2 -406
-3 -407 -52 -35 -52 -35 -1 -109 0 -109 -38 -36 c-22 -20 -81 -62 -133 -94
-79 -49 -95 -55 -98 -40 -2 9 1 19 5 20 5 2 60 33 122 70 l112 66 0 108 c0 59
4 119 9 133 6 13 30 36 54 51 25 14 48 36 51 48 3 12 6 97 6 189 0 156 -1 168
-20 178 -11 6 -52 42 -92 80 -40 38 -78 70 -85 70 -14 0 -243 -152 -243 -162
0 -5 44 -8 99 -8 67 0 102 -4 108 -12 6 -7 20 -39 32 -72 l22 -59 -45 -126
c-25 -69 -51 -145 -58 -168 -11 -38 -16 -43 -43 -43 -16 0 -48 5 -70 11 -22 5
-121 14 -220 18 l-180 7 -139 70 c-92 45 -147 79 -160 98 l-21 28 24 17 c13 9
114 64 225 123 l201 107 84 1 84 0 139 92 c76 51 138 95 138 98 0 3 -27 32
-60 65 l-60 59 0 499 0 498 148 143 c81 78 169 162 196 188 l50 45 -49 69
c-53 75 -218 243 -278 284 -20 14 -37 27 -37 30 0 3 21 18 48 35 51 32 62 43
62 64 0 9 -8 5 -24 -10 -13 -13 -44 -35 -68 -48 l-45 -24 -66 45 -67 45 30 21
c17 13 44 22 65 22 30 0 35 3 35 24 0 50 -52 60 -69 13 -5 -13 -27 -31 -50
-41 -39 -18 -42 -18 -88 -1 -56 21 -463 222 -477 236 -23 22 -54 6 -121 -61
l-69 -70 -78 0 -78 0 0 -29 c0 -23 5 -30 23 -33 16 -2 22 -10 22 -28 0 -34
-24 -36 -58 -4 -25 23 -28 32 -25 77 l3 52 91 3 c90 3 91 3 128 41 l37 38 -58
11 c-79 16 -331 23 -422 12z m898 -477 c30 -36 31 -41 31 -134 l0 -96 120
-114 120 -114 0 -196 0 -197 -110 -108 c-115 -113 -130 -125 -130 -102 0 7 47
58 105 113 l105 100 0 190 0 190 -115 115 -115 115 0 97 c0 89 -2 99 -26 127
l-26 31 -638 0 c-630 0 -639 0 -645 -20 -3 -11 -13 -20 -22 -20 -8 0 -17 9
-20 20 -8 30 -63 27 -94 -6 -21 -23 -25 -37 -29 -126 l-5 -100 -117 -117 -118
-117 0 -184 0 -184 105 -103 c58 -56 105 -109 105 -117 0 -24 -19 -9 -122 98
l-97 101 -2 204 -1 203 110 112 110 111 4 90 c3 86 5 93 36 133 l34 42 708 0
709 0 30 -37z m-119 -13 c0 -5 -4 -10 -10 -10 -5 0 -10 5 -10 10 0 6 5 10 10
10 6 0 10 -4 10 -10z m6 -43 c20 -24 24 -39 24 -94 l0 -66 145 -139 145 -140
0 -170 0 -170 -125 -120 -125 -120 0 -75 c0 -50 -5 -84 -17 -106 -9 -18 -22
-56 -28 -85 -6 -29 -15 -53 -20 -53 -21 1 -15 52 14 116 25 55 31 81 31 139
l0 71 125 120 125 120 0 160 0 160 -147 141 -147 141 -4 74 c-2 41 -9 80 -14
87 -8 9 -142 12 -608 12 -515 0 -599 -2 -610 -15 -7 -8 -13 -45 -14 -83 l-2
-69 -89 -84 c-50 -47 -116 -109 -147 -138 l-58 -54 0 -164 0 -164 125 -123
125 -122 0 -71 c0 -54 6 -83 25 -124 31 -69 44 -144 24 -137 -8 3 -19 27 -25
54 -6 27 -19 65 -29 84 -13 24 -19 59 -20 114 l-2 79 -121 118 -122 118 0 175
0 175 145 138 145 138 0 58 c0 32 5 67 11 78 25 48 35 49 657 46 l584 -2 24
-28z m-188 -199 c53 -51 102 -100 109 -108 9 -11 12 -101 13 -374 l0 -360 -27
-28 c-15 -15 -21 -28 -15 -28 8 0 12 -23 12 -70 0 -51 6 -82 20 -110 26 -51
25 -73 -3 -106 -33 -37 -81 -37 -114 0 -12 15 -23 36 -23 46 0 35 23 70 49 76
52 11 51 10 48 90 -2 73 -3 77 -26 81 -53 8 -80 57 -56 102 8 16 22 31 30 35
25 9 63 7 70 -4 3 -5 11 -10 16 -10 7 0 8 31 4 88 -3 48 -8 193 -11 323 l-5
236 -93 91 -93 92 -344 0 -344 -1 -90 -84 -90 -84 -7 -248 c-4 -136 -10 -283
-13 -326 l-7 -77 40 6 c48 8 75 -6 92 -46 15 -37 -3 -70 -48 -89 -27 -12 -30
-18 -37 -77 -7 -69 2 -94 34 -94 28 0 61 -38 61 -71 0 -63 -86 -103 -130 -59
-31 31 -36 67 -13 99 28 37 27 192 -1 234 -18 26 -18 47 -12 385 l7 357 104
103 105 102 346 0 347 0 95 -92z m-1 -90 l33 -32 0 -212 c0 -131 -4 -215 -10
-219 -7 -4 -10 68 -10 208 0 197 -2 217 -19 238 l-19 24 -394 3 c-216 1 -403
0 -415 -3 -51 -12 -53 -21 -53 -250 0 -132 -4 -216 -10 -220 -7 -4 -10 70 -10
215 l0 222 29 29 29 29 408 0 408 0 33 -32z m-527 -54 c0 -11 -22 -14 -117
-14 -65 0 -125 -4 -133 -9 -12 -8 -15 -71 -17 -387 l-3 -377 70 -72 70 -73 0
-171 c0 -130 3 -170 12 -168 7 1 14 -8 16 -20 2 -13 -2 -23 -8 -23 -7 0 -20
10 -31 23 -16 19 -18 41 -19 187 l0 166 -71 69 -71 70 1 150 c0 83 -2 255 -5
382 -5 242 -2 267 36 281 10 4 75 6 144 4 102 -3 126 -6 126 -18z m465 -4 c17
-19 18 -42 11 -412 l-7 -393 -69 -66 -69 -66 2 -156 c1 -112 -1 -159 -10 -168
-7 -7 -14 -11 -16 -8 -1 2 0 84 3 182 l5 177 61 55 61 54 7 113 c4 62 7 118 6
123 0 6 -2 129 -5 274 -2 145 -7 266 -10 270 -4 3 -61 7 -128 9 -131 3 -152 6
-142 22 4 6 62 10 144 10 125 0 140 -2 156 -20z m459 -71 l26 -20 0 -162 0
-162 -79 -79 c-71 -71 -110 -91 -94 -50 3 8 8 13 11 10 2 -3 36 24 73 61 l69
67 0 157 c0 154 0 157 -22 163 -35 9 -87 7 -108 -4 -14 -7 -23 -6 -35 6 -24
24 -3 34 71 34 47 0 67 -5 88 -21z m-1506 -6 c-4 -18 -10 -19 -78 -7 -19 3
-47 1 -62 -5 l-28 -11 0 -153 0 -154 69 -66 c38 -37 74 -67 80 -67 6 0 11 -7
11 -15 0 -32 -34 -12 -105 63 l-75 77 0 159 c0 198 -1 196 112 196 70 0 79 -2
76 -17z m642 -18 c0 -12 -15 -15 -74 -15 -69 0 -95 8 -79 24 3 3 39 6 80 6 58
0 73 -3 73 -15z m40 -1 c0 -8 -5 -12 -10 -9 -6 4 -8 11 -5 16 9 14 15 11 15
-7z m175 1 c0 -6 -34 -11 -77 -13 -72 -3 -90 3 -71 22 11 11 148 2 148 -9z
m-115 -105 c0 -6 -41 -10 -103 -10 -66 0 -107 -4 -115 -12 -15 -15 -26 -4 -19
17 5 12 27 15 122 15 70 0 115 -4 115 -10z m187 -5 c8 -22 -7 -33 -17 -14 -7
13 -21 15 -61 11 -37 -3 -50 -2 -45 7 11 18 115 14 123 -4z m-434 -65 c22 0
37 -3 33 -7 -12 -13 -120 -20 -146 -10 -24 9 -24 10 -5 18 11 4 33 6 49 4 16
-3 47 -5 69 -5z m512 0 c4 -6 -6 -10 -23 -10 -17 0 -32 -6 -36 -15 -7 -18 -27
-20 -23 -2 1 8 -15 12 -53 13 -72 2 -80 4 -50 14 37 12 178 12 185 0z m-265
-20 c0 -5 -22 -10 -49 -10 -27 0 -63 -3 -80 -6 -24 -5 -31 -3 -31 10 0 13 13
16 80 16 47 0 80 -4 80 -10z m200 -211 c0 -37 -4 -58 -10 -54 -5 3 -10 26 -10
50 l0 44 -127 3 c-71 2 -183 2 -250 0 l-123 -3 0 -165 0 -164 37 -41 38 -42 0
-93 c0 -57 -4 -93 -10 -91 -6 1 -10 39 -10 88 0 86 0 87 -38 128 l-37 41 0
180 0 180 270 0 270 0 0 -61z m66 -16 c-10 -10 -19 5 -10 18 6 11 8 11 12 0 2
-7 1 -15 -2 -18z m-656 13 c0 -11 -19 -15 -25 -6 -3 5 1 10 9 10 9 0 16 -2 16
-4z m240 -21 c0 -5 -25 -11 -55 -13 -45 -2 -55 0 -55 13 0 13 10 15 55 13 30
-2 55 -7 55 -13z m268 -2 c3 -10 -13 -13 -57 -13 -48 0 -61 3 -61 15 0 13 11
15 57 13 34 -2 58 -8 61 -15z m82 -169 l0 -107 -40 -43 -40 -44 0 -89 c0 -49
-4 -92 -9 -96 -15 -9 -24 61 -18 132 6 57 11 70 47 110 l40 46 0 98 c0 59 4
99 10 99 6 0 10 -42 10 -106z m-350 56 c0 -17 -7 -20 -49 -20 -49 0 -68 10
-56 30 3 6 28 10 56 10 42 0 49 -3 49 -20z m265 0 c0 -11 -14 -16 -57 -18 -53
-3 -58 -1 -58 18 0 19 5 21 58 18 43 -2 57 -7 57 -18z m825 -72 c0 -5 -34 -41
-75 -80 l-75 -70 0 -91 0 -92 -80 -84 c-44 -47 -83 -82 -86 -79 -10 11 13 41
80 107 l66 64 0 89 0 89 63 68 c34 38 68 76 75 85 13 17 32 13 32 -6z m-1981
-10 c5 -13 36 -49 70 -82 l61 -58 0 -91 0 -92 72 -72 c40 -40 69 -75 66 -79
-11 -10 -44 14 -102 76 l-56 61 0 93 0 93 -67 65 c-38 36 -74 67 -82 70 -19 6
-7 38 14 38 8 0 19 -10 24 -22z m813 -30 c3 -27 8 -33 35 -39 60 -12 66 -24
60 -119 -3 -47 -2 -96 2 -110 6 -23 12 -25 61 -25 l55 0 3 110 c3 122 12 142
66 147 27 3 31 7 34 36 5 48 24 39 20 -10 -3 -42 -4 -43 -43 -48 l-40 -5 -3
-115 c-3 -140 -9 -150 -92 -150 -86 0 -89 5 -92 145 l-3 120 -40 5 c-39 5 -40
6 -43 48 -4 49 15 58 20 10z m-1242 -118 c0 -13 -7 -20 -20 -20 -19 0 -27 20
-13 33 13 14 33 6 33 -13z m1131 -514 c25 -22 31 -22 268 -21 310 2 289 -12
293 193 2 105 6 147 16 150 9 3 12 -30 12 -142 l0 -146 -34 -38 -35 -37 -120
3 -120 2 2 -47 c3 -90 -3 -194 -12 -189 -5 3 -7 45 -4 93 3 75 1 91 -14 109
-33 38 -61 47 -87 30 -18 -11 -37 -13 -92 -6 -59 7 -73 13 -96 39 -28 31 -28
32 -28 174 0 79 3 147 8 151 4 4 9 -61 12 -144 5 -148 6 -152 31 -174z m277
152 c-2 -66 -6 -83 -18 -83 -12 0 -16 16 -18 69 -3 79 1 96 23 96 13 0 15 -13
13 -82z m-624 -10 c33 -46 5 -108 -48 -108 -27 0 -66 42 -66 71 0 52 85 79
114 37z m1317 12 c24 -14 26 -76 2 -102 -36 -40 -103 -6 -103 51 0 48 54 75
101 51z m-1184 -87 c38 -31 72 -59 77 -64 4 -4 6 -13 4 -19 -4 -12 -145 99
-161 126 -17 29 15 12 80 -43z m1033 39 c0 -11 -137 -122 -151 -122 -20 0 -4
18 66 74 68 55 85 64 85 48z m-681 -85 c8 -10 7 -17 -1 -25 -26 -26 -60 -4
-38 23 15 18 24 19 39 2z m-797 -93 c51 -31 108 -65 125 -77 33 -22 42 -37 23
-37 -10 0 -260 159 -260 166 0 12 28 -1 112 -52z m1288 42 c0 -7 -43 -46 -95
-85 l-95 -73 0 -228 0 -228 101 -94 c56 -52 114 -115 129 -142 l29 -49 -45
-81 c-47 -87 -51 -89 -116 -62 -35 15 -37 20 -73 133 -20 65 -50 157 -66 204
-29 85 -29 89 -29 317 l0 230 24 6 c13 3 70 42 127 86 57 44 105 80 107 80 1
0 2 -6 2 -14z m634 -15 c-37 -34 -209 -141 -226 -141 -23 0 27 38 136 104 60
36 111 66 115 66 3 0 -8 -13 -25 -29z m-1281 -33 c90 -74 112 -90 149 -108
l33 -15 3 -195 c3 -215 3 -212 -63 -425 -74 -237 -72 -232 -116 -249 -22 -9
-45 -16 -52 -16 -7 0 -32 36 -56 80 l-42 79 21 41 c12 23 70 89 131 147 l109
106 0 217 0 217 -100 78 c-92 72 -115 95 -91 95 5 0 38 -24 74 -52z m948 -44
c9 -11 10 -20 2 -32 -13 -22 -43 -22 -56 -1 -24 38 25 68 54 33z m-1243 -146
c81 -45 163 -92 182 -106 68 -47 -10 -16 -161 64 -176 94 -189 102 -189 114 0
19 23 9 168 -72z m1312 58 c-28 -26 -368 -201 -376 -194 -5 6 145 96 276 167
76 41 130 56 100 27z m-690 -433 l30 -34 0 -137 c0 -148 3 -162 94 -444 57
-179 25 -121 -44 80 l-65 187 -3 155 c-3 141 -6 157 -25 178 -26 28 -29 28
-61 -4 -26 -26 -26 -28 -26 -171 l0 -144 -45 -133 c-63 -186 -104 -294 -104
-276 -1 18 25 107 39 135 5 11 26 72 47 135 34 109 37 124 41 277 l4 161 34
33 c31 30 34 38 34 95 0 96 15 112 18 20 3 -72 6 -83 32 -113z m-322 159 c2
-7 -5 -12 -15 -12 -16 0 -173 -100 -252 -161 -14 -11 -69 -47 -121 -81 -52
-33 -120 -80 -151 -104 -57 -45 -89 -55 -89 -29 0 8 7 15 16 15 8 0 60 33 115
73 135 97 151 107 174 107 11 0 47 23 80 52 111 95 208 160 229 154 6 -1 12
-8 14 -14z m647 -25 c86 -56 145 -101 145 -109 0 -4 -42 22 -94 57 -52 36 -99
65 -105 65 -5 0 -13 5 -16 10 -13 20 22 9 70 -23z m-1865 -200 l0 -112 55 -70
c97 -123 115 -148 115 -157 0 -17 -27 7 -82 72 -120 142 -118 139 -118 265 0
61 3 115 6 118 18 17 24 -14 24 -116z m3020 -5 l0 -118 -86 -107 c-79 -98
-104 -122 -104 -98 0 5 27 41 61 81 110 132 113 138 106 233 -7 83 -2 127 14
127 5 0 9 -53 9 -118z m-2805 58 c4 -6 1 -18 -6 -26 -11 -13 -14 -13 -27 0 -8
8 -11 19 -8 25 9 14 33 14 41 1z m2600 -11 c0 -7 -8 -15 -17 -17 -18 -3 -25
18 -11 32 10 10 28 1 28 -15z m-638 -52 c23 -17 72 -54 108 -80 36 -27 63 -52
60 -57 -5 -7 -121 73 -210 145 -46 37 -7 30 42 -8z m548 -28 c0 -9 -11 -14
-30 -14 -16 0 -34 -3 -40 -6 -25 -15 -46 -18 -43 -8 4 13 88 49 103 45 6 -1
10 -9 10 -17z m-2416 -3 c21 -25 -9 -31 -32 -7 l-21 21 21 0 c11 0 26 -6 32
-14z m735 -55 c3 -5 -2 -48 -11 -95 l-17 -87 34 -81 c35 -86 34 -119 -3 -142
-15 -9 -21 -7 -32 8 -17 23 -3 48 24 44 21 -4 17 15 -20 104 l-31 72 17 73
c10 41 15 76 13 79 -5 4 -105 -35 -314 -124 l-71 -30 -54 20 c-30 11 -64 22
-77 25 -12 3 -25 9 -28 14 -10 16 43 9 101 -13 l56 -21 92 38 c173 72 302 124
309 125 4 0 9 -4 12 -9z m1130 -80 c93 -39 179 -71 190 -71 12 0 45 9 75 21
30 11 66 18 80 16 24 -3 24 -4 6 -11 -11 -4 -50 -19 -87 -33 l-67 -26 -193 80
c-146 61 -194 77 -196 66 -2 -8 4 -43 13 -77 l17 -63 -31 -74 c-33 -79 -38
-104 -19 -115 6 -4 8 -3 4 4 -10 16 10 24 23 8 14 -17 5 -43 -17 -48 -55 -15
-64 43 -22 137 33 74 34 88 9 191 -7 28 -9 58 -6 67 7 19 -13 26 221 -72z
m-1434 35 c0 -16 -18 -31 -27 -22 -8 8 5 36 17 36 5 0 10 -6 10 -14z m-147
-152 c12 -5 17 -17 16 -43 l-1 -36 -10 30 c-14 40 -15 41 -38 20 -21 -19 -47
-14 -57 11 -9 24 23 45 50 33 12 -5 30 -12 40 -15z m312 6 c4 -6 -30 -10 -94
-10 -61 0 -101 4 -101 10 0 6 38 10 94 10 53 0 98 -4 101 -10z m1599 -6 c7
-19 -10 -44 -30 -44 -16 0 -37 37 -29 50 10 16 52 11 59 -6z m-87 -26 c-3 -8
-6 -5 -6 6 -1 11 2 17 5 13 3 -3 4 -12 1 -19z m-2197 -34 c0 -8 8 -14 19 -14
27 0 38 -18 45 -82 8 -78 -8 -74 -20 5 -5 34 -13 62 -19 62 -5 0 -12 -25 -15
-55 -3 -30 -9 -48 -12 -40 -10 23 -15 149 -6 144 4 -3 8 -12 8 -20z m2572 -56
c-5 -86 -22 -107 -22 -28 0 38 -4 50 -15 50 -10 0 -15 -11 -16 -37 -1 -21 -5
-51 -9 -68 -6 -21 -8 -8 -7 45 2 73 3 75 28 78 18 2 29 11 33 25 10 38 13 14
8 -65z m-2012 17 c0 -8 6 -12 13 -9 9 3 13 -6 14 -34 1 -55 55 -156 90 -170
36 -14 135 -52 241 -92 45 -18 87 -40 92 -50 6 -10 10 -53 10 -94 0 -69 2 -78
30 -109 30 -35 30 -35 30 -161 0 -77 -4 -126 -10 -126 -6 0 -10 44 -10 113 0
110 -1 115 -31 161 -27 40 -32 58 -37 131 l-5 84 -104 40 c-57 23 -137 53
-178 67 l-73 26 -37 83 c-24 53 -44 85 -56 88 -19 5 -27 46 -12 60 12 12 33 7
33 -8z m1478 -12 c2 -15 -7 -29 -27 -44 -17 -13 -31 -28 -31 -35 0 -18 -49
-121 -63 -131 -7 -5 -46 -22 -87 -37 -253 -94 -265 -99 -268 -128 -5 -40 -22
-34 -22 7 0 40 -13 33 205 114 80 30 149 62 160 74 11 13 29 49 39 82 33 108
44 127 69 123 14 -2 23 -11 25 -25z m-1819 -7 c17 -20 -3 -56 -29 -56 -21 0
-37 40 -25 59 9 16 41 13 54 -3z m2179 -24 c3 -28 0 -32 -21 -32 -14 0 -27 7
-31 15 -4 12 -27 15 -115 15 -62 0 -112 4 -116 10 -4 6 36 10 114 10 73 0 122
4 126 11 14 21 40 4 43 -29z m-1928 18 c0 -5 -18 -10 -40 -10 -38 0 -40 -1
-30 -21 38 -70 -71 -126 -110 -57 -13 25 -13 31 4 62 l18 34 79 1 c48 1 79 -3
79 -9z m1171 -26 c9 -11 10 -20 2 -32 -13 -22 -43 -22 -56 -1 -24 38 25 68 54
33z m-254 -380 c1 -76 4 -199 8 -271 4 -89 3 -133 -4 -133 -6 0 -12 51 -15
128 -18 427 -18 424 -4 420 10 -4 13 -38 15 -144z m-607 52 c0 -42 4 -48 76
-117 42 -41 82 -86 90 -101 14 -28 20 -200 8 -232 -16 -41 -24 -5 -24 106 l0
123 -72 72 c-70 70 -74 73 -120 73 -27 0 -48 5 -48 10 0 6 14 10 30 10 29 0
30 1 30 50 0 38 4 50 15 50 11 0 15 -12 15 -44z m1032 -3 c3 -44 5 -48 31 -51
43 -5 21 -22 -29 -22 -44 0 -49 -3 -114 -72 l-69 -73 -1 -118 c0 -90 -3 -118
-12 -115 -9 3 -14 38 -16 118 l-3 113 91 90 c86 86 90 93 90 134 0 31 4 43 14
43 11 0 16 -14 18 -47z m-572 -292 c0 -96 -4 -162 -10 -166 -7 -4 -10 52 -10
159 0 104 4 166 10 166 6 0 10 -60 10 -159z m94 76 c0 -9 -1 -58 -2 -109 -1
-50 -5 -89 -8 -85 -8 8 -24 199 -17 210 8 13 28 2 27 -16z m539 -9 c-2 -13 -9
-32 -14 -43 -5 -11 -10 -60 -11 -110 -2 -71 -6 -90 -18 -93 -14 -2 -15 12 -12
100 2 57 8 105 13 106 5 2 9 14 9 27 0 21 10 32 32 34 3 1 4 -9 1 -21z m-1149
-4 c3 -9 6 -52 6 -95 0 -44 5 -90 11 -101 15 -27 -4 -48 -29 -32 -14 9 -18 31
-22 120 -5 101 -1 123 21 124 4 0 10 -7 13 -16z m115 -271 c23 -80 2 -173 -38
-173 -28 0 -41 29 -41 95 0 103 57 159 79 78z m945 29 c2 -4 10 -35 17 -69 11
-55 11 -67 -4 -98 -19 -39 -32 -43 -59 -18 -14 13 -18 31 -18 85 0 38 5 78 10
89 11 19 44 26 54 11z m-261 -48 c33 -32 41 -75 34 -169 -5 -72 -33 -152 -63
-186 -12 -13 -14 -39 -12 -122 3 -100 -3 -130 -19 -113 -4 4 -6 52 -5 108 1
68 -2 105 -10 115 -9 11 -12 65 -13 183 0 151 2 170 19 189 25 27 38 27 69 -5z
m144 -1 c26 -40 25 -192 -1 -251 -11 -23 -24 -41 -30 -39 -20 6 -55 87 -62
143 -6 55 8 137 28 161 17 21 46 15 65 -14z"/>
<path d="M8384 6055 c-25 -25 -25 -27 -8 -46 33 -37 93 -14 79 31 -3 11 -15
25 -26 30 -15 9 -24 6 -45 -15z"/>
<path d="M9360 6055 c-10 -12 -10 -21 -2 -40 21 -45 77 -23 70 27 -4 28 -48
37 -68 13z"/>
<path d="M8396 5747 c-38 -27 2 -95 42 -71 24 16 28 55 6 71 -10 7 -21 13 -24
13 -3 0 -14 -6 -24 -13z"/>
<path d="M9378 5749 c-34 -19 -16 -79 23 -79 19 0 49 25 49 41 0 11 -37 49
-47 49 -5 0 -16 -5 -25 -11z"/>
<path d="M9625 4200 c-3 -5 -1 -10 4 -10 6 0 11 5 11 10 0 6 -2 10 -4 10 -3 0
-8 -4 -11 -10z"/>
<path d="M8025 7509 c-44 -33 -63 -63 -24 -38 13 9 36 24 52 34 25 16 37 36
20 34 -5 0 -26 -14 -48 -30z"/>
<path d="M9730 7536 c0 -2 23 -20 50 -40 28 -20 50 -30 50 -23 -1 20 -100 83
-100 63z"/>
<path d="M9025 7351 c-3 -5 -1 -12 5 -16 5 -3 10 1 10 9 0 18 -6 21 -15 7z"/>
<path d="M7477 7114 c-4 -4 0 -18 8 -31 19 -28 12 -45 -46 -115 -42 -50 -46
-58 -26 -58 6 0 33 29 58 63 39 51 47 69 45 102 -1 38 -20 57 -39 39z"/>
<path d="M10303 7091 c3 -15 1 -33 -4 -38 -12 -12 88 -143 109 -143 16 0 10
10 -33 65 -51 63 -56 78 -39 103 18 26 11 42 -18 42 -17 0 -20 -5 -15 -29z"/>
<path d="M7178 6733 c28 -33 58 -66 67 -73 20 -17 19 -59 -5 -182 -22 -112
-25 -158 -11 -142 5 5 18 65 30 134 12 69 25 135 28 147 4 17 -11 38 -64 95
-82 88 -118 104 -45 21z"/>
<path d="M10596 6714 c-59 -63 -68 -77 -63 -101 5 -28 46 -266 47 -270 0 -2 6
-3 13 -3 13 0 11 15 -37 263 -5 23 4 38 59 98 60 65 77 91 58 88 -5 -1 -39
-34 -77 -75z"/>
<path d="M10243 6601 l-183 -177 0 -490 0 -490 60 -59 60 -59 35 17 c50 24 54
21 17 -10 l-32 -28 84 -72 c47 -40 87 -73 90 -73 3 0 6 91 6 203 l1 202 82 65
82 65 -3 130 c-6 262 -12 350 -22 350 -6 0 -11 -57 -13 -153 l-3 -152 -89 -90
-90 -90 0 -85 0 -84 -40 -41 c-39 -40 -59 -49 -70 -30 -3 5 14 24 40 42 l45
32 0 96 0 96 85 78 85 77 0 155 0 154 -25 0 c-23 0 -25 -3 -25 -50 l0 -50 -40
0 -40 0 0 -82 c0 -80 -11 -121 -26 -105 -5 4 -8 54 -8 110 l-1 102 38 3 37 3
0 48 c0 54 12 71 51 71 22 0 28 5 33 34 7 36 28 60 64 70 12 4 22 13 22 19 0
7 -13 73 -29 147 -34 151 -71 272 -86 276 -5 2 -92 -77 -192 -175z m103 -762
c9 -16 -12 -33 -31 -25 -14 5 -15 9 -5 21 15 18 26 19 36 4z"/>
<path d="M7263 6283 c-22 -8 -15 -51 8 -58 31 -10 55 16 40 44 -12 21 -24 24
-48 14z"/>
<path d="M10510 6275 c-18 -21 -5 -45 24 -45 30 0 40 13 31 40 -7 24 -37 26
-55 5z"/>
<path d="M10944 5532 c-16 -2 -23 -12 -28 -40 -8 -48 -8 -1335 0 -1356 6 -14
78 -16 715 -16 l709 0 0 55 0 55 -652 2 -653 3 -5 645 -5 644 -30 6 c-16 3
-40 4 -51 2z"/>
<path d="M14710 5481 c0 -35 4 -51 16 -55 9 -3 252 -6 541 -6 576 0 594 -2
664 -59 19 -16 47 -52 63 -81 24 -45 28 -63 28 -130 0 -52 -6 -88 -17 -109
-25 -49 -84 -110 -129 -134 -41 -22 -48 -22 -603 -25 l-563 -3 0 -54 0 -54
563 -3 c560 -3 562 -3 602 -25 57 -32 79 -53 114 -108 28 -44 31 -57 31 -127
0 -59 -5 -89 -21 -123 -25 -53 -97 -120 -148 -137 -26 -9 -185 -13 -589 -16
l-553 -3 3 -52 3 -52 545 -3 c355 -1 562 1 595 8 95 20 200 108 252 210 26 50
28 64 27 160 0 95 -3 110 -28 159 -16 30 -53 80 -82 111 l-54 57 52 55 c29 30
67 81 83 114 27 53 29 68 30 159 0 94 -2 103 -33 160 -39 72 -74 112 -133 152
-94 64 -86 63 -701 63 l-558 0 0 -49z"/>
<path d="M55 5494 c-10 -11 -15 -29 -13 -53 3 -31 7 -37 33 -42 17 -4 164 -7
328 -8 l297 -1 0 -637 c0 -351 4 -644 9 -651 5 -9 25 -12 57 -10 l49 3 5 645
5 645 325 5 c179 4 326 7 328 8 1 1 2 24 2 51 0 35 -4 51 -16 55 -9 3 -325 6
-704 6 -622 0 -690 -2 -705 -16z"/>
<path d="M2418 5490 c-272 -57 -498 -275 -554 -535 -27 -125 -12 -306 35 -425
88 -217 319 -401 541 -430 53 -7 228 -10 460 -8 l375 3 3 48 c2 32 -1 49 -10
51 -7 3 -184 7 -393 11 -209 3 -407 9 -440 14 -162 25 -334 157 -409 316 -43
90 -43 89 -56 185 -34 246 95 496 312 607 115 59 94 57 551 63 468 6 447 2
447 66 0 16 -5 35 -12 42 -9 9 -108 12 -387 11 -325 0 -388 -3 -463 -19z"/>
<path d="M4295 5503 c-221 -28 -407 -139 -527 -316 -67 -99 -89 -158 -113
-306 -13 -77 -12 -95 6 -199 16 -97 27 -129 66 -205 27 -49 74 -118 106 -153
105 -114 267 -205 401 -223 81 -12 802 -16 830 -5 17 7 24 88 8 98 -4 3 -178
7 -385 10 -427 6 -458 8 -546 42 -173 67 -315 227 -357 404 -17 71 -17 229 0
300 38 158 157 305 307 379 46 23 108 46 138 51 29 6 222 10 427 10 218 0 383
4 398 10 22 8 26 16 26 48 0 21 -5 43 -12 50 -9 9 -105 12 -377 11 -202 -1
-379 -4 -396 -6z"/>
<path d="M5482 5498 c-9 -9 -12 -179 -12 -704 0 -771 -7 -704 71 -704 21 0 40
1 41 3 1 1 4 146 8 322 l5 320 575 3 c316 1 585 0 597 -3 l23 -5 2 -318 3
-317 49 0 c48 0 50 1 58 34 5 18 8 332 6 698 -3 722 0 683 -58 683 -56 0 -55
6 -60 -332 l-5 -312 -35 -8 c-43 -9 -1035 -9 -1105 0 l-50 7 -5 310 c-3 171
-9 316 -13 323 -10 15 -79 16 -95 0z"/>
<path d="M13491 5441 c-22 -38 -41 -72 -41 -75 0 -3 -25 -46 -55 -97 -30 -50
-55 -93 -55 -94 0 -1 -25 -47 -56 -101 -31 -55 -70 -124 -87 -154 -16 -30 -33
-59 -37 -65 -4 -5 -19 -30 -32 -55 -14 -25 -43 -76 -65 -115 -22 -38 -51 -90
-65 -115 -14 -25 -43 -74 -63 -110 -109 -188 -183 -325 -179 -332 8 -13 109
-9 126 5 9 6 27 32 41 57 13 25 42 77 64 115 22 39 51 90 65 115 42 74 68 122
108 190 20 36 48 85 62 110 50 89 81 145 111 194 16 28 46 80 65 116 52 95 54
99 97 173 22 37 44 67 50 67 6 0 26 -28 45 -62 18 -35 96 -173 173 -308 77
-135 151 -265 165 -290 13 -25 48 -88 78 -140 30 -52 60 -103 65 -114 6 -10
20 -35 32 -55 11 -20 27 -49 35 -66 9 -16 28 -49 44 -72 29 -43 30 -43 88 -43
48 0 60 3 60 16 0 8 -26 59 -57 112 -31 53 -67 115 -78 137 -41 78 -98 180
-105 190 -10 13 -76 128 -154 268 -24 44 -213 376 -249 437 -11 19 -39 69 -62
110 -56 103 -68 120 -81 120 -7 0 -30 -31 -53 -69z"/>
<path d="M7254 5196 c40 -56 46 -71 46 -114 0 -49 -1 -51 -65 -107 -36 -32
-65 -62 -65 -67 0 -14 30 6 93 62 56 51 57 52 57 106 0 62 -8 80 -58 142 -53
65 -59 50 -8 -22z"/>
<path d="M10550 5212 c-29 -40 -35 -58 -40 -114 -3 -39 -1 -73 5 -80 15 -19
132 -118 139 -118 18 0 -1 22 -64 74 l-70 57 0 56 c0 52 4 62 46 115 25 32 39
58 32 57 -7 0 -29 -21 -48 -47z"/>
<path d="M2686 4859 c-56 -44 -21 -139 52 -139 75 0 110 83 57 135 -30 31 -73
32 -109 4z"/>
<path d="M7180 4275 c0 -30 5 -55 10 -55 6 0 10 25 10 55 0 30 -4 55 -10 55
-5 0 -10 -25 -10 -55z"/>
<path d="M10610 4270 c0 -27 5 -50 10 -50 6 0 10 23 10 50 0 28 -4 50 -10 50
-5 0 -10 -22 -10 -50z"/>
<path d="M7348 3911 c-19 -17 -47 -48 -62 -70 l-28 -40 43 -57 c23 -32 44 -53
47 -46 2 7 -13 33 -33 57 l-36 45 19 28 c29 40 54 60 82 64 17 2 25 9 25 22 0
31 -20 29 -57 -3z"/>
<path d="M10410 3930 c-23 -14 1 -45 35 -45 19 0 36 -11 56 -35 36 -43 36 -55
-1 -104 -32 -42 -40 -67 -15 -46 18 15 75 97 75 108 0 12 -115 132 -125 132
-6 0 -17 -5 -25 -10z"/>
<path d="M9760 3888 c0 -4 5 -19 10 -33 7 -18 7 -33 -1 -47 -16 -29 -4 -33 15
-4 15 24 15 27 -4 58 -11 18 -20 30 -20 26z"/>
<path d="M8042 3860 c-17 -28 -15 -44 8 -65 21 -19 21 -19 6 10 -11 21 -12 34
-5 48 14 25 6 31 -9 7z"/>
<path d="M7648 3576 c-30 -37 -33 -46 -19 -46 4 0 20 18 35 40 32 49 21 53
-16 6z"/>
<path d="M10130 3603 c1 -13 58 -78 64 -72 7 6 -44 79 -56 79 -4 0 -8 -3 -8
-7z"/>
<path d="M7550 3530 c0 -15 5 -20 18 -18 9 2 17 10 17 18 0 8 -8 16 -17 18
-13 2 -18 -3 -18 -18z"/>
<path d="M10226 3541 c-8 -12 21 -34 34 -26 17 11 11 35 -9 35 -11 0 -22 -4
-25 -9z"/>
<path d="M7651 3389 c-36 -38 -73 -69 -83 -69 -11 0 -18 -7 -18 -19 0 -40 23
-31 82 33 33 37 74 74 90 82 29 15 34 38 7 40 -8 1 -43 -29 -78 -67z"/>
<path d="M10080 3440 c0 -11 6 -20 13 -20 14 0 127 -107 143 -136 9 -16 14
-17 27 -6 20 17 12 39 -17 46 -12 3 -51 35 -85 71 -67 69 -81 77 -81 45z"/>
<path d="M7697 3264 c-4 -4 -7 -18 -7 -31 0 -20 5 -24 23 -21 16 2 22 10 22
28 0 24 -23 39 -38 24z"/>
<path d="M10084 3256 c-7 -19 12 -46 33 -46 14 0 -279 -324 -314 -347 -17 -11
-17 -12 4 -12 15 -1 57 37 141 127 193 206 190 202 188 247 -1 33 -5 41 -24
43 -13 2 -25 -3 -28 -12z"/>
<path d="M7690 3190 c0 -18 304 -340 321 -340 13 0 3 15 -33 53 -27 28 -100
107 -161 175 -104 115 -127 135 -127 112z"/>
<path d="M8900 3011 c0 -40 -9 -61 -26 -61 -12 0 -14 -57 -12 -367 l3 -368 34
-3 c20 -2 37 2 42 10 5 7 9 173 9 369 0 305 -2 358 -15 369 -8 7 -15 28 -15
46 0 19 -4 34 -10 34 -5 0 -10 -13 -10 -29z"/>
<path d="M7712 2825 c-29 -36 -47 -65 -40 -65 16 1 101 106 96 119 -1 6 -27
-19 -56 -54z"/>
<path d="M10050 2874 c0 -8 88 -115 95 -114 12 0 5 14 -36 66 -39 48 -59 65
-59 48z"/>
</g>
</svg>
